G04*
G04 #@! TF.GenerationSoftware,Altium Limited,Altium Designer,21.3.1 (25)*
G04*
G04 Layer_Color=32896*
%FSLAX25Y25*%
%MOIN*%
G70*
G04*
G04 #@! TF.SameCoordinates,9192AE54-2D66-49C7-9B86-A226D0D4A20B*
G04*
G04*
G04 #@! TF.FilePolarity,Positive*
G04*
G01*
G75*
%ADD11C,0.00787*%
%ADD42C,0.01000*%
G36*
X113453Y41145D02*
X113542Y41137D01*
X113625Y41123D01*
X113704Y41105D01*
X113779Y41086D01*
X113848Y41062D01*
X113912Y41038D01*
X113971Y41012D01*
X114024Y40988D01*
X114071Y40964D01*
X114111Y40939D01*
X114128Y40929D01*
X114144Y40919D01*
X114157Y40910D01*
X114171Y40901D01*
X114182Y40894D01*
X114190Y40889D01*
X114197Y40884D01*
X114202Y40881D01*
X114204Y40877D01*
X114206D01*
X114268Y40824D01*
X114325Y40765D01*
X114379Y40702D01*
X114427Y40638D01*
X114471Y40571D01*
X114509Y40505D01*
X114543Y40441D01*
X114574Y40377D01*
X114600Y40318D01*
X114623Y40263D01*
X114642Y40213D01*
X114650Y40190D01*
X114657Y40168D01*
X114664Y40150D01*
X114670Y40133D01*
X114673Y40118D01*
X114676Y40106D01*
X114680Y40097D01*
X114682Y40088D01*
X114683Y40085D01*
Y40083D01*
X114261Y39976D01*
X114244Y40048D01*
X114222Y40118D01*
X114199Y40182D01*
X114173Y40240D01*
X114145Y40296D01*
X114118Y40346D01*
X114090Y40391D01*
X114062Y40431D01*
X114035Y40467D01*
X114010Y40498D01*
X113988Y40524D01*
X113967Y40547D01*
X113952Y40562D01*
X113938Y40574D01*
X113931Y40583D01*
X113927Y40585D01*
X113881Y40621D01*
X113830Y40652D01*
X113780Y40680D01*
X113730Y40702D01*
X113680Y40723D01*
X113630Y40739D01*
X113581Y40753D01*
X113535Y40763D01*
X113491Y40772D01*
X113452Y40778D01*
X113417Y40782D01*
X113386Y40785D01*
X113362Y40787D01*
X113351Y40789D01*
X113327D01*
X113273Y40787D01*
X113220Y40782D01*
X113168Y40775D01*
X113119Y40765D01*
X113071Y40754D01*
X113026Y40740D01*
X112985Y40728D01*
X112946Y40713D01*
X112910Y40699D01*
X112879Y40685D01*
X112851Y40673D01*
X112827Y40663D01*
X112810Y40652D01*
X112796Y40645D01*
X112787Y40640D01*
X112784Y40638D01*
X112739Y40609D01*
X112697Y40576D01*
X112657Y40540D01*
X112621Y40503D01*
X112588Y40467D01*
X112557Y40429D01*
X112531Y40391D01*
X112507Y40355D01*
X112485Y40320D01*
X112466Y40289D01*
X112450Y40260D01*
X112438Y40235D01*
X112427Y40214D01*
X112420Y40199D01*
X112417Y40189D01*
X112415Y40185D01*
X112395Y40126D01*
X112377Y40067D01*
X112362Y40007D01*
X112348Y39945D01*
X112336Y39886D01*
X112327Y39827D01*
X112319Y39770D01*
X112313Y39715D01*
X112308Y39664D01*
X112305Y39619D01*
X112301Y39578D01*
X112299Y39542D01*
Y39528D01*
X112298Y39514D01*
Y39502D01*
Y39491D01*
Y39484D01*
Y39479D01*
Y39476D01*
Y39474D01*
X112299Y39415D01*
X112301Y39356D01*
X112306Y39299D01*
X112313Y39244D01*
X112320Y39192D01*
X112329Y39142D01*
X112338Y39094D01*
X112348Y39048D01*
X112356Y39009D01*
X112365Y38972D01*
X112374Y38939D01*
X112381Y38914D01*
X112388Y38891D01*
X112393Y38875D01*
X112395Y38865D01*
X112396Y38862D01*
X112417Y38808D01*
X112440Y38756D01*
X112466Y38708D01*
X112493Y38663D01*
X112521Y38619D01*
X112550Y38581D01*
X112580Y38545D01*
X112607Y38512D01*
X112635Y38484D01*
X112661Y38458D01*
X112683Y38438D01*
X112704Y38421D01*
X112720Y38407D01*
X112734Y38396D01*
X112741Y38389D01*
X112744Y38388D01*
X112793Y38357D01*
X112841Y38329D01*
X112893Y38306D01*
X112945Y38285D01*
X112997Y38268D01*
X113049Y38254D01*
X113097Y38242D01*
X113145Y38234D01*
X113189Y38227D01*
X113230Y38220D01*
X113267Y38216D01*
X113299Y38215D01*
X113324Y38213D01*
X113336Y38211D01*
X113360D01*
X113419Y38213D01*
X113474Y38218D01*
X113528Y38225D01*
X113578Y38235D01*
X113625Y38247D01*
X113668Y38261D01*
X113709Y38275D01*
X113746Y38291D01*
X113779Y38306D01*
X113808Y38320D01*
X113832Y38334D01*
X113853Y38346D01*
X113870Y38355D01*
X113881Y38363D01*
X113889Y38369D01*
X113891Y38370D01*
X113929Y38401D01*
X113965Y38438D01*
X113998Y38476D01*
X114031Y38516D01*
X114059Y38557D01*
X114085Y38600D01*
X114109Y38642D01*
X114131Y38683D01*
X114151Y38721D01*
X114166Y38758D01*
X114180Y38791D01*
X114192Y38820D01*
X114201Y38844D01*
X114208Y38862D01*
X114209Y38868D01*
X114211Y38874D01*
X114213Y38875D01*
Y38877D01*
X114630Y38779D01*
X114604Y38697D01*
X114573Y38623D01*
X114540Y38552D01*
X114505Y38486D01*
X114467Y38424D01*
X114429Y38369D01*
X114391Y38317D01*
X114355Y38270D01*
X114318Y38230D01*
X114286Y38194D01*
X114254Y38163D01*
X114228Y38138D01*
X114206Y38120D01*
X114189Y38106D01*
X114178Y38097D01*
X114176Y38094D01*
X114175D01*
X114112Y38050D01*
X114047Y38012D01*
X113979Y37981D01*
X113910Y37952D01*
X113843Y37929D01*
X113777Y37908D01*
X113711Y37893D01*
X113649Y37881D01*
X113592Y37870D01*
X113538Y37862D01*
X113490Y37857D01*
X113469Y37855D01*
X113448Y37853D01*
X113431Y37851D01*
X113401D01*
X113389Y37850D01*
X113369D01*
X113291Y37851D01*
X113215Y37858D01*
X113140Y37867D01*
X113069Y37879D01*
X113002Y37895D01*
X112938Y37910D01*
X112877Y37927D01*
X112824Y37945D01*
X112772Y37964D01*
X112727Y37981D01*
X112689Y37997D01*
X112656Y38012D01*
X112642Y38017D01*
X112628Y38024D01*
X112618Y38030D01*
X112609Y38033D01*
X112602Y38036D01*
X112597Y38040D01*
X112595Y38042D01*
X112593D01*
X112530Y38080D01*
X112469Y38121D01*
X112414Y38164D01*
X112360Y38211D01*
X112311Y38258D01*
X112268Y38305D01*
X112227Y38351D01*
X112190Y38396D01*
X112159Y38438D01*
X112132Y38478D01*
X112107Y38514D01*
X112087Y38545D01*
X112073Y38569D01*
X112066Y38580D01*
X112061Y38590D01*
X112057Y38597D01*
X112054Y38602D01*
X112052Y38604D01*
Y38606D01*
X112019Y38677D01*
X111990Y38749D01*
X111964Y38824D01*
X111941Y38898D01*
X111924Y38972D01*
X111908Y39045D01*
X111896Y39114D01*
X111886Y39180D01*
X111877Y39242D01*
X111872Y39299D01*
X111869Y39325D01*
X111867Y39349D01*
X111865Y39372D01*
Y39393D01*
X111864Y39410D01*
Y39427D01*
X111862Y39441D01*
Y39453D01*
Y39464D01*
Y39471D01*
Y39474D01*
Y39476D01*
X111864Y39561D01*
X111869Y39644D01*
X111877Y39725D01*
X111888Y39803D01*
X111901Y39877D01*
X111915Y39948D01*
X111929Y40014D01*
X111946Y40074D01*
X111962Y40132D01*
X111976Y40182D01*
X111992Y40225D01*
X111997Y40246D01*
X112004Y40263D01*
X112009Y40279D01*
X112014Y40292D01*
X112019Y40304D01*
X112023Y40315D01*
X112026Y40322D01*
X112028Y40327D01*
X112030Y40330D01*
Y40332D01*
X112062Y40405D01*
X112099Y40472D01*
X112138Y40536D01*
X112178Y40595D01*
X112220Y40649D01*
X112260Y40699D01*
X112301Y40744D01*
X112339Y40785D01*
X112377Y40820D01*
X112412Y40853D01*
X112443Y40879D01*
X112469Y40900D01*
X112492Y40917D01*
X112509Y40929D01*
X112519Y40938D01*
X112521Y40939D01*
X112523D01*
X112585Y40976D01*
X112652Y41009D01*
X112720Y41036D01*
X112791Y41061D01*
X112860Y41081D01*
X112931Y41097D01*
X112998Y41111D01*
X113064Y41123D01*
X113125Y41131D01*
X113182Y41138D01*
X113232Y41142D01*
X113254Y41144D01*
X113277Y41145D01*
X113296Y41147D01*
X113312D01*
X113327Y41149D01*
X113362D01*
X113453Y41145D01*
D02*
G37*
G36*
X116149Y41147D02*
X116230Y41138D01*
X116306Y41124D01*
X116381Y41105D01*
X116448Y41083D01*
X116512Y41059D01*
X116571Y41033D01*
X116623Y41005D01*
X116671Y40979D01*
X116713Y40953D01*
X116749Y40929D01*
X116778Y40907D01*
X116803Y40887D01*
X116820Y40874D01*
X116825Y40868D01*
X116830Y40865D01*
X116834Y40861D01*
X116861Y40834D01*
X116887Y40806D01*
X116934Y40747D01*
X116976Y40688D01*
X117010Y40628D01*
X117040Y40567D01*
X117064Y40509D01*
X117085Y40451D01*
X117100Y40398D01*
X117112Y40346D01*
X117123Y40299D01*
X117130Y40258D01*
X117133Y40221D01*
X117135Y40206D01*
X117137Y40192D01*
Y40180D01*
X117138Y40171D01*
Y40163D01*
Y40157D01*
Y40154D01*
Y40152D01*
X117137Y40095D01*
X117131Y40042D01*
X117124Y39990D01*
X117114Y39941D01*
X117102Y39896D01*
X117088Y39855D01*
X117074Y39815D01*
X117060Y39780D01*
X117045Y39747D01*
X117031Y39720D01*
X117017Y39696D01*
X117005Y39675D01*
X116995Y39659D01*
X116988Y39647D01*
X116982Y39640D01*
X116981Y39638D01*
X116950Y39602D01*
X116917Y39568D01*
X116882Y39536D01*
X116846Y39509D01*
X116809Y39484D01*
X116773Y39462D01*
X116737Y39443D01*
X116702Y39426D01*
X116669Y39410D01*
X116640Y39398D01*
X116612Y39388D01*
X116588Y39381D01*
X116569Y39374D01*
X116553Y39370D01*
X116545Y39367D01*
X116541D01*
X116581Y39348D01*
X116618Y39327D01*
X116652Y39305D01*
X116685Y39282D01*
X116714Y39259D01*
X116742Y39237D01*
X116766Y39215D01*
X116787Y39194D01*
X116806Y39175D01*
X116823Y39156D01*
X116837Y39138D01*
X116849Y39125D01*
X116858Y39112D01*
X116865Y39104D01*
X116868Y39099D01*
X116870Y39097D01*
X116889Y39064D01*
X116906Y39031D01*
X116922Y38998D01*
X116936Y38967D01*
X116946Y38934D01*
X116955Y38903D01*
X116962Y38874D01*
X116969Y38844D01*
X116974Y38818D01*
X116977Y38794D01*
X116979Y38773D01*
X116981Y38754D01*
X116982Y38741D01*
Y38728D01*
Y38721D01*
Y38720D01*
X116981Y38680D01*
X116977Y38640D01*
X116972Y38600D01*
X116964Y38564D01*
X116955Y38528D01*
X116946Y38493D01*
X116934Y38462D01*
X116924Y38433D01*
X116913Y38405D01*
X116903Y38381D01*
X116893Y38360D01*
X116884Y38341D01*
X116875Y38327D01*
X116870Y38317D01*
X116867Y38310D01*
X116865Y38308D01*
X116842Y38273D01*
X116816Y38239D01*
X116790Y38208D01*
X116763Y38178D01*
X116735Y38152D01*
X116708Y38126D01*
X116680Y38104D01*
X116654Y38083D01*
X116628Y38064D01*
X116605Y38048D01*
X116585Y38035D01*
X116566Y38024D01*
X116550Y38016D01*
X116540Y38009D01*
X116531Y38005D01*
X116529Y38004D01*
X116488Y37984D01*
X116446Y37967D01*
X116403Y37952D01*
X116361Y37938D01*
X116320Y37927D01*
X116280Y37919D01*
X116242Y37912D01*
X116206Y37905D01*
X116173Y37900D01*
X116144Y37896D01*
X116116Y37895D01*
X116093Y37893D01*
X116074Y37891D01*
X116048D01*
X115979Y37893D01*
X115912Y37900D01*
X115849Y37912D01*
X115789Y37924D01*
X115734Y37941D01*
X115682Y37960D01*
X115633Y37979D01*
X115588Y37998D01*
X115550Y38019D01*
X115514Y38038D01*
X115484Y38057D01*
X115460Y38073D01*
X115439Y38087D01*
X115426Y38099D01*
X115417Y38106D01*
X115413Y38107D01*
X115368Y38151D01*
X115327Y38196D01*
X115289Y38244D01*
X115254Y38294D01*
X115225Y38344D01*
X115199Y38396D01*
X115175Y38445D01*
X115154Y38493D01*
X115137Y38540D01*
X115123Y38581D01*
X115111Y38619D01*
X115102Y38652D01*
X115095Y38680D01*
X115092Y38692D01*
X115090Y38701D01*
X115088Y38708D01*
Y38713D01*
X115086Y38716D01*
Y38718D01*
X115479Y38787D01*
X115488Y38735D01*
X115500Y38687D01*
X115514Y38640D01*
X115528Y38599D01*
X115543Y38561D01*
X115560Y38524D01*
X115576Y38493D01*
X115593Y38464D01*
X115609Y38440D01*
X115624Y38417D01*
X115638Y38398D01*
X115650Y38384D01*
X115661Y38372D01*
X115668Y38363D01*
X115673Y38358D01*
X115675Y38357D01*
X115704Y38331D01*
X115735Y38310D01*
X115766Y38289D01*
X115799Y38273D01*
X115830Y38260D01*
X115863Y38247D01*
X115893Y38239D01*
X115924Y38230D01*
X115952Y38225D01*
X115976Y38220D01*
X115998Y38218D01*
X116019Y38215D01*
X116034D01*
X116047Y38213D01*
X116057D01*
X116098Y38215D01*
X116140Y38218D01*
X116176Y38227D01*
X116213Y38235D01*
X116246Y38246D01*
X116277Y38258D01*
X116306Y38270D01*
X116330Y38284D01*
X116355Y38298D01*
X116374Y38310D01*
X116391Y38322D01*
X116406Y38332D01*
X116417Y38341D01*
X116426Y38348D01*
X116431Y38353D01*
X116432Y38355D01*
X116458Y38382D01*
X116481Y38410D01*
X116500Y38440D01*
X116517Y38469D01*
X116531Y38500D01*
X116543Y38530D01*
X116553Y38557D01*
X116560Y38585D01*
X116567Y38611D01*
X116572Y38635D01*
X116574Y38658D01*
X116578Y38675D01*
Y38690D01*
X116579Y38701D01*
Y38709D01*
Y38711D01*
X116578Y38760D01*
X116571Y38806D01*
X116560Y38849D01*
X116548Y38889D01*
X116533Y38926D01*
X116515Y38958D01*
X116498Y38988D01*
X116479Y39014D01*
X116460Y39038D01*
X116443Y39059D01*
X116426Y39076D01*
X116410Y39090D01*
X116398Y39100D01*
X116387Y39107D01*
X116381Y39112D01*
X116379Y39114D01*
X116341Y39137D01*
X116303Y39158D01*
X116263Y39175D01*
X116223Y39190D01*
X116185Y39202D01*
X116147Y39213D01*
X116112Y39222D01*
X116078Y39228D01*
X116047Y39235D01*
X116017Y39239D01*
X115991Y39242D01*
X115971Y39244D01*
X115952D01*
X115938Y39246D01*
X115927D01*
X115908Y39244D01*
X115887Y39242D01*
X115879D01*
X115872Y39241D01*
X115865D01*
X115822Y39585D01*
X115881Y39571D01*
X115934Y39561D01*
X115958Y39555D01*
X115981Y39552D01*
X116003Y39548D01*
X116022Y39547D01*
X116040Y39545D01*
X116053Y39543D01*
X116067D01*
X116078Y39542D01*
X116098D01*
X116149Y39543D01*
X116195Y39548D01*
X116240Y39557D01*
X116284Y39569D01*
X116323Y39581D01*
X116360Y39597D01*
X116394Y39612D01*
X116424Y39628D01*
X116451Y39645D01*
X116476Y39661D01*
X116498Y39676D01*
X116515Y39689D01*
X116529Y39701D01*
X116538Y39709D01*
X116545Y39715D01*
X116547Y39716D01*
X116578Y39749D01*
X116605Y39785D01*
X116628Y39822D01*
X116649Y39860D01*
X116666Y39896D01*
X116680Y39934D01*
X116692Y39969D01*
X116700Y40003D01*
X116708Y40036D01*
X116714Y40066D01*
X116718Y40093D01*
X116720Y40116D01*
X116721Y40135D01*
X116723Y40149D01*
Y40157D01*
Y40161D01*
X116721Y40213D01*
X116714Y40263D01*
X116706Y40310D01*
X116694Y40355D01*
X116678Y40396D01*
X116663Y40436D01*
X116645Y40472D01*
X116628Y40505D01*
X116609Y40534D01*
X116592Y40560D01*
X116576Y40583D01*
X116560Y40602D01*
X116548Y40618D01*
X116540Y40628D01*
X116533Y40635D01*
X116531Y40637D01*
X116495Y40671D01*
X116457Y40701D01*
X116417Y40725D01*
X116379Y40747D01*
X116339Y40766D01*
X116301Y40782D01*
X116263Y40794D01*
X116226Y40804D01*
X116194Y40813D01*
X116163Y40818D01*
X116135Y40824D01*
X116112Y40825D01*
X116092Y40827D01*
X116078Y40829D01*
X116066D01*
X116022Y40827D01*
X115981Y40822D01*
X115943Y40815D01*
X115905Y40806D01*
X115870Y40794D01*
X115837Y40782D01*
X115808Y40768D01*
X115780Y40754D01*
X115756Y40742D01*
X115734Y40728D01*
X115715Y40716D01*
X115699Y40704D01*
X115687Y40695D01*
X115676Y40688D01*
X115671Y40683D01*
X115670Y40682D01*
X115640Y40652D01*
X115612Y40619D01*
X115588Y40583D01*
X115566Y40545D01*
X115545Y40505D01*
X115526Y40465D01*
X115509Y40426D01*
X115493Y40386D01*
X115481Y40349D01*
X115469Y40315D01*
X115460Y40282D01*
X115453Y40254D01*
X115446Y40232D01*
X115443Y40214D01*
X115441Y40209D01*
X115439Y40204D01*
Y40202D01*
Y40201D01*
X115048Y40253D01*
X115059Y40325D01*
X115073Y40394D01*
X115092Y40460D01*
X115114Y40522D01*
X115138Y40580D01*
X115164Y40633D01*
X115192Y40682D01*
X115220Y40727D01*
X115247Y40766D01*
X115273Y40801D01*
X115297Y40832D01*
X115320Y40856D01*
X115337Y40875D01*
X115351Y40889D01*
X115360Y40898D01*
X115363Y40901D01*
X115417Y40944D01*
X115474Y40983D01*
X115531Y41017D01*
X115590Y41045D01*
X115649Y41069D01*
X115708Y41090D01*
X115763Y41105D01*
X115816Y41119D01*
X115868Y41130D01*
X115915Y41137D01*
X115957Y41144D01*
X115993Y41147D01*
X116008D01*
X116022Y41149D01*
X116033D01*
X116043Y41150D01*
X116062D01*
X116149Y41147D01*
D02*
G37*
G36*
X230914Y96351D02*
X229997Y95434D01*
X230620Y94811D01*
X230660Y94766D01*
X230698Y94723D01*
X230733Y94680D01*
X230765Y94639D01*
X230796Y94598D01*
X230824Y94558D01*
X230850Y94517D01*
X230874Y94481D01*
X230895Y94443D01*
X230914Y94406D01*
X230931Y94372D01*
X230947Y94339D01*
X230962Y94307D01*
X230974Y94275D01*
X230985Y94245D01*
X230996Y94217D01*
X231004Y94190D01*
X231012Y94164D01*
X231018Y94141D01*
X231023Y94119D01*
X231027Y94098D01*
X231029Y94078D01*
X231032Y94061D01*
X231035Y94045D01*
X231037Y94032D01*
X231038Y94011D01*
Y93999D01*
Y93994D01*
X231032Y93924D01*
X231021Y93854D01*
X231005Y93790D01*
X230984Y93727D01*
X230960Y93669D01*
X230934Y93613D01*
X230907Y93562D01*
X230880Y93516D01*
X230852Y93473D01*
X230826Y93435D01*
X230801Y93402D01*
X230780Y93374D01*
X230769Y93363D01*
X230762Y93353D01*
X230753Y93344D01*
X230747Y93336D01*
X230742Y93331D01*
X230738Y93327D01*
X230736Y93325D01*
X230734Y93323D01*
X230703Y93294D01*
X230671Y93265D01*
X230638Y93239D01*
X230605Y93216D01*
X230573Y93194D01*
X230541Y93174D01*
X230512Y93157D01*
X230484Y93141D01*
X230458Y93128D01*
X230434Y93116D01*
X230413Y93107D01*
X230395Y93098D01*
X230379Y93092D01*
X230368Y93089D01*
X230361Y93085D01*
X230359D01*
X230320Y93073D01*
X230282Y93062D01*
X230245Y93054D01*
X230207Y93048D01*
X230173Y93043D01*
X230141Y93041D01*
X230110Y93038D01*
X230080D01*
X230054Y93040D01*
X230030D01*
X230009Y93041D01*
X229992Y93043D01*
X229978Y93045D01*
X229967Y93046D01*
X229961Y93047D01*
X229959D01*
X229922Y93054D01*
X229888Y93064D01*
X229819Y93089D01*
X229753Y93118D01*
X229723Y93132D01*
X229696Y93146D01*
X229669Y93161D01*
X229646Y93174D01*
X229625Y93188D01*
X229608Y93198D01*
X229593Y93207D01*
X229583Y93215D01*
X229577Y93218D01*
X229575Y93221D01*
X229548Y93240D01*
X229519Y93262D01*
X229489Y93287D01*
X229459Y93313D01*
X229398Y93364D01*
X229368Y93391D01*
X229340Y93417D01*
X229313Y93441D01*
X229267Y93487D01*
X229247Y93505D01*
X228358Y94394D01*
X230615Y96651D01*
X230914Y96351D01*
D02*
G37*
G36*
X233651Y93615D02*
X231385Y91349D01*
X231207Y91528D01*
X231219Y91569D01*
X231230Y91615D01*
X231239Y91660D01*
X231247Y91705D01*
X231256Y91797D01*
X231258Y91841D01*
X231262Y91884D01*
Y91923D01*
X231263Y91961D01*
Y91993D01*
X231262Y92021D01*
Y92043D01*
X231261Y92061D01*
X231262Y92072D01*
X231261Y92076D01*
X231256Y92137D01*
X231250Y92199D01*
X231241Y92259D01*
X231230Y92319D01*
X231220Y92378D01*
X231208Y92432D01*
X231196Y92486D01*
X231184Y92535D01*
X231171Y92581D01*
X231160Y92621D01*
X231148Y92658D01*
X231139Y92689D01*
X231132Y92713D01*
X231125Y92733D01*
X231124Y92739D01*
X231121Y92744D01*
Y92746D01*
X231120Y92747D01*
X231388Y93015D01*
X231418Y92945D01*
X231445Y92872D01*
X231471Y92800D01*
X231482Y92765D01*
X231493Y92731D01*
X231503Y92700D01*
X231511Y92672D01*
X231519Y92645D01*
X231526Y92623D01*
X231530Y92604D01*
X231533Y92591D01*
X231537Y92582D01*
Y92580D01*
X231548Y92532D01*
X231559Y92487D01*
X231569Y92443D01*
X231577Y92400D01*
X231583Y92360D01*
X231588Y92323D01*
X231593Y92289D01*
X231598Y92257D01*
X231601Y92227D01*
X231603Y92203D01*
X231604Y92180D01*
X231606Y92161D01*
X231608Y92147D01*
X231607Y92136D01*
X231608Y92130D01*
Y92127D01*
X233373Y93892D01*
X233651Y93615D01*
D02*
G37*
G36*
X120561Y61130D02*
X120644Y61125D01*
X120726Y61117D01*
X120804Y61106D01*
X120878Y61092D01*
X120949Y61079D01*
X121015Y61065D01*
X121075Y61047D01*
X121132Y61032D01*
X121183Y61018D01*
X121226Y61002D01*
X121247Y60997D01*
X121264Y60990D01*
X121279Y60985D01*
X121293Y60980D01*
X121305Y60975D01*
X121316Y60971D01*
X121323Y60968D01*
X121328Y60966D01*
X121331Y60964D01*
X121333D01*
X121406Y60931D01*
X121473Y60895D01*
X121537Y60855D01*
X121596Y60816D01*
X121650Y60774D01*
X121700Y60734D01*
X121745Y60693D01*
X121786Y60655D01*
X121821Y60617D01*
X121854Y60582D01*
X121880Y60551D01*
X121900Y60525D01*
X121918Y60502D01*
X121930Y60485D01*
X121939Y60475D01*
X121940Y60473D01*
Y60471D01*
X121976Y60409D01*
X122009Y60342D01*
X122037Y60274D01*
X122061Y60203D01*
X122082Y60134D01*
X122098Y60063D01*
X122111Y59996D01*
X122124Y59930D01*
X122132Y59869D01*
X122139Y59812D01*
X122143Y59762D01*
X122144Y59740D01*
X122146Y59717D01*
X122148Y59698D01*
Y59682D01*
X122150Y59667D01*
Y59632D01*
X122146Y59541D01*
X122137Y59452D01*
X122124Y59369D01*
X122106Y59290D01*
X122087Y59215D01*
X122063Y59146D01*
X122039Y59082D01*
X122013Y59023D01*
X121989Y58970D01*
X121964Y58923D01*
X121940Y58883D01*
X121930Y58866D01*
X121920Y58850D01*
X121911Y58837D01*
X121902Y58823D01*
X121895Y58812D01*
X121890Y58804D01*
X121885Y58797D01*
X121881Y58792D01*
X121878Y58790D01*
Y58788D01*
X121824Y58726D01*
X121765Y58669D01*
X121703Y58615D01*
X121639Y58567D01*
X121572Y58523D01*
X121506Y58485D01*
X121442Y58451D01*
X121378Y58420D01*
X121319Y58394D01*
X121264Y58371D01*
X121214Y58352D01*
X121191Y58343D01*
X121169Y58337D01*
X121151Y58330D01*
X121134Y58324D01*
X121118Y58321D01*
X121106Y58318D01*
X121098Y58314D01*
X121089Y58312D01*
X121086Y58311D01*
X121084D01*
X120977Y58733D01*
X121049Y58750D01*
X121118Y58772D01*
X121183Y58795D01*
X121241Y58821D01*
X121297Y58849D01*
X121347Y58876D01*
X121392Y58904D01*
X121432Y58932D01*
X121468Y58959D01*
X121499Y58983D01*
X121525Y59006D01*
X121547Y59027D01*
X121563Y59042D01*
X121575Y59056D01*
X121584Y59063D01*
X121586Y59067D01*
X121622Y59113D01*
X121653Y59163D01*
X121681Y59214D01*
X121703Y59264D01*
X121724Y59314D01*
X121739Y59364D01*
X121753Y59413D01*
X121764Y59459D01*
X121772Y59503D01*
X121779Y59542D01*
X121783Y59577D01*
X121786Y59608D01*
X121788Y59632D01*
X121790Y59643D01*
Y59667D01*
X121788Y59720D01*
X121783Y59774D01*
X121776Y59826D01*
X121765Y59874D01*
X121755Y59923D01*
X121741Y59968D01*
X121729Y60009D01*
X121714Y60048D01*
X121700Y60084D01*
X121686Y60115D01*
X121674Y60143D01*
X121663Y60167D01*
X121653Y60184D01*
X121646Y60198D01*
X121641Y60207D01*
X121639Y60210D01*
X121610Y60255D01*
X121577Y60297D01*
X121541Y60336D01*
X121504Y60373D01*
X121468Y60406D01*
X121430Y60437D01*
X121392Y60463D01*
X121355Y60487D01*
X121321Y60509D01*
X121290Y60528D01*
X121260Y60544D01*
X121236Y60556D01*
X121215Y60567D01*
X121200Y60573D01*
X121189Y60577D01*
X121186Y60579D01*
X121127Y60599D01*
X121068Y60617D01*
X121008Y60632D01*
X120946Y60646D01*
X120887Y60658D01*
X120828Y60667D01*
X120771Y60676D01*
X120715Y60681D01*
X120665Y60686D01*
X120620Y60689D01*
X120579Y60693D01*
X120542Y60694D01*
X120528D01*
X120515Y60696D01*
X120503D01*
X120492D01*
X120485D01*
X120480D01*
X120477D01*
X120475D01*
X120416Y60694D01*
X120357Y60693D01*
X120300Y60688D01*
X120245Y60681D01*
X120193Y60674D01*
X120143Y60665D01*
X120094Y60656D01*
X120049Y60646D01*
X120010Y60637D01*
X119973Y60629D01*
X119940Y60620D01*
X119914Y60613D01*
X119892Y60606D01*
X119876Y60601D01*
X119866Y60599D01*
X119862Y60598D01*
X119809Y60577D01*
X119757Y60554D01*
X119709Y60528D01*
X119664Y60501D01*
X119620Y60473D01*
X119582Y60444D01*
X119546Y60414D01*
X119513Y60387D01*
X119485Y60359D01*
X119459Y60333D01*
X119439Y60310D01*
X119421Y60290D01*
X119407Y60274D01*
X119397Y60260D01*
X119390Y60253D01*
X119388Y60250D01*
X119357Y60201D01*
X119330Y60153D01*
X119307Y60101D01*
X119286Y60049D01*
X119269Y59997D01*
X119255Y59945D01*
X119243Y59897D01*
X119235Y59848D01*
X119228Y59805D01*
X119221Y59764D01*
X119217Y59727D01*
X119216Y59695D01*
X119214Y59670D01*
X119212Y59658D01*
Y59634D01*
X119214Y59575D01*
X119219Y59520D01*
X119226Y59466D01*
X119236Y59416D01*
X119248Y59369D01*
X119262Y59326D01*
X119276Y59285D01*
X119292Y59248D01*
X119307Y59215D01*
X119321Y59186D01*
X119335Y59162D01*
X119347Y59141D01*
X119356Y59124D01*
X119364Y59113D01*
X119369Y59105D01*
X119371Y59103D01*
X119402Y59065D01*
X119439Y59029D01*
X119477Y58996D01*
X119517Y58963D01*
X119558Y58935D01*
X119601Y58909D01*
X119643Y58885D01*
X119684Y58862D01*
X119722Y58843D01*
X119759Y58828D01*
X119792Y58814D01*
X119821Y58802D01*
X119845Y58793D01*
X119862Y58786D01*
X119869Y58785D01*
X119875Y58783D01*
X119876Y58781D01*
X119878D01*
X119779Y58364D01*
X119698Y58390D01*
X119624Y58421D01*
X119553Y58454D01*
X119487Y58489D01*
X119425Y58527D01*
X119369Y58565D01*
X119317Y58603D01*
X119271Y58639D01*
X119231Y58676D01*
X119195Y58709D01*
X119164Y58740D01*
X119139Y58766D01*
X119120Y58788D01*
X119106Y58805D01*
X119098Y58816D01*
X119094Y58817D01*
Y58819D01*
X119051Y58881D01*
X119013Y58947D01*
X118982Y59015D01*
X118953Y59084D01*
X118930Y59151D01*
X118909Y59217D01*
X118894Y59283D01*
X118882Y59345D01*
X118871Y59402D01*
X118863Y59456D01*
X118857Y59504D01*
X118856Y59525D01*
X118854Y59546D01*
X118852Y59563D01*
Y59592D01*
X118850Y59605D01*
Y59625D01*
X118852Y59703D01*
X118859Y59779D01*
X118868Y59854D01*
X118880Y59925D01*
X118895Y59992D01*
X118911Y60056D01*
X118928Y60117D01*
X118946Y60170D01*
X118965Y60222D01*
X118982Y60267D01*
X118998Y60305D01*
X119013Y60338D01*
X119018Y60352D01*
X119025Y60366D01*
X119030Y60376D01*
X119034Y60385D01*
X119037Y60392D01*
X119041Y60397D01*
X119043Y60399D01*
Y60400D01*
X119080Y60464D01*
X119122Y60525D01*
X119165Y60580D01*
X119212Y60634D01*
X119259Y60682D01*
X119305Y60726D01*
X119352Y60767D01*
X119397Y60804D01*
X119439Y60835D01*
X119478Y60862D01*
X119515Y60887D01*
X119546Y60907D01*
X119570Y60921D01*
X119580Y60928D01*
X119591Y60933D01*
X119598Y60937D01*
X119603Y60940D01*
X119605Y60942D01*
X119606D01*
X119677Y60975D01*
X119750Y61004D01*
X119824Y61030D01*
X119899Y61053D01*
X119973Y61070D01*
X120046Y61085D01*
X120115Y61098D01*
X120181Y61108D01*
X120243Y61117D01*
X120300Y61122D01*
X120326Y61125D01*
X120350Y61127D01*
X120373Y61129D01*
X120394D01*
X120411Y61130D01*
X120428D01*
X120442Y61132D01*
X120454D01*
X120465D01*
X120472D01*
X120475D01*
X120477D01*
X120561Y61130D01*
D02*
G37*
G36*
X121333Y56691D02*
X122096D01*
Y56300D01*
X121333D01*
Y55868D01*
X120973D01*
Y56300D01*
X118904D01*
Y56620D01*
X120973Y58077D01*
X121333D01*
Y56691D01*
D02*
G37*
%LPC*%
G36*
X229730Y95167D02*
X228924Y94361D01*
X229538Y93747D01*
X229572Y93715D01*
X229604Y93683D01*
X229634Y93656D01*
X229661Y93634D01*
X229685Y93612D01*
X229706Y93594D01*
X229727Y93578D01*
X229743Y93564D01*
X229758Y93554D01*
X229771Y93544D01*
X229780Y93536D01*
X229788Y93532D01*
X229794Y93528D01*
X229798Y93527D01*
X229799Y93525D01*
X229828Y93511D01*
X229855Y93498D01*
X229884Y93489D01*
X229914Y93481D01*
X229939Y93475D01*
X229967Y93471D01*
X229993Y93468D01*
X230016Y93467D01*
X230038D01*
X230059Y93465D01*
X230078Y93467D01*
X230092Y93469D01*
X230105D01*
X230113Y93470D01*
X230119Y93471D01*
X230122D01*
X230153Y93479D01*
X230185Y93486D01*
X230215Y93498D01*
X230243Y93510D01*
X230271Y93523D01*
X230297Y93536D01*
X230343Y93566D01*
X230363Y93580D01*
X230381Y93594D01*
X230397Y93607D01*
X230410Y93618D01*
X230421Y93627D01*
X230429Y93634D01*
X230434Y93639D01*
X230435Y93640D01*
X230469Y93677D01*
X230500Y93715D01*
X230524Y93752D01*
X230545Y93790D01*
X230563Y93825D01*
X230578Y93862D01*
X230589Y93895D01*
X230599Y93927D01*
X230606Y93956D01*
X230611Y93983D01*
X230613Y94007D01*
X230616Y94027D01*
Y94044D01*
Y94056D01*
Y94064D01*
Y94066D01*
X230610Y94109D01*
X230599Y94154D01*
X230583Y94199D01*
X230563Y94243D01*
X230539Y94288D01*
X230514Y94329D01*
X230487Y94371D01*
X230459Y94411D01*
X230432Y94448D01*
X230405Y94480D01*
X230381Y94509D01*
X230359Y94536D01*
X230339Y94555D01*
X230333Y94564D01*
X229730Y95167D01*
D02*
G37*
G36*
X120973Y57691D02*
X119534Y56691D01*
X120973D01*
Y57691D01*
D02*
G37*
%LPD*%
D11*
X112039Y49347D02*
X119961D01*
X112039Y42654D02*
X119961D01*
D42*
X231844Y71017D02*
G03*
X231844Y71017I-54528J0D01*
G01*
X241486Y135186D02*
X244269Y137969D01*
X110643Y7127D02*
X113427Y4343D01*
X110643D02*
X113427Y7127D01*
X201439Y119971D02*
X217934Y136466D01*
X226271Y95139D02*
X242766Y111634D01*
X217934Y136466D02*
X221998Y132402D01*
X238702Y115698D02*
X242766Y111634D01*
X111868Y30400D02*
X128363Y46895D01*
X136700Y5568D02*
X153195Y22063D01*
X111868Y30400D02*
X115932Y26336D01*
X132636Y9632D02*
X136700Y5568D01*
M02*
