G04*
G04 #@! TF.GenerationSoftware,Altium Limited,Altium Designer,21.3.1 (25)*
G04*
G04 Layer_Physical_Order=2*
G04 Layer_Color=16711680*
%FSLAX25Y25*%
%MOIN*%
G70*
G04*
G04 #@! TF.SameCoordinates,9192AE54-2D66-49C7-9B86-A226D0D4A20B*
G04*
G04*
G04 #@! TF.FilePolarity,Positive*
G04*
G01*
G75*
%ADD16R,0.03347X0.03543*%
%ADD28R,0.02985X0.03197*%
%ADD42C,0.01000*%
%ADD46C,0.03000*%
%ADD47P,0.28284X4X270.0*%
G36*
X243998Y141742D02*
X245011Y141336D01*
X245925Y140740D01*
X246706Y139977D01*
X247322Y139076D01*
X247751Y138073D01*
X247976Y137005D01*
X247982Y136464D01*
X247995Y11304D01*
X247641Y10950D01*
X191900D01*
Y12650D01*
X158071Y12650D01*
Y-6980D01*
X153739D01*
X146541Y219D01*
X146540Y219D01*
X146540Y219D01*
X146373Y330D01*
X146210Y440D01*
X146210Y440D01*
X146209Y440D01*
X146011Y479D01*
X145820Y517D01*
X145819Y517D01*
X145819Y517D01*
X113169Y500D01*
X113162Y499D01*
X113156Y500D01*
X112603Y493D01*
X111516Y694D01*
X110489Y1104D01*
X109561Y1706D01*
X108769Y2477D01*
X108143Y3388D01*
X107706Y4404D01*
X107476Y5486D01*
X107469Y6032D01*
X107469Y117378D01*
X113516Y117387D01*
X113555D01*
X113555Y117387D01*
X113556D01*
X113710Y117418D01*
X113945Y117465D01*
X114431Y117666D01*
X114431Y117666D01*
X114761Y117887D01*
X115133Y118259D01*
X115232Y118407D01*
X119087D01*
X119158Y118301D01*
X119530Y117929D01*
X119861Y117708D01*
X120347Y117507D01*
X120737Y117429D01*
X121000Y117429D01*
X127613Y117429D01*
X127613Y117429D01*
X127622Y117430D01*
X127630Y117429D01*
X127886Y117433D01*
X128076Y117474D01*
X128267Y117513D01*
X128739Y117713D01*
X128900Y117822D01*
X129062Y117929D01*
X129425Y118291D01*
X129534Y118453D01*
X129643Y118613D01*
X129845Y119084D01*
X129886Y119274D01*
X129928Y119464D01*
X129933Y119716D01*
X129934Y119720D01*
X129934Y119734D01*
X129926Y119784D01*
X129928Y119797D01*
Y119833D01*
X129931Y119854D01*
X129929Y119868D01*
X129928Y119871D01*
X129928Y126263D01*
X129851Y126653D01*
X129851Y126653D01*
X129649Y127139D01*
X129649Y127139D01*
X129428Y127470D01*
X129056Y127842D01*
X128909Y127941D01*
Y132147D01*
X128991Y132202D01*
X129349Y132559D01*
X129570Y132890D01*
X129763Y133357D01*
X129763Y133357D01*
X129841Y133747D01*
X129841Y134000D01*
X129841Y141933D01*
X242368Y141937D01*
X242374Y141938D01*
X242379Y141937D01*
X242925Y141943D01*
X243998Y141742D01*
D02*
G37*
%LPC*%
G36*
X174940Y86255D02*
X174043Y86076D01*
X173282Y85568D01*
X172774Y84807D01*
X172595Y83910D01*
X172774Y83013D01*
X173282Y82252D01*
X173392Y82178D01*
X173441Y82119D01*
X173487Y82054D01*
X173525Y81990D01*
X173556Y81928D01*
X173580Y81866D01*
X173599Y81804D01*
X173612Y81739D01*
X173615Y81721D01*
Y79060D01*
X173715Y78553D01*
X174003Y78123D01*
X179515Y72611D01*
X179526Y72597D01*
X179562Y72541D01*
X179594Y72483D01*
X179620Y72423D01*
X179642Y72357D01*
X179660Y72285D01*
X179674Y72206D01*
X179681Y72130D01*
X179655Y72000D01*
X179833Y71103D01*
X180342Y70342D01*
X181103Y69833D01*
X182000Y69655D01*
X182897Y69833D01*
X183658Y70342D01*
X184167Y71103D01*
X184345Y72000D01*
X184167Y72897D01*
X183658Y73658D01*
X182897Y74167D01*
X182000Y74345D01*
X181870Y74319D01*
X181794Y74326D01*
X181715Y74340D01*
X181643Y74358D01*
X181577Y74380D01*
X181517Y74407D01*
X181459Y74438D01*
X181403Y74474D01*
X181389Y74485D01*
X176266Y79609D01*
Y81721D01*
X176268Y81739D01*
X176281Y81804D01*
X176300Y81866D01*
X176324Y81928D01*
X176355Y81990D01*
X176393Y82054D01*
X176439Y82119D01*
X176488Y82178D01*
X176598Y82252D01*
X177106Y83013D01*
X177285Y83910D01*
X177106Y84807D01*
X176598Y85568D01*
X175837Y86076D01*
X174940Y86255D01*
D02*
G37*
G36*
X116000Y60345D02*
X115841Y60313D01*
X115841D01*
X115103Y60167D01*
X114572Y59812D01*
X114537Y59798D01*
X114537Y59798D01*
X114537Y59798D01*
X114505Y59784D01*
X114438Y59812D01*
X113907Y60167D01*
X113169Y60313D01*
X113169D01*
X113010Y60345D01*
X112850Y60313D01*
X112850D01*
X112112Y60167D01*
X111351Y59658D01*
X110843Y58897D01*
X110664Y58000D01*
X110843Y57103D01*
X111351Y56342D01*
X111461Y56268D01*
X111510Y56209D01*
X111557Y56144D01*
X111595Y56081D01*
X111599Y56072D01*
X111516Y55820D01*
X111470Y55737D01*
X111426Y55683D01*
X111326Y55596D01*
X111289Y55572D01*
X110968D01*
Y50428D01*
X111865D01*
X111932Y50415D01*
X111945Y50348D01*
Y48399D01*
X111239D01*
Y43601D01*
X112206D01*
Y28736D01*
X112307Y28229D01*
X112594Y27799D01*
X115710Y24683D01*
X109011Y17984D01*
X113315Y13680D01*
X111611Y11975D01*
X111597Y11965D01*
X111541Y11928D01*
X111484Y11897D01*
X111423Y11870D01*
X111357Y11848D01*
X111285Y11830D01*
X111206Y11817D01*
X111130Y11810D01*
X111000Y11835D01*
X110103Y11657D01*
X109342Y11149D01*
X108833Y10388D01*
X108655Y9490D01*
X108833Y8593D01*
X109342Y7832D01*
X110103Y7324D01*
X111000Y7145D01*
X111897Y7324D01*
X112658Y7832D01*
X113167Y8593D01*
X113345Y9490D01*
X113319Y9620D01*
X113326Y9697D01*
X113340Y9775D01*
X113358Y9847D01*
X113380Y9913D01*
X113407Y9974D01*
X113438Y10031D01*
X113474Y10087D01*
X113485Y10101D01*
X115189Y11805D01*
X124284Y2710D01*
X139558Y17984D01*
X124284Y33257D01*
X117585Y26558D01*
X114857Y29285D01*
Y43601D01*
X115824D01*
Y48399D01*
X114596D01*
Y50348D01*
X114609Y50415D01*
X114676Y50428D01*
X115914D01*
Y55252D01*
X115929Y55326D01*
X115970Y55388D01*
X116072Y55470D01*
X116135Y55514D01*
X116328Y55628D01*
X116410Y55670D01*
X116640Y55769D01*
X116720Y55798D01*
X116897Y55834D01*
X117658Y56342D01*
X118167Y57103D01*
X118313Y57841D01*
Y57841D01*
X118345Y58000D01*
X118167Y58897D01*
X117658Y59658D01*
X116897Y60167D01*
X116159Y60313D01*
X116159D01*
X116000Y60345D01*
D02*
G37*
G36*
X190000Y56345D02*
X189103Y56166D01*
X188342Y55658D01*
X188250Y55521D01*
X187750D01*
X187658Y55658D01*
X186897Y56166D01*
X186000Y56345D01*
X185103Y56166D01*
X184342Y55658D01*
X183833Y54897D01*
X183655Y54000D01*
X183833Y53103D01*
X184342Y52342D01*
X184452Y52268D01*
X184501Y52209D01*
X184547Y52144D01*
X184585Y52081D01*
X184616Y52018D01*
X184640Y51956D01*
X184659Y51894D01*
X184672Y51828D01*
X184675Y51811D01*
Y45495D01*
X184242Y45182D01*
X183937Y45386D01*
X183039Y45565D01*
X182142Y45386D01*
X181381Y44878D01*
X180873Y44117D01*
X180694Y43220D01*
X180722Y43082D01*
X180297Y42656D01*
X179750Y42765D01*
X178853Y42586D01*
X178092Y42078D01*
X177583Y41317D01*
X177405Y40420D01*
X177583Y39523D01*
X178092Y38762D01*
X178853Y38253D01*
X179750Y38075D01*
X180647Y38253D01*
X181408Y38762D01*
X181482Y38872D01*
X181541Y38921D01*
X181606Y38967D01*
X181669Y39005D01*
X181732Y39036D01*
X181794Y39060D01*
X181856Y39079D01*
X181922Y39092D01*
X181939Y39094D01*
X184199D01*
X184706Y39195D01*
X185136Y39483D01*
X186059Y40405D01*
X186059Y40405D01*
X190937Y45284D01*
X191225Y45714D01*
X191325Y46221D01*
Y51811D01*
X191328Y51828D01*
X191341Y51894D01*
X191360Y51956D01*
X191384Y52018D01*
X191415Y52081D01*
X191453Y52144D01*
X191499Y52209D01*
X191548Y52268D01*
X191658Y52342D01*
X192167Y53103D01*
X192345Y54000D01*
X192167Y54897D01*
X191658Y55658D01*
X190897Y56166D01*
X190000Y56345D01*
D02*
G37*
%LPD*%
G36*
X175885Y82729D02*
X175792Y82617D01*
X175709Y82500D01*
X175638Y82381D01*
X175577Y82258D01*
X175528Y82133D01*
X175489Y82003D01*
X175462Y81871D01*
X175445Y81735D01*
X175440Y81596D01*
X174440D01*
X174434Y81735D01*
X174418Y81871D01*
X174390Y82003D01*
X174352Y82133D01*
X174302Y82258D01*
X174242Y82381D01*
X174170Y82500D01*
X174088Y82617D01*
X173995Y82729D01*
X173890Y82839D01*
X175990D01*
X175885Y82729D01*
D02*
G37*
G36*
X180819Y73896D02*
X180927Y73811D01*
X181040Y73737D01*
X181159Y73673D01*
X181283Y73619D01*
X181412Y73575D01*
X181547Y73541D01*
X181688Y73517D01*
X181834Y73503D01*
X181985Y73500D01*
X180500Y72015D01*
X180497Y72166D01*
X180483Y72312D01*
X180459Y72453D01*
X180425Y72588D01*
X180381Y72717D01*
X180327Y72841D01*
X180263Y72960D01*
X180189Y73073D01*
X180104Y73181D01*
X180010Y73283D01*
X180717Y73990D01*
X180819Y73896D01*
D02*
G37*
G36*
X116579Y59398D02*
X116647Y59353D01*
X117353Y58647D01*
X117398Y58579D01*
X117513Y58000D01*
X117398Y57421D01*
X117070Y56930D01*
X116579Y56602D01*
X116483Y56583D01*
X116486Y56581D01*
X116340Y56528D01*
X116064Y56409D01*
X115935Y56344D01*
X115694Y56201D01*
X115582Y56123D01*
X115422Y55994D01*
X115337Y55909D01*
X115161Y55644D01*
X115099Y55332D01*
X115099Y55332D01*
Y51244D01*
X114596D01*
X114284Y51182D01*
X114019Y51005D01*
X113842Y50740D01*
X113780Y50428D01*
Y50000D01*
X112761D01*
Y50428D01*
X112699Y50740D01*
X112522Y51005D01*
X112257Y51182D01*
X111945Y51244D01*
X111783D01*
Y54776D01*
X111996Y54818D01*
X112261Y54995D01*
X112438Y55260D01*
X112500Y55572D01*
Y55860D01*
X112488Y55961D01*
X112460Y56093D01*
X112422Y56222D01*
X112372Y56349D01*
X112312Y56471D01*
X112240Y56590D01*
X112158Y56707D01*
X112064Y56819D01*
X111992Y56895D01*
X111940Y56930D01*
X111611Y57421D01*
X111496Y58000D01*
X111611Y58579D01*
X111940Y59070D01*
X112430Y59398D01*
X113010Y59513D01*
X113589Y59398D01*
X114052Y59089D01*
X114346Y58967D01*
X114664D01*
X114849Y59044D01*
X114958Y59089D01*
X115421Y59398D01*
X116000Y59513D01*
X116579Y59398D01*
D02*
G37*
G36*
X113776Y48394D02*
X113791Y48222D01*
X113816Y48071D01*
X113850Y47939D01*
X113896Y47828D01*
X113951Y47737D01*
X114016Y47666D01*
X114091Y47615D01*
X114175Y47585D01*
X114271Y47575D01*
X112271D01*
X112366Y47585D01*
X112451Y47615D01*
X112525Y47666D01*
X112591Y47737D01*
X112646Y47828D01*
X112691Y47939D01*
X112725Y48071D01*
X112750Y48222D01*
X112766Y48394D01*
X112771Y48587D01*
X113771D01*
X113776Y48394D01*
D02*
G37*
G36*
X114436Y44403D02*
X114351Y44373D01*
X114277Y44323D01*
X114211Y44253D01*
X114156Y44163D01*
X114111Y44053D01*
X114076Y43923D01*
X114051Y43773D01*
X114037Y43603D01*
X114032Y43413D01*
X113031D01*
X113026Y43603D01*
X113012Y43773D01*
X112987Y43923D01*
X112952Y44053D01*
X112907Y44163D01*
X112852Y44253D01*
X112786Y44323D01*
X112712Y44373D01*
X112627Y44403D01*
X112531Y44413D01*
X114532D01*
X114436Y44403D01*
D02*
G37*
G36*
X117006Y25976D02*
X117137Y25867D01*
X117260Y25778D01*
X117377Y25711D01*
X117487Y25665D01*
X117589Y25640D01*
X117684Y25637D01*
X117773Y25655D01*
X117854Y25694D01*
X117929Y25754D01*
X116514Y24340D01*
X116574Y24414D01*
X116613Y24495D01*
X116631Y24583D01*
X116627Y24679D01*
X116603Y24781D01*
X116557Y24891D01*
X116490Y25008D01*
X116401Y25131D01*
X116292Y25262D01*
X116161Y25400D01*
X116868Y26107D01*
X117006Y25976D01*
D02*
G37*
G36*
X115542Y12618D02*
X115468Y12678D01*
X115386Y12717D01*
X115297Y12734D01*
X115201Y12730D01*
X115098Y12704D01*
X114987Y12657D01*
X114869Y12589D01*
X114744Y12499D01*
X114612Y12388D01*
X114473Y12256D01*
X113766Y12963D01*
X113898Y13103D01*
X114009Y13235D01*
X114099Y13360D01*
X114167Y13478D01*
X114214Y13588D01*
X114239Y13691D01*
X114243Y13788D01*
X114226Y13876D01*
X114188Y13958D01*
X114128Y14032D01*
X115542Y12618D01*
D02*
G37*
G36*
X112990Y10773D02*
X112896Y10671D01*
X112811Y10563D01*
X112737Y10450D01*
X112673Y10332D01*
X112619Y10207D01*
X112575Y10078D01*
X112541Y9943D01*
X112517Y9803D01*
X112503Y9657D01*
X112500Y9505D01*
X111015Y10990D01*
X111166Y10994D01*
X111312Y11007D01*
X111453Y11031D01*
X111588Y11065D01*
X111717Y11109D01*
X111841Y11163D01*
X111960Y11227D01*
X112073Y11302D01*
X112181Y11386D01*
X112283Y11480D01*
X112990Y10773D01*
D02*
G37*
G36*
X190945Y52819D02*
X190852Y52707D01*
X190770Y52591D01*
X190698Y52471D01*
X190638Y52349D01*
X190588Y52223D01*
X190550Y52093D01*
X190522Y51961D01*
X190506Y51825D01*
X190500Y51686D01*
X189500D01*
X189495Y51825D01*
X189478Y51961D01*
X189451Y52093D01*
X189412Y52223D01*
X189363Y52349D01*
X189302Y52471D01*
X189231Y52591D01*
X189148Y52707D01*
X189055Y52819D01*
X188950Y52929D01*
X191050D01*
X190945Y52819D01*
D02*
G37*
G36*
X186945D02*
X186852Y52707D01*
X186769Y52591D01*
X186698Y52471D01*
X186637Y52349D01*
X186588Y52223D01*
X186549Y52093D01*
X186522Y51961D01*
X186505Y51825D01*
X186500Y51686D01*
X185500D01*
X185494Y51825D01*
X185478Y51961D01*
X185450Y52093D01*
X185412Y52223D01*
X185363Y52349D01*
X185302Y52471D01*
X185231Y52591D01*
X185148Y52707D01*
X185055Y52819D01*
X184950Y52929D01*
X187050D01*
X186945Y52819D01*
D02*
G37*
G36*
X184901Y42990D02*
X184289Y42391D01*
X184029Y44347D01*
X184117Y44280D01*
X184207Y44232D01*
X184300Y44203D01*
X184396Y44193D01*
X184493Y44201D01*
X184594Y44228D01*
X184696Y44274D01*
X184801Y44338D01*
X184909Y44421D01*
X185019Y44523D01*
X184901Y42990D01*
D02*
G37*
G36*
X180931Y41366D02*
X181044Y41272D01*
X181159Y41190D01*
X181279Y41118D01*
X181402Y41058D01*
X181527Y41008D01*
X181657Y40969D01*
X181789Y40942D01*
X181925Y40925D01*
X182064Y40920D01*
Y39920D01*
X181925Y39915D01*
X181789Y39898D01*
X181657Y39871D01*
X181527Y39832D01*
X181402Y39783D01*
X181279Y39722D01*
X181159Y39650D01*
X181044Y39568D01*
X180931Y39474D01*
X180821Y39370D01*
Y41470D01*
X180931Y41366D01*
D02*
G37*
D16*
X113441Y53000D02*
D03*
X118559D02*
D03*
D28*
X113531Y46000D02*
D03*
X118468D02*
D03*
D42*
X174940Y79060D02*
X182000Y72000D01*
X174940Y79060D02*
Y83910D01*
X183731Y42528D02*
X186000Y44797D01*
Y54000D01*
X183039Y43220D02*
X183731Y42528D01*
X183039Y43220D02*
Y43220D01*
X184199Y40420D02*
X185121Y41342D01*
X179750Y40420D02*
X184199D01*
X185121Y41342D02*
X185122D01*
X190000Y46221D01*
X182000Y72000D02*
Y72000D01*
X119494Y17984D02*
X123505Y18988D01*
X111000Y9490D02*
X119494Y17984D01*
X113010Y53500D02*
Y58000D01*
Y54302D02*
X116000Y57293D01*
X113010Y53500D02*
Y54302D01*
X116000Y57293D02*
Y58000D01*
X190000Y46221D02*
Y54000D01*
X113271Y46261D02*
X113531Y46000D01*
X113271Y46261D02*
Y53239D01*
X113010Y53500D02*
X113271Y53239D01*
X123505Y18988D02*
X124284Y17984D01*
X113531Y28736D02*
X124284Y17984D01*
X113531Y28736D02*
Y46000D01*
D46*
X177862Y52835D02*
D03*
X156000Y56000D02*
D03*
X125000Y112000D02*
D03*
X164000Y109000D02*
D03*
X174940Y83910D02*
D03*
X181410Y61340D02*
D03*
X183039Y43220D02*
D03*
X186060Y37580D02*
D03*
X179750Y40420D02*
D03*
X193500Y98000D02*
D03*
X182000Y72000D02*
D03*
X155000Y49725D02*
D03*
X163990Y43426D02*
D03*
X111000Y9490D02*
D03*
X113010Y58000D02*
D03*
X116000D02*
D03*
X155000Y-3000D02*
D03*
Y2000D02*
D03*
Y7000D02*
D03*
Y12000D02*
D03*
X165000Y15000D02*
D03*
X179000D02*
D03*
X172000D02*
D03*
X195519Y11950D02*
D03*
Y27678D02*
D03*
X187008Y33977D02*
D03*
X187000Y24528D02*
D03*
X197414Y40276D02*
D03*
X206500Y43000D02*
D03*
X195700Y46221D02*
D03*
X148000Y136000D02*
D03*
X132000Y127102D02*
D03*
X190000Y54000D02*
D03*
X186000D02*
D03*
X116000Y3000D02*
D03*
X143000D02*
D03*
X133000D02*
D03*
X128000D02*
D03*
D47*
X124284Y17984D02*
D03*
X230350Y124050D02*
D03*
M02*
