G04*
G04 #@! TF.GenerationSoftware,Altium Limited,Altium Designer,21.3.1 (25)*
G04*
G04 Layer_Physical_Order=1*
G04 Layer_Color=255*
%FSLAX25Y25*%
%MOIN*%
G70*
G04*
G04 #@! TF.SameCoordinates,9192AE54-2D66-49C7-9B86-A226D0D4A20B*
G04*
G04*
G04 #@! TF.FilePolarity,Positive*
G04*
G01*
G75*
%ADD15R,0.02756X0.03347*%
%ADD16R,0.03347X0.03543*%
%ADD17R,0.03543X0.03347*%
%ADD18R,0.08300X0.05500*%
G04:AMPARAMS|DCode=19|XSize=10mil|YSize=10mil|CornerRadius=1.25mil|HoleSize=0mil|Usage=FLASHONLY|Rotation=180.000|XOffset=0mil|YOffset=0mil|HoleType=Round|Shape=RoundedRectangle|*
%AMROUNDEDRECTD19*
21,1,0.01000,0.00750,0,0,180.0*
21,1,0.00750,0.01000,0,0,180.0*
1,1,0.00250,-0.00375,0.00375*
1,1,0.00250,0.00375,0.00375*
1,1,0.00250,0.00375,-0.00375*
1,1,0.00250,-0.00375,-0.00375*
%
%ADD19ROUNDEDRECTD19*%
G04:AMPARAMS|DCode=20|XSize=10mil|YSize=10mil|CornerRadius=1.25mil|HoleSize=0mil|Usage=FLASHONLY|Rotation=90.000|XOffset=0mil|YOffset=0mil|HoleType=Round|Shape=RoundedRectangle|*
%AMROUNDEDRECTD20*
21,1,0.01000,0.00750,0,0,90.0*
21,1,0.00750,0.01000,0,0,90.0*
1,1,0.00250,0.00375,0.00375*
1,1,0.00250,0.00375,-0.00375*
1,1,0.00250,-0.00375,-0.00375*
1,1,0.00250,-0.00375,0.00375*
%
%ADD20ROUNDEDRECTD20*%
%ADD21R,0.02913X0.10984*%
%ADD22C,0.01595*%
%ADD23R,0.09843X0.06299*%
%ADD24R,0.03150X0.02362*%
G04:AMPARAMS|DCode=25|XSize=19.68mil|YSize=19.68mil|CornerRadius=0mil|HoleSize=0mil|Usage=FLASHONLY|Rotation=270.000|XOffset=0mil|YOffset=0mil|HoleType=Round|Shape=RoundedRectangle|*
%AMROUNDEDRECTD25*
21,1,0.01968,0.01968,0,0,270.0*
21,1,0.01968,0.01968,0,0,270.0*
1,1,0.00000,-0.00984,-0.00984*
1,1,0.00000,-0.00984,0.00984*
1,1,0.00000,0.00984,0.00984*
1,1,0.00000,0.00984,-0.00984*
%
%ADD25ROUNDEDRECTD25*%
G04:AMPARAMS|DCode=26|XSize=19.68mil|YSize=19.68mil|CornerRadius=0mil|HoleSize=0mil|Usage=FLASHONLY|Rotation=0.000|XOffset=0mil|YOffset=0mil|HoleType=Round|Shape=RoundedRectangle|*
%AMROUNDEDRECTD26*
21,1,0.01968,0.01968,0,0,0.0*
21,1,0.01968,0.01968,0,0,0.0*
1,1,0.00000,0.00984,-0.00984*
1,1,0.00000,-0.00984,-0.00984*
1,1,0.00000,-0.00984,0.00984*
1,1,0.00000,0.00984,0.00984*
%
%ADD26ROUNDEDRECTD26*%
%ADD27R,0.01968X0.01968*%
%ADD28R,0.02985X0.03197*%
%ADD29R,0.03347X0.02756*%
%ADD42C,0.01000*%
%ADD43C,0.00800*%
%ADD44C,0.02362*%
%ADD45C,0.03937*%
%ADD46C,0.03000*%
G36*
X122323Y136773D02*
X123178Y135939D01*
X122441Y135262D01*
X122314Y135385D01*
X122210Y135473D01*
X122188Y135420D01*
X121939Y135170D01*
X121613Y135036D01*
X121261D01*
X120935Y135170D01*
X120686Y135420D01*
X120551Y135745D01*
Y135921D01*
Y138382D01*
X122323D01*
Y136773D01*
D02*
G37*
G36*
X114449Y135921D02*
Y135745D01*
X114314Y135420D01*
X114065Y135170D01*
X113739Y135036D01*
X113387D01*
X113061Y135170D01*
X112812Y135420D01*
X112677Y135745D01*
Y135921D01*
X112677Y135921D01*
X112677Y138382D01*
X114449D01*
Y135921D01*
D02*
G37*
G36*
X151924Y135000D02*
X151914Y135095D01*
X151883Y135180D01*
X151833Y135255D01*
X151762Y135320D01*
X151671Y135375D01*
X151560Y135420D01*
X151428Y135455D01*
X151276Y135480D01*
X151104Y135495D01*
X150912Y135500D01*
Y136500D01*
X151104Y136505D01*
X151276Y136520D01*
X151428Y136545D01*
X151560Y136580D01*
X151671Y136625D01*
X151762Y136680D01*
X151833Y136745D01*
X151883Y136820D01*
X151914Y136905D01*
X151924Y137000D01*
Y135000D01*
D02*
G37*
G36*
X149181Y136945D02*
X149293Y136852D01*
X149409Y136769D01*
X149529Y136698D01*
X149652Y136637D01*
X149777Y136588D01*
X149907Y136549D01*
X150039Y136522D01*
X150175Y136505D01*
X150314Y136500D01*
Y135500D01*
X150175Y135494D01*
X150039Y135478D01*
X149907Y135450D01*
X149777Y135412D01*
X149652Y135363D01*
X149529Y135302D01*
X149409Y135231D01*
X149293Y135148D01*
X149181Y135055D01*
X149071Y134950D01*
Y137050D01*
X149181Y136945D01*
D02*
G37*
G36*
X187824Y134350D02*
X187814Y134445D01*
X187784Y134530D01*
X187733Y134605D01*
X187662Y134670D01*
X187571Y134725D01*
X187460Y134770D01*
X187328Y134805D01*
X187176Y134830D01*
X187004Y134845D01*
X186812Y134850D01*
Y135850D01*
X187004Y135855D01*
X187176Y135870D01*
X187328Y135895D01*
X187460Y135930D01*
X187571Y135975D01*
X187662Y136030D01*
X187733Y136095D01*
X187784Y136170D01*
X187814Y136255D01*
X187824Y136350D01*
Y134350D01*
D02*
G37*
G36*
X160198Y136255D02*
X160228Y136170D01*
X160278Y136095D01*
X160348Y136030D01*
X160438Y135975D01*
X160548Y135930D01*
X160678Y135895D01*
X160828Y135870D01*
X160998Y135855D01*
X161188Y135850D01*
Y134850D01*
X160998Y134845D01*
X160828Y134830D01*
X160678Y134805D01*
X160548Y134770D01*
X160438Y134725D01*
X160348Y134670D01*
X160278Y134605D01*
X160228Y134530D01*
X160198Y134445D01*
X160188Y134350D01*
Y136350D01*
X160198Y136255D01*
D02*
G37*
G36*
X118386Y135921D02*
Y135745D01*
X118251Y135420D01*
X118002Y135170D01*
X117923Y135138D01*
X118000D01*
X118005Y134945D01*
X118020Y134773D01*
X118045Y134622D01*
X118080Y134490D01*
X118125Y134379D01*
X118180Y134288D01*
X118245Y134217D01*
X118320Y134166D01*
X118405Y134136D01*
X118500Y134126D01*
X116500D01*
X116595Y134136D01*
X116680Y134166D01*
X116755Y134217D01*
X116820Y134288D01*
X116875Y134379D01*
X116920Y134490D01*
X116955Y134622D01*
X116980Y134773D01*
X116995Y134945D01*
X117000Y135138D01*
X117077D01*
X116998Y135170D01*
X116749Y135420D01*
X116614Y135745D01*
Y135921D01*
X116614D01*
Y138382D01*
X118386D01*
X118386Y135921D01*
D02*
G37*
G36*
X122407Y129802D02*
X122438Y129717D01*
X122488Y129642D01*
X122559Y129577D01*
X122650Y129522D01*
X122762Y129477D01*
X122893Y129442D01*
X123045Y129417D01*
X123217Y129402D01*
X123409Y129397D01*
Y128397D01*
X123217Y128392D01*
X123045Y128377D01*
X122893Y128352D01*
X122762Y128317D01*
X122650Y128272D01*
X122559Y128217D01*
X122488Y128152D01*
X122438Y128077D01*
X122407Y127992D01*
X122397Y127897D01*
Y129897D01*
X122407Y129802D01*
D02*
G37*
G36*
X141477Y129236D02*
X141593Y129137D01*
X141710Y129046D01*
X141831Y128965D01*
X141953Y128892D01*
X142077Y128829D01*
X142203Y128774D01*
X142331Y128728D01*
X142462Y128691D01*
X142594Y128663D01*
X142439Y127550D01*
X141215Y127380D01*
X141194Y127533D01*
X141165Y127681D01*
X141126Y127824D01*
X141079Y127963D01*
X141022Y128096D01*
X140957Y128225D01*
X140882Y128348D01*
X140798Y128466D01*
X140706Y128580D01*
X140604Y128689D01*
X141363Y129344D01*
X141477Y129236D01*
D02*
G37*
G36*
X143581Y127572D02*
X143618Y127441D01*
X143664Y127313D01*
X143718Y127187D01*
X143782Y127063D01*
X143854Y126941D01*
X143936Y126821D01*
X144026Y126703D01*
X144126Y126587D01*
X144234Y126473D01*
X143579Y125714D01*
X143470Y125816D01*
X143356Y125909D01*
X143238Y125992D01*
X143114Y126067D01*
X142986Y126133D01*
X142852Y126189D01*
X142714Y126237D01*
X142571Y126275D01*
X142422Y126305D01*
X142269Y126325D01*
X142439Y127550D01*
X143553Y127704D01*
X143581Y127572D01*
D02*
G37*
G36*
X121939Y126830D02*
X122188Y126580D01*
X122323Y126255D01*
Y126079D01*
X122323D01*
Y123618D01*
X120551Y123618D01*
Y126079D01*
Y126255D01*
X120686Y126580D01*
X120935Y126830D01*
X121261Y126964D01*
X121613D01*
X121939Y126830D01*
D02*
G37*
G36*
X114065D02*
X114314Y126580D01*
X114449Y126255D01*
Y126079D01*
Y123618D01*
X112677Y123618D01*
X112677Y126079D01*
Y126255D01*
X112812Y126580D01*
X113061Y126830D01*
X113387Y126964D01*
X113739D01*
X114065Y126830D01*
D02*
G37*
G36*
X118002D02*
X118251Y126580D01*
X118386Y126255D01*
Y126079D01*
Y123618D01*
X118000D01*
X118000Y123581D01*
X117000D01*
X117000Y123618D01*
X116614D01*
Y126079D01*
Y126255D01*
X116749Y126580D01*
X116998Y126830D01*
X117324Y126964D01*
X117676D01*
X118002Y126830D01*
D02*
G37*
G36*
X187824Y116650D02*
X187814Y116745D01*
X187784Y116830D01*
X187733Y116905D01*
X187662Y116970D01*
X187571Y117025D01*
X187460Y117070D01*
X187328Y117105D01*
X187176Y117130D01*
X187004Y117145D01*
X186812Y117150D01*
Y118150D01*
X187004Y118155D01*
X187176Y118170D01*
X187328Y118195D01*
X187460Y118230D01*
X187571Y118275D01*
X187662Y118330D01*
X187733Y118395D01*
X187784Y118470D01*
X187814Y118555D01*
X187824Y118650D01*
Y116650D01*
D02*
G37*
G36*
X160198Y118555D02*
X160228Y118470D01*
X160278Y118395D01*
X160348Y118330D01*
X160438Y118275D01*
X160548Y118230D01*
X160678Y118195D01*
X160828Y118170D01*
X160998Y118155D01*
X161188Y118150D01*
Y117150D01*
X160998Y117145D01*
X160828Y117130D01*
X160678Y117105D01*
X160548Y117070D01*
X160438Y117025D01*
X160348Y116970D01*
X160278Y116905D01*
X160228Y116830D01*
X160198Y116745D01*
X160188Y116650D01*
Y118650D01*
X160198Y118555D01*
D02*
G37*
G36*
X156273Y114914D02*
X156188Y114883D01*
X156113Y114833D01*
X156048Y114762D01*
X155993Y114671D01*
X155948Y114560D01*
X155913Y114428D01*
X155888Y114276D01*
X155873Y114104D01*
X155868Y113912D01*
X154868D01*
X154863Y114104D01*
X154848Y114276D01*
X154823Y114428D01*
X154788Y114560D01*
X154743Y114671D01*
X154688Y114762D01*
X154623Y114833D01*
X154548Y114883D01*
X154463Y114914D01*
X154368Y114924D01*
X156368D01*
X156273Y114914D01*
D02*
G37*
G36*
X116705Y114567D02*
X116720Y114395D01*
X116745Y114243D01*
X116780Y114112D01*
X116825Y114001D01*
X116880Y113910D01*
X116945Y113839D01*
X117020Y113788D01*
X117105Y113758D01*
X117200Y113748D01*
X115200D01*
X115295Y113758D01*
X115380Y113788D01*
X115455Y113839D01*
X115520Y113910D01*
X115575Y114001D01*
X115620Y114112D01*
X115655Y114243D01*
X115680Y114395D01*
X115695Y114567D01*
X115700Y114760D01*
X116700D01*
X116705Y114567D01*
D02*
G37*
G36*
X132318Y114687D02*
X132432Y114594D01*
X132550Y114510D01*
X132674Y114435D01*
X132802Y114369D01*
X132935Y114312D01*
X133072Y114264D01*
X133215Y114225D01*
X133362Y114195D01*
X133515Y114174D01*
X132226Y112800D01*
X132198Y112934D01*
X132162Y113065D01*
X132116Y113194D01*
X132062Y113321D01*
X131999Y113446D01*
X131926Y113568D01*
X131845Y113689D01*
X131755Y113807D01*
X131656Y113922D01*
X131548Y114036D01*
X132209Y114789D01*
X132318Y114687D01*
D02*
G37*
G36*
X123929Y112514D02*
X124028Y112505D01*
X124220Y112500D01*
Y111500D01*
X124028Y111495D01*
X123929Y111486D01*
Y110950D01*
X123819Y111055D01*
X123706Y111148D01*
X123591Y111231D01*
X123471Y111302D01*
X123399Y111337D01*
X123370Y111320D01*
X123299Y111255D01*
X123249Y111180D01*
X123218Y111095D01*
X123208Y111000D01*
Y111416D01*
X123093Y111451D01*
X122961Y111478D01*
X122825Y111495D01*
X122686Y111500D01*
Y112500D01*
X122825Y112505D01*
X122961Y112522D01*
X123093Y112549D01*
X123208Y112584D01*
Y113000D01*
X123218Y112905D01*
X123249Y112820D01*
X123299Y112745D01*
X123370Y112680D01*
X123399Y112662D01*
X123471Y112698D01*
X123591Y112769D01*
X123706Y112852D01*
X123819Y112945D01*
X123929Y113050D01*
Y112514D01*
D02*
G37*
G36*
X134585Y112973D02*
X134615Y112825D01*
X134654Y112683D01*
X134702Y112545D01*
X134759Y112412D01*
X134825Y112284D01*
X134900Y112161D01*
X134984Y112042D01*
X135077Y111928D01*
X135179Y111819D01*
X134426Y111159D01*
X134312Y111266D01*
X134196Y111365D01*
X134078Y111455D01*
X133958Y111537D01*
X133836Y111609D01*
X133711Y111672D01*
X133584Y111726D01*
X133455Y111772D01*
X133324Y111808D01*
X133190Y111836D01*
X134564Y113125D01*
X134585Y112973D01*
D02*
G37*
G36*
X155873Y111707D02*
X155888Y111535D01*
X155913Y111383D01*
X155948Y111252D01*
X155993Y111141D01*
X156048Y111050D01*
X156113Y110979D01*
X156188Y110928D01*
X156273Y110898D01*
X156368Y110888D01*
X154368D01*
X154463Y110898D01*
X154548Y110928D01*
X154623Y110979D01*
X154688Y111050D01*
X154743Y111141D01*
X154788Y111252D01*
X154823Y111383D01*
X154848Y111535D01*
X154863Y111707D01*
X154868Y111900D01*
X155868D01*
X155873Y111707D01*
D02*
G37*
G36*
X162985Y109644D02*
X163148Y109640D01*
Y108640D01*
X162955Y108635D01*
X162889Y108629D01*
X162836Y108055D01*
X162738Y108166D01*
X162636Y108265D01*
X162529Y108353D01*
X162417Y108429D01*
X162328Y108478D01*
X162298Y108460D01*
X162227Y108395D01*
X162176Y108320D01*
X162146Y108235D01*
X162136Y108140D01*
Y108560D01*
X162052Y108587D01*
X161921Y108617D01*
X161785Y108634D01*
X161644Y108640D01*
X161743Y109640D01*
X161881Y109645D01*
X162016Y109660D01*
X162136Y109683D01*
Y110140D01*
X162146Y110045D01*
X162176Y109960D01*
X162227Y109885D01*
X162298Y109820D01*
X162389Y109765D01*
X162397Y109762D01*
X162411Y109766D01*
X162539Y109822D01*
X162664Y109888D01*
X162789Y109963D01*
X162911Y110049D01*
X163031Y110145D01*
X162985Y109644D01*
D02*
G37*
G36*
X116905Y110242D02*
X116820Y110212D01*
X116745Y110161D01*
X116680Y110090D01*
X116625Y109999D01*
X116580Y109888D01*
X116545Y109757D01*
X116520Y109605D01*
X116505Y109433D01*
X116500Y109240D01*
X115500D01*
X115495Y109433D01*
X115480Y109605D01*
X115455Y109757D01*
X115420Y109888D01*
X115375Y109999D01*
X115320Y110090D01*
X115255Y110161D01*
X115180Y110212D01*
X115095Y110242D01*
X115000Y110252D01*
X117000D01*
X116905Y110242D01*
D02*
G37*
G36*
X116500Y107000D02*
X115500Y105500D01*
Y105500D01*
X115500Y105500D01*
X115490Y105690D01*
X115460Y105860D01*
X115410Y106010D01*
X115340Y106140D01*
X115250Y106250D01*
X115140Y106340D01*
X115010Y106410D01*
X114860Y106460D01*
X114690Y106490D01*
X114500Y106500D01*
Y107500D01*
X114690Y107510D01*
X114860Y107540D01*
X115010Y107590D01*
X115140Y107660D01*
X115250Y107750D01*
X115340Y107860D01*
X115410Y107990D01*
X115460Y108140D01*
X115490Y108310D01*
X115500Y108500D01*
X115500Y108500D01*
Y108500D01*
X116500Y107000D01*
D02*
G37*
G36*
X155978Y107382D02*
X155893Y107352D01*
X155818Y107301D01*
X155753Y107230D01*
X155698Y107139D01*
X155653Y107028D01*
X155618Y106896D01*
X155593Y106745D01*
X155578Y106573D01*
X155573Y106380D01*
X154573D01*
X154568Y106573D01*
X154553Y106745D01*
X154528Y106896D01*
X154493Y107028D01*
X154448Y107139D01*
X154393Y107230D01*
X154328Y107301D01*
X154253Y107352D01*
X154168Y107382D01*
X154073Y107392D01*
X156073D01*
X155978Y107382D01*
D02*
G37*
G36*
X155578Y105969D02*
X155593Y105797D01*
X155618Y105645D01*
X155653Y105514D01*
X155698Y105402D01*
X155753Y105311D01*
X155818Y105240D01*
X155893Y105190D01*
X155978Y105159D01*
X156073Y105149D01*
X154073D01*
X154168Y105159D01*
X154253Y105190D01*
X154328Y105240D01*
X154393Y105311D01*
X154448Y105402D01*
X154493Y105514D01*
X154528Y105645D01*
X154553Y105797D01*
X154568Y105969D01*
X154573Y106161D01*
X155573D01*
X155578Y105969D01*
D02*
G37*
G36*
X161370Y104405D02*
X161400Y104320D01*
X161450Y104245D01*
X161520Y104180D01*
X161610Y104125D01*
X161720Y104080D01*
X161850Y104045D01*
X162000Y104020D01*
X162170Y104005D01*
X162360Y104000D01*
Y103000D01*
X162170Y102995D01*
X162000Y102980D01*
X161850Y102955D01*
X161720Y102920D01*
X161610Y102875D01*
X161520Y102820D01*
X161450Y102755D01*
X161400Y102680D01*
X161370Y102595D01*
X161360Y102500D01*
Y104500D01*
X161370Y104405D01*
D02*
G37*
G36*
X117019Y104390D02*
X118019Y103390D01*
Y102390D01*
X113769D01*
X115269Y104390D01*
X117019Y104390D01*
D02*
G37*
G36*
X118019Y98890D02*
X117019Y97890D01*
X115269Y97890D01*
X113769Y99890D01*
X118019D01*
Y98890D01*
D02*
G37*
G36*
X194681Y98945D02*
X194793Y98852D01*
X194910Y98769D01*
X195029Y98698D01*
X195151Y98637D01*
X195278Y98588D01*
X195366Y98562D01*
X195408Y98571D01*
X195546Y98611D01*
X195679Y98659D01*
X195810Y98717D01*
X195936Y98783D01*
X196059Y98858D01*
X196177Y98942D01*
Y97058D01*
X196059Y97142D01*
X195936Y97217D01*
X195810Y97283D01*
X195679Y97341D01*
X195546Y97390D01*
X195408Y97429D01*
X195366Y97438D01*
X195278Y97412D01*
X195151Y97363D01*
X195029Y97302D01*
X194910Y97230D01*
X194793Y97148D01*
X194681Y97054D01*
X194571Y96950D01*
Y99050D01*
X194681Y98945D01*
D02*
G37*
G36*
X175445Y86085D02*
X175462Y85949D01*
X175489Y85817D01*
X175528Y85688D01*
X175577Y85562D01*
X175638Y85439D01*
X175709Y85320D01*
X175792Y85203D01*
X175885Y85091D01*
X175990Y84981D01*
X173890D01*
X173995Y85091D01*
X174088Y85203D01*
X174170Y85320D01*
X174242Y85439D01*
X174302Y85562D01*
X174352Y85688D01*
X174390Y85817D01*
X174418Y85949D01*
X174434Y86085D01*
X174440Y86224D01*
X175440D01*
X175445Y86085D01*
D02*
G37*
G36*
X178966Y80469D02*
X178981Y80297D01*
X179006Y80145D01*
X179041Y80014D01*
X179086Y79902D01*
X179141Y79811D01*
X179206Y79740D01*
X179281Y79690D01*
X179366Y79659D01*
X179461Y79649D01*
X177461D01*
X177556Y79659D01*
X177641Y79690D01*
X177716Y79740D01*
X177781Y79811D01*
X177836Y79902D01*
X177881Y80014D01*
X177916Y80145D01*
X177941Y80297D01*
X177956Y80469D01*
X177961Y80661D01*
X178961D01*
X178966Y80469D01*
D02*
G37*
G36*
X179825Y78905D02*
X179855Y78820D01*
X179906Y78745D01*
X179976Y78680D01*
X180068Y78625D01*
X180179Y78580D01*
X180310Y78545D01*
X180462Y78520D01*
X180634Y78505D01*
X180827Y78500D01*
Y77500D01*
X180634Y77495D01*
X180462Y77480D01*
X180310Y77455D01*
X180179Y77420D01*
X180068Y77375D01*
X179976Y77320D01*
X179906Y77255D01*
X179855Y77180D01*
X179825Y77095D01*
X179815Y77000D01*
Y79000D01*
X179825Y78905D01*
D02*
G37*
G36*
X196977Y75736D02*
X197211Y75546D01*
X197330Y75465D01*
X197453Y75392D01*
X197577Y75328D01*
X197703Y75274D01*
X197831Y75228D01*
X197961Y75191D01*
X198094Y75163D01*
X196715Y73879D01*
X196694Y74033D01*
X196665Y74181D01*
X196626Y74324D01*
X196579Y74463D01*
X196522Y74596D01*
X196457Y74725D01*
X196382Y74848D01*
X196299Y74967D01*
X196206Y75080D01*
X196104Y75189D01*
X196863Y75844D01*
X196977Y75736D01*
D02*
G37*
G36*
X180929Y70950D02*
X180819Y71055D01*
X180707Y71148D01*
X180590Y71231D01*
X180471Y71302D01*
X180349Y71363D01*
X180222Y71412D01*
X180188Y71422D01*
X180179Y71420D01*
X180068Y71375D01*
X179976Y71320D01*
X179963Y71307D01*
X180052Y71179D01*
X180187Y71008D01*
X180348Y70827D01*
X180534Y70634D01*
X180122Y69632D01*
X179903Y69844D01*
X179516Y70175D01*
X179349Y70294D01*
X179198Y70381D01*
X179066Y70438D01*
X178950Y70463D01*
X178852Y70457D01*
X178771Y70419D01*
X178708Y70351D01*
X179686Y71851D01*
Y72500D01*
X179815Y72505D01*
Y73000D01*
X179825Y72905D01*
X179855Y72820D01*
X179906Y72745D01*
X179976Y72680D01*
X180068Y72625D01*
X180179Y72580D01*
X180188Y72578D01*
X180222Y72588D01*
X180349Y72637D01*
X180471Y72698D01*
X180590Y72769D01*
X180707Y72852D01*
X180819Y72945D01*
X180929Y73050D01*
Y70950D01*
D02*
G37*
G36*
X199084Y74019D02*
X199118Y73879D01*
X199160Y73743D01*
X199212Y73610D01*
X199272Y73481D01*
X199341Y73356D01*
X199419Y73234D01*
X199506Y73116D01*
X199602Y73001D01*
X199707Y72890D01*
X199000Y72183D01*
X198889Y72288D01*
X198774Y72383D01*
X198656Y72471D01*
X198534Y72549D01*
X198408Y72618D01*
X198279Y72678D01*
X198147Y72729D01*
X198011Y72772D01*
X197871Y72806D01*
X197727Y72830D01*
X199060Y74162D01*
X199084Y74019D01*
D02*
G37*
G36*
X179899Y64121D02*
X179885Y64017D01*
X179896Y63902D01*
X179931Y63776D01*
X179991Y63640D01*
X180075Y63493D01*
X180184Y63336D01*
X180317Y63168D01*
X180320Y63165D01*
X180337Y63151D01*
X180450Y63077D01*
X180569Y63013D01*
X180693Y62959D01*
X180823Y62915D01*
X180957Y62881D01*
X181098Y62857D01*
X181244Y62843D01*
X181395Y62840D01*
X180368Y61813D01*
X180337Y61706D01*
X180298Y61743D01*
X179910Y61355D01*
X179907Y61506D01*
X179893Y61652D01*
X179869Y61793D01*
X179835Y61927D01*
X179791Y62057D01*
X179737Y62181D01*
X179679Y62289D01*
X179552Y62379D01*
X179402Y62467D01*
X179269Y62523D01*
X179155Y62547D01*
X179060Y62538D01*
X178982Y62498D01*
X178922Y62425D01*
X179937Y64215D01*
X179899Y64121D01*
D02*
G37*
G36*
X157912Y56502D02*
X157985Y56500D01*
Y55500D01*
X157912Y55500D01*
Y55000D01*
X157902Y55095D01*
X157871Y55180D01*
X157821Y55255D01*
X157750Y55320D01*
X157659Y55375D01*
X157547Y55420D01*
X157416Y55455D01*
X157400Y55447D01*
X157389Y55434D01*
Y55459D01*
X157264Y55480D01*
X157092Y55495D01*
X156900Y55500D01*
Y56500D01*
X157092Y56505D01*
X157264Y56520D01*
X157389Y56541D01*
Y56566D01*
X157400Y56553D01*
X157416Y56545D01*
X157547Y56580D01*
X157659Y56625D01*
X157750Y56680D01*
X157821Y56745D01*
X157871Y56820D01*
X157902Y56905D01*
X157912Y57000D01*
Y56502D01*
D02*
G37*
G36*
X190506Y56175D02*
X190522Y56039D01*
X190550Y55907D01*
X190588Y55778D01*
X190638Y55651D01*
X190698Y55529D01*
X190770Y55409D01*
X190852Y55293D01*
X190945Y55181D01*
X191050Y55071D01*
X188950D01*
X189055Y55181D01*
X189148Y55293D01*
X189231Y55409D01*
X189302Y55529D01*
X189363Y55651D01*
X189412Y55778D01*
X189451Y55907D01*
X189478Y56039D01*
X189495Y56175D01*
X189500Y56314D01*
X190500D01*
X190506Y56175D01*
D02*
G37*
G36*
X186473Y56186D02*
X186489Y56050D01*
X186517Y55918D01*
X186556Y55789D01*
X186607Y55664D01*
X186668Y55543D01*
X186741Y55425D01*
X186825Y55311D01*
X186920Y55201D01*
X187026Y55094D01*
X184927Y55048D01*
X185029Y55160D01*
X185121Y55275D01*
X185202Y55393D01*
X185273Y55514D01*
X185332Y55638D01*
X185381Y55765D01*
X185418Y55895D01*
X185445Y56028D01*
X185462Y56163D01*
X185467Y56302D01*
X186467Y56326D01*
X186473Y56186D01*
D02*
G37*
G36*
X178520Y55082D02*
X178525Y54946D01*
X178540Y54810D01*
X178542Y54802D01*
X179020D01*
X178925Y54792D01*
X178840Y54762D01*
X178765Y54711D01*
X178700Y54640D01*
X178645Y54549D01*
X178620Y54487D01*
X178645Y54415D01*
X178700Y54286D01*
X178764Y54159D01*
X178839Y54034D01*
X178924Y53911D01*
X179019Y53789D01*
X178521Y53842D01*
X178520Y53790D01*
X177520D01*
X177516Y53949D01*
X176931Y54011D01*
X177043Y54107D01*
X177143Y54207D01*
X177231Y54313D01*
X177308Y54424D01*
X177373Y54540D01*
X177384Y54567D01*
X177340Y54640D01*
X177275Y54711D01*
X177200Y54762D01*
X177115Y54792D01*
X177020Y54802D01*
X177470D01*
X177496Y54918D01*
X177514Y55054D01*
X177520Y55195D01*
X178520Y55082D01*
D02*
G37*
G36*
X173615Y88385D02*
Y86099D01*
X173612Y86081D01*
X173599Y86016D01*
X173580Y85954D01*
X173556Y85892D01*
X173525Y85830D01*
X173487Y85766D01*
X173441Y85701D01*
X173392Y85642D01*
X173282Y85568D01*
X172774Y84807D01*
X172595Y83910D01*
X172774Y83013D01*
X173282Y82252D01*
X174043Y81743D01*
X174940Y81565D01*
X175024Y81496D01*
X175024Y64642D01*
Y53599D01*
X173425Y52000D01*
X164000D01*
X162976Y53024D01*
Y58245D01*
X161221Y60000D01*
X157000D01*
X155182Y58182D01*
X155103Y58166D01*
X154342Y57658D01*
X153833Y56897D01*
X153655Y56000D01*
X153833Y55103D01*
X154342Y54342D01*
X154651Y54135D01*
X154713Y53492D01*
X153220Y52000D01*
X110326Y52000D01*
Y89325D01*
X111000Y90000D01*
X172000Y90000D01*
X173615Y88385D01*
D02*
G37*
G36*
X177874Y51335D02*
X177804Y51328D01*
X177729Y51310D01*
X177648Y51279D01*
X177563Y51236D01*
X177471Y51181D01*
X177375Y51115D01*
X177273Y51036D01*
X177052Y50842D01*
X176934Y50727D01*
X176221Y51428D01*
X176303Y51515D01*
X176373Y51599D01*
X176431Y51682D01*
X176477Y51761D01*
X176512Y51839D01*
X176534Y51914D01*
X176545Y51987D01*
X176544Y52058D01*
X176531Y52127D01*
X176506Y52193D01*
X177874Y51335D01*
D02*
G37*
G36*
X173930Y51507D02*
X173944Y51337D01*
X173968Y51187D01*
X174001Y51057D01*
X174043Y50947D01*
X174095Y50857D01*
X174157Y50787D01*
X174227Y50737D01*
X174308Y50707D01*
X174398Y50697D01*
X172453D01*
X172543Y50707D01*
X172623Y50737D01*
X172694Y50787D01*
X172755Y50857D01*
X172807Y50947D01*
X172850Y51057D01*
X172883Y51187D01*
X172906Y51337D01*
X172921Y51507D01*
X172925Y51697D01*
X173925D01*
X173930Y51507D01*
D02*
G37*
G36*
X164481Y51507D02*
X164495Y51337D01*
X164519Y51187D01*
X164552Y51057D01*
X164594Y50947D01*
X164646Y50857D01*
X164708Y50787D01*
X164779Y50737D01*
X164859Y50707D01*
X164949Y50697D01*
X163004D01*
X163094Y50707D01*
X163174Y50737D01*
X163245Y50787D01*
X163306Y50857D01*
X163358Y50947D01*
X163401Y51057D01*
X163434Y51187D01*
X163458Y51337D01*
X163472Y51507D01*
X163476Y51697D01*
X164476D01*
X164481Y51507D01*
D02*
G37*
G36*
X156181Y50670D02*
X156293Y50577D01*
X156410Y50494D01*
X156529Y50423D01*
X156560Y50408D01*
X156615Y50456D01*
X156665Y50527D01*
X156695Y50607D01*
X156705Y50697D01*
Y50341D01*
X156778Y50313D01*
X156907Y50274D01*
X157039Y50247D01*
X157175Y50230D01*
X157314Y50225D01*
Y49225D01*
X157175Y49219D01*
X157039Y49203D01*
X156907Y49175D01*
X156778Y49137D01*
X156705Y49108D01*
Y48753D01*
X156695Y48842D01*
X156665Y48923D01*
X156615Y48993D01*
X156560Y49042D01*
X156529Y49027D01*
X156410Y48955D01*
X156293Y48873D01*
X156181Y48779D01*
X156071Y48675D01*
Y49205D01*
X156065Y49206D01*
X155895Y49220D01*
X155705Y49225D01*
Y50225D01*
X155895Y50230D01*
X156065Y50244D01*
X156071Y50245D01*
Y50775D01*
X156181Y50670D01*
D02*
G37*
G36*
X156114Y45603D02*
X156104Y45693D01*
X156074Y45773D01*
X156024Y45844D01*
X155954Y45905D01*
X155864Y45957D01*
X155754Y46000D01*
X155624Y46033D01*
X155474Y46056D01*
X155304Y46071D01*
X155114Y46075D01*
Y47075D01*
X155304Y47080D01*
X155474Y47094D01*
X155624Y47118D01*
X155754Y47151D01*
X155864Y47193D01*
X155954Y47245D01*
X156024Y47307D01*
X156074Y47377D01*
X156104Y47458D01*
X156114Y47547D01*
Y45603D01*
D02*
G37*
G36*
X193884Y47307D02*
X193915Y47222D01*
X193966Y47147D01*
X194037Y47082D01*
X194128Y47027D01*
X194133Y47025D01*
X194261Y47078D01*
X194389Y47142D01*
X194515Y47216D01*
X194640Y47299D01*
X194763Y47392D01*
X194704Y46907D01*
X194886Y46902D01*
Y45902D01*
X194696Y45899D01*
X194581Y45890D01*
X194510Y45308D01*
X194416Y45421D01*
X194317Y45522D01*
X194213Y45611D01*
X194103Y45688D01*
X193988Y45753D01*
X193979Y45757D01*
X193976Y45755D01*
X193926Y45711D01*
X193896Y45660D01*
X193886Y45603D01*
X193884Y45799D01*
X193868Y45807D01*
X193742Y45848D01*
X193612Y45878D01*
X193476Y45896D01*
X193334Y45902D01*
X193464Y46902D01*
X193600Y46907D01*
X193735Y46922D01*
X193869Y46946D01*
X193877Y46948D01*
X193874Y47402D01*
X193884Y47307D01*
D02*
G37*
G36*
X186906Y45593D02*
X186826Y45563D01*
X186755Y45513D01*
X186694Y45443D01*
X186642Y45353D01*
X186599Y45243D01*
X186566Y45113D01*
X186542Y44963D01*
X186528Y44793D01*
X186524Y44603D01*
X185524D01*
X185519Y44793D01*
X185505Y44963D01*
X185481Y45113D01*
X185448Y45243D01*
X185406Y45353D01*
X185354Y45443D01*
X185292Y45513D01*
X185221Y45563D01*
X185141Y45593D01*
X185051Y45603D01*
X186996D01*
X186906Y45593D01*
D02*
G37*
G36*
X180607D02*
X180527Y45563D01*
X180456Y45513D01*
X180394Y45443D01*
X180342Y45353D01*
X180300Y45243D01*
X180267Y45113D01*
X180243Y44963D01*
X180229Y44793D01*
X180224Y44603D01*
X179224D01*
X179220Y44793D01*
X179206Y44963D01*
X179182Y45113D01*
X179149Y45243D01*
X179106Y45353D01*
X179054Y45443D01*
X178993Y45513D01*
X178922Y45563D01*
X178842Y45593D01*
X178752Y45603D01*
X180697D01*
X180607Y45593D01*
D02*
G37*
G36*
X164482Y45605D02*
X164482Y45603D01*
X164949D01*
X164859Y45593D01*
X164779Y45563D01*
X164708Y45513D01*
X164646Y45443D01*
X164594Y45353D01*
X164553Y45247D01*
X164565Y45208D01*
X164615Y45083D01*
X164676Y44960D01*
X164748Y44842D01*
X164831Y44727D01*
X164925Y44615D01*
X165030Y44506D01*
X162930Y44487D01*
X163034Y44598D01*
X163127Y44711D01*
X163209Y44828D01*
X163280Y44948D01*
X163340Y45072D01*
X163389Y45198D01*
X163401Y45240D01*
X163401Y45243D01*
X163358Y45353D01*
X163306Y45443D01*
X163245Y45513D01*
X163174Y45563D01*
X163094Y45593D01*
X163004Y45603D01*
X163471D01*
X163476Y45735D01*
X164476Y45745D01*
X164482Y45605D01*
D02*
G37*
G36*
X183757Y45593D02*
X183676Y45563D01*
X183605Y45513D01*
X183544Y45443D01*
X183492Y45353D01*
X183450Y45243D01*
X183430Y45166D01*
X183469Y45048D01*
X183522Y44927D01*
X183587Y44812D01*
X183664Y44701D01*
X183752Y44596D01*
X183853Y44496D01*
X183965Y44400D01*
X181878Y44169D01*
X181972Y44291D01*
X182056Y44415D01*
X182131Y44541D01*
X182195Y44668D01*
X182250Y44797D01*
X182295Y44927D01*
X182329Y45059D01*
X182335Y45090D01*
X182332Y45113D01*
X182299Y45243D01*
X182256Y45353D01*
X182204Y45443D01*
X182143Y45513D01*
X182072Y45563D01*
X181992Y45593D01*
X181902Y45603D01*
X183846D01*
X183757Y45593D01*
D02*
G37*
G36*
X156126Y42626D02*
X156118Y42702D01*
X156094Y42770D01*
X156053Y42830D01*
X155997Y42882D01*
X155923Y42926D01*
X155834Y42962D01*
X155728Y42990D01*
X155607Y43010D01*
X155469Y43022D01*
X155314Y43026D01*
Y43826D01*
X155469Y43830D01*
X155607Y43842D01*
X155728Y43862D01*
X155834Y43890D01*
X155923Y43926D01*
X155997Y43970D01*
X156053Y44022D01*
X156094Y44082D01*
X156118Y44150D01*
X156126Y44226D01*
Y42626D01*
D02*
G37*
G36*
X193884Y44225D02*
X193915Y44140D01*
X193966Y44065D01*
X194037Y44000D01*
X194128Y43945D01*
X194239Y43900D01*
X194371Y43865D01*
X194522Y43840D01*
X194694Y43825D01*
X194886Y43820D01*
Y42820D01*
X194696Y42816D01*
X194376Y42787D01*
X194246Y42761D01*
X194136Y42728D01*
X194046Y42688D01*
X193976Y42640D01*
X193926Y42585D01*
X193896Y42523D01*
X193886Y42453D01*
X193874Y44320D01*
X193884Y44225D01*
D02*
G37*
G36*
X180230Y42603D02*
X180247Y42468D01*
X180275Y42335D01*
X180314Y42207D01*
X180364Y42081D01*
X180425Y41960D01*
X180497Y41842D01*
X180581Y41727D01*
X180676Y41616D01*
X180782Y41509D01*
X178682Y41473D01*
X178785Y41585D01*
X178877Y41699D01*
X178959Y41817D01*
X179029Y41938D01*
X179089Y42061D01*
X179138Y42188D01*
X179176Y42318D01*
X179203Y42450D01*
X179219Y42586D01*
X179224Y42725D01*
X180224Y42743D01*
X180230Y42603D01*
D02*
G37*
G36*
X143610Y44500D02*
Y44146D01*
X143787Y43969D01*
X143610Y43792D01*
X143610Y42750D01*
X141610Y41250D01*
Y45500D01*
X142610D01*
X143610Y44500D01*
D02*
G37*
G36*
X139110Y41250D02*
X137110Y42750D01*
X137110Y44500D01*
X138110Y45500D01*
X139110D01*
Y41250D01*
D02*
G37*
G36*
X207446Y41819D02*
X207352Y41706D01*
X207270Y41590D01*
X207198Y41471D01*
X207137Y41348D01*
X207088Y41223D01*
X207049Y41093D01*
X207022Y40961D01*
X207006Y40825D01*
X207000Y40686D01*
X206000D01*
X205995Y40825D01*
X205978Y40961D01*
X205950Y41093D01*
X205912Y41223D01*
X205862Y41348D01*
X205802Y41471D01*
X205731Y41590D01*
X205648Y41706D01*
X205555Y41819D01*
X205450Y41929D01*
X207550D01*
X207446Y41819D01*
D02*
G37*
G36*
X193896Y41159D02*
X193926Y41078D01*
X193976Y41007D01*
X194046Y40946D01*
X194136Y40894D01*
X194246Y40852D01*
X194376Y40819D01*
X194526Y40795D01*
X194696Y40781D01*
X194886Y40776D01*
Y39776D01*
X194696Y39771D01*
X194526Y39757D01*
X194376Y39733D01*
X194246Y39700D01*
X194136Y39658D01*
X194046Y39606D01*
X193976Y39545D01*
X193926Y39474D01*
X193896Y39393D01*
X193886Y39304D01*
Y41248D01*
X193896Y41159D01*
D02*
G37*
G36*
X196343Y39226D02*
X196233Y39331D01*
X196121Y39424D01*
X196005Y39507D01*
X195885Y39578D01*
X195763Y39639D01*
X195637Y39688D01*
X195508Y39726D01*
X195375Y39754D01*
X195239Y39770D01*
X195100Y39776D01*
Y40776D01*
X195239Y40782D01*
X195375Y40798D01*
X195508Y40826D01*
X195637Y40864D01*
X195763Y40914D01*
X195885Y40974D01*
X196005Y41045D01*
X196121Y41128D01*
X196233Y41221D01*
X196343Y41326D01*
Y39226D01*
D02*
G37*
G36*
X186529Y39767D02*
X186546Y39631D01*
X186574Y39499D01*
X186613Y39370D01*
X186664Y39245D01*
X186725Y39124D01*
X186798Y39007D01*
X186882Y38893D01*
X186977Y38783D01*
X187084Y38676D01*
X184984Y38625D01*
X185087Y38738D01*
X185178Y38853D01*
X185259Y38971D01*
X185329Y39093D01*
X185389Y39217D01*
X185437Y39344D01*
X185475Y39474D01*
X185502Y39606D01*
X185518Y39742D01*
X185524Y39881D01*
X186524Y39906D01*
X186529Y39767D01*
D02*
G37*
G36*
X207005Y39331D02*
X207020Y39159D01*
X207045Y39007D01*
X207080Y38876D01*
X207125Y38764D01*
X207180Y38673D01*
X207245Y38603D01*
X207320Y38552D01*
X207405Y38522D01*
X207500Y38511D01*
X205500D01*
X205595Y38522D01*
X205680Y38552D01*
X205755Y38603D01*
X205820Y38673D01*
X205875Y38764D01*
X205920Y38876D01*
X205955Y39007D01*
X205980Y39159D01*
X205995Y39331D01*
X206000Y39523D01*
X207000D01*
X207005Y39331D01*
D02*
G37*
G36*
X193896Y34859D02*
X193926Y34779D01*
X193976Y34708D01*
X194046Y34647D01*
X194136Y34595D01*
X194246Y34552D01*
X194376Y34519D01*
X194526Y34496D01*
X194696Y34481D01*
X194886Y34477D01*
Y33477D01*
X194696Y33472D01*
X194526Y33458D01*
X194376Y33434D01*
X194246Y33401D01*
X194136Y33359D01*
X194046Y33307D01*
X193976Y33245D01*
X193926Y33174D01*
X193896Y33094D01*
X193886Y33005D01*
Y34949D01*
X193896Y34859D01*
D02*
G37*
G36*
X188189Y34922D02*
X188301Y34829D01*
X188417Y34746D01*
X188537Y34675D01*
X188614Y34637D01*
X188631Y34647D01*
X188701Y34708D01*
X188751Y34779D01*
X188781Y34859D01*
X188792Y34949D01*
Y34563D01*
X188915Y34526D01*
X189047Y34499D01*
X189183Y34482D01*
X189322Y34477D01*
Y33477D01*
X189183Y33471D01*
X189047Y33455D01*
X188915Y33427D01*
X188792Y33391D01*
Y33005D01*
X188781Y33094D01*
X188751Y33174D01*
X188701Y33245D01*
X188631Y33307D01*
X188614Y33317D01*
X188537Y33279D01*
X188417Y33207D01*
X188301Y33125D01*
X188189Y33031D01*
X188079Y32927D01*
Y33464D01*
X187981Y33472D01*
X187792Y33477D01*
Y34477D01*
X187981Y34481D01*
X188079Y34490D01*
Y35027D01*
X188189Y34922D01*
D02*
G37*
G36*
X143404Y32138D02*
X143416Y32000D01*
X143436Y31878D01*
X143464Y31772D01*
X143500Y31683D01*
X143544Y31610D01*
X143596Y31553D01*
X143656Y31512D01*
X143724Y31488D01*
X143800Y31480D01*
X142200D01*
X142276Y31488D01*
X142344Y31512D01*
X142404Y31553D01*
X142456Y31610D01*
X142500Y31683D01*
X142536Y31772D01*
X142564Y31878D01*
X142584Y32000D01*
X142596Y32138D01*
X142600Y32292D01*
X143400D01*
X143404Y32138D01*
D02*
G37*
G36*
X207405Y30478D02*
X207320Y30448D01*
X207245Y30397D01*
X207180Y30327D01*
X207125Y30236D01*
X207080Y30124D01*
X207045Y29993D01*
X207020Y29841D01*
X207005Y29669D01*
X207000Y29477D01*
X206000D01*
X205995Y29669D01*
X205980Y29841D01*
X205955Y29993D01*
X205920Y30124D01*
X205875Y30236D01*
X205820Y30327D01*
X205755Y30397D01*
X205680Y30448D01*
X205595Y30478D01*
X205500Y30489D01*
X207500D01*
X207405Y30478D01*
D02*
G37*
G36*
X194448Y28209D02*
X194526Y28196D01*
X194696Y28182D01*
X194886Y28178D01*
Y27178D01*
X194696Y27173D01*
X194526Y27159D01*
X194448Y27146D01*
Y26628D01*
X194338Y26732D01*
X194226Y26825D01*
X194109Y26908D01*
X194004Y26971D01*
X193976Y26946D01*
X193926Y26875D01*
X193896Y26795D01*
X193886Y26705D01*
Y27031D01*
X193868Y27040D01*
X193742Y27090D01*
X193612Y27128D01*
X193480Y27156D01*
X193344Y27172D01*
X193205Y27178D01*
X193205Y28178D01*
X193344Y28183D01*
X193480Y28199D01*
X193612Y28227D01*
X193742Y28266D01*
X193867Y28315D01*
X193886Y28324D01*
Y28650D01*
X193896Y28560D01*
X193926Y28480D01*
X193976Y28409D01*
X194004Y28384D01*
X194109Y28447D01*
X194226Y28530D01*
X194338Y28623D01*
X194448Y28728D01*
Y28209D01*
D02*
G37*
G36*
X207005Y26134D02*
X207020Y25962D01*
X207045Y25811D01*
X207080Y25679D01*
X207125Y25568D01*
X207180Y25477D01*
X207245Y25406D01*
X207320Y25355D01*
X207405Y25325D01*
X207500Y25315D01*
X205500D01*
X205595Y25325D01*
X205680Y25355D01*
X205755Y25406D01*
X205820Y25477D01*
X205875Y25568D01*
X205920Y25679D01*
X205955Y25811D01*
X205980Y25962D01*
X205995Y26134D01*
X206000Y26327D01*
X207000D01*
X207005Y26134D01*
D02*
G37*
G36*
X188181Y25473D02*
X188294Y25380D01*
X188409Y25297D01*
X188529Y25226D01*
X188610Y25186D01*
X188631Y25198D01*
X188701Y25259D01*
X188751Y25330D01*
X188781Y25411D01*
X188792Y25500D01*
Y25112D01*
X188907Y25077D01*
X189039Y25050D01*
X189175Y25033D01*
X189314Y25028D01*
Y24028D01*
X189175Y24023D01*
X189039Y24006D01*
X188907Y23979D01*
X188792Y23944D01*
Y23556D01*
X188781Y23645D01*
X188751Y23726D01*
X188701Y23797D01*
X188631Y23858D01*
X188610Y23870D01*
X188529Y23830D01*
X188409Y23758D01*
X188294Y23676D01*
X188181Y23583D01*
X188071Y23478D01*
Y24016D01*
X187981Y24023D01*
X187792Y24028D01*
Y25028D01*
X187981Y25033D01*
X188071Y25040D01*
Y25578D01*
X188181Y25473D01*
D02*
G37*
G36*
X128724Y20524D02*
X128656Y20500D01*
X128596Y20460D01*
X128544Y20404D01*
X128500Y20332D01*
X128464Y20244D01*
X128436Y20140D01*
X128416Y20020D01*
X128404Y19884D01*
X128400Y19732D01*
X127600D01*
X127596Y19884D01*
X127584Y20020D01*
X127564Y20140D01*
X127536Y20244D01*
X127500Y20332D01*
X127456Y20404D01*
X127404Y20460D01*
X127344Y20500D01*
X127276Y20524D01*
X127200Y20532D01*
X128800D01*
X128724Y20524D01*
D02*
G37*
G36*
X123815D02*
X123747Y20500D01*
X123687Y20460D01*
X123635Y20404D01*
X123591Y20332D01*
X123555Y20244D01*
X123527Y20140D01*
X123507Y20020D01*
X123495Y19884D01*
X123491Y19732D01*
X122691D01*
X122687Y19884D01*
X122675Y20020D01*
X122655Y20140D01*
X122627Y20244D01*
X122591Y20332D01*
X122547Y20404D01*
X122495Y20460D01*
X122435Y20500D01*
X122367Y20524D01*
X122291Y20532D01*
X123891D01*
X123815Y20524D01*
D02*
G37*
G36*
X204961Y18039D02*
X204951Y18134D01*
X204921Y18219D01*
X204870Y18294D01*
X204799Y18359D01*
X204708Y18414D01*
X204597Y18459D01*
X204465Y18494D01*
X204313Y18519D01*
X204141Y18534D01*
X203949Y18539D01*
Y19539D01*
X204141Y19544D01*
X204313Y19559D01*
X204465Y19584D01*
X204597Y19619D01*
X204708Y19664D01*
X204799Y19719D01*
X204870Y19784D01*
X204921Y19859D01*
X204951Y19944D01*
X204961Y20039D01*
Y18039D01*
D02*
G37*
G36*
X156114Y17256D02*
X155314Y16863D01*
Y17663D01*
X155468Y17667D01*
X155605Y17679D01*
X155726Y17699D01*
X155831Y17727D01*
X155920Y17763D01*
X155994Y17807D01*
X156051Y17859D01*
X156092Y17919D01*
X156117Y17987D01*
X156126Y18063D01*
X156114Y17256D01*
D02*
G37*
G36*
X156126Y14279D02*
X156118Y14355D01*
X156094Y14423D01*
X156053Y14483D01*
X155997Y14535D01*
X155923Y14579D01*
X155834Y14615D01*
X155728Y14643D01*
X155607Y14663D01*
X155469Y14675D01*
X155314Y14679D01*
Y15479D01*
X155469Y15483D01*
X155607Y15495D01*
X155728Y15515D01*
X155834Y15543D01*
X155923Y15579D01*
X155997Y15623D01*
X156053Y15675D01*
X156094Y15735D01*
X156118Y15803D01*
X156126Y15879D01*
Y14279D01*
D02*
G37*
G36*
X180181Y15946D02*
X180294Y15852D01*
X180410Y15769D01*
X180529Y15698D01*
X180651Y15638D01*
X180778Y15588D01*
X180907Y15550D01*
X180923Y15546D01*
X181050Y15580D01*
X181160Y15625D01*
X181250Y15680D01*
X181320Y15745D01*
X181370Y15820D01*
X181400Y15905D01*
X181410Y16000D01*
Y14107D01*
X181400Y14182D01*
X181370Y14248D01*
X181320Y14307D01*
X181250Y14358D01*
X181160Y14402D01*
X181050Y14437D01*
X180947Y14459D01*
X180907Y14450D01*
X180778Y14412D01*
X180651Y14363D01*
X180529Y14302D01*
X180410Y14231D01*
X180294Y14148D01*
X180181Y14054D01*
X180071Y13950D01*
Y16050D01*
X180181Y15946D01*
D02*
G37*
G36*
X173181D02*
X173293Y15852D01*
X173409Y15769D01*
X173529Y15698D01*
X173652Y15638D01*
X173732Y15606D01*
X173778Y15625D01*
X173868Y15680D01*
X173938Y15745D01*
X173988Y15820D01*
X174018Y15905D01*
X174028Y16000D01*
Y15524D01*
X174039Y15522D01*
X174175Y15506D01*
X174314Y15500D01*
Y14500D01*
X174175Y14494D01*
X174039Y14478D01*
X174028Y14476D01*
Y14107D01*
X174018Y14182D01*
X173988Y14248D01*
X173938Y14307D01*
X173868Y14358D01*
X173778Y14402D01*
X173763Y14406D01*
X173652Y14363D01*
X173529Y14302D01*
X173409Y14231D01*
X173293Y14148D01*
X173181Y14054D01*
X173071Y13950D01*
Y14499D01*
X173028Y14500D01*
Y15500D01*
X173071Y15501D01*
Y16050D01*
X173181Y15946D01*
D02*
G37*
G36*
X166156Y15976D02*
X166271Y15884D01*
X166390Y15803D01*
X166505Y15737D01*
X166556Y15785D01*
X166606Y15860D01*
X166636Y15945D01*
X166646Y16040D01*
Y15670D01*
X166762Y15626D01*
X166892Y15588D01*
X167025Y15561D01*
X167161Y15545D01*
X167300Y15540D01*
X167328Y14540D01*
X167188Y14534D01*
X167052Y14517D01*
X166920Y14489D01*
X166791Y14450D01*
X166667Y14399D01*
X166646Y14389D01*
Y14107D01*
X166636Y14189D01*
X166606Y14263D01*
X166556Y14327D01*
X166544Y14337D01*
X166428Y14265D01*
X166315Y14181D01*
X166205Y14085D01*
X166098Y13979D01*
X166085Y14511D01*
X166006Y14522D01*
X165836Y14535D01*
X165646Y14540D01*
Y15540D01*
X165836Y15545D01*
X166006Y15560D01*
X166057Y15568D01*
X166043Y16078D01*
X166156Y15976D01*
D02*
G37*
G36*
X194444Y12471D02*
X194526Y12458D01*
X194696Y12444D01*
X194886Y12440D01*
Y11440D01*
X194696Y11435D01*
X194526Y11421D01*
X194451Y11408D01*
X194455Y10893D01*
X194345Y10997D01*
X194231Y11090D01*
X194114Y11172D01*
X194010Y11234D01*
X193976Y11203D01*
X193926Y11131D01*
X193896Y11049D01*
X193886Y10957D01*
Y11296D01*
X193871Y11303D01*
X193745Y11352D01*
X193616Y11390D01*
X193483Y11418D01*
X193347Y11434D01*
X193208Y11440D01*
X193201Y12440D01*
X193340Y12445D01*
X193476Y12462D01*
X193609Y12489D01*
X193738Y12528D01*
X193863Y12578D01*
X193886Y12589D01*
Y12902D01*
X193896Y12814D01*
X193926Y12735D01*
X193976Y12666D01*
X193999Y12647D01*
X194105Y12711D01*
X194220Y12794D01*
X194332Y12888D01*
X194441Y12993D01*
X194444Y12471D01*
D02*
G37*
G36*
X114232Y11889D02*
X114222Y11984D01*
X114192Y12069D01*
X114141Y12144D01*
X114070Y12209D01*
X113979Y12264D01*
X113868Y12309D01*
X113736Y12344D01*
X113585Y12369D01*
X113413Y12384D01*
X113220Y12389D01*
Y13389D01*
X113413Y13394D01*
X113585Y13409D01*
X113736Y13434D01*
X113868Y13469D01*
X113979Y13514D01*
X114070Y13569D01*
X114141Y13634D01*
X114192Y13709D01*
X114222Y13794D01*
X114232Y13889D01*
Y11889D01*
D02*
G37*
G36*
X121567Y11854D02*
X121557Y11949D01*
X121527Y12034D01*
X121476Y12109D01*
X121405Y12174D01*
X121314Y12229D01*
X121203Y12274D01*
X121071Y12309D01*
X120920Y12334D01*
X120748Y12349D01*
X120555Y12354D01*
Y13354D01*
X120748Y13359D01*
X120920Y13374D01*
X121071Y13399D01*
X121203Y13434D01*
X121314Y13479D01*
X121405Y13534D01*
X121476Y13599D01*
X121527Y13674D01*
X121557Y13759D01*
X121567Y13854D01*
Y11854D01*
D02*
G37*
G36*
X117738Y13759D02*
X117768Y13674D01*
X117819Y13599D01*
X117890Y13534D01*
X117981Y13479D01*
X118092Y13434D01*
X118224Y13399D01*
X118375Y13374D01*
X118547Y13359D01*
X118740Y13354D01*
Y12354D01*
X118547Y12349D01*
X118375Y12334D01*
X118224Y12309D01*
X118092Y12274D01*
X117981Y12229D01*
X117890Y12174D01*
X117819Y12109D01*
X117768Y12034D01*
X117738Y11949D01*
X117728Y11854D01*
Y13854D01*
X117738Y13759D01*
D02*
G37*
G36*
X156388Y12584D02*
X156418Y12559D01*
X156458Y12537D01*
X156510Y12518D01*
X156573Y12502D01*
X156647Y12488D01*
X156731Y12478D01*
X156934Y12466D01*
X157051Y12465D01*
Y11465D01*
X156929Y11463D01*
X156630Y11442D01*
X156553Y11430D01*
X156487Y11414D01*
X156433Y11396D01*
X156390Y11375D01*
X156359Y11351D01*
X156339Y11325D01*
X156370Y12612D01*
X156388Y12584D01*
D02*
G37*
G36*
X156126Y10965D02*
X156116Y11060D01*
X156085Y11145D01*
X156034Y11220D01*
X155963Y11285D01*
X155872Y11340D01*
X155761Y11385D01*
X155629Y11420D01*
X155478Y11445D01*
X155306Y11460D01*
X155114Y11465D01*
Y12465D01*
X155304Y12469D01*
X155474Y12482D01*
X155624Y12504D01*
X155754Y12535D01*
X155864Y12574D01*
X155954Y12622D01*
X156024Y12679D01*
X156074Y12744D01*
X156104Y12819D01*
X156114Y12902D01*
X156126Y10965D01*
D02*
G37*
G36*
X156426Y7485D02*
X156458Y7449D01*
X156500Y7417D01*
X156552Y7389D01*
X156615Y7365D01*
X156689Y7346D01*
X156772Y7331D01*
X156867Y7320D01*
X157086Y7312D01*
Y6312D01*
X156945Y6310D01*
X156595Y6284D01*
X156503Y6269D01*
X156424Y6250D01*
X156357Y6228D01*
X156302Y6203D01*
X156260Y6174D01*
X156230Y6141D01*
X156405Y7526D01*
X156426Y7485D01*
D02*
G37*
G36*
X156126Y5886D02*
X156117Y5967D01*
X156089Y6039D01*
X156042Y6103D01*
X155976Y6158D01*
X155892Y6205D01*
X155789Y6244D01*
X155667Y6273D01*
X155526Y6295D01*
X155366Y6308D01*
X155188Y6312D01*
Y7312D01*
X155366Y7316D01*
X155526Y7329D01*
X155667Y7350D01*
X155789Y7380D01*
X155892Y7418D01*
X155976Y7465D01*
X156042Y7521D01*
X156089Y7585D01*
X156117Y7657D01*
X156126Y7738D01*
Y5886D01*
D02*
G37*
G36*
X116905Y6112D02*
X116820Y6081D01*
X116745Y6031D01*
X116680Y5960D01*
X116625Y5869D01*
X116580Y5757D01*
X116545Y5626D01*
X116520Y5474D01*
X116505Y5302D01*
X116503Y5233D01*
X116506Y5175D01*
X116522Y5039D01*
X116550Y4907D01*
X116588Y4778D01*
X116638Y4651D01*
X116698Y4529D01*
X116770Y4409D01*
X116852Y4293D01*
X116946Y4181D01*
X117050Y4071D01*
X114950D01*
X115055Y4181D01*
X115148Y4293D01*
X115231Y4409D01*
X115302Y4529D01*
X115363Y4651D01*
X115412Y4778D01*
X115451Y4907D01*
X115478Y5039D01*
X115495Y5175D01*
X115497Y5233D01*
X115495Y5302D01*
X115480Y5474D01*
X115455Y5626D01*
X115420Y5757D01*
X115375Y5869D01*
X115320Y5960D01*
X115255Y6031D01*
X115180Y6081D01*
X115095Y6112D01*
X115000Y6122D01*
X117000D01*
X116905Y6112D01*
D02*
G37*
G36*
X143506Y5175D02*
X143522Y5039D01*
X143550Y4907D01*
X143588Y4778D01*
X143638Y4651D01*
X143698Y4529D01*
X143710Y4508D01*
X144000D01*
X143905Y4498D01*
X143820Y4468D01*
X143759Y4427D01*
X143770Y4409D01*
X143852Y4293D01*
X143946Y4181D01*
X144050Y4071D01*
X143559D01*
X143545Y4018D01*
X143520Y3868D01*
X143505Y3698D01*
X143500Y3508D01*
X142500D01*
X142495Y3698D01*
X142480Y3868D01*
X142455Y4018D01*
X142441Y4071D01*
X141950D01*
X142054Y4181D01*
X142148Y4293D01*
X142230Y4409D01*
X142241Y4427D01*
X142180Y4468D01*
X142095Y4498D01*
X142000Y4508D01*
X142289D01*
X142302Y4529D01*
X142362Y4651D01*
X142412Y4778D01*
X142450Y4907D01*
X142478Y5039D01*
X142494Y5175D01*
X142500Y5314D01*
X143500D01*
X143506Y5175D01*
D02*
G37*
G36*
X128506D02*
X128522Y5039D01*
X128550Y4907D01*
X128588Y4778D01*
X128638Y4651D01*
X128698Y4529D01*
X128710Y4508D01*
X129000D01*
X128905Y4498D01*
X128820Y4468D01*
X128759Y4427D01*
X128770Y4409D01*
X128852Y4293D01*
X128946Y4181D01*
X129050Y4071D01*
X128559D01*
X128545Y4018D01*
X128520Y3868D01*
X128505Y3698D01*
X128500Y3508D01*
X127500D01*
X127495Y3698D01*
X127480Y3868D01*
X127455Y4018D01*
X127441Y4071D01*
X126950D01*
X127055Y4181D01*
X127148Y4293D01*
X127231Y4409D01*
X127241Y4427D01*
X127180Y4468D01*
X127095Y4498D01*
X127000Y4508D01*
X127289D01*
X127302Y4529D01*
X127363Y4651D01*
X127412Y4778D01*
X127451Y4907D01*
X127478Y5039D01*
X127495Y5175D01*
X127500Y5314D01*
X128500D01*
X128506Y5175D01*
D02*
G37*
G36*
X133505D02*
X133522Y5039D01*
X133549Y4907D01*
X133588Y4778D01*
X133637Y4651D01*
X133698Y4529D01*
X133711Y4508D01*
X134000D01*
X133905Y4498D01*
X133820Y4468D01*
X133759Y4427D01*
X133770Y4409D01*
X133852Y4293D01*
X133946Y4181D01*
X134050Y4071D01*
X133559D01*
X133545Y4018D01*
X133520Y3868D01*
X133505Y3698D01*
X133500Y3508D01*
X132500D01*
X132495Y3698D01*
X132480Y3868D01*
X132455Y4018D01*
X132441Y4071D01*
X131950D01*
X132054Y4181D01*
X132148Y4293D01*
X132230Y4409D01*
X132241Y4427D01*
X132180Y4468D01*
X132095Y4498D01*
X132000Y4508D01*
X132290D01*
X132302Y4529D01*
X132362Y4651D01*
X132412Y4778D01*
X132450Y4907D01*
X132478Y5039D01*
X132494Y5175D01*
X132500Y5314D01*
X133500D01*
X133505Y5175D01*
D02*
G37*
G36*
X156460Y2364D02*
X156475Y2360D01*
X156500Y2357D01*
X156577Y2352D01*
X156933Y2347D01*
Y1347D01*
X156349Y1344D01*
X156454Y2368D01*
X156460Y2364D01*
D02*
G37*
G36*
X156126Y886D02*
X156116Y973D01*
X156086Y1052D01*
X156037Y1121D01*
X155969Y1181D01*
X155882Y1231D01*
X155775Y1273D01*
X155648Y1305D01*
X155503Y1328D01*
X155338Y1342D01*
X155153Y1347D01*
Y2347D01*
X155336Y2350D01*
X155643Y2375D01*
X155768Y2398D01*
X155874Y2426D01*
X155961Y2461D01*
X156028Y2503D01*
X156076Y2551D01*
X156105Y2605D01*
X156114Y2666D01*
X156126Y886D01*
D02*
G37*
G36*
Y-4114D02*
X156117Y-4038D01*
X156089Y-3969D01*
X156043Y-3909D01*
X155979Y-3856D01*
X155896Y-3812D01*
X155795Y-3775D01*
X155676Y-3747D01*
X155540Y-3727D01*
X155384Y-3715D01*
X155211Y-3711D01*
Y-2711D01*
X155383Y-2708D01*
X155672Y-2688D01*
X155789Y-2670D01*
X155888Y-2646D01*
X155970Y-2618D01*
X156033Y-2584D01*
X156078Y-2545D01*
X156105Y-2502D01*
X156114Y-2453D01*
X156126Y-4114D01*
D02*
G37*
D15*
X159994Y103500D02*
D03*
X155073D02*
D03*
X173539Y78000D02*
D03*
X178461D02*
D03*
X173539Y72000D02*
D03*
X178461D02*
D03*
D16*
X173557Y56550D02*
D03*
X178675D02*
D03*
X164679Y56050D02*
D03*
X159561D02*
D03*
X116441Y112000D02*
D03*
X121559D02*
D03*
X155368Y109140D02*
D03*
X160486D02*
D03*
D17*
X115980Y12889D02*
D03*
Y7771D02*
D03*
D18*
X191950Y135350D02*
D03*
X156050D02*
D03*
X191950Y117650D02*
D03*
X156050D02*
D03*
D19*
X138110Y43500D02*
D03*
X142610D02*
D03*
D20*
X116019Y103390D02*
D03*
Y98890D02*
D03*
D21*
X143000Y26012D02*
D03*
X138000D02*
D03*
X133000Y26012D02*
D03*
X128000Y26012D02*
D03*
X123000D02*
D03*
X143000Y9988D02*
D03*
X138000D02*
D03*
X133000Y9988D02*
D03*
X128000Y9988D02*
D03*
X123000D02*
D03*
D22*
X121437Y136709D02*
D03*
X117500Y137496D02*
D03*
X113563Y136798D02*
D03*
Y125291D02*
D03*
X117500Y125202D02*
D03*
X121437Y125202D02*
D03*
D23*
X117500Y131000D02*
D03*
D24*
X206500Y31646D02*
D03*
Y37354D02*
D03*
D25*
X173425Y49725D02*
D03*
X163976Y49725D02*
D03*
X192323D02*
D03*
X189173Y49725D02*
D03*
X186024Y49725D02*
D03*
X182874D02*
D03*
X179724D02*
D03*
X176575Y49725D02*
D03*
X170276D02*
D03*
X167126D02*
D03*
X160827Y49725D02*
D03*
X157677D02*
D03*
D26*
X160236Y9370D02*
D03*
X192913Y15079D02*
D03*
X157087Y46575D02*
D03*
X192913Y18229D02*
D03*
Y21378D02*
D03*
Y24528D02*
D03*
Y27678D02*
D03*
Y30827D02*
D03*
Y33977D02*
D03*
Y37126D02*
D03*
Y40276D02*
D03*
Y43426D02*
D03*
Y46575D02*
D03*
X157087Y43426D02*
D03*
Y40276D02*
D03*
Y37126D02*
D03*
Y33977D02*
D03*
Y30827D02*
D03*
Y27678D02*
D03*
X157087Y24528D02*
D03*
X157087Y21378D02*
D03*
Y18229D02*
D03*
Y15079D02*
D03*
Y11930D02*
D03*
X192913D02*
D03*
X157087Y6811D02*
D03*
Y1693D02*
D03*
Y-3425D02*
D03*
D27*
X189764Y15079D02*
D03*
X186024Y46575D02*
D03*
X160236Y43426D02*
D03*
X189764Y18229D02*
D03*
Y21378D02*
D03*
Y24528D02*
D03*
Y27678D02*
D03*
Y30827D02*
D03*
Y33977D02*
D03*
Y37126D02*
D03*
Y40276D02*
D03*
X189764Y43426D02*
D03*
Y46575D02*
D03*
X182874D02*
D03*
X179724D02*
D03*
X176575D02*
D03*
X173425Y46575D02*
D03*
X170276D02*
D03*
X167126Y46575D02*
D03*
X163976D02*
D03*
X160236D02*
D03*
X160236Y40276D02*
D03*
Y37126D02*
D03*
Y33977D02*
D03*
Y30827D02*
D03*
X160236Y27678D02*
D03*
X160236Y24528D02*
D03*
Y21378D02*
D03*
X160236Y18229D02*
D03*
Y15079D02*
D03*
X175000D02*
D03*
X182382D02*
D03*
X167618D02*
D03*
D28*
X173531Y64000D02*
D03*
X178469D02*
D03*
D29*
X206610Y19039D02*
D03*
Y23961D02*
D03*
D42*
X141610Y41500D02*
G03*
X143433Y44323I0J2000D01*
G01*
D02*
G03*
X141610Y45500I-1823J-823D01*
G01*
X137110Y43500D02*
G03*
X139110Y41500I2000J0D01*
G01*
Y45500D02*
G03*
X137110Y43500I0J-2000D01*
G01*
X118019Y102390D02*
G03*
X114019Y102390I-2000J0D01*
G01*
Y99890D02*
G03*
X118019Y99890I2000J0D01*
G01*
X176575Y51075D02*
X178000Y52500D01*
X177862Y52835D02*
X178020D01*
Y52520D02*
Y56000D01*
X178000Y52500D02*
X178020Y52520D01*
X176575Y49725D02*
Y51075D01*
X157985Y56000D02*
X158515Y55470D01*
X156000Y56000D02*
X157985D01*
X121559Y112000D02*
X125000D01*
X155368Y109140D02*
Y116968D01*
X156050Y117650D01*
X155073Y108845D02*
X155368Y109140D01*
X155073Y103500D02*
Y108845D01*
X163860Y109140D02*
X164000Y109000D01*
X160069Y109140D02*
X163860D01*
X158515Y55470D02*
X158675Y55630D01*
X116000Y3000D02*
Y7771D01*
X115980D02*
X116000D01*
X112649Y12889D02*
X115980D01*
X111000Y9490D02*
Y11240D01*
X112649Y12889D01*
X123000Y9988D02*
Y12854D01*
X115780D02*
X123000D01*
X174000Y92000D02*
X174940Y91060D01*
Y83910D02*
Y91060D01*
X133341Y112951D02*
X154291Y92000D01*
X130177Y116114D02*
X133341Y112951D01*
X178750Y64000D02*
X181410Y61340D01*
X178469Y64000D02*
X178750D01*
X193019Y43320D02*
X199513D01*
X200380Y44187D01*
X192913Y43426D02*
X193019Y43320D01*
X200380Y44187D02*
Y71510D01*
X197890Y74000D02*
X200380Y71510D01*
X182874Y43220D02*
Y46575D01*
Y43220D02*
X183039D01*
X186024Y37616D02*
X186060Y37580D01*
X186024Y37616D02*
Y46575D01*
X179724Y40446D02*
Y46575D01*
Y40446D02*
X179750Y40420D01*
X141610Y41500D02*
Y43500D01*
Y45500D01*
X139110Y43500D02*
Y45500D01*
Y41500D02*
Y43500D01*
X116019Y99890D02*
Y102390D01*
X114019Y99890D02*
X118019D01*
X114019Y102390D02*
X118019D01*
X116010Y84490D02*
Y98890D01*
Y112500D02*
X116200Y112690D01*
Y121860D01*
X117500Y123160D01*
Y125202D01*
X116000Y103390D02*
Y107000D01*
Y112500D01*
X193500Y98000D02*
X196890D01*
X143433Y43500D02*
X149574D01*
X143433D02*
Y44323D01*
X149574Y43500D02*
X152650Y46575D01*
X157087D01*
X113000Y107000D02*
X116000D01*
X116000Y107000D01*
X109000Y103000D02*
X113000Y107000D01*
X109000Y51000D02*
Y103000D01*
X137110Y43500D02*
X138110D01*
X116500D02*
X137110D01*
X109000Y51000D02*
X116500Y43500D01*
X142610D02*
X143433Y44323D01*
X200500Y21539D02*
Y30500D01*
X192913Y33977D02*
X197023D01*
X200500Y30500D01*
Y21539D02*
X203000Y19039D01*
X206610D01*
X168500Y103500D02*
X198000Y74000D01*
X159994Y103500D02*
X168500D01*
X178461Y78000D02*
X181000D01*
X190000Y54000D02*
Y69000D01*
X181000Y78000D02*
X190000Y69000D01*
X178461Y72000D02*
X182000D01*
X178461D02*
X185967Y64494D01*
X154291Y92000D02*
X174000D01*
X178461Y72000D02*
X178461D01*
X185967Y54033D02*
Y64494D01*
X175014Y94000D02*
X178461Y90553D01*
Y78000D02*
Y90553D01*
X118000Y118550D02*
Y121115D01*
Y118550D02*
X120436Y116114D01*
X118000Y121115D02*
X121290Y124405D01*
X119603Y128897D02*
X130205D01*
X117500Y131000D02*
X119603Y128897D01*
X130647Y131000D02*
X131647Y130000D01*
X124681Y131586D02*
X125267Y131000D01*
X124681Y131586D02*
Y133728D01*
X125267Y131000D02*
X130647D01*
X130205Y128897D02*
X132000Y127102D01*
X140000Y130000D02*
X144418Y125582D01*
X131647Y130000D02*
X140000D01*
X155000Y49725D02*
X157677D01*
X163976Y43440D02*
Y46575D01*
Y43440D02*
X163990Y43426D01*
X156873Y-3211D02*
X157087Y-3425D01*
X155211Y-3211D02*
X156873D01*
X155000Y-3000D02*
X155211Y-3211D01*
X156933Y1847D02*
X157087Y1693D01*
X155153Y1847D02*
X156933D01*
X155000Y2000D02*
X155153Y1847D01*
X157086Y6812D02*
X157087Y6811D01*
X155188Y6812D02*
X157086D01*
X155000Y7000D02*
X155188Y6812D01*
X157051Y11965D02*
X157087Y11930D01*
X155035Y11965D02*
X157051D01*
X155000Y12000D02*
X155035Y11965D01*
X167579Y15040D02*
X167618Y15079D01*
X165040Y15040D02*
X167579D01*
X165000Y15000D02*
X165040Y15040D01*
X179000Y15000D02*
X182303D01*
X182382Y15079D01*
X172000Y15000D02*
X174921D01*
X175000Y15079D01*
X192913Y11930D02*
X192924Y11940D01*
X195509D01*
X195519Y11950D01*
X192913Y27678D02*
X195519D01*
X195519Y27678D01*
X187008Y33977D02*
X189764D01*
X187000Y24528D02*
X189764D01*
X192913Y40276D02*
X197414D01*
X173425Y49725D02*
Y55916D01*
X173510Y56000D01*
X163990Y54270D02*
Y56000D01*
X163976Y49725D02*
Y54256D01*
X163990Y54270D01*
X156050Y135350D02*
X191950D01*
X156050Y117650D02*
X191950D01*
X206500Y36854D02*
Y42500D01*
Y24543D02*
Y31646D01*
X192913Y46575D02*
X193087Y46402D01*
X195519D01*
X195700Y46221D01*
X155400Y136000D02*
X156050Y135350D01*
X148000Y136000D02*
X155400D01*
X117500Y131000D02*
Y137496D01*
X121437Y136709D02*
X121598D01*
X121895Y136411D01*
X121998D01*
X124681Y133728D01*
X144418Y104418D02*
Y125582D01*
Y104418D02*
X154837Y94000D01*
X175014D01*
X121322Y124667D02*
Y125087D01*
X185967Y54033D02*
X186000Y54000D01*
X120436Y116114D02*
X130177D01*
X121322Y125087D02*
X121437Y125202D01*
X121290Y124405D02*
Y124635D01*
X121322Y124667D01*
X143000Y3000D02*
Y9988D01*
X133000Y3000D02*
Y9988D01*
X128000Y3000D02*
Y9988D01*
D43*
X123091Y25899D02*
G03*
X123001Y26012I-116J0D01*
G01*
X123560Y16680D02*
X145095D01*
X146696Y15079D02*
X157087D01*
X145095Y16680D02*
X146696Y15079D01*
X123091Y17149D02*
Y25899D01*
Y17149D02*
X123560Y16680D01*
X143000Y33426D02*
X153000Y43426D01*
X129373Y18280D02*
X145758D01*
X146775Y17263D02*
X156121D01*
X157087Y18229D01*
X145758Y18280D02*
X146775Y17263D01*
X128000Y19653D02*
X129373Y18280D01*
X128000Y19653D02*
Y26012D01*
X123000D02*
X123001Y26012D01*
X153000Y43426D02*
X157087D01*
X143000Y26012D02*
Y33426D01*
D44*
X123280Y57000D02*
D03*
X197890Y74000D02*
D03*
X142390Y127500D02*
D03*
X133390Y113000D02*
D03*
X196890Y98000D02*
D03*
D45*
X211390Y136000D02*
D03*
X242500Y31000D02*
D03*
X111890Y37000D02*
D03*
D46*
X177862Y52835D02*
D03*
X156000Y56000D02*
D03*
X125000Y112000D02*
D03*
X164000Y109000D02*
D03*
X174940Y83910D02*
D03*
X181410Y61340D02*
D03*
X183039Y43220D02*
D03*
X186060Y37580D02*
D03*
X179750Y40420D02*
D03*
X193500Y98000D02*
D03*
X182000Y72000D02*
D03*
X155000Y49725D02*
D03*
X163990Y43426D02*
D03*
X111000Y9490D02*
D03*
X113010Y58000D02*
D03*
X116000D02*
D03*
X155000Y-3000D02*
D03*
Y2000D02*
D03*
Y7000D02*
D03*
Y12000D02*
D03*
X165000Y15000D02*
D03*
X179000D02*
D03*
X172000D02*
D03*
X195519Y11950D02*
D03*
Y27678D02*
D03*
X187008Y33977D02*
D03*
X187000Y24528D02*
D03*
X197414Y40276D02*
D03*
X206500Y43000D02*
D03*
X195700Y46221D02*
D03*
X148000Y136000D02*
D03*
X132000Y127102D02*
D03*
X190000Y54000D02*
D03*
X186000D02*
D03*
X116000Y3000D02*
D03*
X143000D02*
D03*
X133000D02*
D03*
X128000D02*
D03*
M02*
