G04*
G04 #@! TF.GenerationSoftware,Altium Limited,Altium Designer,21.3.1 (25)*
G04*
G04 Layer_Color=16711935*
%FSLAX25Y25*%
%MOIN*%
G70*
G04*
G04 #@! TF.SameCoordinates,9192AE54-2D66-49C7-9B86-A226D0D4A20B*
G04*
G04*
G04 #@! TF.FilePolarity,Positive*
G04*
G01*
G75*
%ADD11C,0.00787*%
D11*
X179724Y1627D02*
Y5563D01*
X182348Y1627D01*
Y5563D01*
X184316Y1627D02*
X185628D01*
X186284Y2283D01*
Y3595D01*
X185628Y4251D01*
X184316D01*
X183660Y3595D01*
Y2283D01*
X184316Y1627D01*
X194155Y4907D02*
X193500Y5563D01*
X192188D01*
X191532Y4907D01*
Y2283D01*
X192188Y1627D01*
X193500D01*
X194155Y2283D01*
X196123Y1627D02*
X197435D01*
X198091Y2283D01*
Y3595D01*
X197435Y4251D01*
X196123D01*
X195467Y3595D01*
Y2283D01*
X196123Y1627D01*
X199403Y315D02*
Y4251D01*
X201371D01*
X202027Y3595D01*
Y2283D01*
X201371Y1627D01*
X199403D01*
X203339Y315D02*
Y4251D01*
X205307D01*
X205963Y3595D01*
Y2283D01*
X205307Y1627D01*
X203339D01*
X209243D02*
X207930D01*
X207275Y2283D01*
Y3595D01*
X207930Y4251D01*
X209243D01*
X209898Y3595D01*
Y2939D01*
X207275D01*
X211210Y4251D02*
Y1627D01*
Y2939D01*
X211866Y3595D01*
X212522Y4251D01*
X213178D01*
M02*
