G04*
G04 #@! TF.GenerationSoftware,Altium Limited,Altium Designer,21.3.1 (25)*
G04*
G04 Layer_Color=8388736*
%FSLAX25Y25*%
%MOIN*%
G70*
G04*
G04 #@! TF.SameCoordinates,9192AE54-2D66-49C7-9B86-A226D0D4A20B*
G04*
G04*
G04 #@! TF.FilePolarity,Positive*
G04*
G01*
G75*
%ADD11C,0.00787*%
%ADD49C,0.00197*%
G36*
X119310Y130668D02*
X117862D01*
X117860D01*
X117858D01*
X117854D01*
X117847D01*
X117840D01*
X117831D01*
X117820Y130667D01*
X117809D01*
X117782D01*
X117750Y130665D01*
X117716Y130663D01*
X117680Y130660D01*
X117640Y130657D01*
X117601Y130653D01*
X117520Y130642D01*
X117482Y130635D01*
X117446Y130627D01*
X117412Y130618D01*
X117380Y130607D01*
X117379Y130606D01*
X117374Y130604D01*
X117365Y130600D01*
X117355Y130595D01*
X117342Y130588D01*
X117327Y130580D01*
X117310Y130570D01*
X117292Y130558D01*
X117273Y130544D01*
X117254Y130529D01*
X117234Y130512D01*
X117215Y130493D01*
X117194Y130472D01*
X117175Y130449D01*
X117157Y130425D01*
X117141Y130397D01*
X117140Y130396D01*
X117137Y130391D01*
X117133Y130383D01*
X117127Y130370D01*
X117122Y130357D01*
X117114Y130339D01*
X117107Y130319D01*
X117099Y130297D01*
X117091Y130271D01*
X117084Y130244D01*
X117076Y130214D01*
X117070Y130183D01*
X117065Y130149D01*
X117061Y130112D01*
X117058Y130075D01*
X117057Y130036D01*
Y130011D01*
X117058Y130000D01*
Y129990D01*
X117059Y129976D01*
X117062Y129946D01*
X117065Y129912D01*
X117070Y129874D01*
X117077Y129833D01*
X117087Y129791D01*
X117097Y129747D01*
X117111Y129704D01*
X117127Y129662D01*
X117145Y129621D01*
X117168Y129581D01*
X117194Y129546D01*
X117223Y129515D01*
X117224Y129514D01*
X117231Y129508D01*
X117242Y129500D01*
X117257Y129490D01*
X117276Y129478D01*
X117300Y129466D01*
X117330Y129451D01*
X117348Y129444D01*
X117365Y129436D01*
X117385Y129429D01*
X117406Y129422D01*
X117428Y129414D01*
X117453Y129407D01*
X117477Y129401D01*
X117504Y129395D01*
X117533Y129388D01*
X117563Y129383D01*
X117594Y129377D01*
X117628Y129373D01*
X117662Y129369D01*
X117699Y129365D01*
X117737Y129363D01*
X117778Y129360D01*
X117818Y129358D01*
X117862D01*
X119310D01*
Y129025D01*
X117860D01*
X117859D01*
X117856D01*
X117851D01*
X117844D01*
X117835D01*
X117824D01*
X117812Y129027D01*
X117798D01*
X117783D01*
X117767Y129028D01*
X117729Y129029D01*
X117688Y129032D01*
X117644Y129036D01*
X117597Y129040D01*
X117548Y129046D01*
X117497Y129052D01*
X117447Y129062D01*
X117398Y129071D01*
X117349Y129082D01*
X117303Y129096D01*
X117259Y129111D01*
X117257Y129112D01*
X117250Y129115D01*
X117238Y129121D01*
X117223Y129127D01*
X117204Y129138D01*
X117182Y129150D01*
X117157Y129164D01*
X117130Y129182D01*
X117103Y129202D01*
X117073Y129224D01*
X117043Y129250D01*
X117013Y129278D01*
X116982Y129309D01*
X116953Y129343D01*
X116925Y129380D01*
X116898Y129421D01*
X116896Y129424D01*
X116892Y129432D01*
X116885Y129444D01*
X116876Y129462D01*
X116865Y129484D01*
X116854Y129511D01*
X116842Y129542D01*
X116828Y129577D01*
X116816Y129618D01*
X116802Y129662D01*
X116791Y129711D01*
X116781Y129762D01*
X116771Y129818D01*
X116764Y129878D01*
X116760Y129941D01*
X116759Y130007D01*
Y130032D01*
X116760Y130041D01*
Y130066D01*
X116762Y130081D01*
X116763Y130096D01*
X116766Y130131D01*
X116768Y130169D01*
X116774Y130211D01*
X116781Y130256D01*
X116789Y130302D01*
X116798Y130351D01*
X116811Y130399D01*
X116824Y130448D01*
X116841Y130494D01*
X116858Y130540D01*
X116880Y130584D01*
X116881Y130587D01*
X116885Y130593D01*
X116892Y130606D01*
X116903Y130621D01*
X116915Y130638D01*
X116930Y130660D01*
X116948Y130683D01*
X116970Y130708D01*
X116993Y130733D01*
X117019Y130761D01*
X117047Y130788D01*
X117078Y130814D01*
X117113Y130840D01*
X117149Y130863D01*
X117189Y130886D01*
X117231Y130905D01*
X117234Y130906D01*
X117242Y130909D01*
X117255Y130913D01*
X117273Y130920D01*
X117296Y130927D01*
X117325Y130935D01*
X117357Y130943D01*
X117395Y130952D01*
X117439Y130961D01*
X117485Y130970D01*
X117537Y130978D01*
X117594Y130985D01*
X117654Y130992D01*
X117719Y130996D01*
X117787Y130999D01*
X117860Y131000D01*
X119310D01*
Y130668D01*
D02*
G37*
G36*
X116842Y128635D02*
X116854D01*
X116869Y128634D01*
X116902Y128630D01*
X116937Y128623D01*
X116975Y128613D01*
X117015Y128601D01*
X117016Y128600D01*
X117023Y128598D01*
X117031Y128594D01*
X117043Y128589D01*
X117058Y128582D01*
X117077Y128574D01*
X117097Y128563D01*
X117119Y128552D01*
X117144Y128538D01*
X117170Y128523D01*
X117198Y128507D01*
X117227Y128488D01*
X117255Y128469D01*
X117287Y128447D01*
X117316Y128423D01*
X117348Y128398D01*
X117349Y128397D01*
X117356Y128392D01*
X117364Y128383D01*
X117376Y128373D01*
X117393Y128358D01*
X117412Y128340D01*
X117433Y128319D01*
X117457Y128295D01*
X117484Y128268D01*
X117514Y128238D01*
X117545Y128205D01*
X117578Y128168D01*
X117613Y128129D01*
X117650Y128087D01*
X117689Y128042D01*
X117729Y127994D01*
X117730Y127993D01*
X117733Y127990D01*
X117737Y127983D01*
X117744Y127977D01*
X117752Y127967D01*
X117761Y127956D01*
X117772Y127943D01*
X117784Y127928D01*
X117798Y127913D01*
X117812Y127895D01*
X117844Y127857D01*
X117881Y127816D01*
X117920Y127773D01*
X117963Y127726D01*
X118005Y127680D01*
X118050Y127634D01*
X118093Y127589D01*
X118138Y127547D01*
X118180Y127507D01*
X118221Y127472D01*
X118240Y127456D01*
X118259Y127442D01*
X118262Y127441D01*
X118269Y127435D01*
X118278Y127429D01*
X118293Y127419D01*
X118311Y127408D01*
X118331Y127396D01*
X118354Y127384D01*
X118380Y127370D01*
X118407Y127357D01*
X118436Y127344D01*
X118467Y127332D01*
X118498Y127321D01*
X118531Y127312D01*
X118565Y127305D01*
X118598Y127299D01*
X118630Y127298D01*
X118633D01*
X118638D01*
X118648Y127299D01*
X118661D01*
X118676Y127302D01*
X118695Y127305D01*
X118716Y127309D01*
X118738Y127314D01*
X118761Y127321D01*
X118787Y127331D01*
X118813Y127340D01*
X118838Y127354D01*
X118864Y127369D01*
X118890Y127386D01*
X118914Y127407D01*
X118939Y127430D01*
X118940Y127431D01*
X118944Y127435D01*
X118951Y127444D01*
X118959Y127453D01*
X118969Y127467D01*
X118978Y127482D01*
X118991Y127501D01*
X119003Y127521D01*
X119014Y127544D01*
X119026Y127570D01*
X119035Y127599D01*
X119046Y127629D01*
X119053Y127661D01*
X119060Y127695D01*
X119064Y127732D01*
X119065Y127770D01*
Y127779D01*
X119064Y127792D01*
Y127807D01*
X119061Y127826D01*
X119059Y127848D01*
X119055Y127872D01*
X119049Y127898D01*
X119042Y127926D01*
X119033Y127955D01*
X119022Y127985D01*
X119010Y128015D01*
X118993Y128045D01*
X118976Y128073D01*
X118955Y128102D01*
X118932Y128128D01*
X118931Y128129D01*
X118925Y128133D01*
X118919Y128140D01*
X118908Y128148D01*
X118894Y128159D01*
X118878Y128170D01*
X118859Y128182D01*
X118836Y128194D01*
X118811Y128207D01*
X118784Y128219D01*
X118753Y128231D01*
X118720Y128241D01*
X118685Y128249D01*
X118647Y128255D01*
X118606Y128261D01*
X118562Y128262D01*
X118595Y128579D01*
X118596D01*
X118599D01*
X118604Y128578D01*
X118610D01*
X118619Y128577D01*
X118629Y128575D01*
X118640Y128572D01*
X118653Y128571D01*
X118682Y128566D01*
X118716Y128557D01*
X118754Y128548D01*
X118795Y128536D01*
X118837Y128522D01*
X118882Y128504D01*
X118927Y128485D01*
X118972Y128462D01*
X119015Y128436D01*
X119057Y128405D01*
X119097Y128373D01*
X119133Y128334D01*
X119136Y128332D01*
X119142Y128325D01*
X119151Y128313D01*
X119162Y128295D01*
X119177Y128275D01*
X119192Y128249D01*
X119210Y128217D01*
X119227Y128183D01*
X119244Y128144D01*
X119261Y128102D01*
X119276Y128054D01*
X119291Y128004D01*
X119302Y127950D01*
X119312Y127891D01*
X119317Y127829D01*
X119320Y127763D01*
Y127747D01*
X119318Y127739D01*
Y127728D01*
X119317Y127717D01*
Y127703D01*
X119316Y127688D01*
X119314Y127673D01*
X119309Y127638D01*
X119303Y127599D01*
X119295Y127557D01*
X119284Y127512D01*
X119271Y127465D01*
X119255Y127418D01*
X119235Y127370D01*
X119212Y127323D01*
X119186Y127278D01*
X119155Y127233D01*
X119120Y127192D01*
X119117Y127189D01*
X119110Y127182D01*
X119099Y127173D01*
X119085Y127159D01*
X119064Y127143D01*
X119041Y127125D01*
X119014Y127106D01*
X118983Y127086D01*
X118948Y127067D01*
X118910Y127048D01*
X118870Y127030D01*
X118826Y127014D01*
X118780Y127000D01*
X118729Y126991D01*
X118678Y126984D01*
X118623Y126981D01*
X118622D01*
X118617D01*
X118608D01*
X118598Y126983D01*
X118584D01*
X118568Y126984D01*
X118550Y126987D01*
X118530Y126989D01*
X118508Y126992D01*
X118485Y126996D01*
X118434Y127007D01*
X118381Y127023D01*
X118354Y127033D01*
X118327Y127044D01*
X118326D01*
X118320Y127047D01*
X118312Y127051D01*
X118301Y127056D01*
X118289Y127063D01*
X118273Y127071D01*
X118255Y127081D01*
X118235Y127093D01*
X118213Y127105D01*
X118188Y127120D01*
X118164Y127138D01*
X118137Y127155D01*
X118109Y127176D01*
X118081Y127197D01*
X118051Y127222D01*
X118021Y127248D01*
X118020Y127249D01*
X118014Y127255D01*
X118005Y127263D01*
X117991Y127275D01*
X117975Y127291D01*
X117956Y127310D01*
X117933Y127333D01*
X117905Y127361D01*
X117875Y127392D01*
X117843Y127426D01*
X117806Y127465D01*
X117767Y127507D01*
X117725Y127555D01*
X117678Y127607D01*
X117631Y127663D01*
X117579Y127722D01*
Y127724D01*
X117576Y127725D01*
X117573Y127729D01*
X117569Y127735D01*
X117557Y127748D01*
X117541Y127767D01*
X117523Y127789D01*
X117501Y127815D01*
X117477Y127842D01*
X117453Y127871D01*
X117399Y127932D01*
X117374Y127962D01*
X117348Y127990D01*
X117323Y128016D01*
X117301Y128041D01*
X117281Y128061D01*
X117263Y128079D01*
X117262Y128080D01*
X117259Y128083D01*
X117255Y128087D01*
X117250Y128092D01*
X117242Y128099D01*
X117232Y128106D01*
X117212Y128125D01*
X117186Y128145D01*
X117157Y128167D01*
X117127Y128189D01*
X117096Y128209D01*
Y126979D01*
X116801D01*
Y128636D01*
X116802D01*
X116806D01*
X116812D01*
X116820D01*
X116830D01*
X116842Y128635D01*
D02*
G37*
G36*
X208268Y33587D02*
X208267Y33563D01*
Y33534D01*
X208265Y33503D01*
X208264Y33469D01*
X208261Y33434D01*
X208259Y33397D01*
X208253Y33322D01*
X208249Y33287D01*
X208244Y33252D01*
X208238Y33217D01*
X208231Y33188D01*
Y33185D01*
X208229Y33178D01*
X208226Y33167D01*
X208222Y33152D01*
X208216Y33133D01*
X208210Y33111D01*
X208200Y33087D01*
X208191Y33061D01*
X208180Y33033D01*
X208166Y33004D01*
X208151Y32973D01*
X208135Y32941D01*
X208117Y32910D01*
X208097Y32880D01*
X208075Y32849D01*
X208052Y32820D01*
X208050Y32818D01*
X208044Y32812D01*
X208034Y32801D01*
X208022Y32788D01*
X208006Y32771D01*
X207985Y32752D01*
X207962Y32732D01*
X207936Y32709D01*
X207906Y32686D01*
X207874Y32661D01*
X207838Y32635D01*
X207800Y32611D01*
X207759Y32588D01*
X207717Y32565D01*
X207671Y32543D01*
X207623Y32524D01*
X207622D01*
X207621Y32523D01*
X207617Y32521D01*
X207611Y32520D01*
X207604Y32517D01*
X207598Y32514D01*
X207577Y32509D01*
X207553Y32501D01*
X207523Y32493D01*
X207489Y32483D01*
X207451Y32474D01*
X207409Y32465D01*
X207362Y32456D01*
X207313Y32448D01*
X207262Y32440D01*
X207206Y32434D01*
X207149Y32429D01*
X207089Y32426D01*
X207026Y32425D01*
X207025D01*
X207024D01*
X207020D01*
X207014D01*
X207007D01*
X206999D01*
X206979Y32426D01*
X206953D01*
X206924Y32429D01*
X206892Y32430D01*
X206856Y32433D01*
X206817Y32437D01*
X206778Y32441D01*
X206735Y32446D01*
X206692Y32453D01*
X206648Y32460D01*
X206605Y32469D01*
X206561Y32479D01*
X206519Y32491D01*
X206516Y32493D01*
X206510Y32494D01*
X206497Y32498D01*
X206482Y32504D01*
X206463Y32510D01*
X206442Y32519D01*
X206417Y32527D01*
X206391Y32537D01*
X206363Y32550D01*
X206333Y32562D01*
X206273Y32592D01*
X206212Y32625D01*
X206183Y32644D01*
X206155Y32663D01*
X206153Y32664D01*
X206148Y32667D01*
X206141Y32673D01*
X206132Y32680D01*
X206119Y32691D01*
X206104Y32702D01*
X206089Y32716D01*
X206072Y32731D01*
X206054Y32747D01*
X206035Y32765D01*
X205997Y32803D01*
X205960Y32846D01*
X205943Y32868D01*
X205926Y32891D01*
X205925Y32893D01*
X205922Y32897D01*
X205918Y32903D01*
X205913Y32913D01*
X205906Y32925D01*
X205898Y32940D01*
X205889Y32956D01*
X205880Y32975D01*
X205869Y32996D01*
X205859Y33019D01*
X205849Y33043D01*
X205838Y33069D01*
X205828Y33098D01*
X205819Y33126D01*
X205809Y33158D01*
X205801Y33190D01*
Y33192D01*
X205800Y33198D01*
X205797Y33208D01*
X205794Y33222D01*
X205791Y33238D01*
X205787Y33258D01*
X205783Y33281D01*
X205781Y33306D01*
X205777Y33334D01*
X205772Y33366D01*
X205768Y33400D01*
X205766Y33435D01*
X205763Y33472D01*
X205760Y33511D01*
X205759Y33552D01*
Y34500D01*
X208268D01*
Y33587D01*
D02*
G37*
G36*
X207648Y31855D02*
X207649Y31853D01*
X207651Y31849D01*
X207653Y31845D01*
X207660Y31830D01*
X207670Y31813D01*
X207682Y31791D01*
X207696Y31764D01*
X207712Y31735D01*
X207731Y31703D01*
X207751Y31668D01*
X207774Y31632D01*
X207798Y31595D01*
X207825Y31557D01*
X207852Y31517D01*
X207880Y31479D01*
X207912Y31441D01*
X207943Y31405D01*
X207944Y31402D01*
X207951Y31396D01*
X207961Y31386D01*
X207973Y31373D01*
X207988Y31357D01*
X208006Y31339D01*
X208027Y31319D01*
X208049Y31297D01*
X208075Y31275D01*
X208101Y31252D01*
X208157Y31206D01*
X208187Y31186D01*
X208216Y31165D01*
X208248Y31146D01*
X208278Y31130D01*
Y30931D01*
X205759D01*
Y31240D01*
X207721D01*
X207720Y31241D01*
X207717Y31245D01*
X207711Y31251D01*
X207704Y31260D01*
X207694Y31271D01*
X207682Y31285D01*
X207670Y31300D01*
X207655Y31318D01*
X207640Y31338D01*
X207623Y31360D01*
X207606Y31383D01*
X207587Y31409D01*
X207568Y31437D01*
X207549Y31467D01*
X207530Y31499D01*
X207509Y31531D01*
X207508Y31532D01*
X207505Y31539D01*
X207500Y31549D01*
X207491Y31561D01*
X207483Y31577D01*
X207472Y31596D01*
X207462Y31617D01*
X207449Y31640D01*
X207437Y31664D01*
X207423Y31690D01*
X207398Y31745D01*
X207372Y31800D01*
X207350Y31856D01*
X207648D01*
Y31855D01*
D02*
G37*
G36*
X179419Y66559D02*
X179439Y66558D01*
X179465Y66555D01*
X179494Y66553D01*
X179526Y66547D01*
X179562Y66540D01*
X179600Y66531D01*
X179638Y66520D01*
X179679Y66506D01*
X179720Y66492D01*
X179760Y66472D01*
X179800Y66449D01*
X179838Y66425D01*
X179875Y66395D01*
X179877Y66394D01*
X179883Y66387D01*
X179892Y66377D01*
X179904Y66365D01*
X179920Y66347D01*
X179937Y66327D01*
X179955Y66302D01*
X179974Y66275D01*
X179994Y66244D01*
X180013Y66210D01*
X180032Y66172D01*
X180051Y66131D01*
X180068Y66088D01*
X180081Y66040D01*
X180094Y65990D01*
X180102Y65937D01*
X179796Y65912D01*
Y65915D01*
X179794Y65920D01*
X179792Y65930D01*
X179788Y65942D01*
X179783Y65957D01*
X179779Y65975D01*
X179773Y65994D01*
X179766Y66014D01*
X179750Y66056D01*
X179729Y66100D01*
X179718Y66122D01*
X179706Y66141D01*
X179692Y66160D01*
X179679Y66176D01*
X179677Y66177D01*
X179673Y66181D01*
X179666Y66188D01*
X179657Y66196D01*
X179645Y66207D01*
X179630Y66218D01*
X179612Y66229D01*
X179593Y66243D01*
X179573Y66255D01*
X179548Y66266D01*
X179524Y66278D01*
X179497Y66287D01*
X179468Y66296D01*
X179437Y66302D01*
X179405Y66307D01*
X179371Y66308D01*
X179356D01*
X179347Y66307D01*
X179333Y66305D01*
X179318Y66304D01*
X179302Y66301D01*
X179283Y66298D01*
X179244Y66287D01*
X179222Y66282D01*
X179200Y66274D01*
X179178Y66264D01*
X179155Y66254D01*
X179135Y66241D01*
X179113Y66226D01*
X179112Y66225D01*
X179106Y66221D01*
X179099Y66215D01*
X179088Y66207D01*
X179076Y66195D01*
X179063Y66181D01*
X179046Y66166D01*
X179030Y66147D01*
X179012Y66127D01*
X178993Y66104D01*
X178974Y66078D01*
X178955Y66051D01*
X178936Y66021D01*
X178917Y65988D01*
X178900Y65953D01*
X178883Y65916D01*
X178882Y65913D01*
X178879Y65907D01*
X178875Y65894D01*
X178870Y65878D01*
X178864Y65858D01*
X178856Y65832D01*
X178849Y65802D01*
X178841Y65767D01*
X178833Y65728D01*
X178825Y65685D01*
X178818Y65637D01*
X178811Y65586D01*
X178806Y65529D01*
X178800Y65469D01*
X178797Y65403D01*
X178796Y65336D01*
X178797Y65337D01*
X178802Y65344D01*
X178807Y65352D01*
X178816Y65364D01*
X178827Y65378D01*
X178840Y65394D01*
X178855Y65412D01*
X178872Y65431D01*
X178891Y65451D01*
X178912Y65472D01*
X178934Y65493D01*
X178958Y65514D01*
X178984Y65534D01*
X179011Y65553D01*
X179038Y65571D01*
X179068Y65587D01*
X179069Y65588D01*
X179075Y65591D01*
X179084Y65595D01*
X179097Y65601D01*
X179110Y65606D01*
X179128Y65613D01*
X179148Y65621D01*
X179170Y65629D01*
X179195Y65636D01*
X179220Y65644D01*
X179249Y65651D01*
X179278Y65658D01*
X179309Y65662D01*
X179340Y65666D01*
X179373Y65669D01*
X179405Y65670D01*
X179419D01*
X179426Y65669D01*
X179435D01*
X179445Y65667D01*
X179457Y65666D01*
X179483Y65663D01*
X179514Y65658D01*
X179548Y65651D01*
X179586Y65641D01*
X179626Y65629D01*
X179668Y65614D01*
X179711Y65597D01*
X179756Y65575D01*
X179800Y65548D01*
X179845Y65518D01*
X179888Y65482D01*
X179929Y65443D01*
X179932Y65440D01*
X179938Y65432D01*
X179949Y65420D01*
X179963Y65402D01*
X179979Y65379D01*
X179998Y65352D01*
X180017Y65320D01*
X180038Y65285D01*
X180058Y65244D01*
X180077Y65200D01*
X180096Y65152D01*
X180113Y65100D01*
X180126Y65044D01*
X180137Y64985D01*
X180144Y64922D01*
X180147Y64857D01*
Y64854D01*
Y64846D01*
Y64834D01*
X180145Y64817D01*
X180144Y64796D01*
X180141Y64771D01*
X180138Y64744D01*
X180134Y64713D01*
X180129Y64680D01*
X180122Y64646D01*
X180114Y64609D01*
X180103Y64571D01*
X180092Y64533D01*
X180079Y64495D01*
X180062Y64456D01*
X180045Y64417D01*
X180043Y64415D01*
X180041Y64408D01*
X180034Y64398D01*
X180025Y64385D01*
X180016Y64367D01*
X180002Y64348D01*
X179989Y64326D01*
X179971Y64303D01*
X179952Y64279D01*
X179932Y64253D01*
X179909Y64227D01*
X179883Y64201D01*
X179857Y64175D01*
X179827Y64152D01*
X179797Y64129D01*
X179764Y64107D01*
X179763Y64106D01*
X179756Y64103D01*
X179747Y64098D01*
X179733Y64091D01*
X179717Y64083D01*
X179696Y64073D01*
X179673Y64064D01*
X179648Y64054D01*
X179619Y64043D01*
X179588Y64034D01*
X179554Y64024D01*
X179518Y64016D01*
X179481Y64009D01*
X179442Y64004D01*
X179403Y64001D01*
X179360Y64000D01*
X179344D01*
X179335Y64001D01*
X179324D01*
X179310Y64003D01*
X179297Y64004D01*
X179280Y64007D01*
X179264Y64008D01*
X179226Y64015D01*
X179184Y64023D01*
X179138Y64035D01*
X179088Y64050D01*
X179038Y64069D01*
X178987Y64092D01*
X178934Y64120D01*
X178880Y64152D01*
X178855Y64170D01*
X178829Y64189D01*
X178804Y64211D01*
X178780Y64232D01*
X178755Y64257D01*
X178732Y64283D01*
Y64284D01*
X178729Y64286D01*
X178727Y64291D01*
X178721Y64296D01*
X178716Y64305D01*
X178710Y64313D01*
X178702Y64325D01*
X178694Y64337D01*
X178686Y64352D01*
X178676Y64368D01*
X178666Y64386D01*
X178655Y64407D01*
X178644Y64428D01*
X178633Y64453D01*
X178622Y64479D01*
X178611Y64506D01*
X178599Y64534D01*
X178588Y64567D01*
X178577Y64600D01*
X178566Y64635D01*
X178555Y64672D01*
X178546Y64711D01*
X178536Y64752D01*
X178527Y64796D01*
X178519Y64840D01*
X178512Y64888D01*
X178505Y64938D01*
X178500Y64989D01*
X178494Y65043D01*
X178491Y65099D01*
X178490Y65156D01*
X178489Y65216D01*
Y65219D01*
Y65224D01*
Y65233D01*
Y65247D01*
X178490Y65265D01*
Y65285D01*
X178491Y65308D01*
X178493Y65334D01*
X178494Y65364D01*
X178497Y65395D01*
X178500Y65428D01*
X178502Y65463D01*
X178506Y65500D01*
X178512Y65539D01*
X178516Y65580D01*
X178523Y65621D01*
X178536Y65707D01*
X178554Y65794D01*
X178576Y65882D01*
X178603Y65969D01*
X178633Y66053D01*
X178651Y66094D01*
X178670Y66134D01*
X178689Y66172D01*
X178710Y66207D01*
X178734Y66241D01*
X178758Y66274D01*
X178759Y66275D01*
X178761Y66277D01*
X178765Y66281D01*
X178769Y66286D01*
X178782Y66301D01*
X178802Y66319D01*
X178825Y66341D01*
X178853Y66365D01*
X178887Y66391D01*
X178925Y66418D01*
X178969Y66444D01*
X179016Y66470D01*
X179068Y66494D01*
X179124Y66516D01*
X179185Y66535D01*
X179249Y66549D01*
X179283Y66554D01*
X179318Y66558D01*
X179354Y66559D01*
X179390Y66561D01*
X179411D01*
X179419Y66559D01*
D02*
G37*
G36*
X177210Y66592D02*
X177234D01*
X177247Y66591D01*
X177263Y66589D01*
X177280Y66588D01*
X177318Y66584D01*
X177360Y66577D01*
X177405Y66569D01*
X177454Y66559D01*
X177506Y66547D01*
X177557Y66531D01*
X177610Y66513D01*
X177665Y66490D01*
X177718Y66466D01*
X177769Y66436D01*
X177818Y66402D01*
X177820D01*
X177821Y66399D01*
X177829Y66392D01*
X177843Y66381D01*
X177860Y66366D01*
X177881Y66347D01*
X177905Y66323D01*
X177931Y66294D01*
X177960Y66263D01*
X177988Y66226D01*
X178018Y66185D01*
X178048Y66142D01*
X178078Y66093D01*
X178105Y66041D01*
X178131Y65986D01*
X178156Y65927D01*
X178176Y65863D01*
X177848Y65786D01*
Y65787D01*
X177847Y65788D01*
X177846Y65792D01*
X177844Y65798D01*
X177839Y65812D01*
X177832Y65830D01*
X177822Y65854D01*
X177812Y65879D01*
X177799Y65908D01*
X177784Y65938D01*
X177767Y65971D01*
X177748Y66003D01*
X177727Y66037D01*
X177705Y66070D01*
X177680Y66101D01*
X177654Y66131D01*
X177625Y66160D01*
X177595Y66184D01*
X177594Y66185D01*
X177587Y66189D01*
X177579Y66196D01*
X177565Y66203D01*
X177549Y66213D01*
X177530Y66224D01*
X177507Y66234D01*
X177481Y66247D01*
X177452Y66259D01*
X177420Y66270D01*
X177386Y66281D01*
X177349Y66290D01*
X177310Y66298D01*
X177268Y66304D01*
X177224Y66308D01*
X177178Y66309D01*
X177159D01*
X177149Y66308D01*
X177130Y66307D01*
X177104Y66305D01*
X177076Y66302D01*
X177043Y66297D01*
X177009Y66291D01*
X176971Y66285D01*
X176933Y66275D01*
X176892Y66264D01*
X176851Y66251D01*
X176811Y66234D01*
X176770Y66217D01*
X176732Y66195D01*
X176694Y66171D01*
X176691Y66169D01*
X176685Y66164D01*
X176674Y66156D01*
X176662Y66145D01*
X176646Y66131D01*
X176628Y66115D01*
X176608Y66094D01*
X176586Y66073D01*
X176564Y66047D01*
X176541Y66018D01*
X176518Y65988D01*
X176496Y65954D01*
X176475Y65919D01*
X176454Y65881D01*
X176436Y65840D01*
X176420Y65798D01*
X176419Y65795D01*
X176418Y65787D01*
X176413Y65775D01*
X176408Y65757D01*
X176402Y65737D01*
X176396Y65711D01*
X176389Y65682D01*
X176382Y65651D01*
X176374Y65616D01*
X176367Y65578D01*
X176360Y65538D01*
X176355Y65497D01*
X176349Y65454D01*
X176345Y65409D01*
X176344Y65363D01*
X176343Y65316D01*
Y65315D01*
Y65312D01*
Y65308D01*
Y65303D01*
Y65295D01*
Y65285D01*
X176344Y65274D01*
Y65263D01*
X176345Y65235D01*
X176348Y65202D01*
X176351Y65167D01*
X176355Y65127D01*
X176359Y65084D01*
X176366Y65039D01*
X176373Y64993D01*
X176382Y64947D01*
X176393Y64898D01*
X176405Y64850D01*
X176419Y64804D01*
X176435Y64758D01*
X176436Y64755D01*
X176439Y64747D01*
X176445Y64734D01*
X176453Y64718D01*
X176462Y64699D01*
X176475Y64676D01*
X176490Y64651D01*
X176507Y64624D01*
X176526Y64596D01*
X176547Y64566D01*
X176571Y64536D01*
X176597Y64507D01*
X176626Y64479D01*
X176657Y64450D01*
X176690Y64424D01*
X176725Y64401D01*
X176727Y64400D01*
X176734Y64396D01*
X176745Y64390D01*
X176759Y64382D01*
X176778Y64374D01*
X176800Y64364D01*
X176824Y64354D01*
X176853Y64343D01*
X176883Y64330D01*
X176915Y64321D01*
X176951Y64310D01*
X176989Y64302D01*
X177027Y64294D01*
X177068Y64288D01*
X177110Y64284D01*
X177152Y64283D01*
X177171D01*
X177179Y64284D01*
X177198Y64286D01*
X177223Y64288D01*
X177250Y64291D01*
X177281Y64296D01*
X177315Y64303D01*
X177352Y64311D01*
X177390Y64322D01*
X177429Y64334D01*
X177469Y64351D01*
X177508Y64368D01*
X177548Y64390D01*
X177587Y64415D01*
X177624Y64443D01*
X177627Y64445D01*
X177632Y64451D01*
X177643Y64461D01*
X177655Y64473D01*
X177671Y64491D01*
X177689Y64511D01*
X177708Y64536D01*
X177730Y64564D01*
X177752Y64596D01*
X177773Y64631D01*
X177795Y64670D01*
X177817Y64714D01*
X177837Y64760D01*
X177855Y64811D01*
X177873Y64865D01*
X177886Y64922D01*
X178218Y64838D01*
Y64836D01*
X178217Y64834D01*
X178215Y64827D01*
X178213Y64820D01*
X178210Y64811D01*
X178207Y64798D01*
X178203Y64785D01*
X178198Y64771D01*
X178192Y64753D01*
X178185Y64736D01*
X178171Y64696D01*
X178153Y64653D01*
X178132Y64606D01*
X178108Y64556D01*
X178081Y64506D01*
X178051Y64454D01*
X178017Y64401D01*
X177979Y64351D01*
X177937Y64302D01*
X177892Y64256D01*
X177843Y64214D01*
X177841D01*
X177840Y64211D01*
X177836Y64208D01*
X177831Y64204D01*
X177824Y64200D01*
X177816Y64194D01*
X177805Y64188D01*
X177794Y64181D01*
X177781Y64173D01*
X177768Y64165D01*
X177737Y64145D01*
X177700Y64126D01*
X177658Y64107D01*
X177612Y64087D01*
X177561Y64068D01*
X177507Y64049D01*
X177448Y64034D01*
X177386Y64020D01*
X177321Y64009D01*
X177251Y64003D01*
X177179Y64000D01*
X177152D01*
X177140Y64001D01*
X177127D01*
X177112Y64003D01*
X177095Y64004D01*
X177077Y64005D01*
X177038Y64008D01*
X176993Y64013D01*
X176945Y64020D01*
X176893Y64030D01*
X176840Y64041D01*
X176785Y64053D01*
X176730Y64069D01*
X176674Y64088D01*
X176621Y64110D01*
X176568Y64136D01*
X176520Y64165D01*
X176518D01*
X176517Y64166D01*
X176509Y64173D01*
X176495Y64182D01*
X176477Y64196D01*
X176457Y64212D01*
X176432Y64232D01*
X176405Y64258D01*
X176375Y64286D01*
X176345Y64318D01*
X176313Y64354D01*
X176281Y64393D01*
X176249Y64435D01*
X176218Y64481D01*
X176186Y64532D01*
X176158Y64585D01*
X176132Y64642D01*
Y64643D01*
X176130Y64646D01*
X176129Y64650D01*
X176126Y64656D01*
X176124Y64664D01*
X176120Y64673D01*
X176116Y64684D01*
X176111Y64696D01*
X176106Y64710D01*
X176102Y64726D01*
X176090Y64760D01*
X176079Y64800D01*
X176067Y64845D01*
X176053Y64892D01*
X176042Y64944D01*
X176031Y65000D01*
X176020Y65058D01*
X176012Y65119D01*
X176005Y65183D01*
X176001Y65248D01*
X176000Y65315D01*
Y65316D01*
Y65319D01*
Y65325D01*
Y65333D01*
Y65342D01*
X176001Y65353D01*
Y65367D01*
X176003Y65380D01*
Y65397D01*
X176004Y65414D01*
X176005Y65433D01*
X176008Y65454D01*
X176012Y65499D01*
X176019Y65548D01*
X176027Y65599D01*
X176037Y65654D01*
X176049Y65711D01*
X176063Y65769D01*
X176080Y65828D01*
X176101Y65886D01*
X176124Y65943D01*
X176149Y65999D01*
Y66000D01*
X176151Y66002D01*
X176154Y66006D01*
X176156Y66011D01*
X176160Y66020D01*
X176166Y66028D01*
X176177Y66047D01*
X176193Y66071D01*
X176212Y66100D01*
X176234Y66131D01*
X176258Y66164D01*
X176287Y66199D01*
X176320Y66236D01*
X176354Y66272D01*
X176392Y66309D01*
X176434Y66346D01*
X176477Y66380D01*
X176525Y66413D01*
X176575Y66443D01*
X176577D01*
X176578Y66444D01*
X176582Y66447D01*
X176587Y66449D01*
X176594Y66452D01*
X176602Y66456D01*
X176613Y66461D01*
X176624Y66466D01*
X176650Y66478D01*
X176680Y66490D01*
X176715Y66504D01*
X176756Y66519D01*
X176798Y66532D01*
X176846Y66546D01*
X176896Y66558D01*
X176949Y66570D01*
X177005Y66580D01*
X177064Y66587D01*
X177123Y66592D01*
X177184Y66593D01*
X177201D01*
X177210Y66592D01*
D02*
G37*
%LPC*%
G36*
X207972Y34167D02*
X206054D01*
Y33606D01*
X206055Y33590D01*
Y33570D01*
X206057Y33545D01*
X206058Y33518D01*
X206059Y33490D01*
X206062Y33458D01*
X206065Y33427D01*
X206073Y33363D01*
X206079Y33330D01*
X206085Y33299D01*
X206092Y33269D01*
X206100Y33242D01*
Y33241D01*
X206103Y33235D01*
X206106Y33228D01*
X206108Y33219D01*
X206114Y33207D01*
X206119Y33193D01*
X206126Y33177D01*
X206134Y33160D01*
X206152Y33125D01*
X206175Y33087D01*
X206201Y33050D01*
X206231Y33016D01*
X206232Y33015D01*
X206236Y33011D01*
X206243Y33005D01*
X206253Y32997D01*
X206265Y32988D01*
X206278Y32975D01*
X206296Y32963D01*
X206315Y32950D01*
X206337Y32935D01*
X206360Y32920D01*
X206386Y32905D01*
X206414Y32890D01*
X206444Y32875D01*
X206477Y32861D01*
X206511Y32846D01*
X206548Y32834D01*
X206550Y32833D01*
X206557Y32831D01*
X206568Y32827D01*
X206583Y32823D01*
X206603Y32819D01*
X206627Y32812D01*
X206652Y32807D01*
X206684Y32800D01*
X206716Y32795D01*
X206754Y32788D01*
X206794Y32782D01*
X206836Y32778D01*
X206882Y32773D01*
X206930Y32770D01*
X206980Y32769D01*
X207032Y32767D01*
X207033D01*
X207036D01*
X207041D01*
X207049D01*
X207059D01*
X207070Y32769D01*
X207082D01*
X207097D01*
X207112Y32770D01*
X207130Y32771D01*
X207168Y32774D01*
X207210Y32778D01*
X207255Y32784D01*
X207304Y32790D01*
X207353Y32799D01*
X207403Y32809D01*
X207453Y32822D01*
X207502Y32837D01*
X207550Y32854D01*
X207595Y32873D01*
X207637Y32897D01*
X207640Y32898D01*
X207647Y32902D01*
X207657Y32910D01*
X207671Y32920D01*
X207689Y32932D01*
X207708Y32947D01*
X207730Y32965D01*
X207751Y32984D01*
X207774Y33007D01*
X207799Y33030D01*
X207822Y33056D01*
X207845Y33083D01*
X207867Y33113D01*
X207887Y33144D01*
X207905Y33177D01*
X207920Y33211D01*
Y33212D01*
X207923Y33217D01*
X207925Y33224D01*
X207928Y33237D01*
X207932Y33250D01*
X207936Y33268D01*
X207940Y33290D01*
X207946Y33314D01*
X207951Y33343D01*
X207955Y33374D01*
X207959Y33409D01*
X207963Y33449D01*
X207967Y33491D01*
X207969Y33537D01*
X207972Y33586D01*
Y34167D01*
D02*
G37*
G36*
X179344Y65397D02*
X179335D01*
X179324Y65395D01*
X179309Y65394D01*
X179291Y65393D01*
X179271Y65389D01*
X179246Y65384D01*
X179222Y65378D01*
X179195Y65369D01*
X179166Y65360D01*
X179136Y65348D01*
X179106Y65334D01*
X179076Y65316D01*
X179046Y65296D01*
X179018Y65273D01*
X178989Y65247D01*
X178988Y65246D01*
X178982Y65240D01*
X178976Y65232D01*
X178966Y65220D01*
X178955Y65205D01*
X178943Y65187D01*
X178931Y65166D01*
X178917Y65142D01*
X178903Y65115D01*
X178890Y65085D01*
X178878Y65053D01*
X178867Y65019D01*
X178857Y64981D01*
X178850Y64941D01*
X178845Y64899D01*
X178844Y64854D01*
Y64853D01*
Y64847D01*
Y64839D01*
X178845Y64827D01*
X178846Y64813D01*
X178848Y64796D01*
X178849Y64776D01*
X178852Y64756D01*
X178856Y64734D01*
X178860Y64710D01*
X178872Y64658D01*
X178879Y64631D01*
X178889Y64604D01*
X178898Y64577D01*
X178910Y64549D01*
X178912Y64548D01*
X178913Y64543D01*
X178917Y64536D01*
X178923Y64525D01*
X178929Y64514D01*
X178939Y64499D01*
X178948Y64484D01*
X178959Y64468D01*
X178973Y64450D01*
X178987Y64431D01*
X179001Y64413D01*
X179019Y64394D01*
X179057Y64359D01*
X179078Y64343D01*
X179099Y64328D01*
X179101Y64326D01*
X179105Y64325D01*
X179112Y64321D01*
X179121Y64315D01*
X179132Y64310D01*
X179146Y64303D01*
X179161Y64296D01*
X179177Y64290D01*
X179196Y64283D01*
X179215Y64276D01*
X179259Y64264D01*
X179306Y64254D01*
X179331Y64253D01*
X179355Y64252D01*
X179363D01*
X179374Y64253D01*
X179388Y64254D01*
X179405Y64257D01*
X179424Y64260D01*
X179446Y64265D01*
X179471Y64272D01*
X179497Y64280D01*
X179524Y64290D01*
X179551Y64303D01*
X179579Y64318D01*
X179608Y64336D01*
X179637Y64358D01*
X179664Y64382D01*
X179691Y64409D01*
X179692Y64411D01*
X179696Y64416D01*
X179705Y64426D01*
X179713Y64438D01*
X179724Y64454D01*
X179736Y64473D01*
X179748Y64496D01*
X179762Y64522D01*
X179774Y64551D01*
X179786Y64583D01*
X179798Y64619D01*
X179809Y64657D01*
X179819Y64698D01*
X179826Y64741D01*
X179830Y64789D01*
X179831Y64838D01*
Y64839D01*
Y64840D01*
Y64845D01*
Y64849D01*
X179830Y64862D01*
X179828Y64881D01*
X179827Y64903D01*
X179824Y64928D01*
X179819Y64956D01*
X179813Y64986D01*
X179807Y65019D01*
X179797Y65051D01*
X179786Y65085D01*
X179773Y65121D01*
X179756Y65153D01*
X179739Y65187D01*
X179717Y65219D01*
X179692Y65247D01*
X179691Y65248D01*
X179685Y65254D01*
X179679Y65261D01*
X179668Y65270D01*
X179654Y65282D01*
X179638Y65295D01*
X179619Y65308D01*
X179597Y65322D01*
X179573Y65336D01*
X179547Y65349D01*
X179518Y65363D01*
X179487Y65374D01*
X179454Y65383D01*
X179419Y65390D01*
X179382Y65395D01*
X179344Y65397D01*
D02*
G37*
%LPD*%
D11*
X119850Y4102D02*
Y31898D01*
Y4102D02*
X146150D01*
Y31898D01*
X119850D02*
X146150D01*
X123996Y123224D02*
Y138776D01*
X111004Y123224D02*
X123996D01*
X111004D02*
Y138776D01*
X123996D01*
X204335Y38929D02*
X208665D01*
X204335Y30071D02*
Y38929D01*
Y30071D02*
X208665D01*
Y38929D01*
X171645Y66165D02*
X180355D01*
Y61835D02*
Y66165D01*
X171645Y61835D02*
X180355D01*
X171645D02*
Y66165D01*
D49*
X121311Y55032D02*
X125248D01*
X121311D02*
Y58969D01*
X125248D01*
Y55032D02*
Y58969D01*
X195921Y72031D02*
X199858D01*
X195921D02*
Y75968D01*
X199858D01*
Y72031D02*
Y75968D01*
X140421Y125531D02*
X144358D01*
X140421D02*
Y129469D01*
X144358D01*
Y125531D02*
Y129469D01*
X131421Y111031D02*
X135358D01*
X131421D02*
Y114969D01*
X135358D01*
Y111031D02*
Y114969D01*
X194921Y96031D02*
X198858D01*
X194921D02*
Y99968D01*
X198858D01*
Y96031D02*
Y99968D01*
M02*
