G04*
G04 #@! TF.GenerationSoftware,Altium Limited,Altium Designer,21.3.1 (25)*
G04*
G04 Layer_Color=8388736*
%FSLAX25Y25*%
%MOIN*%
G70*
G04*
G04 #@! TF.SameCoordinates,9192AE54-2D66-49C7-9B86-A226D0D4A20B*
G04*
G04*
G04 #@! TF.FilePolarity,Negative*
G04*
G01*
G75*
G04:AMPARAMS|DCode=19|XSize=10mil|YSize=10mil|CornerRadius=1.25mil|HoleSize=0mil|Usage=FLASHONLY|Rotation=180.000|XOffset=0mil|YOffset=0mil|HoleType=Round|Shape=RoundedRectangle|*
%AMROUNDEDRECTD19*
21,1,0.01000,0.00750,0,0,180.0*
21,1,0.00750,0.01000,0,0,180.0*
1,1,0.00250,-0.00375,0.00375*
1,1,0.00250,0.00375,0.00375*
1,1,0.00250,0.00375,-0.00375*
1,1,0.00250,-0.00375,-0.00375*
%
%ADD19ROUNDEDRECTD19*%
G04:AMPARAMS|DCode=20|XSize=10mil|YSize=10mil|CornerRadius=1.25mil|HoleSize=0mil|Usage=FLASHONLY|Rotation=90.000|XOffset=0mil|YOffset=0mil|HoleType=Round|Shape=RoundedRectangle|*
%AMROUNDEDRECTD20*
21,1,0.01000,0.00750,0,0,90.0*
21,1,0.00750,0.01000,0,0,90.0*
1,1,0.00250,0.00375,0.00375*
1,1,0.00250,0.00375,-0.00375*
1,1,0.00250,-0.00375,-0.00375*
1,1,0.00250,-0.00375,0.00375*
%
%ADD20ROUNDEDRECTD20*%
%ADD21R,0.02913X0.10984*%
%ADD22C,0.01595*%
%ADD23R,0.09843X0.06299*%
%ADD24R,0.03150X0.02362*%
%ADD30C,0.01800*%
%ADD31R,0.03556X0.04147*%
%ADD32R,0.04147X0.04343*%
%ADD33R,0.04343X0.04147*%
%ADD34C,0.03162*%
%ADD35R,0.09100X0.06300*%
%ADD36C,0.07874*%
G04:AMPARAMS|DCode=37|XSize=23.68mil|YSize=23.68mil|CornerRadius=0mil|HoleSize=0mil|Usage=FLASHONLY|Rotation=270.000|XOffset=0mil|YOffset=0mil|HoleType=Round|Shape=RoundedRectangle|*
%AMROUNDEDRECTD37*
21,1,0.02368,0.02368,0,0,270.0*
21,1,0.02368,0.02368,0,0,270.0*
1,1,0.00000,-0.01184,-0.01184*
1,1,0.00000,-0.01184,0.01184*
1,1,0.00000,0.01184,0.01184*
1,1,0.00000,0.01184,-0.01184*
%
%ADD37ROUNDEDRECTD37*%
G04:AMPARAMS|DCode=38|XSize=23.68mil|YSize=23.68mil|CornerRadius=0mil|HoleSize=0mil|Usage=FLASHONLY|Rotation=0.000|XOffset=0mil|YOffset=0mil|HoleType=Round|Shape=RoundedRectangle|*
%AMROUNDEDRECTD38*
21,1,0.02368,0.02368,0,0,0.0*
21,1,0.02368,0.02368,0,0,0.0*
1,1,0.00000,0.01184,-0.01184*
1,1,0.00000,-0.01184,-0.01184*
1,1,0.00000,-0.01184,0.01184*
1,1,0.00000,0.01184,0.01184*
%
%ADD38ROUNDEDRECTD38*%
%ADD39R,0.02368X0.02368*%
%ADD40R,0.03785X0.03997*%
%ADD41R,0.04147X0.03556*%
G36*
X122323Y135921D02*
Y135745D01*
X122188Y135420D01*
X121939Y135170D01*
X121613Y135036D01*
X121261D01*
X120935Y135170D01*
X120686Y135420D01*
X120551Y135745D01*
Y135921D01*
Y138382D01*
X122323D01*
Y135921D01*
D02*
G37*
G36*
X118386D02*
Y135745D01*
X118251Y135420D01*
X118002Y135170D01*
X117676Y135036D01*
X117324D01*
X116998Y135170D01*
X116749Y135420D01*
X116614Y135745D01*
Y135921D01*
X116614D01*
Y138382D01*
X118386D01*
X118386Y135921D01*
D02*
G37*
G36*
X114449D02*
Y135745D01*
X114314Y135420D01*
X114065Y135170D01*
X113739Y135036D01*
X113387D01*
X113061Y135170D01*
X112812Y135420D01*
X112677Y135745D01*
Y135921D01*
X112677Y135921D01*
X112677Y138382D01*
X114449D01*
Y135921D01*
D02*
G37*
G36*
X118002Y126830D02*
X118251Y126580D01*
X118386Y126255D01*
Y126079D01*
Y123618D01*
X116614D01*
Y126079D01*
Y126255D01*
X116749Y126580D01*
X116998Y126830D01*
X117324Y126964D01*
X117676D01*
X118002Y126830D01*
D02*
G37*
G36*
X121939D02*
X122188Y126580D01*
X122323Y126255D01*
Y126079D01*
X122323D01*
Y123618D01*
X120551Y123618D01*
Y126079D01*
Y126255D01*
X120686Y126580D01*
X120935Y126830D01*
X121261Y126964D01*
X121613D01*
X121939Y126830D01*
D02*
G37*
G36*
X114065D02*
X114314Y126580D01*
X114449Y126255D01*
Y126079D01*
Y123618D01*
X112677Y123618D01*
X112677Y126079D01*
Y126255D01*
X112812Y126580D01*
X113061Y126830D01*
X113387Y126964D01*
X113739D01*
X114065Y126830D01*
D02*
G37*
G36*
X117019Y104791D02*
X117071Y104787D01*
X117123Y104777D01*
X117173Y104760D01*
X117220Y104737D01*
X117263Y104708D01*
X117303Y104673D01*
X118303Y103673D01*
X118337Y103634D01*
X118366Y103590D01*
X118390Y103543D01*
X118406Y103493D01*
X118417Y103442D01*
X118420Y103390D01*
Y102390D01*
X118417Y102337D01*
X118406Y102286D01*
X118390Y102236D01*
X118366Y102189D01*
X118337Y102146D01*
X118303Y102106D01*
X118263Y102072D01*
X118220Y102043D01*
X118173Y102019D01*
X118123Y102003D01*
X118071Y101992D01*
X118019Y101989D01*
X113769D01*
X113745Y101990D01*
X113721Y101992D01*
X113719Y101992D01*
X113717Y101992D01*
X113693Y101997D01*
X113670Y102001D01*
X113668Y102002D01*
X113665Y102003D01*
X113643Y102010D01*
X113620Y102018D01*
X113618Y102019D01*
X113616Y102019D01*
X113594Y102030D01*
X113573Y102040D01*
X113571Y102042D01*
X113569Y102043D01*
X113549Y102056D01*
X113529Y102069D01*
X113527Y102070D01*
X113525Y102072D01*
X113507Y102087D01*
X113489Y102103D01*
X113487Y102105D01*
X113486Y102106D01*
X113470Y102125D01*
X113454Y102142D01*
X113453Y102144D01*
X113451Y102146D01*
X113438Y102165D01*
X113424Y102185D01*
X113423Y102188D01*
X113422Y102189D01*
X113411Y102211D01*
X113401Y102232D01*
X113400Y102234D01*
X113399Y102236D01*
X113391Y102259D01*
X113383Y102282D01*
X113383Y102284D01*
X113382Y102286D01*
X113377Y102309D01*
X113372Y102333D01*
X113372Y102335D01*
X113372Y102337D01*
X113370Y102361D01*
X113368Y102385D01*
X113368Y102388D01*
X113368Y102390D01*
X113370Y102414D01*
X113371Y102438D01*
X113372Y102440D01*
X113372Y102442D01*
X113376Y102466D01*
X113381Y102489D01*
X113382Y102491D01*
X113382Y102494D01*
X113390Y102516D01*
X113397Y102539D01*
X113398Y102541D01*
X113399Y102543D01*
X113409Y102565D01*
X113420Y102586D01*
X113421Y102588D01*
X113422Y102590D01*
X113435Y102610D01*
X113449Y102630D01*
X114948Y104630D01*
X114950Y104632D01*
X114951Y104634D01*
X114967Y104652D01*
X114983Y104670D01*
X114984Y104672D01*
X114986Y104673D01*
X115004Y104689D01*
X115022Y104705D01*
X115024Y104706D01*
X115025Y104708D01*
X115045Y104721D01*
X115065Y104735D01*
X115067Y104736D01*
X115069Y104737D01*
X115091Y104748D01*
X115112Y104758D01*
X115114Y104759D01*
X115116Y104760D01*
X115139Y104768D01*
X115161Y104776D01*
X115163Y104776D01*
X115165Y104777D01*
X115189Y104782D01*
X115213Y104787D01*
X115215Y104787D01*
X115217Y104787D01*
X115241Y104789D01*
X115265Y104791D01*
X115267Y104790D01*
X115269Y104791D01*
X117019Y104791D01*
D02*
G37*
G36*
X118071Y100287D02*
X118123Y100277D01*
X118173Y100260D01*
X118220Y100237D01*
X118263Y100208D01*
X118303Y100173D01*
X118337Y100134D01*
X118366Y100090D01*
X118390Y100043D01*
X118406Y99993D01*
X118417Y99942D01*
X118420Y99890D01*
Y98890D01*
X118417Y98837D01*
X118406Y98786D01*
X118390Y98736D01*
X118366Y98689D01*
X118337Y98646D01*
X118303Y98606D01*
X117303Y97606D01*
X117263Y97572D01*
X117220Y97543D01*
X117173Y97519D01*
X117123Y97503D01*
X117071Y97492D01*
X117019Y97489D01*
X115269Y97489D01*
X115267Y97489D01*
X115265Y97489D01*
X115241Y97491D01*
X115217Y97492D01*
X115215Y97493D01*
X115213Y97493D01*
X115189Y97498D01*
X115165Y97502D01*
X115163Y97503D01*
X115161Y97504D01*
X115139Y97512D01*
X115116Y97519D01*
X115114Y97520D01*
X115112Y97521D01*
X115091Y97532D01*
X115069Y97543D01*
X115067Y97544D01*
X115065Y97545D01*
X115045Y97559D01*
X115025Y97572D01*
X115024Y97573D01*
X115022Y97574D01*
X115004Y97590D01*
X114986Y97606D01*
X114984Y97608D01*
X114983Y97609D01*
X114967Y97628D01*
X114951Y97646D01*
X114950Y97648D01*
X114948Y97649D01*
X113449Y99649D01*
X113435Y99670D01*
X113422Y99689D01*
X113421Y99691D01*
X113420Y99693D01*
X113409Y99715D01*
X113399Y99736D01*
X113398Y99739D01*
X113397Y99740D01*
X113390Y99763D01*
X113382Y99786D01*
X113382Y99788D01*
X113381Y99790D01*
X113376Y99814D01*
X113372Y99837D01*
X113372Y99840D01*
X113371Y99842D01*
X113370Y99866D01*
X113368Y99890D01*
X113368Y99892D01*
X113368Y99894D01*
X113370Y99918D01*
X113372Y99942D01*
X113372Y99944D01*
X113372Y99946D01*
X113377Y99970D01*
X113382Y99993D01*
X113383Y99996D01*
X113383Y99998D01*
X113391Y100020D01*
X113399Y100043D01*
X113400Y100045D01*
X113401Y100047D01*
X113411Y100068D01*
X113422Y100090D01*
X113423Y100092D01*
X113424Y100094D01*
X113438Y100114D01*
X113451Y100134D01*
X113453Y100135D01*
X113454Y100137D01*
X113470Y100155D01*
X113486Y100173D01*
X113487Y100175D01*
X113489Y100176D01*
X113507Y100192D01*
X113525Y100208D01*
X113527Y100209D01*
X113529Y100210D01*
X113549Y100224D01*
X113569Y100237D01*
X113571Y100238D01*
X113573Y100239D01*
X113594Y100250D01*
X113616Y100260D01*
X113618Y100261D01*
X113620Y100262D01*
X113643Y100269D01*
X113665Y100277D01*
X113668Y100277D01*
X113670Y100278D01*
X113693Y100283D01*
X113717Y100287D01*
X113719Y100287D01*
X113721Y100288D01*
X113745Y100289D01*
X113769Y100291D01*
X118019D01*
X118071Y100287D01*
D02*
G37*
G36*
X139163Y45897D02*
X139214Y45887D01*
X139264Y45870D01*
X139311Y45847D01*
X139354Y45818D01*
X139394Y45783D01*
X139428Y45744D01*
X139457Y45700D01*
X139481Y45653D01*
X139497Y45604D01*
X139508Y45552D01*
X139511Y45500D01*
Y41250D01*
X139509Y41226D01*
X139508Y41202D01*
X139508Y41200D01*
X139508Y41198D01*
X139503Y41174D01*
X139499Y41151D01*
X139498Y41148D01*
X139497Y41146D01*
X139490Y41124D01*
X139482Y41101D01*
X139481Y41099D01*
X139481Y41097D01*
X139470Y41075D01*
X139460Y41053D01*
X139458Y41052D01*
X139457Y41050D01*
X139444Y41030D01*
X139431Y41010D01*
X139429Y41008D01*
X139428Y41006D01*
X139412Y40988D01*
X139397Y40970D01*
X139395Y40968D01*
X139394Y40967D01*
X139375Y40951D01*
X139358Y40935D01*
X139356Y40933D01*
X139354Y40932D01*
X139335Y40919D01*
X139314Y40905D01*
X139313Y40904D01*
X139311Y40903D01*
X139289Y40892D01*
X139268Y40881D01*
X139266Y40881D01*
X139264Y40880D01*
X139241Y40872D01*
X139218Y40864D01*
X139216Y40863D01*
X139214Y40863D01*
X139191Y40858D01*
X139167Y40853D01*
X139165Y40853D01*
X139163Y40853D01*
X139139Y40851D01*
X139115Y40849D01*
X139112Y40849D01*
X139110Y40849D01*
X139086Y40851D01*
X139062Y40852D01*
X139060Y40852D01*
X139058Y40853D01*
X139034Y40857D01*
X139011Y40862D01*
X139009Y40862D01*
X139006Y40863D01*
X138984Y40870D01*
X138961Y40878D01*
X138959Y40879D01*
X138957Y40880D01*
X138935Y40890D01*
X138914Y40901D01*
X138912Y40902D01*
X138910Y40903D01*
X138890Y40916D01*
X138870Y40929D01*
X136870Y42429D01*
X136868Y42431D01*
X136866Y42432D01*
X136848Y42448D01*
X136830Y42463D01*
X136828Y42465D01*
X136827Y42467D01*
X136811Y42485D01*
X136795Y42502D01*
X136794Y42504D01*
X136792Y42506D01*
X136779Y42526D01*
X136765Y42546D01*
X136764Y42548D01*
X136763Y42550D01*
X136752Y42571D01*
X136742Y42592D01*
X136741Y42595D01*
X136740Y42597D01*
X136732Y42620D01*
X136724Y42642D01*
X136724Y42644D01*
X136723Y42646D01*
X136718Y42670D01*
X136713Y42693D01*
X136713Y42696D01*
X136713Y42698D01*
X136711Y42722D01*
X136709Y42746D01*
X136709Y42748D01*
X136709Y42750D01*
X136709Y44500D01*
X136713Y44552D01*
X136723Y44604D01*
X136740Y44653D01*
X136763Y44700D01*
X136792Y44744D01*
X136827Y44783D01*
X137827Y45783D01*
X137866Y45818D01*
X137910Y45847D01*
X137957Y45870D01*
X138006Y45887D01*
X138058Y45897D01*
X138110Y45901D01*
X139110D01*
X139163Y45897D01*
D02*
G37*
G36*
X142663D02*
X142714Y45887D01*
X142764Y45870D01*
X142811Y45847D01*
X142854Y45818D01*
X142894Y45783D01*
X143894Y44783D01*
X143928Y44744D01*
X143957Y44700D01*
X143981Y44653D01*
X143997Y44604D01*
X144008Y44552D01*
X144011Y44500D01*
X144011Y42750D01*
X144011Y42748D01*
X144011Y42746D01*
X144009Y42722D01*
X144008Y42698D01*
X144007Y42696D01*
X144007Y42693D01*
X144002Y42670D01*
X143998Y42646D01*
X143997Y42644D01*
X143996Y42642D01*
X143988Y42620D01*
X143981Y42597D01*
X143980Y42595D01*
X143979Y42592D01*
X143968Y42571D01*
X143957Y42550D01*
X143956Y42548D01*
X143955Y42546D01*
X143941Y42526D01*
X143928Y42506D01*
X143927Y42504D01*
X143926Y42502D01*
X143910Y42485D01*
X143894Y42467D01*
X143892Y42465D01*
X143891Y42463D01*
X143872Y42448D01*
X143854Y42432D01*
X143852Y42431D01*
X143851Y42429D01*
X141851Y40929D01*
X141830Y40916D01*
X141811Y40903D01*
X141809Y40902D01*
X141807Y40901D01*
X141785Y40890D01*
X141764Y40880D01*
X141762Y40879D01*
X141760Y40878D01*
X141737Y40870D01*
X141714Y40863D01*
X141712Y40862D01*
X141710Y40862D01*
X141686Y40857D01*
X141663Y40853D01*
X141660Y40852D01*
X141658Y40852D01*
X141634Y40851D01*
X141610Y40849D01*
X141608Y40849D01*
X141606Y40849D01*
X141582Y40851D01*
X141558Y40853D01*
X141556Y40853D01*
X141553Y40853D01*
X141530Y40858D01*
X141507Y40863D01*
X141504Y40863D01*
X141502Y40864D01*
X141480Y40872D01*
X141457Y40880D01*
X141455Y40881D01*
X141453Y40881D01*
X141432Y40892D01*
X141410Y40903D01*
X141408Y40904D01*
X141406Y40905D01*
X141386Y40919D01*
X141366Y40932D01*
X141365Y40933D01*
X141363Y40935D01*
X141345Y40951D01*
X141327Y40967D01*
X141325Y40968D01*
X141324Y40970D01*
X141308Y40988D01*
X141292Y41006D01*
X141291Y41008D01*
X141290Y41010D01*
X141276Y41030D01*
X141263Y41050D01*
X141262Y41052D01*
X141261Y41053D01*
X141251Y41075D01*
X141240Y41097D01*
X141239Y41099D01*
X141238Y41101D01*
X141231Y41124D01*
X141223Y41146D01*
X141223Y41148D01*
X141222Y41151D01*
X141218Y41174D01*
X141213Y41198D01*
X141213Y41200D01*
X141212Y41202D01*
X141211Y41226D01*
X141209Y41250D01*
Y45500D01*
X141213Y45552D01*
X141223Y45604D01*
X141240Y45653D01*
X141263Y45700D01*
X141292Y45744D01*
X141327Y45783D01*
X141366Y45818D01*
X141410Y45847D01*
X141457Y45870D01*
X141507Y45887D01*
X141558Y45897D01*
X141610Y45901D01*
X142610D01*
X142663Y45897D01*
D02*
G37*
D19*
X138110Y43500D02*
D03*
X142610D02*
D03*
D20*
X116019Y103390D02*
D03*
Y98890D02*
D03*
D21*
X143000Y26012D02*
D03*
X138000D02*
D03*
X133000Y26012D02*
D03*
X128000Y26012D02*
D03*
X123000D02*
D03*
X143000Y9988D02*
D03*
X138000D02*
D03*
X133000Y9988D02*
D03*
X128000Y9988D02*
D03*
X123000D02*
D03*
D22*
X121437Y136709D02*
D03*
X117500Y137496D02*
D03*
X113563Y136798D02*
D03*
Y125291D02*
D03*
X117500Y125202D02*
D03*
X121437Y125202D02*
D03*
D23*
X117500Y131000D02*
D03*
D24*
X206500Y31646D02*
D03*
Y37354D02*
D03*
D30*
X141610Y41500D02*
G03*
X143433Y44323I0J2000D01*
G01*
D02*
G03*
X141610Y45500I-1823J-823D01*
G01*
X137110Y43500D02*
G03*
X139110Y41500I2000J0D01*
G01*
Y45500D02*
G03*
X137110Y43500I0J-2000D01*
G01*
X118019Y102390D02*
G03*
X114019Y102390I-2000J0D01*
G01*
Y99890D02*
G03*
X118019Y99890I2000J0D01*
G01*
X141610Y41500D02*
Y43500D01*
Y45500D01*
X139110Y43500D02*
Y45500D01*
Y41500D02*
Y43500D01*
X116019Y99890D02*
Y102390D01*
X114019Y99890D02*
X118019D01*
X114019Y102390D02*
X118019D01*
D31*
X159994Y103500D02*
D03*
X155073D02*
D03*
X173539Y78000D02*
D03*
X178461D02*
D03*
X173539Y72000D02*
D03*
X178461D02*
D03*
D32*
X173557Y56550D02*
D03*
X178675D02*
D03*
X164679Y56050D02*
D03*
X159561D02*
D03*
X116441Y112000D02*
D03*
X121559D02*
D03*
X155368Y109140D02*
D03*
X160486D02*
D03*
D33*
X115980Y12889D02*
D03*
Y7771D02*
D03*
D34*
X123280Y57000D02*
D03*
X197890Y74000D02*
D03*
X142390Y127500D02*
D03*
X133390Y113000D02*
D03*
X196890Y98000D02*
D03*
D35*
X191950Y135350D02*
D03*
X156050D02*
D03*
X191950Y117650D02*
D03*
X156050D02*
D03*
D36*
X211390Y136000D02*
D03*
X242500Y31000D02*
D03*
X111890Y37000D02*
D03*
D37*
X173425Y49725D02*
D03*
X163976Y49725D02*
D03*
X192323D02*
D03*
X189173Y49725D02*
D03*
X186024Y49725D02*
D03*
X182874D02*
D03*
X179724D02*
D03*
X176575Y49725D02*
D03*
X170276D02*
D03*
X167126D02*
D03*
X160827Y49725D02*
D03*
X157677D02*
D03*
D38*
X160236Y9370D02*
D03*
X192913Y15079D02*
D03*
X157087Y46575D02*
D03*
X192913Y18229D02*
D03*
Y21378D02*
D03*
Y24528D02*
D03*
Y27678D02*
D03*
Y30827D02*
D03*
Y33977D02*
D03*
Y37126D02*
D03*
Y40276D02*
D03*
Y43426D02*
D03*
Y46575D02*
D03*
X157087Y43426D02*
D03*
Y40276D02*
D03*
Y37126D02*
D03*
Y33977D02*
D03*
Y30827D02*
D03*
Y27678D02*
D03*
X157087Y24528D02*
D03*
X157087Y21378D02*
D03*
Y18229D02*
D03*
Y15079D02*
D03*
Y11930D02*
D03*
X192913D02*
D03*
X157087Y6811D02*
D03*
Y1693D02*
D03*
Y-3425D02*
D03*
D39*
X189764Y15079D02*
D03*
X186024Y46575D02*
D03*
X160236Y43426D02*
D03*
X189764Y18229D02*
D03*
Y21378D02*
D03*
Y24528D02*
D03*
Y27678D02*
D03*
Y30827D02*
D03*
Y33977D02*
D03*
Y37126D02*
D03*
Y40276D02*
D03*
X189764Y43426D02*
D03*
Y46575D02*
D03*
X182874D02*
D03*
X179724D02*
D03*
X176575D02*
D03*
X173425Y46575D02*
D03*
X170276D02*
D03*
X167126Y46575D02*
D03*
X163976D02*
D03*
X160236D02*
D03*
X160236Y40276D02*
D03*
Y37126D02*
D03*
Y33977D02*
D03*
Y30827D02*
D03*
X160236Y27678D02*
D03*
X160236Y24528D02*
D03*
Y21378D02*
D03*
X160236Y18229D02*
D03*
Y15079D02*
D03*
X175000D02*
D03*
X182382D02*
D03*
X167618D02*
D03*
D40*
X173531Y64000D02*
D03*
X178469D02*
D03*
D41*
X206610Y19039D02*
D03*
Y23961D02*
D03*
M02*
