G04*
G04 #@! TF.GenerationSoftware,Altium Limited,Altium Designer,21.3.1 (25)*
G04*
G04 Layer_Color=32768*
%FSLAX25Y25*%
%MOIN*%
G70*
G04*
G04 #@! TF.SameCoordinates,9192AE54-2D66-49C7-9B86-A226D0D4A20B*
G04*
G04*
G04 #@! TF.FilePolarity,Positive*
G04*
G01*
G75*
%ADD49C,0.00197*%
%ADD53C,0.00394*%
D49*
X153203Y101138D02*
X161864D01*
X153203Y105862D02*
X161864D01*
Y101138D02*
Y105862D01*
X153203Y101138D02*
Y105862D01*
X171588Y58912D02*
X180644D01*
X171588Y54188D02*
X180644D01*
X171588D02*
Y58912D01*
X180644Y54188D02*
Y58912D01*
X157592Y53688D02*
X166648D01*
X157592Y58412D02*
X166648D01*
Y53688D02*
Y58412D01*
X157592Y53688D02*
Y58412D01*
X118342Y5802D02*
Y14858D01*
X113618Y5802D02*
Y14858D01*
X118342D01*
X113618Y5802D02*
X118342D01*
X111472Y50638D02*
X120528D01*
X111472Y55362D02*
X120528D01*
X111472Y50638D02*
Y55362D01*
X120528Y50638D02*
Y55362D01*
X114472Y114362D02*
X123528D01*
X114472Y109638D02*
X123528D01*
X114472D02*
Y114362D01*
X123528Y109638D02*
Y114362D01*
X153400Y111502D02*
X162455D01*
X153400Y106778D02*
X162455D01*
X153400D02*
Y111502D01*
X162455Y106778D02*
Y111502D01*
X151524Y138705D02*
X196476D01*
Y114295D02*
Y138705D01*
X151524Y114295D02*
Y138705D01*
Y114295D02*
X196476D01*
X171669Y80362D02*
X180331D01*
X171669Y75638D02*
X180331D01*
X171669D02*
Y80362D01*
X180331Y75638D02*
Y80362D01*
X204248Y17169D02*
Y25831D01*
X208972Y17169D02*
Y25831D01*
X204248Y17169D02*
X208972D01*
X204248Y25831D02*
X208972D01*
X171669Y74362D02*
X180331D01*
X171669Y69638D02*
X180331D01*
X171669D02*
Y74362D01*
X180331Y69638D02*
Y74362D01*
D53*
X157534Y101630D02*
Y105370D01*
X155664Y103500D02*
X159404D01*
X176116Y54660D02*
Y58440D01*
X174226Y56550D02*
X178006D01*
X162120Y54160D02*
Y57940D01*
X160230Y56050D02*
X164010D01*
X114090Y10330D02*
X117870D01*
X115980Y8440D02*
Y12220D01*
X116000Y51110D02*
Y54890D01*
X114110Y53000D02*
X117890D01*
X119000Y110110D02*
Y113890D01*
X117110Y112000D02*
X120890D01*
X157927Y107250D02*
Y111030D01*
X156038Y109140D02*
X159817D01*
X172031Y126500D02*
X175969D01*
X174000Y124531D02*
Y128469D01*
X176000Y76130D02*
Y79870D01*
X174130Y78000D02*
X177870D01*
X204740Y21500D02*
X208480D01*
X206610Y19630D02*
Y23370D01*
X176000Y70130D02*
Y73870D01*
X174130Y72000D02*
X177870D01*
M02*
