G04*
G04 #@! TF.GenerationSoftware,Altium Limited,Altium Designer,21.3.1 (25)*
G04*
G04 Layer_Color=32768*
%FSLAX25Y25*%
%MOIN*%
G70*
G04*
G04 #@! TF.SameCoordinates,9192AE54-2D66-49C7-9B86-A226D0D4A20B*
G04*
G04*
G04 #@! TF.FilePolarity,Positive*
G04*
G01*
G75*
G36*
X121786Y55741D02*
X121800Y55740D01*
X121818Y55738D01*
X121839Y55736D01*
X121862Y55732D01*
X121888Y55727D01*
X121915Y55721D01*
X121943Y55713D01*
X121974Y55703D01*
X122003Y55691D01*
X122034Y55678D01*
X122064Y55662D01*
X122093Y55643D01*
X122123Y55622D01*
X122125Y55620D01*
X122131Y55615D01*
X122140Y55607D01*
X122151Y55595D01*
X122164Y55580D01*
X122180Y55563D01*
X122196Y55542D01*
X122213Y55518D01*
X122231Y55491D01*
X122247Y55461D01*
X122263Y55428D01*
X122276Y55393D01*
X122287Y55354D01*
X122297Y55313D01*
X122302Y55270D01*
X122303Y55247D01*
X122304Y55224D01*
Y55210D01*
X122303Y55204D01*
X122302Y55190D01*
X122301Y55172D01*
X122299Y55152D01*
X122294Y55129D01*
X122291Y55105D01*
X122284Y55079D01*
X122276Y55051D01*
X122267Y55023D01*
X122256Y54995D01*
X122242Y54967D01*
X122228Y54939D01*
X122210Y54912D01*
X122189Y54887D01*
X122188Y54886D01*
X122185Y54881D01*
X122178Y54875D01*
X122169Y54866D01*
X122157Y54856D01*
X122143Y54845D01*
X122126Y54833D01*
X122108Y54820D01*
X122088Y54807D01*
X122064Y54794D01*
X122039Y54781D01*
X122011Y54769D01*
X121983Y54759D01*
X121951Y54750D01*
X121918Y54743D01*
X121883Y54738D01*
X121868Y54933D01*
X121870D01*
X121873Y54934D01*
X121881Y54936D01*
X121890Y54938D01*
X121903Y54941D01*
X121916Y54944D01*
X121932Y54949D01*
X121948Y54954D01*
X121965Y54960D01*
X121983Y54967D01*
X122000Y54976D01*
X122018Y54985D01*
X122035Y54995D01*
X122052Y55007D01*
X122067Y55020D01*
X122081Y55034D01*
X122082Y55035D01*
X122084Y55038D01*
X122089Y55042D01*
X122092Y55048D01*
X122099Y55056D01*
X122105Y55065D01*
X122110Y55075D01*
X122117Y55087D01*
X122125Y55101D01*
X122131Y55115D01*
X122136Y55131D01*
X122143Y55148D01*
X122146Y55165D01*
X122151Y55184D01*
X122152Y55204D01*
X122153Y55224D01*
Y55230D01*
X122152Y55237D01*
X122152Y55247D01*
X122151Y55258D01*
X122149Y55272D01*
X122145Y55287D01*
X122141Y55303D01*
X122135Y55320D01*
X122128Y55339D01*
X122120Y55358D01*
X122110Y55377D01*
X122099Y55396D01*
X122085Y55415D01*
X122071Y55433D01*
X122053Y55451D01*
X122052Y55452D01*
X122047Y55455D01*
X122041Y55460D01*
X122034Y55466D01*
X122023Y55473D01*
X122011Y55480D01*
X121996Y55489D01*
X121981Y55498D01*
X121962Y55506D01*
X121941Y55515D01*
X121920Y55522D01*
X121896Y55530D01*
X121871Y55535D01*
X121843Y55540D01*
X121815Y55543D01*
X121783Y55544D01*
X121782D01*
X121776D01*
X121768Y55543D01*
X121757D01*
X121744Y55541D01*
X121729Y55539D01*
X121712Y55537D01*
X121693Y55533D01*
X121672Y55528D01*
X121652Y55522D01*
X121632Y55515D01*
X121610Y55506D01*
X121590Y55496D01*
X121570Y55484D01*
X121551Y55471D01*
X121532Y55455D01*
X121531Y55454D01*
X121528Y55451D01*
X121523Y55446D01*
X121519Y55439D01*
X121511Y55430D01*
X121503Y55419D01*
X121495Y55407D01*
X121486Y55392D01*
X121477Y55376D01*
X121469Y55359D01*
X121461Y55340D01*
X121455Y55319D01*
X121449Y55296D01*
X121444Y55273D01*
X121441Y55248D01*
X121440Y55221D01*
Y55212D01*
X121441Y55206D01*
Y55198D01*
X121442Y55189D01*
X121443Y55179D01*
X121446Y55167D01*
X121450Y55142D01*
X121458Y55115D01*
X121467Y55087D01*
X121482Y55059D01*
Y55058D01*
X121484Y55056D01*
X121485Y55052D01*
X121488Y55047D01*
X121493Y55041D01*
X121497Y55034D01*
X121511Y55018D01*
X121526Y55000D01*
X121544Y54981D01*
X121564Y54963D01*
X121588Y54946D01*
X121564Y54771D01*
X120788Y54918D01*
Y55670D01*
X120965D01*
Y55066D01*
X121371Y54985D01*
X121370Y54987D01*
X121368Y54991D01*
X121362Y54999D01*
X121356Y55009D01*
X121350Y55021D01*
X121342Y55036D01*
X121333Y55053D01*
X121324Y55072D01*
X121316Y55092D01*
X121307Y55115D01*
X121299Y55138D01*
X121291Y55163D01*
X121285Y55189D01*
X121281Y55216D01*
X121277Y55243D01*
X121276Y55271D01*
Y55280D01*
X121277Y55290D01*
X121279Y55304D01*
X121281Y55321D01*
X121283Y55341D01*
X121289Y55363D01*
X121293Y55387D01*
X121301Y55413D01*
X121310Y55440D01*
X121321Y55467D01*
X121335Y55495D01*
X121351Y55524D01*
X121369Y55552D01*
X121390Y55579D01*
X121414Y55605D01*
X121416Y55607D01*
X121421Y55611D01*
X121429Y55618D01*
X121440Y55626D01*
X121452Y55637D01*
X121469Y55648D01*
X121488Y55661D01*
X121510Y55674D01*
X121535Y55686D01*
X121561Y55699D01*
X121590Y55710D01*
X121621Y55721D01*
X121654Y55729D01*
X121689Y55736D01*
X121728Y55740D01*
X121766Y55742D01*
X121767D01*
X121768D01*
X121772D01*
X121775D01*
X121781D01*
X121786Y55741D01*
D02*
G37*
G36*
X121223Y54558D02*
X121237Y54557D01*
X121254Y54555D01*
X121273Y54553D01*
X121294Y54549D01*
X121318Y54544D01*
X121343Y54537D01*
X121370Y54529D01*
X121397Y54519D01*
X121423Y54507D01*
X121451Y54493D01*
X121478Y54477D01*
X121505Y54458D01*
X121531Y54436D01*
X121532Y54435D01*
X121537Y54430D01*
X121544Y54423D01*
X121553Y54412D01*
X121563Y54398D01*
X121573Y54380D01*
X121586Y54359D01*
X121598Y54334D01*
X121610Y54306D01*
X121623Y54274D01*
X121628Y54256D01*
X121634Y54237D01*
X121639Y54218D01*
X121643Y54197D01*
X121649Y54175D01*
X121652Y54152D01*
X121655Y54128D01*
X121659Y54103D01*
X121661Y54077D01*
X121662Y54050D01*
X121665Y54022D01*
Y53604D01*
X122280D01*
Y53404D01*
X120766D01*
Y54011D01*
X120767Y54026D01*
Y54042D01*
X120768Y54060D01*
X120771Y54097D01*
X120773Y54135D01*
X120774Y54154D01*
X120776Y54172D01*
X120779Y54189D01*
X120782Y54205D01*
Y54206D01*
X120782Y54210D01*
X120783Y54216D01*
X120785Y54224D01*
X120788Y54233D01*
X120790Y54244D01*
X120793Y54256D01*
X120798Y54270D01*
X120807Y54299D01*
X120819Y54330D01*
X120835Y54362D01*
X120852Y54391D01*
X120853Y54392D01*
X120854Y54394D01*
X120858Y54398D01*
X120862Y54404D01*
X120868Y54410D01*
X120873Y54418D01*
X120881Y54426D01*
X120890Y54435D01*
X120900Y54444D01*
X120911Y54454D01*
X120923Y54464D01*
X120935Y54475D01*
X120950Y54485D01*
X120966Y54495D01*
X120982Y54504D01*
X120999Y54513D01*
X121000Y54514D01*
X121002Y54515D01*
X121008Y54517D01*
X121014Y54520D01*
X121023Y54524D01*
X121034Y54528D01*
X121045Y54532D01*
X121060Y54536D01*
X121073Y54540D01*
X121089Y54544D01*
X121107Y54548D01*
X121124Y54552D01*
X121163Y54557D01*
X121184Y54559D01*
X121204D01*
X121205D01*
X121206D01*
X121210D01*
X121213D01*
X121223Y54558D01*
D02*
G37*
G36*
X120946Y52698D02*
X122280D01*
Y52498D01*
X120946D01*
Y51999D01*
X120766D01*
Y53199D01*
X120946D01*
Y52698D01*
D02*
G37*
G36*
X209618Y137018D02*
X209629Y137017D01*
X209642Y137016D01*
X209656Y137015D01*
X209672Y137012D01*
X209689Y137010D01*
X209707Y137006D01*
X209746Y136997D01*
X209765Y136991D01*
X209785Y136984D01*
X209805Y136975D01*
X209825Y136966D01*
X209826Y136965D01*
X209830Y136964D01*
X209835Y136961D01*
X209842Y136956D01*
X209851Y136951D01*
X209861Y136944D01*
X209872Y136937D01*
X209884Y136928D01*
X209897Y136918D01*
X209910Y136907D01*
X209923Y136895D01*
X209936Y136883D01*
X209961Y136854D01*
X209973Y136838D01*
X209984Y136821D01*
X209985Y136820D01*
X209986Y136817D01*
X209989Y136812D01*
X209993Y136805D01*
X209997Y136797D01*
X210002Y136786D01*
X210007Y136775D01*
X210012Y136762D01*
X210017Y136748D01*
X210022Y136733D01*
X210031Y136700D01*
X210038Y136664D01*
X210039Y136645D01*
X210040Y136626D01*
Y136625D01*
Y136622D01*
Y136616D01*
X210039Y136609D01*
X210038Y136601D01*
X210037Y136591D01*
X210036Y136579D01*
X210033Y136567D01*
X210027Y136539D01*
X210018Y136509D01*
X210012Y136494D01*
X210005Y136478D01*
X209996Y136462D01*
X209987Y136447D01*
X209986Y136446D01*
X209985Y136444D01*
X209982Y136439D01*
X209977Y136434D01*
X209972Y136427D01*
X209965Y136419D01*
X209957Y136410D01*
X209948Y136401D01*
X209938Y136391D01*
X209926Y136381D01*
X209913Y136370D01*
X209899Y136359D01*
X209884Y136349D01*
X209868Y136338D01*
X209850Y136328D01*
X209831Y136319D01*
X209833D01*
X209837Y136318D01*
X209844Y136316D01*
X209853Y136313D01*
X209865Y136309D01*
X209878Y136304D01*
X209892Y136298D01*
X209908Y136291D01*
X209924Y136283D01*
X209941Y136274D01*
X209959Y136263D01*
X209976Y136252D01*
X209993Y136238D01*
X210010Y136224D01*
X210025Y136208D01*
X210040Y136190D01*
X210041Y136189D01*
X210043Y136186D01*
X210047Y136180D01*
X210052Y136173D01*
X210057Y136163D01*
X210063Y136152D01*
X210070Y136138D01*
X210077Y136123D01*
X210084Y136106D01*
X210091Y136088D01*
X210097Y136068D01*
X210102Y136046D01*
X210107Y136023D01*
X210111Y135999D01*
X210113Y135973D01*
X210114Y135946D01*
Y135945D01*
Y135944D01*
Y135941D01*
Y135937D01*
X210113Y135927D01*
X210112Y135913D01*
X210110Y135896D01*
X210106Y135876D01*
X210102Y135854D01*
X210096Y135830D01*
X210088Y135804D01*
X210079Y135777D01*
X210067Y135749D01*
X210053Y135721D01*
X210036Y135693D01*
X210017Y135665D01*
X209995Y135637D01*
X209969Y135611D01*
X209967Y135609D01*
X209962Y135605D01*
X209954Y135598D01*
X209943Y135590D01*
X209929Y135579D01*
X209912Y135568D01*
X209892Y135555D01*
X209869Y135543D01*
X209844Y135530D01*
X209817Y135517D01*
X209787Y135506D01*
X209754Y135495D01*
X209720Y135487D01*
X209683Y135480D01*
X209645Y135476D01*
X209604Y135474D01*
X209595D01*
X209585Y135475D01*
X209571Y135476D01*
X209554Y135478D01*
X209534Y135480D01*
X209512Y135484D01*
X209488Y135489D01*
X209462Y135495D01*
X209436Y135503D01*
X209408Y135512D01*
X209380Y135524D01*
X209353Y135537D01*
X209325Y135553D01*
X209299Y135571D01*
X209273Y135592D01*
X209272Y135593D01*
X209267Y135597D01*
X209261Y135604D01*
X209252Y135613D01*
X209242Y135625D01*
X209231Y135639D01*
X209218Y135656D01*
X209205Y135675D01*
X209192Y135696D01*
X209179Y135719D01*
X209166Y135744D01*
X209154Y135771D01*
X209144Y135801D01*
X209135Y135832D01*
X209128Y135864D01*
X209123Y135899D01*
X209309Y135924D01*
Y135922D01*
X209311Y135917D01*
X209312Y135909D01*
X209315Y135898D01*
X209319Y135885D01*
X209323Y135870D01*
X209328Y135854D01*
X209335Y135836D01*
X209350Y135799D01*
X209369Y135761D01*
X209379Y135743D01*
X209391Y135726D01*
X209404Y135710D01*
X209418Y135696D01*
X209419Y135695D01*
X209422Y135693D01*
X209426Y135690D01*
X209432Y135685D01*
X209439Y135680D01*
X209448Y135674D01*
X209459Y135668D01*
X209470Y135661D01*
X209483Y135655D01*
X209498Y135648D01*
X209513Y135642D01*
X209529Y135637D01*
X209547Y135632D01*
X209565Y135629D01*
X209585Y135627D01*
X209605Y135626D01*
X209611D01*
X209618Y135627D01*
X209627D01*
X209638Y135629D01*
X209651Y135631D01*
X209666Y135634D01*
X209682Y135637D01*
X209699Y135642D01*
X209717Y135648D01*
X209735Y135656D01*
X209754Y135664D01*
X209772Y135675D01*
X209791Y135687D01*
X209809Y135701D01*
X209826Y135717D01*
X209827Y135718D01*
X209830Y135721D01*
X209834Y135726D01*
X209840Y135733D01*
X209847Y135742D01*
X209855Y135753D01*
X209863Y135765D01*
X209872Y135779D01*
X209880Y135795D01*
X209888Y135812D01*
X209896Y135830D01*
X209903Y135850D01*
X209909Y135872D01*
X209913Y135894D01*
X209916Y135917D01*
X209917Y135942D01*
Y135943D01*
Y135948D01*
X209916Y135954D01*
Y135963D01*
X209914Y135974D01*
X209913Y135987D01*
X209910Y136001D01*
X209907Y136016D01*
X209902Y136033D01*
X209897Y136050D01*
X209890Y136067D01*
X209882Y136085D01*
X209872Y136103D01*
X209861Y136120D01*
X209848Y136137D01*
X209833Y136153D01*
X209832Y136154D01*
X209829Y136157D01*
X209825Y136161D01*
X209818Y136166D01*
X209810Y136173D01*
X209800Y136180D01*
X209788Y136187D01*
X209775Y136195D01*
X209761Y136203D01*
X209745Y136210D01*
X209727Y136218D01*
X209709Y136224D01*
X209688Y136229D01*
X209667Y136233D01*
X209645Y136236D01*
X209621Y136237D01*
X209612D01*
X209606Y136236D01*
X209600D01*
X209585Y136234D01*
X209566Y136232D01*
X209543Y136228D01*
X209518Y136223D01*
X209490Y136216D01*
X209510Y136379D01*
X209513D01*
X209517Y136378D01*
X209521D01*
X209531Y136377D01*
X209552D01*
X209560Y136378D01*
X209571Y136379D01*
X209583Y136380D01*
X209596Y136382D01*
X209611Y136385D01*
X209628Y136388D01*
X209645Y136392D01*
X209662Y136397D01*
X209681Y136403D01*
X209699Y136410D01*
X209718Y136419D01*
X209736Y136428D01*
X209754Y136439D01*
X209755Y136440D01*
X209758Y136442D01*
X209763Y136446D01*
X209769Y136451D01*
X209776Y136457D01*
X209784Y136465D01*
X209793Y136475D01*
X209802Y136486D01*
X209810Y136499D01*
X209819Y136513D01*
X209827Y136529D01*
X209834Y136546D01*
X209840Y136565D01*
X209845Y136585D01*
X209848Y136607D01*
X209849Y136630D01*
Y136631D01*
Y136635D01*
Y136640D01*
X209848Y136647D01*
X209847Y136656D01*
X209845Y136666D01*
X209843Y136677D01*
X209840Y136689D01*
X209837Y136702D01*
X209832Y136716D01*
X209827Y136730D01*
X209820Y136744D01*
X209812Y136759D01*
X209803Y136773D01*
X209792Y136786D01*
X209780Y136799D01*
X209779Y136800D01*
X209777Y136802D01*
X209773Y136805D01*
X209768Y136810D01*
X209761Y136815D01*
X209752Y136820D01*
X209743Y136826D01*
X209732Y136833D01*
X209720Y136839D01*
X209706Y136845D01*
X209691Y136850D01*
X209675Y136856D01*
X209658Y136860D01*
X209640Y136863D01*
X209621Y136865D01*
X209601Y136866D01*
X209591D01*
X209583Y136865D01*
X209574Y136864D01*
X209563Y136862D01*
X209551Y136860D01*
X209538Y136858D01*
X209509Y136849D01*
X209494Y136844D01*
X209479Y136837D01*
X209464Y136830D01*
X209449Y136820D01*
X209434Y136810D01*
X209420Y136798D01*
X209419Y136797D01*
X209417Y136795D01*
X209413Y136791D01*
X209408Y136785D01*
X209403Y136778D01*
X209396Y136769D01*
X209389Y136759D01*
X209382Y136747D01*
X209374Y136733D01*
X209366Y136718D01*
X209358Y136702D01*
X209351Y136683D01*
X209344Y136663D01*
X209338Y136642D01*
X209332Y136619D01*
X209328Y136594D01*
X209142Y136627D01*
Y136628D01*
Y136629D01*
X209144Y136635D01*
X209146Y136645D01*
X209149Y136658D01*
X209154Y136674D01*
X209159Y136692D01*
X209166Y136712D01*
X209174Y136733D01*
X209184Y136756D01*
X209195Y136780D01*
X209207Y136804D01*
X209221Y136828D01*
X209237Y136851D01*
X209255Y136874D01*
X209275Y136896D01*
X209296Y136916D01*
X209297Y136917D01*
X209302Y136920D01*
X209308Y136926D01*
X209318Y136932D01*
X209330Y136940D01*
X209344Y136949D01*
X209360Y136958D01*
X209379Y136968D01*
X209400Y136977D01*
X209423Y136986D01*
X209447Y136995D01*
X209474Y137003D01*
X209502Y137010D01*
X209532Y137015D01*
X209564Y137018D01*
X209597Y137019D01*
X209609D01*
X209618Y137018D01*
D02*
G37*
G36*
X208236Y137012D02*
X208253D01*
X208271Y137011D01*
X208292Y137010D01*
X208313Y137009D01*
X208335Y137008D01*
X208380Y137004D01*
X208402Y137001D01*
X208423Y136998D01*
X208443Y136995D01*
X208461Y136991D01*
X208463D01*
X208467Y136990D01*
X208474Y136988D01*
X208483Y136985D01*
X208494Y136982D01*
X208507Y136977D01*
X208522Y136972D01*
X208538Y136966D01*
X208555Y136959D01*
X208572Y136951D01*
X208591Y136943D01*
X208610Y136933D01*
X208628Y136922D01*
X208647Y136910D01*
X208665Y136897D01*
X208683Y136883D01*
X208684Y136882D01*
X208688Y136878D01*
X208694Y136873D01*
X208703Y136865D01*
X208713Y136855D01*
X208724Y136843D01*
X208737Y136829D01*
X208750Y136813D01*
X208765Y136795D01*
X208779Y136775D01*
X208794Y136754D01*
X208809Y136731D01*
X208824Y136707D01*
X208837Y136681D01*
X208850Y136653D01*
X208862Y136624D01*
X208863Y136622D01*
X208865Y136617D01*
X208868Y136608D01*
X208871Y136596D01*
X208876Y136581D01*
X208881Y136564D01*
X208886Y136543D01*
X208892Y136520D01*
X208898Y136495D01*
X208903Y136467D01*
X208908Y136437D01*
X208913Y136406D01*
X208916Y136373D01*
X208919Y136338D01*
X208921Y136302D01*
X208922Y136264D01*
Y136262D01*
Y136256D01*
Y136247D01*
X208921Y136235D01*
Y136220D01*
X208920Y136203D01*
X208919Y136183D01*
X208917Y136161D01*
X208915Y136138D01*
X208912Y136114D01*
X208905Y136063D01*
X208895Y136010D01*
X208881Y135959D01*
Y135958D01*
X208879Y135953D01*
X208877Y135946D01*
X208874Y135937D01*
X208870Y135925D01*
X208865Y135912D01*
X208859Y135898D01*
X208853Y135882D01*
X208846Y135864D01*
X208838Y135847D01*
X208821Y135810D01*
X208801Y135773D01*
X208790Y135755D01*
X208778Y135738D01*
X208777Y135737D01*
X208775Y135734D01*
X208772Y135730D01*
X208767Y135724D01*
X208761Y135716D01*
X208754Y135708D01*
X208746Y135698D01*
X208737Y135688D01*
X208717Y135666D01*
X208693Y135644D01*
X208667Y135621D01*
X208640Y135601D01*
X208639Y135600D01*
X208637Y135599D01*
X208633Y135596D01*
X208627Y135593D01*
X208620Y135589D01*
X208611Y135584D01*
X208601Y135579D01*
X208590Y135573D01*
X208577Y135567D01*
X208564Y135561D01*
X208549Y135554D01*
X208533Y135548D01*
X208498Y135536D01*
X208460Y135525D01*
X208459D01*
X208455Y135524D01*
X208449Y135523D01*
X208441Y135521D01*
X208431Y135519D01*
X208419Y135517D01*
X208405Y135515D01*
X208390Y135513D01*
X208373Y135510D01*
X208354Y135508D01*
X208334Y135506D01*
X208313Y135504D01*
X208290Y135502D01*
X208267Y135501D01*
X208217Y135500D01*
X207671D01*
Y137013D01*
X208221D01*
X208236Y137012D01*
D02*
G37*
G36*
X207411Y136834D02*
X206590D01*
Y136366D01*
X207300D01*
Y136187D01*
X206590D01*
Y135500D01*
X206390D01*
Y137013D01*
X207411D01*
Y136834D01*
D02*
G37*
G36*
X240932Y30500D02*
X240746D01*
Y31683D01*
X240745Y31682D01*
X240743Y31680D01*
X240739Y31677D01*
X240734Y31672D01*
X240727Y31666D01*
X240719Y31659D01*
X240710Y31652D01*
X240699Y31643D01*
X240687Y31634D01*
X240674Y31624D01*
X240659Y31613D01*
X240644Y31602D01*
X240627Y31591D01*
X240609Y31579D01*
X240590Y31567D01*
X240570Y31555D01*
X240569Y31554D01*
X240565Y31552D01*
X240559Y31549D01*
X240552Y31545D01*
X240542Y31539D01*
X240531Y31533D01*
X240518Y31526D01*
X240505Y31519D01*
X240490Y31511D01*
X240475Y31503D01*
X240442Y31488D01*
X240408Y31472D01*
X240375Y31459D01*
Y31639D01*
X240377Y31640D01*
X240382Y31642D01*
X240390Y31646D01*
X240401Y31652D01*
X240415Y31659D01*
X240431Y31668D01*
X240448Y31677D01*
X240468Y31689D01*
X240488Y31701D01*
X240510Y31714D01*
X240533Y31729D01*
X240556Y31745D01*
X240602Y31779D01*
X240647Y31816D01*
X240648Y31817D01*
X240652Y31821D01*
X240658Y31826D01*
X240666Y31834D01*
X240676Y31843D01*
X240687Y31854D01*
X240699Y31867D01*
X240712Y31881D01*
X240725Y31896D01*
X240739Y31912D01*
X240766Y31946D01*
X240779Y31964D01*
X240791Y31982D01*
X240802Y32001D01*
X240812Y32019D01*
X240932D01*
Y30500D01*
D02*
G37*
G36*
X239346Y32012D02*
X239363D01*
X239381Y32011D01*
X239402Y32010D01*
X239423Y32009D01*
X239445Y32008D01*
X239490Y32004D01*
X239512Y32001D01*
X239533Y31998D01*
X239553Y31995D01*
X239571Y31991D01*
X239573D01*
X239577Y31990D01*
X239584Y31988D01*
X239593Y31985D01*
X239604Y31982D01*
X239617Y31977D01*
X239632Y31972D01*
X239648Y31966D01*
X239665Y31959D01*
X239682Y31951D01*
X239701Y31943D01*
X239720Y31933D01*
X239738Y31922D01*
X239757Y31910D01*
X239775Y31897D01*
X239793Y31883D01*
X239794Y31882D01*
X239798Y31878D01*
X239804Y31873D01*
X239813Y31865D01*
X239823Y31855D01*
X239834Y31843D01*
X239847Y31829D01*
X239860Y31813D01*
X239875Y31795D01*
X239889Y31775D01*
X239904Y31754D01*
X239919Y31731D01*
X239934Y31707D01*
X239947Y31681D01*
X239960Y31653D01*
X239972Y31624D01*
X239973Y31622D01*
X239975Y31617D01*
X239978Y31608D01*
X239981Y31596D01*
X239986Y31581D01*
X239991Y31564D01*
X239996Y31543D01*
X240002Y31520D01*
X240008Y31495D01*
X240013Y31467D01*
X240018Y31437D01*
X240023Y31406D01*
X240026Y31373D01*
X240029Y31338D01*
X240031Y31302D01*
X240032Y31264D01*
Y31262D01*
Y31256D01*
Y31247D01*
X240031Y31235D01*
Y31220D01*
X240030Y31203D01*
X240029Y31183D01*
X240027Y31161D01*
X240025Y31138D01*
X240022Y31114D01*
X240015Y31063D01*
X240005Y31010D01*
X239991Y30959D01*
Y30958D01*
X239989Y30953D01*
X239987Y30946D01*
X239984Y30937D01*
X239980Y30925D01*
X239975Y30912D01*
X239969Y30898D01*
X239963Y30882D01*
X239956Y30864D01*
X239948Y30847D01*
X239931Y30810D01*
X239911Y30773D01*
X239900Y30755D01*
X239888Y30738D01*
X239887Y30737D01*
X239885Y30734D01*
X239882Y30730D01*
X239877Y30724D01*
X239871Y30716D01*
X239864Y30708D01*
X239856Y30698D01*
X239847Y30688D01*
X239827Y30666D01*
X239803Y30644D01*
X239777Y30621D01*
X239750Y30601D01*
X239749Y30600D01*
X239747Y30599D01*
X239743Y30596D01*
X239737Y30593D01*
X239730Y30589D01*
X239721Y30584D01*
X239711Y30579D01*
X239700Y30573D01*
X239687Y30567D01*
X239674Y30561D01*
X239659Y30554D01*
X239643Y30548D01*
X239608Y30536D01*
X239570Y30525D01*
X239569D01*
X239565Y30524D01*
X239559Y30523D01*
X239551Y30521D01*
X239541Y30519D01*
X239529Y30517D01*
X239515Y30515D01*
X239500Y30513D01*
X239483Y30510D01*
X239464Y30508D01*
X239444Y30506D01*
X239423Y30504D01*
X239400Y30502D01*
X239377Y30501D01*
X239327Y30500D01*
X238781D01*
Y32013D01*
X239331D01*
X239346Y32012D01*
D02*
G37*
G36*
X238521Y31834D02*
X237700D01*
Y31366D01*
X238410D01*
Y31187D01*
X237700D01*
Y30500D01*
X237500D01*
Y32013D01*
X238521D01*
Y31834D01*
D02*
G37*
G36*
X110146Y38018D02*
X110161Y38017D01*
X110179Y38015D01*
X110201Y38013D01*
X110224Y38009D01*
X110250Y38004D01*
X110277Y37997D01*
X110305Y37989D01*
X110334Y37980D01*
X110363Y37968D01*
X110391Y37954D01*
X110419Y37938D01*
X110445Y37919D01*
X110470Y37898D01*
X110471Y37897D01*
X110475Y37892D01*
X110482Y37886D01*
X110490Y37876D01*
X110499Y37865D01*
X110510Y37850D01*
X110522Y37834D01*
X110534Y37815D01*
X110545Y37795D01*
X110557Y37772D01*
X110568Y37747D01*
X110577Y37721D01*
X110585Y37693D01*
X110592Y37663D01*
X110596Y37632D01*
X110597Y37599D01*
Y37598D01*
Y37595D01*
Y37590D01*
X110596Y37583D01*
Y37575D01*
X110595Y37566D01*
X110594Y37555D01*
X110592Y37543D01*
X110590Y37529D01*
X110588Y37515D01*
X110581Y37485D01*
X110572Y37453D01*
X110559Y37420D01*
Y37419D01*
X110557Y37416D01*
X110555Y37411D01*
X110552Y37405D01*
X110548Y37397D01*
X110543Y37387D01*
X110537Y37376D01*
X110530Y37364D01*
X110522Y37351D01*
X110513Y37337D01*
X110503Y37321D01*
X110492Y37305D01*
X110479Y37288D01*
X110466Y37271D01*
X110452Y37253D01*
X110436Y37235D01*
X110435Y37234D01*
X110432Y37231D01*
X110427Y37225D01*
X110419Y37217D01*
X110410Y37207D01*
X110398Y37195D01*
X110384Y37181D01*
X110368Y37165D01*
X110349Y37147D01*
X110328Y37127D01*
X110305Y37106D01*
X110279Y37082D01*
X110251Y37056D01*
X110220Y37029D01*
X110186Y37000D01*
X110150Y36969D01*
X110148Y36967D01*
X110143Y36963D01*
X110134Y36956D01*
X110123Y36946D01*
X110110Y36935D01*
X110094Y36922D01*
X110078Y36908D01*
X110060Y36893D01*
X110024Y36861D01*
X110006Y36845D01*
X109988Y36830D01*
X109972Y36815D01*
X109958Y36802D01*
X109945Y36789D01*
X109935Y36779D01*
X109934Y36778D01*
X109933Y36777D01*
X109930Y36774D01*
X109927Y36770D01*
X109919Y36761D01*
X109908Y36748D01*
X109895Y36732D01*
X109882Y36715D01*
X109869Y36697D01*
X109857Y36678D01*
X110599D01*
Y36500D01*
X109599D01*
Y36501D01*
Y36503D01*
Y36507D01*
Y36511D01*
Y36517D01*
Y36525D01*
X109601Y36541D01*
X109603Y36561D01*
X109607Y36583D01*
X109612Y36606D01*
X109620Y36629D01*
Y36630D01*
X109622Y36634D01*
X109624Y36639D01*
X109627Y36647D01*
X109631Y36656D01*
X109636Y36667D01*
X109643Y36679D01*
X109650Y36692D01*
X109658Y36707D01*
X109667Y36723D01*
X109677Y36740D01*
X109688Y36757D01*
X109700Y36775D01*
X109713Y36793D01*
X109727Y36811D01*
X109742Y36830D01*
X109743Y36831D01*
X109746Y36835D01*
X109751Y36840D01*
X109758Y36848D01*
X109767Y36857D01*
X109777Y36868D01*
X109790Y36881D01*
X109804Y36896D01*
X109821Y36912D01*
X109839Y36929D01*
X109859Y36948D01*
X109881Y36968D01*
X109904Y36990D01*
X109930Y37012D01*
X109957Y37035D01*
X109986Y37059D01*
X109987Y37060D01*
X109989Y37061D01*
X109992Y37064D01*
X109997Y37068D01*
X110003Y37073D01*
X110009Y37078D01*
X110026Y37092D01*
X110046Y37109D01*
X110068Y37129D01*
X110093Y37151D01*
X110120Y37175D01*
X110147Y37200D01*
X110175Y37226D01*
X110203Y37253D01*
X110230Y37279D01*
X110256Y37306D01*
X110280Y37331D01*
X110301Y37356D01*
X110319Y37379D01*
X110320Y37380D01*
X110323Y37384D01*
X110327Y37391D01*
X110333Y37399D01*
X110339Y37410D01*
X110347Y37422D01*
X110354Y37436D01*
X110363Y37452D01*
X110371Y37468D01*
X110379Y37486D01*
X110386Y37505D01*
X110392Y37524D01*
X110398Y37543D01*
X110402Y37563D01*
X110405Y37583D01*
X110406Y37603D01*
Y37604D01*
Y37608D01*
Y37614D01*
X110405Y37621D01*
X110404Y37631D01*
X110402Y37642D01*
X110399Y37654D01*
X110396Y37668D01*
X110392Y37682D01*
X110387Y37697D01*
X110380Y37712D01*
X110373Y37728D01*
X110364Y37744D01*
X110353Y37759D01*
X110341Y37774D01*
X110327Y37789D01*
X110326Y37790D01*
X110323Y37792D01*
X110319Y37796D01*
X110313Y37801D01*
X110305Y37807D01*
X110295Y37813D01*
X110284Y37820D01*
X110272Y37827D01*
X110258Y37834D01*
X110242Y37841D01*
X110225Y37847D01*
X110207Y37853D01*
X110187Y37858D01*
X110166Y37862D01*
X110144Y37864D01*
X110121Y37865D01*
X110115D01*
X110108Y37864D01*
X110099D01*
X110087Y37863D01*
X110074Y37861D01*
X110060Y37858D01*
X110044Y37855D01*
X110027Y37851D01*
X110010Y37845D01*
X109992Y37839D01*
X109974Y37831D01*
X109956Y37822D01*
X109939Y37811D01*
X109922Y37798D01*
X109906Y37784D01*
X109905Y37783D01*
X109903Y37780D01*
X109899Y37776D01*
X109894Y37769D01*
X109887Y37761D01*
X109881Y37751D01*
X109873Y37740D01*
X109866Y37726D01*
X109858Y37711D01*
X109851Y37695D01*
X109844Y37676D01*
X109838Y37657D01*
X109833Y37635D01*
X109829Y37612D01*
X109826Y37588D01*
X109825Y37562D01*
X109634Y37581D01*
Y37582D01*
Y37583D01*
X109635Y37586D01*
Y37590D01*
X109636Y37595D01*
X109637Y37602D01*
X109639Y37616D01*
X109642Y37634D01*
X109647Y37655D01*
X109652Y37677D01*
X109660Y37702D01*
X109668Y37728D01*
X109678Y37755D01*
X109690Y37782D01*
X109704Y37809D01*
X109720Y37835D01*
X109738Y37861D01*
X109758Y37885D01*
X109781Y37907D01*
X109783Y37908D01*
X109787Y37912D01*
X109794Y37917D01*
X109804Y37925D01*
X109817Y37933D01*
X109833Y37942D01*
X109851Y37953D01*
X109872Y37963D01*
X109895Y37973D01*
X109921Y37984D01*
X109950Y37993D01*
X109980Y38002D01*
X110013Y38009D01*
X110048Y38014D01*
X110086Y38018D01*
X110125Y38019D01*
X110140D01*
X110146Y38018D01*
D02*
G37*
G36*
X108736Y38012D02*
X108753D01*
X108771Y38011D01*
X108792Y38010D01*
X108813Y38009D01*
X108835Y38008D01*
X108880Y38004D01*
X108902Y38001D01*
X108923Y37998D01*
X108943Y37995D01*
X108961Y37991D01*
X108963D01*
X108967Y37990D01*
X108974Y37988D01*
X108983Y37985D01*
X108994Y37982D01*
X109007Y37977D01*
X109022Y37972D01*
X109038Y37966D01*
X109055Y37959D01*
X109072Y37951D01*
X109091Y37943D01*
X109110Y37933D01*
X109128Y37922D01*
X109147Y37910D01*
X109165Y37897D01*
X109183Y37883D01*
X109184Y37882D01*
X109188Y37878D01*
X109194Y37873D01*
X109203Y37865D01*
X109213Y37855D01*
X109224Y37843D01*
X109237Y37829D01*
X109250Y37813D01*
X109265Y37795D01*
X109279Y37775D01*
X109294Y37754D01*
X109309Y37731D01*
X109324Y37707D01*
X109337Y37681D01*
X109350Y37653D01*
X109362Y37624D01*
X109363Y37622D01*
X109365Y37617D01*
X109368Y37608D01*
X109371Y37596D01*
X109376Y37581D01*
X109381Y37564D01*
X109386Y37543D01*
X109392Y37520D01*
X109398Y37495D01*
X109403Y37467D01*
X109408Y37437D01*
X109413Y37406D01*
X109416Y37373D01*
X109419Y37338D01*
X109421Y37302D01*
X109422Y37264D01*
Y37262D01*
Y37256D01*
Y37247D01*
X109421Y37235D01*
Y37220D01*
X109420Y37203D01*
X109419Y37183D01*
X109417Y37161D01*
X109415Y37138D01*
X109412Y37114D01*
X109405Y37063D01*
X109395Y37010D01*
X109381Y36959D01*
Y36958D01*
X109379Y36953D01*
X109377Y36946D01*
X109374Y36937D01*
X109370Y36925D01*
X109365Y36912D01*
X109359Y36898D01*
X109353Y36882D01*
X109346Y36864D01*
X109338Y36847D01*
X109321Y36810D01*
X109301Y36773D01*
X109290Y36755D01*
X109278Y36738D01*
X109277Y36737D01*
X109275Y36734D01*
X109272Y36730D01*
X109267Y36724D01*
X109261Y36716D01*
X109254Y36708D01*
X109246Y36698D01*
X109237Y36688D01*
X109217Y36666D01*
X109193Y36644D01*
X109167Y36621D01*
X109140Y36601D01*
X109139Y36600D01*
X109137Y36599D01*
X109133Y36596D01*
X109127Y36593D01*
X109120Y36589D01*
X109111Y36584D01*
X109101Y36579D01*
X109090Y36573D01*
X109077Y36567D01*
X109064Y36561D01*
X109049Y36554D01*
X109033Y36548D01*
X108998Y36536D01*
X108960Y36525D01*
X108959D01*
X108955Y36524D01*
X108949Y36523D01*
X108941Y36521D01*
X108931Y36519D01*
X108919Y36517D01*
X108905Y36515D01*
X108890Y36513D01*
X108873Y36510D01*
X108854Y36508D01*
X108834Y36506D01*
X108813Y36504D01*
X108790Y36502D01*
X108767Y36501D01*
X108717Y36500D01*
X108171D01*
Y38013D01*
X108721D01*
X108736Y38012D01*
D02*
G37*
G36*
X107911Y37834D02*
X107090D01*
Y37366D01*
X107800D01*
Y37187D01*
X107090D01*
Y36500D01*
X106890D01*
Y38013D01*
X107911D01*
Y37834D01*
D02*
G37*
G36*
X196890Y72252D02*
X195707D01*
X195708Y72251D01*
X195710Y72249D01*
X195713Y72245D01*
X195718Y72240D01*
X195724Y72233D01*
X195731Y72225D01*
X195738Y72216D01*
X195747Y72205D01*
X195756Y72193D01*
X195766Y72180D01*
X195777Y72165D01*
X195788Y72150D01*
X195799Y72133D01*
X195811Y72115D01*
X195823Y72096D01*
X195835Y72076D01*
X195836Y72075D01*
X195838Y72071D01*
X195841Y72065D01*
X195845Y72058D01*
X195851Y72048D01*
X195857Y72037D01*
X195864Y72024D01*
X195871Y72011D01*
X195879Y71996D01*
X195887Y71981D01*
X195902Y71948D01*
X195918Y71914D01*
X195931Y71881D01*
X195751D01*
X195750Y71883D01*
X195748Y71888D01*
X195744Y71896D01*
X195738Y71907D01*
X195731Y71921D01*
X195722Y71937D01*
X195713Y71954D01*
X195701Y71974D01*
X195689Y71994D01*
X195676Y72016D01*
X195661Y72039D01*
X195645Y72062D01*
X195611Y72108D01*
X195574Y72153D01*
X195573Y72154D01*
X195569Y72158D01*
X195564Y72164D01*
X195556Y72172D01*
X195547Y72182D01*
X195536Y72193D01*
X195523Y72205D01*
X195509Y72218D01*
X195494Y72231D01*
X195478Y72245D01*
X195444Y72272D01*
X195426Y72285D01*
X195408Y72297D01*
X195389Y72308D01*
X195371Y72318D01*
Y72438D01*
X196890D01*
Y72252D01*
D02*
G37*
G36*
X195834Y71558D02*
X195847Y71557D01*
X195864Y71555D01*
X195883Y71553D01*
X195905Y71549D01*
X195928Y71544D01*
X195953Y71537D01*
X195980Y71529D01*
X196007Y71519D01*
X196034Y71507D01*
X196062Y71493D01*
X196089Y71477D01*
X196116Y71458D01*
X196142Y71436D01*
X196143Y71435D01*
X196148Y71430D01*
X196154Y71423D01*
X196163Y71412D01*
X196173Y71398D01*
X196184Y71380D01*
X196196Y71359D01*
X196208Y71334D01*
X196221Y71306D01*
X196233Y71274D01*
X196239Y71256D01*
X196244Y71237D01*
X196249Y71218D01*
X196254Y71197D01*
X196259Y71175D01*
X196263Y71152D01*
X196266Y71128D01*
X196269Y71103D01*
X196272Y71077D01*
X196273Y71050D01*
X196275Y71022D01*
Y70604D01*
X196890D01*
Y70404D01*
X195377D01*
Y71011D01*
X195378Y71026D01*
Y71042D01*
X195379Y71060D01*
X195381Y71097D01*
X195383Y71135D01*
X195385Y71154D01*
X195387Y71172D01*
X195389Y71189D01*
X195392Y71205D01*
Y71206D01*
X195393Y71210D01*
X195394Y71216D01*
X195396Y71224D01*
X195398Y71233D01*
X195400Y71244D01*
X195404Y71256D01*
X195408Y71270D01*
X195417Y71299D01*
X195430Y71330D01*
X195445Y71362D01*
X195463Y71391D01*
X195464Y71392D01*
X195465Y71394D01*
X195468Y71398D01*
X195473Y71404D01*
X195478Y71410D01*
X195484Y71418D01*
X195492Y71426D01*
X195501Y71435D01*
X195511Y71444D01*
X195521Y71454D01*
X195533Y71464D01*
X195546Y71475D01*
X195561Y71485D01*
X195576Y71495D01*
X195592Y71504D01*
X195609Y71513D01*
X195610Y71514D01*
X195613Y71515D01*
X195618Y71517D01*
X195625Y71520D01*
X195634Y71524D01*
X195644Y71528D01*
X195656Y71532D01*
X195670Y71536D01*
X195684Y71540D01*
X195700Y71544D01*
X195717Y71548D01*
X195735Y71552D01*
X195774Y71557D01*
X195794Y71559D01*
X195815D01*
X195816D01*
X195817D01*
X195820D01*
X195824D01*
X195834Y71558D01*
D02*
G37*
G36*
X195556Y69698D02*
X196890D01*
Y69498D01*
X195556D01*
Y68999D01*
X195377D01*
Y70199D01*
X195556D01*
Y69698D01*
D02*
G37*
G36*
X141390Y125215D02*
X141389D01*
X141387D01*
X141383D01*
X141379D01*
X141373D01*
X141365D01*
X141349Y125217D01*
X141329Y125219D01*
X141307Y125223D01*
X141284Y125228D01*
X141261Y125236D01*
X141260D01*
X141256Y125238D01*
X141251Y125240D01*
X141243Y125243D01*
X141234Y125247D01*
X141223Y125252D01*
X141211Y125259D01*
X141198Y125266D01*
X141183Y125274D01*
X141167Y125283D01*
X141150Y125293D01*
X141133Y125304D01*
X141115Y125316D01*
X141097Y125329D01*
X141079Y125343D01*
X141060Y125358D01*
X141059Y125359D01*
X141055Y125362D01*
X141050Y125367D01*
X141042Y125374D01*
X141033Y125383D01*
X141022Y125393D01*
X141009Y125406D01*
X140994Y125420D01*
X140978Y125437D01*
X140961Y125455D01*
X140942Y125475D01*
X140922Y125497D01*
X140900Y125520D01*
X140878Y125546D01*
X140855Y125573D01*
X140831Y125602D01*
X140830Y125603D01*
X140829Y125605D01*
X140826Y125608D01*
X140822Y125613D01*
X140817Y125619D01*
X140812Y125625D01*
X140798Y125642D01*
X140781Y125662D01*
X140761Y125684D01*
X140739Y125709D01*
X140715Y125736D01*
X140690Y125763D01*
X140664Y125791D01*
X140637Y125819D01*
X140611Y125846D01*
X140584Y125872D01*
X140559Y125896D01*
X140534Y125917D01*
X140511Y125935D01*
X140510Y125936D01*
X140506Y125939D01*
X140499Y125943D01*
X140491Y125949D01*
X140480Y125955D01*
X140468Y125963D01*
X140454Y125970D01*
X140438Y125979D01*
X140422Y125987D01*
X140404Y125995D01*
X140385Y126002D01*
X140366Y126008D01*
X140347Y126014D01*
X140327Y126018D01*
X140307Y126021D01*
X140287Y126022D01*
X140286D01*
X140282D01*
X140276D01*
X140269Y126021D01*
X140259Y126020D01*
X140248Y126018D01*
X140236Y126015D01*
X140222Y126012D01*
X140208Y126008D01*
X140193Y126003D01*
X140178Y125996D01*
X140162Y125989D01*
X140146Y125980D01*
X140131Y125969D01*
X140116Y125957D01*
X140101Y125943D01*
X140100Y125942D01*
X140098Y125939D01*
X140094Y125935D01*
X140089Y125929D01*
X140083Y125921D01*
X140077Y125911D01*
X140070Y125900D01*
X140063Y125888D01*
X140056Y125874D01*
X140049Y125858D01*
X140043Y125841D01*
X140037Y125823D01*
X140032Y125803D01*
X140028Y125782D01*
X140026Y125760D01*
X140025Y125737D01*
Y125731D01*
X140026Y125724D01*
Y125715D01*
X140027Y125703D01*
X140029Y125690D01*
X140032Y125676D01*
X140035Y125660D01*
X140039Y125643D01*
X140045Y125626D01*
X140051Y125608D01*
X140059Y125590D01*
X140068Y125572D01*
X140079Y125555D01*
X140092Y125538D01*
X140106Y125522D01*
X140107Y125521D01*
X140110Y125519D01*
X140114Y125515D01*
X140121Y125510D01*
X140129Y125503D01*
X140139Y125497D01*
X140150Y125489D01*
X140164Y125482D01*
X140179Y125474D01*
X140195Y125467D01*
X140214Y125460D01*
X140233Y125454D01*
X140255Y125449D01*
X140278Y125445D01*
X140302Y125442D01*
X140328Y125441D01*
X140309Y125250D01*
X140308D01*
X140307D01*
X140304Y125251D01*
X140300D01*
X140295Y125252D01*
X140288Y125253D01*
X140274Y125255D01*
X140256Y125258D01*
X140235Y125263D01*
X140213Y125268D01*
X140188Y125276D01*
X140162Y125284D01*
X140135Y125294D01*
X140108Y125306D01*
X140081Y125320D01*
X140055Y125336D01*
X140029Y125354D01*
X140005Y125374D01*
X139983Y125397D01*
X139982Y125399D01*
X139978Y125403D01*
X139973Y125410D01*
X139965Y125420D01*
X139957Y125433D01*
X139948Y125449D01*
X139937Y125467D01*
X139927Y125488D01*
X139917Y125511D01*
X139906Y125537D01*
X139897Y125566D01*
X139888Y125596D01*
X139881Y125629D01*
X139876Y125664D01*
X139872Y125702D01*
X139871Y125741D01*
Y125756D01*
X139872Y125762D01*
X139873Y125777D01*
X139875Y125795D01*
X139877Y125817D01*
X139881Y125840D01*
X139886Y125866D01*
X139893Y125893D01*
X139901Y125921D01*
X139910Y125950D01*
X139922Y125979D01*
X139936Y126007D01*
X139952Y126035D01*
X139971Y126061D01*
X139992Y126086D01*
X139993Y126087D01*
X139998Y126091D01*
X140004Y126098D01*
X140014Y126106D01*
X140025Y126115D01*
X140040Y126126D01*
X140056Y126138D01*
X140075Y126150D01*
X140095Y126161D01*
X140118Y126173D01*
X140143Y126184D01*
X140169Y126193D01*
X140197Y126201D01*
X140227Y126208D01*
X140258Y126212D01*
X140291Y126213D01*
X140292D01*
X140295D01*
X140300D01*
X140307Y126212D01*
X140315D01*
X140324Y126211D01*
X140335Y126210D01*
X140347Y126208D01*
X140361Y126206D01*
X140375Y126204D01*
X140405Y126197D01*
X140437Y126188D01*
X140470Y126175D01*
X140471D01*
X140474Y126173D01*
X140479Y126171D01*
X140485Y126168D01*
X140493Y126164D01*
X140503Y126159D01*
X140514Y126153D01*
X140526Y126146D01*
X140539Y126138D01*
X140553Y126129D01*
X140569Y126119D01*
X140585Y126108D01*
X140602Y126095D01*
X140619Y126082D01*
X140637Y126068D01*
X140655Y126052D01*
X140656Y126051D01*
X140659Y126048D01*
X140665Y126043D01*
X140673Y126035D01*
X140683Y126026D01*
X140695Y126014D01*
X140709Y126000D01*
X140725Y125984D01*
X140743Y125965D01*
X140763Y125944D01*
X140784Y125921D01*
X140808Y125895D01*
X140834Y125867D01*
X140861Y125836D01*
X140890Y125802D01*
X140921Y125766D01*
X140923Y125764D01*
X140927Y125759D01*
X140934Y125750D01*
X140944Y125739D01*
X140955Y125726D01*
X140968Y125710D01*
X140982Y125694D01*
X140997Y125676D01*
X141029Y125640D01*
X141045Y125622D01*
X141060Y125604D01*
X141075Y125588D01*
X141088Y125574D01*
X141101Y125561D01*
X141111Y125551D01*
X141112Y125550D01*
X141113Y125549D01*
X141116Y125546D01*
X141120Y125543D01*
X141129Y125535D01*
X141142Y125524D01*
X141158Y125511D01*
X141175Y125498D01*
X141193Y125485D01*
X141212Y125473D01*
Y126215D01*
X141390D01*
Y125215D01*
D02*
G37*
G36*
X140334Y125058D02*
X140347Y125057D01*
X140364Y125055D01*
X140383Y125053D01*
X140405Y125049D01*
X140428Y125044D01*
X140453Y125037D01*
X140480Y125029D01*
X140507Y125019D01*
X140534Y125007D01*
X140562Y124993D01*
X140589Y124977D01*
X140616Y124958D01*
X140642Y124936D01*
X140643Y124935D01*
X140648Y124930D01*
X140654Y124923D01*
X140663Y124912D01*
X140673Y124898D01*
X140684Y124880D01*
X140696Y124859D01*
X140708Y124834D01*
X140721Y124806D01*
X140733Y124774D01*
X140739Y124756D01*
X140744Y124737D01*
X140749Y124718D01*
X140754Y124697D01*
X140759Y124675D01*
X140763Y124652D01*
X140766Y124628D01*
X140769Y124603D01*
X140772Y124577D01*
X140773Y124550D01*
X140775Y124522D01*
Y124104D01*
X141390D01*
Y123904D01*
X139877D01*
Y124511D01*
X139878Y124526D01*
Y124542D01*
X139879Y124560D01*
X139881Y124597D01*
X139883Y124635D01*
X139885Y124654D01*
X139887Y124672D01*
X139889Y124689D01*
X139892Y124705D01*
Y124706D01*
X139893Y124710D01*
X139894Y124716D01*
X139896Y124724D01*
X139898Y124733D01*
X139900Y124744D01*
X139904Y124756D01*
X139908Y124770D01*
X139917Y124799D01*
X139930Y124830D01*
X139945Y124862D01*
X139963Y124891D01*
X139964Y124892D01*
X139965Y124894D01*
X139968Y124898D01*
X139973Y124904D01*
X139978Y124910D01*
X139984Y124918D01*
X139992Y124926D01*
X140001Y124935D01*
X140011Y124944D01*
X140021Y124954D01*
X140033Y124964D01*
X140046Y124975D01*
X140061Y124985D01*
X140076Y124995D01*
X140092Y125004D01*
X140109Y125013D01*
X140110Y125014D01*
X140113Y125015D01*
X140118Y125017D01*
X140125Y125020D01*
X140134Y125024D01*
X140144Y125028D01*
X140156Y125032D01*
X140170Y125036D01*
X140184Y125040D01*
X140200Y125044D01*
X140217Y125048D01*
X140235Y125052D01*
X140274Y125057D01*
X140294Y125059D01*
X140315D01*
X140316D01*
X140317D01*
X140320D01*
X140324D01*
X140334Y125058D01*
D02*
G37*
G36*
X140056Y123198D02*
X141390D01*
Y122998D01*
X140056D01*
Y122499D01*
X139877D01*
Y123699D01*
X140056D01*
Y123198D01*
D02*
G37*
G36*
X131963Y111729D02*
X131977Y111728D01*
X131994Y111726D01*
X132014Y111722D01*
X132036Y111718D01*
X132060Y111712D01*
X132086Y111704D01*
X132113Y111695D01*
X132141Y111683D01*
X132169Y111669D01*
X132197Y111652D01*
X132225Y111633D01*
X132253Y111611D01*
X132279Y111585D01*
X132281Y111583D01*
X132285Y111578D01*
X132292Y111570D01*
X132300Y111559D01*
X132311Y111545D01*
X132322Y111528D01*
X132335Y111508D01*
X132347Y111485D01*
X132360Y111460D01*
X132373Y111433D01*
X132384Y111403D01*
X132395Y111370D01*
X132403Y111336D01*
X132410Y111299D01*
X132414Y111261D01*
X132416Y111220D01*
Y111211D01*
X132415Y111201D01*
X132414Y111187D01*
X132412Y111170D01*
X132410Y111150D01*
X132406Y111128D01*
X132401Y111104D01*
X132395Y111078D01*
X132387Y111052D01*
X132378Y111024D01*
X132366Y110996D01*
X132353Y110969D01*
X132337Y110941D01*
X132319Y110915D01*
X132298Y110889D01*
X132297Y110888D01*
X132293Y110883D01*
X132286Y110877D01*
X132277Y110868D01*
X132265Y110858D01*
X132251Y110847D01*
X132234Y110834D01*
X132215Y110821D01*
X132194Y110808D01*
X132171Y110795D01*
X132146Y110782D01*
X132119Y110770D01*
X132089Y110760D01*
X132058Y110751D01*
X132026Y110744D01*
X131991Y110739D01*
X131966Y110925D01*
X131968D01*
X131973Y110927D01*
X131981Y110928D01*
X131992Y110931D01*
X132005Y110935D01*
X132020Y110939D01*
X132036Y110944D01*
X132054Y110951D01*
X132091Y110966D01*
X132129Y110985D01*
X132147Y110995D01*
X132164Y111007D01*
X132180Y111020D01*
X132194Y111034D01*
X132195Y111035D01*
X132197Y111038D01*
X132200Y111042D01*
X132205Y111048D01*
X132210Y111055D01*
X132216Y111064D01*
X132222Y111075D01*
X132229Y111086D01*
X132235Y111099D01*
X132242Y111114D01*
X132248Y111129D01*
X132253Y111145D01*
X132258Y111163D01*
X132261Y111181D01*
X132263Y111201D01*
X132264Y111221D01*
Y111227D01*
X132263Y111234D01*
Y111243D01*
X132261Y111254D01*
X132259Y111267D01*
X132256Y111282D01*
X132253Y111298D01*
X132248Y111315D01*
X132242Y111333D01*
X132234Y111351D01*
X132226Y111370D01*
X132215Y111388D01*
X132203Y111407D01*
X132189Y111425D01*
X132173Y111442D01*
X132172Y111443D01*
X132169Y111446D01*
X132164Y111450D01*
X132157Y111456D01*
X132148Y111463D01*
X132137Y111471D01*
X132125Y111479D01*
X132111Y111488D01*
X132095Y111496D01*
X132078Y111504D01*
X132060Y111512D01*
X132040Y111519D01*
X132018Y111525D01*
X131996Y111529D01*
X131973Y111532D01*
X131948Y111533D01*
X131947D01*
X131942D01*
X131936Y111532D01*
X131927D01*
X131916Y111530D01*
X131903Y111529D01*
X131889Y111526D01*
X131874Y111523D01*
X131857Y111518D01*
X131840Y111513D01*
X131823Y111506D01*
X131805Y111498D01*
X131787Y111488D01*
X131770Y111477D01*
X131753Y111464D01*
X131737Y111449D01*
X131736Y111448D01*
X131733Y111445D01*
X131729Y111441D01*
X131724Y111434D01*
X131717Y111426D01*
X131710Y111416D01*
X131703Y111404D01*
X131695Y111391D01*
X131687Y111377D01*
X131680Y111361D01*
X131672Y111343D01*
X131666Y111325D01*
X131661Y111304D01*
X131657Y111283D01*
X131654Y111261D01*
X131653Y111237D01*
Y111228D01*
X131654Y111222D01*
Y111216D01*
X131656Y111201D01*
X131658Y111182D01*
X131662Y111159D01*
X131667Y111134D01*
X131674Y111106D01*
X131511Y111126D01*
Y111129D01*
X131512Y111133D01*
Y111137D01*
X131513Y111147D01*
Y111168D01*
X131512Y111176D01*
X131511Y111187D01*
X131510Y111199D01*
X131508Y111212D01*
X131505Y111227D01*
X131502Y111244D01*
X131498Y111261D01*
X131493Y111278D01*
X131487Y111297D01*
X131480Y111315D01*
X131471Y111334D01*
X131462Y111352D01*
X131451Y111370D01*
X131450Y111371D01*
X131448Y111374D01*
X131444Y111379D01*
X131439Y111385D01*
X131433Y111392D01*
X131425Y111400D01*
X131415Y111409D01*
X131404Y111418D01*
X131391Y111426D01*
X131377Y111435D01*
X131361Y111443D01*
X131344Y111450D01*
X131325Y111456D01*
X131305Y111461D01*
X131283Y111464D01*
X131260Y111465D01*
X131259D01*
X131255D01*
X131250D01*
X131243Y111464D01*
X131234Y111463D01*
X131224Y111461D01*
X131213Y111459D01*
X131201Y111456D01*
X131188Y111453D01*
X131174Y111448D01*
X131160Y111443D01*
X131146Y111436D01*
X131131Y111428D01*
X131117Y111419D01*
X131104Y111408D01*
X131091Y111396D01*
X131090Y111395D01*
X131088Y111393D01*
X131085Y111389D01*
X131080Y111384D01*
X131075Y111377D01*
X131070Y111368D01*
X131064Y111359D01*
X131057Y111348D01*
X131051Y111336D01*
X131045Y111322D01*
X131040Y111307D01*
X131034Y111291D01*
X131030Y111274D01*
X131027Y111256D01*
X131025Y111237D01*
X131024Y111217D01*
Y111207D01*
X131025Y111199D01*
X131026Y111190D01*
X131028Y111179D01*
X131030Y111167D01*
X131032Y111154D01*
X131041Y111125D01*
X131046Y111110D01*
X131053Y111095D01*
X131060Y111080D01*
X131070Y111065D01*
X131080Y111050D01*
X131092Y111036D01*
X131093Y111035D01*
X131095Y111033D01*
X131099Y111029D01*
X131105Y111024D01*
X131112Y111019D01*
X131121Y111012D01*
X131131Y111005D01*
X131143Y110998D01*
X131157Y110990D01*
X131172Y110982D01*
X131188Y110974D01*
X131207Y110967D01*
X131227Y110960D01*
X131248Y110954D01*
X131271Y110948D01*
X131296Y110944D01*
X131263Y110758D01*
X131262D01*
X131261D01*
X131255Y110760D01*
X131245Y110762D01*
X131232Y110765D01*
X131216Y110770D01*
X131198Y110775D01*
X131178Y110782D01*
X131157Y110790D01*
X131134Y110800D01*
X131110Y110811D01*
X131086Y110823D01*
X131062Y110837D01*
X131039Y110853D01*
X131016Y110871D01*
X130994Y110891D01*
X130974Y110912D01*
X130973Y110913D01*
X130970Y110918D01*
X130964Y110924D01*
X130958Y110934D01*
X130950Y110946D01*
X130941Y110960D01*
X130932Y110976D01*
X130922Y110995D01*
X130913Y111016D01*
X130904Y111039D01*
X130895Y111063D01*
X130887Y111090D01*
X130880Y111118D01*
X130875Y111148D01*
X130872Y111180D01*
X130871Y111213D01*
Y111225D01*
X130872Y111234D01*
X130873Y111245D01*
X130874Y111258D01*
X130875Y111272D01*
X130878Y111288D01*
X130880Y111305D01*
X130884Y111323D01*
X130893Y111362D01*
X130899Y111381D01*
X130906Y111401D01*
X130915Y111421D01*
X130924Y111441D01*
X130925Y111442D01*
X130926Y111446D01*
X130929Y111451D01*
X130934Y111458D01*
X130939Y111467D01*
X130946Y111477D01*
X130953Y111488D01*
X130962Y111500D01*
X130972Y111513D01*
X130983Y111526D01*
X130995Y111539D01*
X131007Y111552D01*
X131036Y111577D01*
X131052Y111589D01*
X131069Y111600D01*
X131070Y111601D01*
X131073Y111602D01*
X131078Y111605D01*
X131085Y111609D01*
X131093Y111613D01*
X131104Y111618D01*
X131115Y111623D01*
X131128Y111628D01*
X131142Y111633D01*
X131157Y111638D01*
X131190Y111647D01*
X131226Y111654D01*
X131245Y111655D01*
X131264Y111656D01*
X131265D01*
X131268D01*
X131274D01*
X131281Y111655D01*
X131289Y111654D01*
X131299Y111653D01*
X131311Y111652D01*
X131323Y111649D01*
X131351Y111643D01*
X131381Y111634D01*
X131396Y111628D01*
X131412Y111621D01*
X131428Y111612D01*
X131443Y111603D01*
X131444Y111602D01*
X131446Y111601D01*
X131451Y111598D01*
X131456Y111593D01*
X131463Y111588D01*
X131471Y111581D01*
X131480Y111573D01*
X131489Y111564D01*
X131499Y111554D01*
X131509Y111542D01*
X131520Y111529D01*
X131531Y111515D01*
X131541Y111500D01*
X131552Y111484D01*
X131562Y111466D01*
X131571Y111447D01*
Y111449D01*
X131572Y111453D01*
X131574Y111460D01*
X131577Y111469D01*
X131581Y111481D01*
X131586Y111494D01*
X131592Y111508D01*
X131599Y111524D01*
X131607Y111540D01*
X131616Y111557D01*
X131627Y111575D01*
X131638Y111592D01*
X131652Y111609D01*
X131666Y111626D01*
X131682Y111641D01*
X131700Y111656D01*
X131701Y111657D01*
X131704Y111659D01*
X131710Y111663D01*
X131717Y111668D01*
X131727Y111673D01*
X131738Y111679D01*
X131752Y111686D01*
X131767Y111693D01*
X131784Y111700D01*
X131802Y111707D01*
X131822Y111713D01*
X131844Y111718D01*
X131867Y111723D01*
X131891Y111727D01*
X131917Y111729D01*
X131944Y111730D01*
X131945D01*
X131946D01*
X131949D01*
X131953D01*
X131963Y111729D01*
D02*
G37*
G36*
X131334Y110558D02*
X131347Y110557D01*
X131364Y110555D01*
X131383Y110553D01*
X131405Y110549D01*
X131428Y110544D01*
X131453Y110537D01*
X131480Y110529D01*
X131507Y110519D01*
X131534Y110507D01*
X131562Y110493D01*
X131589Y110477D01*
X131616Y110458D01*
X131642Y110436D01*
X131643Y110435D01*
X131648Y110430D01*
X131654Y110423D01*
X131663Y110412D01*
X131673Y110398D01*
X131684Y110380D01*
X131696Y110359D01*
X131708Y110334D01*
X131721Y110306D01*
X131733Y110274D01*
X131739Y110256D01*
X131744Y110237D01*
X131749Y110218D01*
X131754Y110197D01*
X131759Y110175D01*
X131763Y110152D01*
X131766Y110128D01*
X131769Y110103D01*
X131772Y110077D01*
X131773Y110050D01*
X131775Y110022D01*
Y109604D01*
X132390D01*
Y109404D01*
X130877D01*
Y110011D01*
X130878Y110026D01*
Y110042D01*
X130879Y110060D01*
X130881Y110097D01*
X130883Y110135D01*
X130885Y110154D01*
X130887Y110172D01*
X130889Y110189D01*
X130892Y110205D01*
Y110206D01*
X130893Y110210D01*
X130894Y110216D01*
X130896Y110224D01*
X130898Y110233D01*
X130900Y110244D01*
X130904Y110256D01*
X130908Y110270D01*
X130917Y110299D01*
X130930Y110330D01*
X130945Y110362D01*
X130963Y110391D01*
X130964Y110392D01*
X130965Y110394D01*
X130968Y110398D01*
X130973Y110404D01*
X130978Y110410D01*
X130984Y110418D01*
X130992Y110426D01*
X131001Y110435D01*
X131011Y110444D01*
X131021Y110454D01*
X131033Y110464D01*
X131046Y110475D01*
X131061Y110485D01*
X131076Y110495D01*
X131092Y110504D01*
X131109Y110513D01*
X131110Y110514D01*
X131113Y110515D01*
X131118Y110517D01*
X131125Y110520D01*
X131134Y110524D01*
X131144Y110528D01*
X131156Y110532D01*
X131170Y110536D01*
X131184Y110540D01*
X131200Y110544D01*
X131217Y110548D01*
X131235Y110552D01*
X131274Y110557D01*
X131294Y110559D01*
X131315D01*
X131316D01*
X131317D01*
X131320D01*
X131324D01*
X131334Y110558D01*
D02*
G37*
G36*
X131056Y108698D02*
X132390D01*
Y108498D01*
X131056D01*
Y107999D01*
X130877D01*
Y109199D01*
X131056D01*
Y108698D01*
D02*
G37*
G36*
X195528Y96520D02*
X195890D01*
Y96334D01*
X195528D01*
Y95677D01*
X195358D01*
X194377Y96368D01*
Y96520D01*
X195358D01*
Y96724D01*
X195528D01*
Y96520D01*
D02*
G37*
G36*
X194834Y95558D02*
X194847Y95557D01*
X194864Y95555D01*
X194883Y95553D01*
X194905Y95549D01*
X194928Y95544D01*
X194953Y95537D01*
X194980Y95529D01*
X195007Y95519D01*
X195034Y95507D01*
X195062Y95493D01*
X195089Y95477D01*
X195116Y95458D01*
X195142Y95436D01*
X195143Y95435D01*
X195148Y95430D01*
X195154Y95423D01*
X195163Y95412D01*
X195173Y95398D01*
X195184Y95380D01*
X195196Y95359D01*
X195208Y95334D01*
X195221Y95306D01*
X195233Y95274D01*
X195239Y95256D01*
X195244Y95237D01*
X195249Y95218D01*
X195254Y95197D01*
X195259Y95175D01*
X195263Y95152D01*
X195266Y95128D01*
X195269Y95103D01*
X195272Y95077D01*
X195273Y95050D01*
X195275Y95022D01*
Y94604D01*
X195890D01*
Y94404D01*
X194377D01*
Y95011D01*
X194378Y95026D01*
Y95042D01*
X194379Y95060D01*
X194381Y95097D01*
X194383Y95135D01*
X194385Y95154D01*
X194387Y95172D01*
X194389Y95189D01*
X194392Y95205D01*
Y95206D01*
X194393Y95210D01*
X194394Y95216D01*
X194396Y95224D01*
X194398Y95233D01*
X194400Y95244D01*
X194404Y95256D01*
X194408Y95270D01*
X194417Y95299D01*
X194430Y95330D01*
X194445Y95362D01*
X194463Y95391D01*
X194464Y95392D01*
X194465Y95394D01*
X194468Y95398D01*
X194473Y95404D01*
X194478Y95410D01*
X194484Y95418D01*
X194492Y95426D01*
X194501Y95435D01*
X194511Y95444D01*
X194521Y95454D01*
X194533Y95464D01*
X194546Y95475D01*
X194561Y95485D01*
X194576Y95495D01*
X194592Y95504D01*
X194609Y95513D01*
X194610Y95514D01*
X194613Y95515D01*
X194618Y95517D01*
X194625Y95520D01*
X194634Y95524D01*
X194644Y95528D01*
X194656Y95532D01*
X194670Y95536D01*
X194684Y95540D01*
X194700Y95544D01*
X194717Y95548D01*
X194735Y95552D01*
X194774Y95557D01*
X194794Y95559D01*
X194815D01*
X194816D01*
X194817D01*
X194820D01*
X194824D01*
X194834Y95558D01*
D02*
G37*
G36*
X194556Y93698D02*
X195890D01*
Y93498D01*
X194556D01*
Y92999D01*
X194377D01*
Y94199D01*
X194556D01*
Y93698D01*
D02*
G37*
%LPC*%
G36*
X121211Y54352D02*
X121210D01*
X121206D01*
X121202D01*
X121195Y54351D01*
X121186D01*
X121177Y54350D01*
X121167Y54348D01*
X121154Y54346D01*
X121130Y54340D01*
X121102Y54332D01*
X121074Y54320D01*
X121062Y54312D01*
X121048Y54304D01*
X121047Y54303D01*
X121045Y54302D01*
X121043Y54299D01*
X121037Y54295D01*
X121033Y54291D01*
X121026Y54285D01*
X121011Y54270D01*
X120996Y54252D01*
X120982Y54231D01*
X120968Y54206D01*
X120964Y54192D01*
X120958Y54178D01*
Y54177D01*
X120958Y54176D01*
Y54172D01*
X120957Y54168D01*
X120956Y54162D01*
X120955Y54155D01*
X120954Y54146D01*
X120951Y54136D01*
X120950Y54124D01*
X120949Y54110D01*
X120949Y54095D01*
X120948Y54078D01*
X120947Y54059D01*
Y54038D01*
X120946Y54016D01*
Y53604D01*
X121486D01*
Y54004D01*
X121485Y54013D01*
Y54027D01*
X121484Y54042D01*
X121483Y54061D01*
X121481Y54081D01*
X121477Y54102D01*
X121474Y54125D01*
X121468Y54147D01*
X121464Y54170D01*
X121457Y54193D01*
X121448Y54215D01*
X121439Y54235D01*
X121428Y54254D01*
X121414Y54270D01*
X121414Y54271D01*
X121412Y54274D01*
X121406Y54278D01*
X121402Y54283D01*
X121394Y54289D01*
X121385Y54296D01*
X121373Y54303D01*
X121361Y54311D01*
X121347Y54319D01*
X121333Y54326D01*
X121316Y54333D01*
X121298Y54339D01*
X121277Y54344D01*
X121256Y54349D01*
X121235Y54351D01*
X121211Y54352D01*
D02*
G37*
G36*
X208221Y136834D02*
X207871D01*
Y135678D01*
X208219D01*
X208231Y135679D01*
X208246Y135680D01*
X208262D01*
X208280Y135682D01*
X208317Y135685D01*
X208356Y135690D01*
X208395Y135697D01*
X208412Y135701D01*
X208429Y135706D01*
X208430D01*
X208433Y135707D01*
X208437Y135709D01*
X208443Y135711D01*
X208450Y135714D01*
X208459Y135718D01*
X208478Y135726D01*
X208500Y135737D01*
X208522Y135751D01*
X208545Y135766D01*
X208565Y135784D01*
X208566Y135785D01*
X208568Y135787D01*
X208572Y135791D01*
X208577Y135797D01*
X208583Y135804D01*
X208590Y135813D01*
X208597Y135823D01*
X208605Y135835D01*
X208614Y135848D01*
X208623Y135863D01*
X208632Y135878D01*
X208641Y135895D01*
X208650Y135914D01*
X208659Y135933D01*
X208667Y135954D01*
X208675Y135976D01*
Y135977D01*
X208677Y135982D01*
X208679Y135988D01*
X208681Y135997D01*
X208684Y136009D01*
X208688Y136023D01*
X208691Y136039D01*
X208695Y136057D01*
X208699Y136078D01*
X208702Y136100D01*
X208706Y136124D01*
X208709Y136149D01*
X208711Y136177D01*
X208713Y136205D01*
X208715Y136236D01*
Y136267D01*
Y136268D01*
Y136270D01*
Y136273D01*
Y136278D01*
Y136283D01*
Y136290D01*
X208714Y136298D01*
Y136306D01*
X208713Y136326D01*
X208711Y136349D01*
X208708Y136374D01*
X208705Y136402D01*
X208701Y136431D01*
X208696Y136461D01*
X208690Y136491D01*
X208682Y136521D01*
X208673Y136551D01*
X208663Y136580D01*
X208651Y136607D01*
X208637Y136632D01*
X208636Y136633D01*
X208633Y136638D01*
X208629Y136644D01*
X208623Y136653D01*
X208616Y136663D01*
X208606Y136675D01*
X208596Y136688D01*
X208584Y136701D01*
X208571Y136716D01*
X208557Y136730D01*
X208541Y136744D01*
X208524Y136758D01*
X208507Y136771D01*
X208488Y136783D01*
X208468Y136794D01*
X208448Y136803D01*
X208447D01*
X208444Y136804D01*
X208439Y136806D01*
X208433Y136808D01*
X208424Y136810D01*
X208413Y136813D01*
X208400Y136816D01*
X208385Y136819D01*
X208368Y136821D01*
X208349Y136824D01*
X208328Y136827D01*
X208305Y136829D01*
X208279Y136831D01*
X208251Y136833D01*
X208221Y136834D01*
D02*
G37*
G36*
X239331Y31834D02*
X238981D01*
Y30678D01*
X239329D01*
X239341Y30679D01*
X239356Y30680D01*
X239372D01*
X239390Y30682D01*
X239427Y30685D01*
X239466Y30690D01*
X239505Y30697D01*
X239522Y30701D01*
X239539Y30706D01*
X239540D01*
X239543Y30707D01*
X239547Y30709D01*
X239553Y30711D01*
X239560Y30714D01*
X239569Y30718D01*
X239588Y30726D01*
X239610Y30737D01*
X239632Y30751D01*
X239655Y30766D01*
X239675Y30784D01*
X239676Y30785D01*
X239678Y30787D01*
X239682Y30791D01*
X239687Y30797D01*
X239693Y30804D01*
X239700Y30813D01*
X239707Y30823D01*
X239715Y30835D01*
X239724Y30848D01*
X239733Y30863D01*
X239742Y30878D01*
X239751Y30895D01*
X239760Y30914D01*
X239769Y30933D01*
X239777Y30954D01*
X239785Y30976D01*
Y30977D01*
X239787Y30982D01*
X239789Y30988D01*
X239791Y30997D01*
X239794Y31009D01*
X239798Y31023D01*
X239801Y31039D01*
X239805Y31057D01*
X239809Y31078D01*
X239812Y31100D01*
X239816Y31124D01*
X239819Y31149D01*
X239821Y31177D01*
X239823Y31205D01*
X239825Y31236D01*
Y31267D01*
Y31268D01*
Y31270D01*
Y31273D01*
Y31278D01*
Y31283D01*
Y31290D01*
X239824Y31298D01*
Y31306D01*
X239823Y31326D01*
X239821Y31349D01*
X239818Y31374D01*
X239815Y31402D01*
X239811Y31431D01*
X239806Y31461D01*
X239800Y31491D01*
X239792Y31521D01*
X239783Y31551D01*
X239773Y31580D01*
X239761Y31607D01*
X239747Y31632D01*
X239746Y31633D01*
X239743Y31638D01*
X239739Y31644D01*
X239733Y31653D01*
X239726Y31663D01*
X239716Y31675D01*
X239706Y31688D01*
X239694Y31701D01*
X239681Y31716D01*
X239667Y31730D01*
X239651Y31744D01*
X239634Y31758D01*
X239617Y31771D01*
X239598Y31783D01*
X239578Y31794D01*
X239558Y31803D01*
X239557D01*
X239554Y31804D01*
X239549Y31806D01*
X239543Y31808D01*
X239534Y31810D01*
X239523Y31813D01*
X239510Y31816D01*
X239495Y31819D01*
X239478Y31821D01*
X239459Y31824D01*
X239438Y31827D01*
X239415Y31829D01*
X239389Y31831D01*
X239361Y31833D01*
X239331Y31834D01*
D02*
G37*
G36*
X108721Y37834D02*
X108371D01*
Y36678D01*
X108719D01*
X108731Y36679D01*
X108746Y36680D01*
X108762D01*
X108780Y36682D01*
X108817Y36685D01*
X108856Y36690D01*
X108895Y36697D01*
X108912Y36701D01*
X108929Y36706D01*
X108930D01*
X108933Y36707D01*
X108937Y36709D01*
X108943Y36711D01*
X108950Y36714D01*
X108959Y36718D01*
X108978Y36726D01*
X109000Y36737D01*
X109022Y36751D01*
X109045Y36766D01*
X109065Y36784D01*
X109066Y36785D01*
X109068Y36787D01*
X109072Y36791D01*
X109077Y36797D01*
X109083Y36804D01*
X109090Y36813D01*
X109097Y36823D01*
X109105Y36835D01*
X109114Y36848D01*
X109123Y36863D01*
X109132Y36878D01*
X109141Y36895D01*
X109150Y36914D01*
X109159Y36933D01*
X109167Y36954D01*
X109175Y36976D01*
Y36977D01*
X109177Y36982D01*
X109179Y36988D01*
X109181Y36997D01*
X109184Y37009D01*
X109188Y37023D01*
X109191Y37039D01*
X109195Y37057D01*
X109199Y37078D01*
X109202Y37100D01*
X109206Y37124D01*
X109209Y37149D01*
X109211Y37177D01*
X109213Y37205D01*
X109215Y37236D01*
Y37267D01*
Y37268D01*
Y37270D01*
Y37273D01*
Y37278D01*
Y37283D01*
Y37290D01*
X109214Y37298D01*
Y37306D01*
X109213Y37326D01*
X109211Y37349D01*
X109208Y37374D01*
X109205Y37402D01*
X109201Y37431D01*
X109196Y37461D01*
X109190Y37491D01*
X109182Y37521D01*
X109173Y37551D01*
X109163Y37580D01*
X109151Y37607D01*
X109137Y37632D01*
X109136Y37633D01*
X109133Y37638D01*
X109129Y37644D01*
X109123Y37653D01*
X109116Y37663D01*
X109106Y37675D01*
X109096Y37688D01*
X109084Y37701D01*
X109071Y37716D01*
X109057Y37730D01*
X109041Y37744D01*
X109024Y37758D01*
X109007Y37771D01*
X108988Y37783D01*
X108968Y37794D01*
X108948Y37803D01*
X108947D01*
X108944Y37804D01*
X108939Y37806D01*
X108933Y37808D01*
X108924Y37810D01*
X108913Y37813D01*
X108900Y37816D01*
X108885Y37819D01*
X108868Y37821D01*
X108849Y37824D01*
X108828Y37827D01*
X108805Y37829D01*
X108779Y37831D01*
X108751Y37833D01*
X108721Y37834D01*
D02*
G37*
G36*
X195821Y71352D02*
X195820D01*
X195817D01*
X195812D01*
X195805Y71351D01*
X195797D01*
X195787Y71350D01*
X195777Y71348D01*
X195765Y71346D01*
X195740Y71340D01*
X195713Y71332D01*
X195685Y71320D01*
X195672Y71312D01*
X195659Y71304D01*
X195658Y71303D01*
X195656Y71302D01*
X195653Y71299D01*
X195648Y71295D01*
X195643Y71291D01*
X195636Y71285D01*
X195622Y71270D01*
X195607Y71252D01*
X195592Y71231D01*
X195579Y71206D01*
X195574Y71192D01*
X195569Y71178D01*
Y71177D01*
X195568Y71176D01*
Y71172D01*
X195567Y71168D01*
X195566Y71162D01*
X195565Y71155D01*
X195564Y71146D01*
X195562Y71136D01*
X195561Y71124D01*
X195560Y71110D01*
X195559Y71095D01*
X195558Y71078D01*
X195557Y71059D01*
Y71038D01*
X195556Y71016D01*
Y70604D01*
X196097D01*
Y71004D01*
X196096Y71013D01*
Y71027D01*
X196095Y71042D01*
X196093Y71061D01*
X196091Y71081D01*
X196088Y71102D01*
X196084Y71125D01*
X196079Y71147D01*
X196074Y71170D01*
X196067Y71193D01*
X196058Y71215D01*
X196049Y71235D01*
X196038Y71254D01*
X196025Y71270D01*
X196024Y71271D01*
X196022Y71274D01*
X196017Y71278D01*
X196012Y71283D01*
X196004Y71289D01*
X195995Y71296D01*
X195984Y71303D01*
X195972Y71311D01*
X195958Y71319D01*
X195943Y71326D01*
X195926Y71333D01*
X195908Y71339D01*
X195888Y71344D01*
X195867Y71349D01*
X195845Y71351D01*
X195821Y71352D01*
D02*
G37*
G36*
X140321Y124852D02*
X140320D01*
X140317D01*
X140312D01*
X140305Y124851D01*
X140297D01*
X140287Y124850D01*
X140277Y124848D01*
X140265Y124846D01*
X140240Y124840D01*
X140213Y124832D01*
X140185Y124820D01*
X140172Y124812D01*
X140159Y124804D01*
X140158Y124803D01*
X140156Y124802D01*
X140153Y124799D01*
X140148Y124795D01*
X140143Y124791D01*
X140136Y124785D01*
X140122Y124770D01*
X140107Y124752D01*
X140092Y124731D01*
X140079Y124706D01*
X140074Y124692D01*
X140069Y124678D01*
Y124677D01*
X140068Y124676D01*
Y124672D01*
X140067Y124668D01*
X140066Y124662D01*
X140065Y124655D01*
X140064Y124646D01*
X140062Y124636D01*
X140061Y124624D01*
X140060Y124610D01*
X140059Y124595D01*
X140058Y124578D01*
X140057Y124559D01*
Y124538D01*
X140056Y124516D01*
Y124104D01*
X140597D01*
Y124504D01*
X140596Y124513D01*
Y124527D01*
X140595Y124542D01*
X140593Y124561D01*
X140591Y124581D01*
X140588Y124602D01*
X140584Y124625D01*
X140579Y124647D01*
X140574Y124670D01*
X140567Y124693D01*
X140558Y124715D01*
X140549Y124735D01*
X140538Y124754D01*
X140525Y124770D01*
X140524Y124771D01*
X140522Y124774D01*
X140517Y124778D01*
X140512Y124783D01*
X140504Y124789D01*
X140495Y124796D01*
X140484Y124803D01*
X140472Y124811D01*
X140458Y124819D01*
X140443Y124826D01*
X140426Y124833D01*
X140408Y124839D01*
X140388Y124844D01*
X140367Y124849D01*
X140345Y124851D01*
X140321Y124852D01*
D02*
G37*
G36*
X131321Y110352D02*
X131320D01*
X131317D01*
X131312D01*
X131305Y110351D01*
X131297D01*
X131287Y110350D01*
X131277Y110348D01*
X131265Y110346D01*
X131240Y110340D01*
X131213Y110332D01*
X131185Y110320D01*
X131172Y110312D01*
X131159Y110304D01*
X131158Y110303D01*
X131156Y110302D01*
X131153Y110299D01*
X131148Y110295D01*
X131143Y110291D01*
X131136Y110285D01*
X131122Y110270D01*
X131107Y110252D01*
X131092Y110231D01*
X131079Y110206D01*
X131074Y110192D01*
X131069Y110178D01*
Y110177D01*
X131068Y110176D01*
Y110172D01*
X131067Y110168D01*
X131066Y110162D01*
X131065Y110155D01*
X131064Y110146D01*
X131062Y110136D01*
X131061Y110124D01*
X131060Y110110D01*
X131059Y110095D01*
X131058Y110078D01*
X131057Y110059D01*
Y110038D01*
X131056Y110016D01*
Y109604D01*
X131597D01*
Y110004D01*
X131596Y110013D01*
Y110027D01*
X131595Y110042D01*
X131593Y110061D01*
X131591Y110081D01*
X131588Y110102D01*
X131584Y110125D01*
X131579Y110147D01*
X131574Y110170D01*
X131567Y110193D01*
X131558Y110215D01*
X131549Y110235D01*
X131538Y110254D01*
X131525Y110270D01*
X131524Y110271D01*
X131522Y110274D01*
X131517Y110278D01*
X131512Y110283D01*
X131504Y110289D01*
X131495Y110296D01*
X131484Y110303D01*
X131472Y110311D01*
X131458Y110319D01*
X131443Y110326D01*
X131426Y110333D01*
X131408Y110339D01*
X131388Y110344D01*
X131367Y110349D01*
X131345Y110351D01*
X131321Y110352D01*
D02*
G37*
G36*
X195358Y96334D02*
X194676D01*
X195358Y95860D01*
Y96334D01*
D02*
G37*
G36*
X194821Y95352D02*
X194820D01*
X194817D01*
X194812D01*
X194805Y95351D01*
X194797D01*
X194787Y95350D01*
X194777Y95348D01*
X194765Y95346D01*
X194740Y95340D01*
X194713Y95332D01*
X194685Y95320D01*
X194672Y95312D01*
X194659Y95304D01*
X194658Y95303D01*
X194656Y95302D01*
X194653Y95299D01*
X194648Y95295D01*
X194643Y95291D01*
X194636Y95285D01*
X194622Y95270D01*
X194607Y95252D01*
X194592Y95231D01*
X194579Y95206D01*
X194574Y95192D01*
X194569Y95178D01*
Y95177D01*
X194568Y95176D01*
Y95172D01*
X194567Y95168D01*
X194566Y95162D01*
X194565Y95155D01*
X194564Y95146D01*
X194562Y95136D01*
X194561Y95124D01*
X194560Y95110D01*
X194559Y95095D01*
X194558Y95078D01*
X194557Y95059D01*
Y95038D01*
X194556Y95016D01*
Y94604D01*
X195097D01*
Y95004D01*
X195096Y95013D01*
Y95027D01*
X195095Y95042D01*
X195093Y95061D01*
X195091Y95081D01*
X195088Y95102D01*
X195084Y95125D01*
X195079Y95147D01*
X195074Y95170D01*
X195067Y95193D01*
X195058Y95215D01*
X195049Y95235D01*
X195038Y95254D01*
X195025Y95270D01*
X195024Y95271D01*
X195022Y95274D01*
X195017Y95278D01*
X195012Y95283D01*
X195004Y95289D01*
X194995Y95296D01*
X194984Y95303D01*
X194972Y95311D01*
X194958Y95319D01*
X194943Y95326D01*
X194926Y95333D01*
X194908Y95339D01*
X194888Y95344D01*
X194867Y95349D01*
X194845Y95351D01*
X194821Y95352D01*
D02*
G37*
%LPD*%
M02*
