M48
;Layer_Color=9474304
;FILE_FORMAT=2:5
INCH,LZ
;TYPE=PLATED
T1F00S00C0.01400
%
T01
X0195519Y001195
Y0027678
X0197414Y0040276
X01957Y0046221
X02065Y0043
X0183039Y004322
X017975Y004042
X018606Y003758
X0187008Y0033977
X0187Y0024528
X0179Y0015
X0172
X0165
X0155Y0012
Y0007
Y0002
Y-0003
X0143Y0003
X0133
X0128
X0116
X0111Y000949
X0155Y0049725
X016399Y0043426
X0156Y0056
X0177862Y0052835
X0186Y0054
X019
X018141Y006134
X0182Y0072
X017494Y008391
X01935Y0098
X0164Y0109
X0125Y0112
X0132Y0127102
X0148Y0136
X0116Y0058
X011301
M30
