G04*
G04 #@! TF.GenerationSoftware,Altium Limited,Altium Designer,20.1.14 (287)*
G04*
G04 Layer_Physical_Order=1*
G04 Layer_Color=255*
%FSLAX25Y25*%
%MOIN*%
G70*
G04*
G04 #@! TF.SameCoordinates,90A7C2A2-6745-46E1-82FD-39DD7986B322*
G04*
G04*
G04 #@! TF.FilePolarity,Positive*
G04*
G01*
G75*
%ADD11C,0.01000*%
%ADD15C,0.07874*%
%ADD16C,0.03937*%
%ADD17R,0.08300X0.05500*%
%ADD18R,0.02201X0.02850*%
%ADD19R,0.03937X0.05315*%
%ADD20R,0.02756X0.03543*%
%ADD21R,0.01575X0.01890*%
%ADD22R,0.02362X0.03150*%
%ADD23R,0.05118X0.05709*%
%ADD24R,0.03937X0.03937*%
%ADD25R,0.20000X0.20000*%
%ADD26R,0.05900X0.03900*%
%ADD27R,0.01950X0.03100*%
G04:AMPARAMS|DCode=28|XSize=19.68mil|YSize=19.68mil|CornerRadius=0mil|HoleSize=0mil|Usage=FLASHONLY|Rotation=0.000|XOffset=0mil|YOffset=0mil|HoleType=Round|Shape=RoundedRectangle|*
%AMROUNDEDRECTD28*
21,1,0.01968,0.01968,0,0,0.0*
21,1,0.01968,0.01968,0,0,0.0*
1,1,0.00000,0.00984,-0.00984*
1,1,0.00000,-0.00984,-0.00984*
1,1,0.00000,-0.00984,0.00984*
1,1,0.00000,0.00984,0.00984*
%
%ADD28ROUNDEDRECTD28*%
G04:AMPARAMS|DCode=29|XSize=19.68mil|YSize=19.68mil|CornerRadius=0mil|HoleSize=0mil|Usage=FLASHONLY|Rotation=90.000|XOffset=0mil|YOffset=0mil|HoleType=Round|Shape=RoundedRectangle|*
%AMROUNDEDRECTD29*
21,1,0.01968,0.01968,0,0,90.0*
21,1,0.01968,0.01968,0,0,90.0*
1,1,0.00000,0.00984,0.00984*
1,1,0.00000,0.00984,-0.00984*
1,1,0.00000,-0.00984,-0.00984*
1,1,0.00000,-0.00984,0.00984*
%
%ADD29ROUNDEDRECTD29*%
%ADD30R,0.01968X0.01968*%
%ADD31R,0.03100X0.01950*%
%ADD32R,0.03900X0.05900*%
%ADD33R,0.01890X0.01575*%
%ADD34R,0.03937X0.03937*%
%ADD35R,0.05709X0.05118*%
%ADD36R,0.05315X0.03937*%
%ADD63C,0.04200*%
%ADD64R,0.04200X0.04200*%
%ADD65R,0.06693X0.06693*%
%ADD66C,0.06693*%
%ADD67R,0.06693X0.06693*%
%ADD68C,0.09252*%
%ADD69R,0.09252X0.09252*%
%ADD70R,0.05906X0.05906*%
%ADD71C,0.05906*%
%ADD72C,0.02000*%
G36*
X34890Y110000D02*
Y95000D01*
X33390Y93500D01*
X24390Y93500D01*
X22890Y95000D01*
Y110000D01*
X24390Y111500D01*
X33390Y111500D01*
X34890Y110000D01*
D02*
G37*
G36*
X22313Y110577D02*
X22136Y110312D01*
X22074Y110000D01*
X22074Y110000D01*
Y95000D01*
X22074Y95000D01*
X22136Y94688D01*
X22313Y94423D01*
X21390Y93500D01*
X13890D01*
X10890Y96500D01*
X8568D01*
X8472Y96540D01*
X7390Y96682D01*
X6307Y96540D01*
X6211Y96500D01*
X4890D01*
X3390Y98000D01*
Y110000D01*
X4890Y111500D01*
X21390D01*
X22313Y110577D01*
D02*
G37*
G36*
X211890Y95000D02*
Y89000D01*
X190890D01*
Y95000D01*
X192390Y96500D01*
X210390D01*
X211890Y95000D01*
D02*
G37*
G36*
X4578Y95746D02*
X4890Y95684D01*
X4890Y95684D01*
X6211D01*
X6510Y95744D01*
X7390Y95859D01*
X8270Y95744D01*
X8568Y95684D01*
X10552D01*
X13313Y92923D01*
X13578Y92746D01*
X13890Y92684D01*
X13890Y92684D01*
X21390D01*
X21702Y92746D01*
X21967Y92923D01*
X21967Y92923D01*
X22543Y93500D01*
X23236D01*
X23813Y92923D01*
X24078Y92746D01*
X24390Y92684D01*
X24390Y92684D01*
X33390Y92684D01*
X33702Y92746D01*
X33966Y92923D01*
X34890Y92000D01*
Y71000D01*
X31890Y68000D01*
X4890D01*
X3390Y69500D01*
Y95000D01*
X4313Y95923D01*
X4578Y95746D01*
D02*
G37*
G36*
X33390Y66500D02*
Y59000D01*
X31890Y57500D01*
X19890D01*
X18390Y59000D01*
Y66500D01*
X19074Y67184D01*
X31890D01*
X31890Y67184D01*
X32202Y67246D01*
X32467Y67423D01*
X33390Y66500D01*
D02*
G37*
D11*
X151434Y163087D02*
X153890Y165543D01*
X151383Y163087D02*
X151434D01*
X149350Y161055D02*
X151383Y163087D01*
X149350Y154000D02*
Y161055D01*
X143390Y140900D02*
X172467Y111823D01*
X232444D01*
X143390Y140900D02*
Y155857D01*
X211990Y156749D02*
X219607Y164366D01*
X221412D01*
X211990Y154000D02*
Y156749D01*
X221412Y164366D02*
X226046Y169000D01*
X88490Y162000D02*
X88690D01*
X73890D02*
X88490D01*
X88690D02*
Y162200D01*
X187390Y16938D02*
Y35600D01*
X213190Y61400D02*
X245090D01*
X187390Y35600D02*
X213190Y61400D01*
X16790Y7800D02*
X22990D01*
X23090Y7700D01*
X70390Y25662D02*
X74452D01*
X74490Y25700D01*
X68783Y21406D02*
X68921D01*
X65790Y24400D02*
Y37300D01*
Y24400D02*
X68783Y21406D01*
X68921D02*
X78761Y11567D01*
Y9029D02*
Y11567D01*
Y9029D02*
X80090Y7700D01*
X65790Y37300D02*
X70390Y41900D01*
X96790Y68300D01*
X235490Y76483D02*
X235594Y76587D01*
X235490Y69982D02*
Y76483D01*
X233808Y68300D02*
X235490Y69982D01*
X96790Y68300D02*
X233808D01*
X225990Y78150D02*
X226039Y78200D01*
X225990Y73500D02*
Y78150D01*
X225901Y92925D02*
X232444D01*
X225901Y92138D02*
Y92925D01*
X225752Y85800D02*
Y91989D01*
X225901Y92138D01*
X226039Y85513D02*
X227221Y84332D01*
X225752Y85800D02*
X226039Y85513D01*
X227221Y84332D02*
X229105D01*
X229960Y83476D01*
X232444D01*
X226039Y78200D02*
Y85513D01*
X215347Y36500D02*
X215390Y36543D01*
Y41500D01*
X199846Y36500D02*
X199890Y36543D01*
Y41500D01*
X232444Y83362D02*
Y83476D01*
X228791Y46102D02*
X231190D01*
X228690Y46000D02*
X228791Y46102D01*
X230890Y51200D02*
X245790D01*
X222452D02*
X230890D01*
X245790D02*
X245840Y51150D01*
X210390Y43800D02*
X219890D01*
X221126Y42564D02*
X241889D01*
X219890Y43800D02*
X221126Y42564D01*
X207933Y41343D02*
X210390Y43800D01*
X223433Y36500D02*
X236990D01*
X239681Y39191D01*
X245840Y51150D02*
X281740D01*
X231190Y46102D02*
X233588D01*
X233590Y46100D01*
X222846Y57700D02*
X222893Y57653D01*
X248237D01*
X248084Y57500D02*
X248237Y57653D01*
X221074Y52578D02*
X221165D01*
X220983Y52668D02*
X221074Y52578D01*
X220983Y52668D02*
Y52759D01*
X217314Y56428D02*
X220983Y52759D01*
X217212Y56428D02*
X217314D01*
X216334Y57306D02*
X217212Y56428D01*
X216334Y57306D02*
Y57700D01*
X190713Y118923D02*
Y122577D01*
X190690Y118900D02*
X190713Y118923D01*
Y122577D02*
X190735Y122600D01*
X257521Y130231D02*
X257890Y130600D01*
X257521Y112533D02*
Y130231D01*
Y112533D02*
X257641Y112413D01*
X267090D02*
Y130400D01*
X266890Y130600D02*
X267090Y130400D01*
X260790Y112413D02*
Y122799D01*
X260790Y122800D02*
X260790Y122799D01*
X251342Y112413D02*
Y122748D01*
X251290Y122800D02*
X251342Y122748D01*
X248192Y112413D02*
Y114579D01*
X212133Y122600D02*
X240171D01*
X248192Y114579D01*
X196444Y122600D02*
X204047D01*
X242127Y102437D02*
X242190Y102500D01*
X119890Y15600D02*
Y44900D01*
X251366Y79760D02*
Y82476D01*
X8840Y35075D02*
X9015Y34900D01*
X13623Y33633D02*
Y34609D01*
X9015Y34900D02*
X13332D01*
X13623Y34609D01*
X120756Y149434D02*
Y155400D01*
X88690Y162200D02*
X91336Y164847D01*
X91536D01*
X97390Y16234D02*
Y30200D01*
X133690Y66500D01*
X251090Y66500D01*
X119890Y44900D02*
X138990Y64000D01*
X187390Y11138D02*
X207628D01*
X208090Y11600D01*
X187390Y16938D02*
X187428Y16900D01*
X187390Y16862D02*
X207828D01*
X208090Y16600D01*
X223433Y21943D02*
Y36500D01*
X208090Y6600D02*
X223433Y21943D01*
X207933Y21757D02*
Y36500D01*
Y21757D02*
X208090Y21600D01*
X207933Y36500D02*
Y41343D01*
X235657Y102437D02*
X242127D01*
X245090Y79736D02*
Y82200D01*
X187390Y16862D02*
X187428Y16900D01*
X251090Y66500D02*
X251390Y66800D01*
X248192Y74000D02*
Y76587D01*
X270021Y114579D02*
Y114931D01*
X270209Y112444D02*
Y114800D01*
X244590Y33500D02*
X245190Y34100D01*
X235594Y83476D02*
X237790D01*
X232390Y77177D02*
X232490Y77077D01*
X230190Y96075D02*
X232444D01*
X220028Y92489D02*
X220390Y92851D01*
X219890Y93351D02*
X220390Y92851D01*
X216390Y85811D02*
X220028D01*
X269890Y114800D02*
X270021Y114931D01*
X120756Y149434D02*
X161516Y108673D01*
X128965Y155432D02*
Y162250D01*
X128933Y155400D02*
X128965Y155432D01*
X135846Y163943D02*
X143390D01*
X111846Y15600D02*
Y16264D01*
X97421Y8057D02*
X107022D01*
X15490Y25457D02*
X15533Y25500D01*
X40890D02*
X117890Y102500D01*
X15533Y25500D02*
X40890D01*
X6440Y40400D02*
X6547Y40507D01*
Y49100D01*
X18650Y95682D02*
Y102909D01*
X216290Y47000D02*
Y50862D01*
X120490Y163950D02*
X121540Y162900D01*
X125340D01*
X125815Y162425D01*
Y162250D02*
Y162425D01*
X115940Y163950D02*
X120490D01*
X7140Y26600D02*
X8190Y27650D01*
Y31450D01*
X8665Y31925D02*
X8840D01*
X8190Y31450D02*
X8665Y31925D01*
X119271Y8100D02*
X120321Y7050D01*
X115471Y8100D02*
X119271D01*
X114996Y8575D02*
X115471Y8100D01*
X114996Y8575D02*
Y8750D01*
X120321Y7050D02*
X124871D01*
X124921Y7100D01*
X115890Y163900D02*
X115940Y163950D01*
X7140Y22050D02*
Y26600D01*
Y22050D02*
X7190Y22000D01*
X117890Y102500D02*
X232318D01*
X232444Y102374D01*
X14724Y49100D02*
X58490D01*
X114913Y105524D02*
X232444D01*
X58490Y49100D02*
X114913Y105524D01*
X161516Y108673D02*
X232444D01*
X218790Y73500D02*
Y78150D01*
X218740Y78200D02*
X218790Y78150D01*
X119921Y15643D02*
X119965Y15600D01*
X254390Y64000D02*
X254490Y63900D01*
X138990Y64000D02*
X254390Y64000D01*
X172890Y157600D02*
Y164000D01*
X195839Y134650D02*
X261690D01*
X172890Y157600D02*
X195839Y134650D01*
X192890Y158100D02*
Y164000D01*
X213490Y137500D02*
X263890D01*
X192890Y158100D02*
X213490Y137500D01*
X270239Y76587D02*
X270315Y76511D01*
Y74075D02*
Y76511D01*
Y74075D02*
X270390Y74000D01*
X266990Y76487D02*
X267090Y76587D01*
X266990Y74100D02*
Y76487D01*
X266890Y74000D02*
X266990Y74100D01*
X263915Y76561D02*
X263940Y76587D01*
X263915Y74025D02*
Y76561D01*
X263890Y74000D02*
X263915Y74025D01*
X257515Y76461D02*
X257641Y76587D01*
X257515Y74126D02*
Y76461D01*
X257390Y74000D02*
X257515Y74126D01*
X266990Y79836D02*
X267090Y79736D01*
X263915Y79761D02*
X263940Y79736D01*
X257641Y79736D02*
X257765Y79861D01*
Y82076D01*
X257890Y82200D01*
X254440Y79787D02*
X254491Y79736D01*
X254440Y79787D02*
Y82149D01*
X254390Y82200D02*
X254440Y82149D01*
X238259Y74686D02*
Y76102D01*
X237790Y74217D02*
X238259Y74686D01*
Y76102D02*
X238743Y76587D01*
X237790Y74000D02*
Y74217D01*
X111846Y8750D02*
Y15100D01*
X251342Y79736D02*
X251366Y79760D01*
Y82476D02*
X251390Y82500D01*
X202890Y158500D02*
Y164000D01*
X220890Y140500D02*
X237890D01*
X202890Y158500D02*
X220890Y140500D01*
X230190Y89500D02*
X232169D01*
X230317Y99351D02*
X232317D01*
X230190Y99478D02*
X230317Y99351D01*
X232317D02*
X232444Y99224D01*
X232169Y89500D02*
X232444Y89776D01*
X219890Y93351D02*
Y96000D01*
X239390Y33500D02*
X244590D01*
X245190Y34100D02*
X245840Y33450D01*
X235594Y99224D02*
X235706Y99112D01*
X238778D01*
X238890Y99000D01*
X235594Y102374D02*
X235657Y102437D01*
X153890Y156300D02*
Y159819D01*
X222590D02*
X222690Y159719D01*
Y156000D02*
Y159719D01*
X187390Y11138D02*
X187652Y11400D01*
X246190Y33450D02*
X281740D01*
X220028Y92489D02*
Y92500D01*
X230190Y96000D02*
Y96075D01*
X267090Y99700D02*
Y101882D01*
Y87118D02*
Y89300D01*
X267090Y87118D02*
X267090Y87118D01*
Y92400D02*
Y94500D01*
X266790Y92100D02*
X267090Y92400D01*
X267090Y87118D02*
X267090Y87118D01*
X245042Y79736D02*
X245090D01*
X220028Y85800D02*
Y85811D01*
X275374Y74116D02*
X275390Y74100D01*
X275374Y74116D02*
Y76570D01*
X232490Y74000D02*
Y77077D01*
X232390Y77177D02*
X232444D01*
X237790Y83476D02*
Y83500D01*
X270209Y112444D02*
X270239Y112413D01*
X285592Y76585D02*
X285594Y76587D01*
X285592Y74102D02*
Y76585D01*
X285590Y74100D02*
X285592Y74102D01*
X280476Y76587D02*
X280483Y76579D01*
Y74107D02*
Y76579D01*
Y74107D02*
X280490Y74100D01*
X275358Y76587D02*
X275374Y76570D01*
X257641Y109264D02*
X257665Y109239D01*
Y107024D02*
Y109239D01*
Y107024D02*
X257690Y107000D01*
X248191Y109263D02*
X248192Y109264D01*
X248191Y106901D02*
Y109263D01*
X248190Y106900D02*
X248191Y106901D01*
X235594Y105524D02*
X235606Y105512D01*
X237978D01*
X237990Y105500D01*
X235592Y112415D02*
X235594Y112413D01*
X235592Y112415D02*
Y114798D01*
X235590Y114800D02*
X235592Y114798D01*
X241891Y112415D02*
X241893Y112413D01*
X241891Y112415D02*
Y114798D01*
X241890Y114800D02*
X241891Y114798D01*
X254490Y112414D02*
X254491Y112413D01*
X254490Y112414D02*
Y114799D01*
X254490Y114800D02*
X254490Y114799D01*
X21390Y61000D02*
Y65138D01*
X28890Y60000D02*
Y64350D01*
X21602Y72650D02*
X28890D01*
X21390Y72862D02*
X21602Y72650D01*
X22390Y87994D02*
Y88318D01*
Y87994D02*
X28890Y81494D01*
Y72650D02*
Y81494D01*
X7528Y72862D02*
X21390D01*
X7390Y73000D02*
X7528Y72862D01*
X7390Y92500D02*
X11571Y88318D01*
X22390D01*
X18650Y102909D02*
X19240Y103500D01*
X18240Y102500D02*
X18650Y102909D01*
X7390Y102500D02*
X18240D01*
X20291Y104551D02*
Y110000D01*
X19240Y103500D02*
X20291Y104551D01*
Y126512D02*
X36779Y143000D01*
X20291Y110000D02*
Y126512D01*
X18669Y143000D02*
X28169Y152500D01*
X42390D01*
X47490Y147400D01*
Y81500D02*
Y147400D01*
X226046Y169000D02*
X246890D01*
X251890Y164000D01*
X161346Y165543D02*
X162890Y164000D01*
X153890Y165543D02*
X161346D01*
X54890Y143000D02*
X73890Y162000D01*
D15*
X16790Y7800D02*
D03*
D16*
X266890Y130600D02*
D03*
X251290Y122800D02*
D03*
X257890Y130600D02*
D03*
X260790Y122800D02*
D03*
D17*
X245840Y33450D02*
D03*
X281740D02*
D03*
X245840Y51150D02*
D03*
X281740D02*
D03*
D18*
X26130Y95682D02*
D03*
X18650D02*
D03*
X22390Y88318D02*
D03*
D19*
X212133Y122600D02*
D03*
X204047D02*
D03*
X199846Y36500D02*
D03*
X207933D02*
D03*
X215347D02*
D03*
X223433D02*
D03*
X14633Y49100D02*
D03*
X6547D02*
D03*
X120846Y155400D02*
D03*
X128933D02*
D03*
X119965Y15600D02*
D03*
X111878D02*
D03*
D20*
X216334Y57700D02*
D03*
X222846D02*
D03*
D21*
X231190Y46102D02*
D03*
Y51298D02*
D03*
D22*
X196444Y122600D02*
D03*
X190735D02*
D03*
D23*
X226039Y78200D02*
D03*
X218740D02*
D03*
X26539Y103500D02*
D03*
X19240D02*
D03*
D24*
X70390Y19938D02*
D03*
Y25662D02*
D03*
X187390Y16862D02*
D03*
Y11138D02*
D03*
X222590Y159819D02*
D03*
Y165543D02*
D03*
X153890Y159819D02*
D03*
Y165543D02*
D03*
X21390Y70862D02*
D03*
Y65138D02*
D03*
D25*
X51390Y81500D02*
D03*
X201390D02*
D03*
D26*
X120321Y7050D02*
D03*
X106521D02*
D03*
X134290Y163950D02*
D03*
X120490D02*
D03*
D27*
X111846Y8750D02*
D03*
X114996D02*
D03*
X125815Y162250D02*
D03*
X128965D02*
D03*
D28*
X232444Y92925D02*
D03*
Y83476D02*
D03*
Y111823D02*
D03*
X232444Y108673D02*
D03*
X232444Y105524D02*
D03*
Y102374D02*
D03*
Y99224D02*
D03*
Y96075D02*
D03*
X232444Y89776D02*
D03*
Y86626D02*
D03*
X232444Y80327D02*
D03*
Y77177D02*
D03*
D29*
X272798Y79736D02*
D03*
X267090Y112413D02*
D03*
X235594Y76587D02*
D03*
X263940Y112413D02*
D03*
X260790D02*
D03*
X257641D02*
D03*
X254491D02*
D03*
X251342D02*
D03*
X248192D02*
D03*
X245042D02*
D03*
X241893D02*
D03*
X238743D02*
D03*
X235594D02*
D03*
X238743Y76587D02*
D03*
X241893D02*
D03*
X245042D02*
D03*
X248192D02*
D03*
X251342D02*
D03*
X254491D02*
D03*
X257641Y76587D02*
D03*
X260790Y76587D02*
D03*
X263940D02*
D03*
X267090D02*
D03*
X270239D02*
D03*
Y112413D02*
D03*
X275358Y76587D02*
D03*
X280476D02*
D03*
X285594D02*
D03*
D30*
X267090Y109264D02*
D03*
X235594Y105524D02*
D03*
X238743Y79736D02*
D03*
X263940Y109264D02*
D03*
X260790D02*
D03*
X257641D02*
D03*
X254491D02*
D03*
X251342D02*
D03*
X248192D02*
D03*
X245042D02*
D03*
X241893D02*
D03*
X238743D02*
D03*
X235594D02*
D03*
Y102374D02*
D03*
Y99224D02*
D03*
Y96075D02*
D03*
Y92925D02*
D03*
Y89776D02*
D03*
Y86626D02*
D03*
Y83476D02*
D03*
Y79736D02*
D03*
X241893Y79736D02*
D03*
X245042D02*
D03*
X248192D02*
D03*
X251342D02*
D03*
X254491Y79736D02*
D03*
X257641Y79736D02*
D03*
X260790D02*
D03*
X263940Y79736D02*
D03*
X267090D02*
D03*
Y94500D02*
D03*
Y101882D02*
D03*
Y87118D02*
D03*
D31*
X8840Y31925D02*
D03*
Y35075D02*
D03*
D32*
X7140Y40400D02*
D03*
Y26600D02*
D03*
D33*
X25488Y110000D02*
D03*
X20291D02*
D03*
D34*
X222452Y51200D02*
D03*
X216728D02*
D03*
X225752Y85800D02*
D03*
X220028D02*
D03*
Y92500D02*
D03*
X225752D02*
D03*
D35*
X28890Y64350D02*
D03*
Y71650D02*
D03*
D36*
X15490Y25457D02*
D03*
Y33543D02*
D03*
X143390Y155857D02*
D03*
Y163943D02*
D03*
X97421Y16143D02*
D03*
Y8057D02*
D03*
D63*
X208090Y11600D02*
D03*
Y6600D02*
D03*
Y16600D02*
D03*
D64*
Y21600D02*
D03*
D65*
X7390Y102500D02*
D03*
Y73000D02*
D03*
D66*
Y92500D02*
D03*
X172890Y164000D02*
D03*
X182890D02*
D03*
X192890D02*
D03*
X202890D02*
D03*
X241890D02*
D03*
X251890D02*
D03*
X261890D02*
D03*
X98490Y162000D02*
D03*
X7390Y63000D02*
D03*
D67*
X162890Y164000D02*
D03*
X231890D02*
D03*
X88490Y162000D02*
D03*
D68*
X54890Y143000D02*
D03*
X36779D02*
D03*
D69*
X18669D02*
D03*
D70*
X80090Y7700D02*
D03*
D71*
X70090Y7700D02*
D03*
X60090Y7700D02*
D03*
X50090D02*
D03*
X40090Y7700D02*
D03*
D72*
X149350Y154000D02*
D03*
X211990D02*
D03*
X23090Y7700D02*
D03*
X74490Y25700D02*
D03*
X225990Y73500D02*
D03*
X199890Y41500D02*
D03*
X215390D02*
D03*
X228690Y46000D02*
D03*
X241889Y42564D02*
D03*
X239681Y39191D02*
D03*
X233590Y46100D02*
D03*
X190690Y118900D02*
D03*
X242190Y102500D02*
D03*
X245090Y61400D02*
D03*
X248237Y57653D02*
D03*
X248192Y74000D02*
D03*
X269890Y114800D02*
D03*
X216290Y47000D02*
D03*
X124921Y7100D02*
D03*
X115890Y163900D02*
D03*
X218790Y73500D02*
D03*
X254490Y63900D02*
D03*
X251390Y66800D02*
D03*
X261690Y134650D02*
D03*
X263890Y137500D02*
D03*
X270390Y74000D02*
D03*
X266890D02*
D03*
X263890D02*
D03*
X254390Y82200D02*
D03*
X257890D02*
D03*
X257390Y74000D02*
D03*
X251390Y82200D02*
D03*
X237890Y140500D02*
D03*
X230190Y99478D02*
D03*
Y89500D02*
D03*
X219890Y96000D02*
D03*
X237790Y74000D02*
D03*
X239390Y33500D02*
D03*
X238890Y99000D02*
D03*
X209390Y94000D02*
D03*
X204390D02*
D03*
X198390D02*
D03*
X193390D02*
D03*
X153890Y156300D02*
D03*
X222690Y156000D02*
D03*
X267090Y99700D02*
D03*
Y89300D02*
D03*
Y92400D02*
D03*
X216390Y85811D02*
D03*
X275390Y74000D02*
D03*
X232490D02*
D03*
X237790Y83500D02*
D03*
X230190Y96000D02*
D03*
X237990Y105500D02*
D03*
X235590Y114800D02*
D03*
X241890D02*
D03*
X254490D02*
D03*
X257690Y106900D02*
D03*
X248190D02*
D03*
X245090Y82200D02*
D03*
X21390Y61000D02*
D03*
X28890Y60000D02*
D03*
X285590Y74000D02*
D03*
X280490D02*
D03*
X7190Y22000D02*
D03*
X30890Y103500D02*
D03*
X26390Y98500D02*
D03*
X28390Y110000D02*
D03*
M02*
