G04*
G04 #@! TF.GenerationSoftware,Altium Limited,Altium Designer,20.1.14 (287)*
G04*
G04 Layer_Color=8388736*
%FSLAX25Y25*%
%MOIN*%
G70*
G04*
G04 #@! TF.SameCoordinates,90A7C2A2-6745-46E1-82FD-39DD7986B322*
G04*
G04*
G04 #@! TF.FilePolarity,Negative*
G04*
G01*
G75*
%ADD18R,0.02201X0.02850*%
%ADD22R,0.02362X0.03150*%
%ADD26R,0.05900X0.03900*%
%ADD27R,0.01950X0.03100*%
%ADD31R,0.03100X0.01950*%
%ADD32R,0.03900X0.05900*%
%ADD37C,0.08674*%
%ADD38C,0.04737*%
%ADD39R,0.09100X0.06300*%
%ADD40R,0.04737X0.06115*%
%ADD41R,0.03556X0.04343*%
%ADD42R,0.02375X0.02690*%
%ADD43R,0.05918X0.06509*%
%ADD44R,0.04737X0.04737*%
%ADD45R,0.20800X0.20800*%
G04:AMPARAMS|DCode=46|XSize=23.68mil|YSize=23.68mil|CornerRadius=0mil|HoleSize=0mil|Usage=FLASHONLY|Rotation=0.000|XOffset=0mil|YOffset=0mil|HoleType=Round|Shape=RoundedRectangle|*
%AMROUNDEDRECTD46*
21,1,0.02368,0.02368,0,0,0.0*
21,1,0.02368,0.02368,0,0,0.0*
1,1,0.00000,0.01184,-0.01184*
1,1,0.00000,-0.01184,-0.01184*
1,1,0.00000,-0.01184,0.01184*
1,1,0.00000,0.01184,0.01184*
%
%ADD46ROUNDEDRECTD46*%
G04:AMPARAMS|DCode=47|XSize=23.68mil|YSize=23.68mil|CornerRadius=0mil|HoleSize=0mil|Usage=FLASHONLY|Rotation=90.000|XOffset=0mil|YOffset=0mil|HoleType=Round|Shape=RoundedRectangle|*
%AMROUNDEDRECTD47*
21,1,0.02368,0.02368,0,0,90.0*
21,1,0.02368,0.02368,0,0,90.0*
1,1,0.00000,0.01184,0.01184*
1,1,0.00000,0.01184,-0.01184*
1,1,0.00000,-0.01184,-0.01184*
1,1,0.00000,-0.01184,0.01184*
%
%ADD47ROUNDEDRECTD47*%
%ADD48R,0.02368X0.02368*%
%ADD49R,0.02690X0.02375*%
%ADD50R,0.04737X0.04737*%
%ADD51R,0.06509X0.05918*%
%ADD52R,0.06115X0.04737*%
%ADD53C,0.05000*%
%ADD54R,0.05000X0.05000*%
%ADD55R,0.07493X0.07493*%
%ADD56C,0.07493*%
%ADD57R,0.07493X0.07493*%
%ADD58C,0.10052*%
%ADD59R,0.10052X0.10052*%
%ADD60R,0.06706X0.06706*%
%ADD61C,0.06706*%
%ADD62C,0.02800*%
D18*
X26130Y95682D02*
D03*
X18650D02*
D03*
X22390Y88318D02*
D03*
D22*
X196444Y122600D02*
D03*
X190735D02*
D03*
D26*
X120321Y7050D02*
D03*
X106521D02*
D03*
X134290Y163950D02*
D03*
X120490D02*
D03*
D27*
X111846Y8750D02*
D03*
X114996D02*
D03*
X125815Y162250D02*
D03*
X128965D02*
D03*
D31*
X8840Y31925D02*
D03*
Y35075D02*
D03*
D32*
X7140Y40400D02*
D03*
Y26600D02*
D03*
D37*
X16790Y7800D02*
D03*
D38*
X266890Y130600D02*
D03*
X251290Y122800D02*
D03*
X257890Y130600D02*
D03*
X260790Y122800D02*
D03*
D39*
X245840Y33450D02*
D03*
X281740D02*
D03*
X245840Y51150D02*
D03*
X281740D02*
D03*
D40*
X212133Y122600D02*
D03*
X204047D02*
D03*
X199846Y36500D02*
D03*
X207933D02*
D03*
X215347D02*
D03*
X223433D02*
D03*
X14633Y49100D02*
D03*
X6547D02*
D03*
X120846Y155400D02*
D03*
X128933D02*
D03*
X119965Y15600D02*
D03*
X111878D02*
D03*
D41*
X216334Y57700D02*
D03*
X222846D02*
D03*
D42*
X231190Y46102D02*
D03*
Y51298D02*
D03*
D43*
X226039Y78200D02*
D03*
X218740D02*
D03*
X26539Y103500D02*
D03*
X19240D02*
D03*
D44*
X70390Y19938D02*
D03*
Y25662D02*
D03*
X187390Y16862D02*
D03*
Y11138D02*
D03*
X222590Y159819D02*
D03*
Y165543D02*
D03*
X153890Y159819D02*
D03*
Y165543D02*
D03*
X21390Y70862D02*
D03*
Y65138D02*
D03*
D45*
X51390Y81500D02*
D03*
X201390D02*
D03*
D46*
X232444Y92925D02*
D03*
Y83476D02*
D03*
Y111823D02*
D03*
X232444Y108673D02*
D03*
X232444Y105524D02*
D03*
Y102374D02*
D03*
Y99224D02*
D03*
Y96075D02*
D03*
X232444Y89776D02*
D03*
Y86626D02*
D03*
X232444Y80327D02*
D03*
Y77177D02*
D03*
D47*
X272798Y79736D02*
D03*
X267090Y112413D02*
D03*
X235594Y76587D02*
D03*
X263940Y112413D02*
D03*
X260790D02*
D03*
X257641D02*
D03*
X254491D02*
D03*
X251342D02*
D03*
X248192D02*
D03*
X245042D02*
D03*
X241893D02*
D03*
X238743D02*
D03*
X235594D02*
D03*
X238743Y76587D02*
D03*
X241893D02*
D03*
X245042D02*
D03*
X248192D02*
D03*
X251342D02*
D03*
X254491D02*
D03*
X257641Y76587D02*
D03*
X260790Y76587D02*
D03*
X263940D02*
D03*
X267090D02*
D03*
X270239D02*
D03*
Y112413D02*
D03*
X275358Y76587D02*
D03*
X280476D02*
D03*
X285594D02*
D03*
D48*
X267090Y109264D02*
D03*
X235594Y105524D02*
D03*
X238743Y79736D02*
D03*
X263940Y109264D02*
D03*
X260790D02*
D03*
X257641D02*
D03*
X254491D02*
D03*
X251342D02*
D03*
X248192D02*
D03*
X245042D02*
D03*
X241893D02*
D03*
X238743D02*
D03*
X235594D02*
D03*
Y102374D02*
D03*
Y99224D02*
D03*
Y96075D02*
D03*
Y92925D02*
D03*
Y89776D02*
D03*
Y86626D02*
D03*
Y83476D02*
D03*
Y79736D02*
D03*
X241893Y79736D02*
D03*
X245042D02*
D03*
X248192D02*
D03*
X251342D02*
D03*
X254491Y79736D02*
D03*
X257641Y79736D02*
D03*
X260790D02*
D03*
X263940Y79736D02*
D03*
X267090D02*
D03*
Y94500D02*
D03*
Y101882D02*
D03*
Y87118D02*
D03*
D49*
X25488Y110000D02*
D03*
X20291D02*
D03*
D50*
X222452Y51200D02*
D03*
X216728D02*
D03*
X225752Y85800D02*
D03*
X220028D02*
D03*
Y92500D02*
D03*
X225752D02*
D03*
D51*
X28890Y64350D02*
D03*
Y71650D02*
D03*
D52*
X15490Y25457D02*
D03*
Y33543D02*
D03*
X143390Y155857D02*
D03*
Y163943D02*
D03*
X97421Y16143D02*
D03*
Y8057D02*
D03*
D53*
X208090Y11600D02*
D03*
Y6600D02*
D03*
Y16600D02*
D03*
D54*
Y21600D02*
D03*
D55*
X7390Y102500D02*
D03*
Y73000D02*
D03*
D56*
Y92500D02*
D03*
X172890Y164000D02*
D03*
X182890D02*
D03*
X192890D02*
D03*
X202890D02*
D03*
X241890D02*
D03*
X251890D02*
D03*
X261890D02*
D03*
X98490Y162000D02*
D03*
X7390Y63000D02*
D03*
D57*
X162890Y164000D02*
D03*
X231890D02*
D03*
X88490Y162000D02*
D03*
D58*
X54890Y143000D02*
D03*
X36779D02*
D03*
D59*
X18669D02*
D03*
D60*
X80090Y7700D02*
D03*
D61*
X70090Y7700D02*
D03*
X60090Y7700D02*
D03*
X50090D02*
D03*
X40090Y7700D02*
D03*
D62*
X211990Y154000D02*
D03*
M02*
