G04*
G04 #@! TF.GenerationSoftware,Altium Limited,Altium Designer,20.1.14 (287)*
G04*
G04 Layer_Color=32896*
%FSLAX25Y25*%
%MOIN*%
G70*
G04*
G04 #@! TF.SameCoordinates,90A7C2A2-6745-46E1-82FD-39DD7986B322*
G04*
G04*
G04 #@! TF.FilePolarity,Positive*
G04*
G01*
G75*
%ADD11C,0.01000*%
G36*
X168117Y109690D02*
X168549D01*
Y109259D01*
X168980D01*
Y108828D01*
Y108397D01*
Y107966D01*
Y107535D01*
X168549D01*
Y107966D01*
Y108397D01*
Y108828D01*
Y109259D01*
X166393D01*
Y109690D01*
X167255D01*
Y110122D01*
X168117D01*
Y109690D01*
D02*
G37*
G36*
X168549Y107104D02*
X168117D01*
Y107535D01*
X168549D01*
Y107104D01*
D02*
G37*
G36*
X168117Y106673D02*
X166824D01*
Y107104D01*
X168117D01*
Y106673D01*
D02*
G37*
G36*
X166393Y108828D02*
Y108397D01*
Y107966D01*
Y107535D01*
X165962D01*
Y107966D01*
X147425D01*
Y107535D01*
Y107104D01*
Y106673D01*
Y106242D01*
Y105810D01*
Y105379D01*
Y104948D01*
Y104517D01*
Y104086D01*
Y103655D01*
Y103224D01*
Y102793D01*
Y102362D01*
Y101931D01*
Y101499D01*
Y101068D01*
Y100637D01*
Y100206D01*
Y99775D01*
Y99344D01*
Y98913D01*
Y98482D01*
Y98051D01*
Y97620D01*
Y97189D01*
Y96757D01*
Y96326D01*
Y95895D01*
Y95464D01*
Y95033D01*
Y94602D01*
Y94171D01*
Y93740D01*
Y93309D01*
Y92878D01*
Y92446D01*
Y92015D01*
Y91584D01*
X132767D01*
Y91153D01*
Y90722D01*
Y90291D01*
Y89860D01*
Y89429D01*
Y88998D01*
X150873D01*
Y89429D01*
Y89860D01*
Y90291D01*
Y90722D01*
Y91153D01*
Y91584D01*
Y92015D01*
Y92446D01*
Y92878D01*
Y93309D01*
Y93740D01*
Y94171D01*
Y94602D01*
Y95033D01*
Y95464D01*
Y95895D01*
Y96326D01*
Y96757D01*
Y97189D01*
Y97620D01*
Y98051D01*
Y98482D01*
Y98913D01*
Y99344D01*
Y99775D01*
Y100206D01*
Y100637D01*
Y101068D01*
Y101499D01*
Y101931D01*
Y102362D01*
Y102793D01*
Y103224D01*
Y103655D01*
Y104086D01*
X171566D01*
Y104517D01*
X171997D01*
Y104948D01*
X172428D01*
Y105379D01*
X174584D01*
Y104948D01*
X175015D01*
Y104517D01*
Y104086D01*
Y103655D01*
Y103224D01*
Y102793D01*
X174584D01*
Y102362D01*
X172860D01*
Y102793D01*
X174153D01*
Y103224D01*
X174584D01*
Y103655D01*
Y104086D01*
Y104517D01*
Y104948D01*
X172860D01*
Y104517D01*
X172428D01*
Y104086D01*
Y103655D01*
Y103224D01*
X171997D01*
Y103655D01*
X151304D01*
Y103224D01*
Y102793D01*
Y102362D01*
Y101931D01*
Y101499D01*
Y101068D01*
Y100637D01*
Y100206D01*
Y99775D01*
Y99344D01*
Y98913D01*
Y98482D01*
Y98051D01*
Y97620D01*
Y97189D01*
Y96757D01*
Y96326D01*
Y95895D01*
Y95464D01*
Y95033D01*
Y94602D01*
Y94171D01*
Y93740D01*
Y93309D01*
Y92878D01*
Y92446D01*
Y92015D01*
Y91584D01*
Y91153D01*
Y90722D01*
Y90291D01*
Y89860D01*
Y89429D01*
Y88998D01*
Y88566D01*
X132767D01*
Y88135D01*
Y87704D01*
Y87273D01*
Y86842D01*
Y86411D01*
Y85980D01*
X154322D01*
Y86411D01*
X154753D01*
Y85980D01*
Y85549D01*
Y85118D01*
X154322D01*
Y85549D01*
X132767D01*
Y85118D01*
Y84687D01*
Y84255D01*
Y83824D01*
Y83393D01*
X145269D01*
Y82962D01*
Y82531D01*
Y82100D01*
Y81669D01*
Y81238D01*
Y80807D01*
Y80376D01*
Y79944D01*
Y79513D01*
Y79082D01*
Y78651D01*
Y78220D01*
Y77789D01*
Y77358D01*
Y76927D01*
Y76496D01*
X145700D01*
Y76065D01*
X146131D01*
Y75634D01*
X146562D01*
Y75202D01*
Y74771D01*
X146131D01*
Y74340D01*
Y73909D01*
X145700D01*
Y73478D01*
X143976D01*
Y73909D01*
X145269D01*
Y74340D01*
X145700D01*
Y74771D01*
Y75202D01*
Y75634D01*
Y76065D01*
X143976D01*
Y76496D01*
X144407D01*
Y76927D01*
Y77358D01*
Y77789D01*
Y78220D01*
Y78651D01*
Y79082D01*
Y79513D01*
Y79944D01*
Y80376D01*
Y80807D01*
Y81238D01*
Y81669D01*
Y82100D01*
Y82531D01*
Y82962D01*
X132336D01*
Y82531D01*
X131474D01*
Y82100D01*
X130181D01*
Y81669D01*
Y81238D01*
Y80807D01*
Y80376D01*
Y79944D01*
Y79513D01*
Y79082D01*
Y78651D01*
Y78220D01*
Y77789D01*
Y77358D01*
Y76927D01*
Y76496D01*
Y76065D01*
Y75634D01*
Y75202D01*
Y74771D01*
Y74340D01*
Y73909D01*
Y73478D01*
Y73047D01*
Y72616D01*
Y72185D01*
Y71754D01*
Y71323D01*
Y70891D01*
Y70460D01*
Y70029D01*
Y69598D01*
Y69167D01*
Y68736D01*
X130612D01*
Y68305D01*
X131043D01*
Y67874D01*
X131474D01*
Y67443D01*
Y67011D01*
Y66580D01*
X131043D01*
Y67011D01*
Y67443D01*
X130612D01*
Y67874D01*
X130181D01*
Y68305D01*
X129318D01*
Y67874D01*
X128887D01*
Y67443D01*
X128456D01*
Y67874D01*
Y68305D01*
X128887D01*
Y68736D01*
X129318D01*
Y69167D01*
Y69598D01*
Y70029D01*
Y70460D01*
Y70891D01*
Y71323D01*
Y71754D01*
Y72185D01*
Y72616D01*
Y73047D01*
Y73478D01*
Y73909D01*
Y74340D01*
Y74771D01*
Y75202D01*
Y75634D01*
Y76065D01*
Y76496D01*
Y76927D01*
Y77358D01*
Y77789D01*
Y78220D01*
Y78651D01*
Y79082D01*
Y79513D01*
Y79944D01*
Y80376D01*
Y80807D01*
Y81238D01*
Y81669D01*
Y82100D01*
X126301D01*
Y81669D01*
Y81238D01*
Y80807D01*
Y80376D01*
Y79944D01*
Y79513D01*
Y79082D01*
Y78651D01*
Y78220D01*
Y77789D01*
Y77358D01*
Y76927D01*
Y76496D01*
Y76065D01*
Y75634D01*
Y75202D01*
Y74771D01*
Y74340D01*
Y73909D01*
Y73478D01*
Y73047D01*
Y72616D01*
Y72185D01*
Y71754D01*
Y71323D01*
Y70891D01*
Y70460D01*
Y70029D01*
Y69598D01*
Y69167D01*
Y68736D01*
Y68305D01*
Y67874D01*
Y67443D01*
Y67011D01*
Y66580D01*
Y66149D01*
Y65718D01*
Y65287D01*
Y64856D01*
Y64425D01*
Y63994D01*
Y63563D01*
Y63132D01*
X135354D01*
Y63563D01*
X135785D01*
Y63132D01*
Y62700D01*
Y62269D01*
X136216D01*
Y61838D01*
X137940D01*
Y61407D01*
X135785D01*
Y61838D01*
X135354D01*
Y62269D01*
X134923D01*
Y62700D01*
X125439D01*
Y63132D01*
Y63563D01*
Y63994D01*
Y64425D01*
Y64856D01*
Y65287D01*
Y65718D01*
Y66149D01*
Y66580D01*
Y67011D01*
Y67443D01*
Y67874D01*
Y68305D01*
Y68736D01*
Y69167D01*
Y69598D01*
Y70029D01*
Y70460D01*
Y70891D01*
Y71323D01*
Y71754D01*
Y72185D01*
Y72616D01*
Y73047D01*
Y73478D01*
Y73909D01*
Y74340D01*
Y74771D01*
Y75202D01*
Y75634D01*
Y76065D01*
Y76496D01*
Y76927D01*
Y77358D01*
Y77789D01*
Y78220D01*
Y78651D01*
Y79082D01*
Y79513D01*
Y79944D01*
Y80376D01*
Y80807D01*
Y81238D01*
Y81669D01*
Y82100D01*
X122421D01*
Y81669D01*
Y81238D01*
Y80807D01*
Y80376D01*
Y79944D01*
Y79513D01*
Y79082D01*
Y78651D01*
Y78220D01*
Y77789D01*
Y77358D01*
Y76927D01*
Y76496D01*
Y76065D01*
Y75634D01*
Y75202D01*
Y74771D01*
Y74340D01*
Y73909D01*
Y73478D01*
Y73047D01*
Y72616D01*
Y72185D01*
Y71754D01*
Y71323D01*
Y70891D01*
Y70460D01*
Y70029D01*
Y69598D01*
X116817D01*
Y70029D01*
X115092D01*
Y70460D01*
X116817D01*
Y70029D01*
X121990D01*
Y70460D01*
Y70891D01*
Y71323D01*
Y71754D01*
Y72185D01*
Y72616D01*
Y73047D01*
Y73478D01*
Y73909D01*
Y74340D01*
Y74771D01*
Y75202D01*
Y75634D01*
Y76065D01*
Y76496D01*
Y76927D01*
Y77358D01*
Y77789D01*
Y78220D01*
Y78651D01*
Y79082D01*
Y79513D01*
Y79944D01*
Y80376D01*
Y80807D01*
Y81238D01*
Y81669D01*
Y82100D01*
X114661D01*
Y82531D01*
X113799D01*
Y82962D01*
X113368D01*
Y83393D01*
Y83824D01*
Y84255D01*
Y84687D01*
Y85118D01*
Y85549D01*
Y85980D01*
Y86411D01*
Y86842D01*
Y87273D01*
Y87704D01*
Y88135D01*
Y88566D01*
Y88998D01*
Y89429D01*
Y89860D01*
Y90291D01*
Y90722D01*
Y91153D01*
Y91584D01*
Y92015D01*
Y92446D01*
Y92878D01*
Y93309D01*
Y93740D01*
Y94171D01*
Y94602D01*
Y95033D01*
Y95464D01*
Y95895D01*
Y96326D01*
Y96757D01*
Y97189D01*
Y97620D01*
Y98051D01*
Y98482D01*
Y98913D01*
X113799D01*
Y99344D01*
X114230D01*
Y99775D01*
X115523D01*
Y100206D01*
Y100637D01*
Y101068D01*
Y101499D01*
Y101931D01*
Y102362D01*
Y102793D01*
Y103224D01*
X115954D01*
Y103655D01*
Y104086D01*
Y104517D01*
Y104948D01*
X116385D01*
Y105379D01*
Y105810D01*
X116817D01*
Y106242D01*
X117248D01*
Y106673D01*
X117679D01*
Y107104D01*
Y107535D01*
X118541D01*
Y107966D01*
X118972D01*
Y108397D01*
X119834D01*
Y108828D01*
X120696D01*
Y109259D01*
X125007D01*
Y108828D01*
X126301D01*
Y108397D01*
X127163D01*
Y107966D01*
X127594D01*
Y107535D01*
X128025D01*
Y107104D01*
X128456D01*
Y106673D01*
X128887D01*
Y106242D01*
X129318D01*
Y105810D01*
Y105379D01*
X129750D01*
Y104948D01*
Y104517D01*
Y104086D01*
X130181D01*
Y103655D01*
Y103224D01*
Y102793D01*
Y102362D01*
Y101931D01*
Y101499D01*
Y101068D01*
Y100637D01*
Y100206D01*
Y99775D01*
X131474D01*
Y99344D01*
X132336D01*
Y98913D01*
Y98482D01*
X132767D01*
Y98051D01*
Y97620D01*
Y97189D01*
Y96757D01*
Y96326D01*
Y95895D01*
Y95464D01*
Y95033D01*
X142251D01*
Y95464D01*
Y95895D01*
Y96326D01*
Y96757D01*
Y97189D01*
Y97620D01*
Y98051D01*
Y98482D01*
Y98913D01*
Y99344D01*
Y99775D01*
Y100206D01*
Y100637D01*
Y101068D01*
Y101499D01*
X141389D01*
Y101931D01*
X140958D01*
Y102362D01*
Y102793D01*
Y103224D01*
Y103655D01*
Y104086D01*
X141389D01*
Y104517D01*
X143114D01*
Y104086D01*
X141820D01*
Y103655D01*
X141389D01*
Y103224D01*
Y102793D01*
Y102362D01*
X141820D01*
Y101931D01*
X143114D01*
Y102362D01*
X143545D01*
Y102793D01*
Y103224D01*
Y103655D01*
X143976D01*
Y103224D01*
Y102793D01*
Y102362D01*
Y101931D01*
X143545D01*
Y101499D01*
X142683D01*
Y101068D01*
Y100637D01*
Y100206D01*
Y99775D01*
Y99344D01*
Y98913D01*
Y98482D01*
Y98051D01*
Y97620D01*
Y97189D01*
Y96757D01*
Y96326D01*
Y95895D01*
Y95464D01*
Y95033D01*
Y94602D01*
X132767D01*
Y94171D01*
Y93740D01*
Y93309D01*
Y92878D01*
Y92446D01*
Y92015D01*
X146994D01*
Y92446D01*
Y92878D01*
Y93309D01*
Y93740D01*
Y94171D01*
Y94602D01*
Y95033D01*
Y95464D01*
Y95895D01*
Y96326D01*
Y96757D01*
Y97189D01*
Y97620D01*
Y98051D01*
Y98482D01*
Y98913D01*
Y99344D01*
Y99775D01*
Y100206D01*
Y100637D01*
Y101068D01*
Y101499D01*
Y101931D01*
Y102362D01*
Y102793D01*
Y103224D01*
Y103655D01*
Y104086D01*
Y104517D01*
Y104948D01*
Y105379D01*
Y105810D01*
Y106242D01*
Y106673D01*
Y107104D01*
Y107535D01*
Y107966D01*
Y108397D01*
X165962D01*
Y108828D01*
Y109259D01*
X166393D01*
Y108828D01*
D02*
G37*
G36*
X260701Y88250D02*
X261147D01*
Y88101D01*
X261594D01*
Y87953D01*
X261742D01*
Y87804D01*
X262040D01*
Y87655D01*
X262189D01*
Y87506D01*
X262337D01*
Y87358D01*
X262486D01*
Y87209D01*
X262635D01*
Y87060D01*
X262783D01*
Y86911D01*
X262932D01*
Y86763D01*
X263081D01*
Y86614D01*
X263230D01*
Y86465D01*
X263378D01*
Y86317D01*
X263527D01*
Y86168D01*
X263676D01*
Y86019D01*
X263825D01*
Y85870D01*
X263973D01*
Y85722D01*
X264122D01*
Y85573D01*
X264271D01*
Y85424D01*
X264420D01*
Y85276D01*
X264568D01*
Y85127D01*
X264717D01*
Y84978D01*
X264866D01*
Y84829D01*
X265014D01*
Y84681D01*
X265163D01*
Y84532D01*
X265312D01*
Y84383D01*
X265461D01*
Y84234D01*
X265609D01*
Y84086D01*
X265907D01*
Y83937D01*
X266055D01*
Y83788D01*
X266204D01*
Y83640D01*
X266353D01*
Y83491D01*
X266502D01*
Y83342D01*
X266650D01*
Y83193D01*
X266799D01*
Y83045D01*
X266948D01*
Y82896D01*
X267097D01*
Y82747D01*
X267245D01*
Y82598D01*
X267394D01*
Y82450D01*
X267543D01*
Y82301D01*
X267840D01*
Y82152D01*
X267989D01*
Y82003D01*
X268138D01*
Y81855D01*
X268584D01*
Y82003D01*
Y82152D01*
Y82301D01*
Y82450D01*
Y82598D01*
Y82747D01*
Y82896D01*
Y83045D01*
Y83193D01*
Y83342D01*
Y83491D01*
Y83640D01*
Y83788D01*
Y83937D01*
Y84086D01*
Y84234D01*
Y84383D01*
Y84532D01*
Y84681D01*
Y84829D01*
Y84978D01*
Y85127D01*
Y85276D01*
Y85424D01*
Y85573D01*
Y85722D01*
Y85870D01*
Y86019D01*
Y86168D01*
Y86317D01*
Y86465D01*
Y86614D01*
Y86763D01*
Y86911D01*
Y87060D01*
Y87209D01*
Y87358D01*
Y87506D01*
Y87655D01*
Y87804D01*
Y87953D01*
Y88101D01*
Y88250D01*
X269476D01*
Y88101D01*
X269922D01*
Y87953D01*
X270220D01*
Y87804D01*
X270369D01*
Y87655D01*
X270666D01*
Y87506D01*
X270815D01*
Y87358D01*
X270964D01*
Y87209D01*
X271112D01*
Y87060D01*
X271261D01*
Y86911D01*
X271410D01*
Y86763D01*
X271558D01*
Y86614D01*
X271707D01*
Y86465D01*
Y86317D01*
X271856D01*
Y86168D01*
X272005D01*
Y86019D01*
X272153D01*
Y85870D01*
Y85722D01*
X272302D01*
Y85573D01*
X272451D01*
Y85424D01*
Y85276D01*
X272600D01*
Y85127D01*
Y84978D01*
X272748D01*
Y84829D01*
Y84681D01*
X272451D01*
Y84829D01*
X272302D01*
Y84978D01*
X271707D01*
Y85127D01*
X271558D01*
Y84978D01*
X271410D01*
Y84829D01*
X271261D01*
Y84681D01*
Y84532D01*
X271112D01*
Y84383D01*
Y84234D01*
Y84086D01*
Y83937D01*
Y83788D01*
Y83640D01*
Y83491D01*
Y83342D01*
Y83193D01*
Y83045D01*
Y82896D01*
Y82747D01*
Y82598D01*
Y82450D01*
Y82301D01*
Y82152D01*
Y82003D01*
Y81855D01*
Y81706D01*
Y81557D01*
Y81409D01*
Y81260D01*
Y81111D01*
Y80962D01*
Y80814D01*
Y80665D01*
Y80516D01*
Y80367D01*
Y80219D01*
Y80070D01*
Y79921D01*
Y79773D01*
Y79624D01*
Y79475D01*
Y79326D01*
Y79178D01*
Y79029D01*
Y78880D01*
Y78731D01*
Y78583D01*
Y78434D01*
Y78285D01*
Y78136D01*
Y77988D01*
Y77839D01*
Y77690D01*
Y77542D01*
Y77393D01*
Y77244D01*
Y77095D01*
Y76947D01*
Y76798D01*
Y76649D01*
Y76500D01*
Y76352D01*
Y76203D01*
Y76054D01*
Y75906D01*
Y75757D01*
Y75608D01*
Y75459D01*
Y75311D01*
Y75162D01*
Y75013D01*
Y74865D01*
Y74716D01*
Y74567D01*
Y74418D01*
Y74270D01*
X268584D01*
Y74418D01*
Y74567D01*
Y74716D01*
Y74865D01*
Y75013D01*
Y75162D01*
Y75311D01*
Y75459D01*
Y75608D01*
Y75757D01*
Y75906D01*
Y76054D01*
Y76203D01*
Y76352D01*
Y76500D01*
Y76649D01*
Y76798D01*
Y76947D01*
Y77095D01*
Y77244D01*
Y77393D01*
Y77542D01*
Y77690D01*
Y77839D01*
Y77988D01*
Y78136D01*
Y78285D01*
Y78434D01*
Y78583D01*
Y78731D01*
Y78880D01*
X268435D01*
Y79029D01*
Y79178D01*
X268286D01*
Y79326D01*
X268138D01*
Y79475D01*
X267989D01*
Y79624D01*
X267840D01*
Y79773D01*
X267691D01*
Y79921D01*
X267543D01*
Y80070D01*
X267394D01*
Y80219D01*
X267245D01*
Y80367D01*
X267097D01*
Y80516D01*
X266948D01*
Y80665D01*
X266799D01*
Y80814D01*
Y80962D01*
X266650D01*
Y81111D01*
X266502D01*
Y81260D01*
X266353D01*
Y81409D01*
X266204D01*
Y81557D01*
X265758D01*
Y81409D01*
X265609D01*
Y81260D01*
X265461D01*
Y81111D01*
Y80962D01*
X265312D01*
Y80814D01*
Y80665D01*
X265163D01*
Y80516D01*
X265014D01*
Y80367D01*
Y80219D01*
X264866D01*
Y80070D01*
Y79921D01*
X264717D01*
Y79773D01*
Y79624D01*
X264568D01*
Y79475D01*
Y79326D01*
X264420D01*
Y79178D01*
X264271D01*
Y79029D01*
Y78880D01*
X264122D01*
Y78731D01*
Y78583D01*
X263973D01*
Y78434D01*
Y78285D01*
X263825D01*
Y78136D01*
X263676D01*
Y77988D01*
Y77839D01*
X263527D01*
Y77690D01*
Y77542D01*
X263378D01*
Y77393D01*
Y77244D01*
X263230D01*
Y77095D01*
X263081D01*
Y76947D01*
Y76798D01*
X262932D01*
Y76649D01*
Y76500D01*
X262783D01*
Y76352D01*
Y76203D01*
X262635D01*
Y76054D01*
X262486D01*
Y75906D01*
Y75757D01*
X262337D01*
Y75608D01*
Y75459D01*
X262189D01*
Y75311D01*
Y75162D01*
X262040D01*
Y75013D01*
X261891D01*
Y74865D01*
Y74716D01*
X261742D01*
Y74567D01*
X261594D01*
Y74418D01*
X261445D01*
Y74270D01*
X258619D01*
Y74418D01*
X258768D01*
Y74567D01*
X258916D01*
Y74716D01*
Y74865D01*
X259065D01*
Y75013D01*
Y75162D01*
X259214D01*
Y75311D01*
Y75459D01*
X259363D01*
Y75608D01*
X259511D01*
Y75757D01*
Y75906D01*
X259660D01*
Y76054D01*
Y76203D01*
X259809D01*
Y76352D01*
X259958D01*
Y76500D01*
Y76649D01*
X260106D01*
Y76798D01*
Y76947D01*
X260255D01*
Y77095D01*
X260404D01*
Y77244D01*
Y77393D01*
X260553D01*
Y77542D01*
Y77690D01*
X260701D01*
Y77839D01*
X260850D01*
Y77988D01*
Y78136D01*
X260999D01*
Y78285D01*
Y78434D01*
X261147D01*
Y78583D01*
X261296D01*
Y78731D01*
Y78880D01*
X261445D01*
Y79029D01*
Y79178D01*
X261594D01*
Y79326D01*
X261742D01*
Y79475D01*
Y79624D01*
X261891D01*
Y79773D01*
Y79921D01*
X262040D01*
Y80070D01*
Y80219D01*
X262189D01*
Y80367D01*
X262337D01*
Y80516D01*
Y80665D01*
X262486D01*
Y80814D01*
Y80962D01*
X262635D01*
Y81111D01*
Y81260D01*
X262783D01*
Y81409D01*
X262932D01*
Y81557D01*
Y81706D01*
X263081D01*
Y81855D01*
Y82003D01*
X263230D01*
Y82152D01*
Y82301D01*
X263378D01*
Y82450D01*
Y82598D01*
X263527D01*
Y82747D01*
Y82896D01*
X263676D01*
Y83045D01*
Y83193D01*
Y83342D01*
X263527D01*
Y83491D01*
Y83640D01*
X263378D01*
Y83788D01*
Y83937D01*
X263230D01*
Y84086D01*
X263081D01*
Y84234D01*
X262932D01*
Y84383D01*
X262783D01*
Y84532D01*
X262635D01*
Y84681D01*
X262486D01*
Y84829D01*
X262337D01*
Y84978D01*
X262189D01*
Y85127D01*
X262040D01*
Y85276D01*
X261891D01*
Y85424D01*
X261742D01*
Y85573D01*
X261594D01*
Y85722D01*
X261445D01*
Y85870D01*
X261296D01*
Y86019D01*
X261147D01*
Y86168D01*
X260999D01*
Y86317D01*
Y86465D01*
X260850D01*
Y86614D01*
X260701D01*
Y86763D01*
X260553D01*
Y86911D01*
X260404D01*
Y87060D01*
X260255D01*
Y87209D01*
X260106D01*
Y87358D01*
X259958D01*
Y87506D01*
X259809D01*
Y87655D01*
X259660D01*
Y87804D01*
X259511D01*
Y87953D01*
X259363D01*
Y88101D01*
X259214D01*
Y88250D01*
Y88399D01*
X260701D01*
Y88250D01*
D02*
G37*
G36*
X156909Y86842D02*
X157340D01*
Y86411D01*
Y85980D01*
X157771D01*
Y85549D01*
X157340D01*
Y85118D01*
Y84687D01*
X156909D01*
Y84255D01*
X155184D01*
Y84687D01*
X156478D01*
Y85118D01*
X156909D01*
Y85549D01*
Y85980D01*
Y86411D01*
Y86842D01*
X155184D01*
Y86411D01*
X154753D01*
Y86842D01*
Y87273D01*
X156909D01*
Y86842D01*
D02*
G37*
G36*
X91813Y102362D02*
X91382D01*
Y101931D01*
Y101499D01*
X90951D01*
Y101068D01*
Y100637D01*
Y100206D01*
Y99775D01*
Y99344D01*
Y98913D01*
Y98482D01*
Y98051D01*
Y97620D01*
Y97189D01*
Y96757D01*
Y96326D01*
Y95895D01*
Y95464D01*
Y95033D01*
Y94602D01*
Y94171D01*
Y93740D01*
Y93309D01*
Y92878D01*
Y92446D01*
Y92015D01*
Y91584D01*
Y91153D01*
Y90722D01*
Y90291D01*
Y89860D01*
Y89429D01*
Y88998D01*
Y88566D01*
Y88135D01*
Y87704D01*
Y87273D01*
Y86842D01*
Y86411D01*
Y85980D01*
Y85549D01*
Y85118D01*
Y84687D01*
X91382D01*
Y84255D01*
Y83824D01*
Y83393D01*
X91813D01*
Y82962D01*
X87933D01*
Y83393D01*
X88364D01*
Y83824D01*
X88795D01*
Y84255D01*
Y84687D01*
Y85118D01*
Y85549D01*
Y85980D01*
Y86411D01*
Y86842D01*
Y87273D01*
Y87704D01*
Y88135D01*
Y88566D01*
Y88998D01*
Y89429D01*
Y89860D01*
Y90291D01*
Y90722D01*
Y91153D01*
Y91584D01*
Y92015D01*
Y92446D01*
Y92878D01*
Y93309D01*
Y93740D01*
Y94171D01*
Y94602D01*
Y95033D01*
Y95464D01*
Y95895D01*
Y96326D01*
Y96757D01*
Y97189D01*
Y97620D01*
Y98051D01*
Y98482D01*
Y98913D01*
Y99344D01*
Y99775D01*
Y100206D01*
Y100637D01*
Y101068D01*
Y101499D01*
Y101931D01*
X88364D01*
Y102362D01*
X84915D01*
Y101931D01*
X84053D01*
Y101499D01*
X83622D01*
Y101068D01*
X82760D01*
Y100637D01*
Y100206D01*
X82329D01*
Y99775D01*
X81897D01*
Y99344D01*
Y98913D01*
Y98482D01*
X81466D01*
Y98051D01*
Y97620D01*
Y97189D01*
Y96757D01*
Y96326D01*
Y95895D01*
Y95464D01*
X81897D01*
Y95033D01*
Y94602D01*
X82329D01*
Y94171D01*
Y93740D01*
X82760D01*
Y93309D01*
X83622D01*
Y92878D01*
X84484D01*
Y92446D01*
X83191D01*
Y92878D01*
X82329D01*
Y93309D01*
X81897D01*
Y93740D01*
X81035D01*
Y94171D01*
X80604D01*
Y94602D01*
Y95033D01*
X80173D01*
Y95464D01*
Y95895D01*
X79742D01*
Y96326D01*
Y96757D01*
Y97189D01*
X79311D01*
Y97620D01*
Y98051D01*
Y98482D01*
Y98913D01*
X79742D01*
Y99344D01*
Y99775D01*
Y100206D01*
X80173D01*
Y100637D01*
Y101068D01*
X80604D01*
Y101499D01*
X81466D01*
Y101931D01*
X81897D01*
Y102362D01*
X83622D01*
Y102793D01*
X91813D01*
Y102362D01*
D02*
G37*
G36*
X49565D02*
X49134D01*
Y101931D01*
Y101499D01*
Y101068D01*
Y100637D01*
X48703D01*
Y100206D01*
Y99775D01*
Y99344D01*
Y98913D01*
Y98482D01*
Y98051D01*
Y97620D01*
Y97189D01*
Y96757D01*
Y96326D01*
Y95895D01*
Y95464D01*
Y95033D01*
Y94602D01*
Y94171D01*
Y93740D01*
Y93309D01*
Y92878D01*
Y92446D01*
Y92015D01*
Y91584D01*
Y91153D01*
Y90722D01*
Y90291D01*
Y89860D01*
Y89429D01*
Y88998D01*
Y88566D01*
Y88135D01*
Y87704D01*
Y87273D01*
Y86842D01*
Y86411D01*
X49134D01*
Y85980D01*
Y85549D01*
Y85118D01*
Y84687D01*
Y84255D01*
Y83824D01*
Y83393D01*
X49565D01*
Y82962D01*
X45685D01*
Y83393D01*
X46547D01*
Y83824D01*
Y84255D01*
Y84687D01*
Y85118D01*
Y85549D01*
X46978D01*
Y85980D01*
Y86411D01*
Y86842D01*
Y87273D01*
Y87704D01*
Y88135D01*
Y88566D01*
Y88998D01*
Y89429D01*
Y89860D01*
Y90291D01*
Y90722D01*
Y91153D01*
Y91584D01*
X42667D01*
Y91153D01*
X42236D01*
Y90722D01*
X41805D01*
Y90291D01*
X41374D01*
Y89860D01*
Y89429D01*
X40943D01*
Y88998D01*
X40512D01*
Y88566D01*
X40081D01*
Y88135D01*
X39650D01*
Y87704D01*
Y87273D01*
X39219D01*
Y86842D01*
X38787D01*
Y86411D01*
X38356D01*
Y85980D01*
Y85549D01*
X37925D01*
Y85118D01*
X37494D01*
Y84687D01*
X37063D01*
Y84255D01*
X36632D01*
Y83824D01*
X35770D01*
Y83393D01*
X35339D01*
Y82962D01*
X32321D01*
Y83393D01*
X33183D01*
Y83824D01*
X34045D01*
Y84255D01*
X34477D01*
Y84687D01*
X34908D01*
Y85118D01*
X35339D01*
Y85549D01*
X35770D01*
Y85980D01*
X36201D01*
Y86411D01*
Y86842D01*
X36632D01*
Y87273D01*
X37063D01*
Y87704D01*
X37494D01*
Y88135D01*
X37925D01*
Y88566D01*
X38356D01*
Y88998D01*
Y89429D01*
X38787D01*
Y89860D01*
X39219D01*
Y90291D01*
X39650D01*
Y90722D01*
X40081D01*
Y91153D01*
Y91584D01*
X40512D01*
Y92015D01*
Y92446D01*
X40081D01*
Y92878D01*
X39650D01*
Y93309D01*
X39219D01*
Y93740D01*
X38787D01*
Y94171D01*
Y94602D01*
X38356D01*
Y95033D01*
X37925D01*
Y95464D01*
Y95895D01*
X37494D01*
Y96326D01*
Y96757D01*
Y97189D01*
Y97620D01*
Y98051D01*
Y98482D01*
Y98913D01*
Y99344D01*
Y99775D01*
X37925D01*
Y100206D01*
Y100637D01*
X38356D01*
Y101068D01*
X38787D01*
Y101499D01*
X39219D01*
Y101931D01*
X40081D01*
Y102362D01*
X41374D01*
Y102793D01*
X49565D01*
Y102362D01*
D02*
G37*
G36*
X104315Y102793D02*
X105608D01*
Y102362D01*
X106470D01*
Y101931D01*
X106901D01*
Y101499D01*
X107332D01*
Y101068D01*
X107764D01*
Y100637D01*
X108195D01*
Y100206D01*
Y99775D01*
Y99344D01*
X108626D01*
Y98913D01*
Y98482D01*
Y98051D01*
Y97620D01*
Y97189D01*
X108195D01*
Y96757D01*
Y96326D01*
X107764D01*
Y95895D01*
Y95464D01*
X107332D01*
Y95033D01*
X106901D01*
Y94602D01*
X106470D01*
Y94171D01*
X106039D01*
Y93740D01*
X105608D01*
Y93309D01*
X105177D01*
Y92878D01*
X104315D01*
Y92446D01*
X103884D01*
Y92015D01*
X103453D01*
Y91584D01*
X102590D01*
Y91153D01*
X102159D01*
Y90722D01*
X101728D01*
Y90291D01*
X101297D01*
Y89860D01*
X100866D01*
Y89429D01*
X100435D01*
Y88998D01*
X100004D01*
Y88566D01*
Y88135D01*
Y87704D01*
Y87273D01*
X99573D01*
Y86842D01*
X100004D01*
Y86411D01*
Y85980D01*
Y85549D01*
Y85118D01*
X100435D01*
Y84687D01*
X100866D01*
Y84255D01*
X101297D01*
Y83824D01*
X102159D01*
Y83393D01*
X106470D01*
Y83824D01*
X107332D01*
Y84255D01*
X107764D01*
Y84687D01*
X108195D01*
Y85118D01*
X108626D01*
Y85549D01*
Y85980D01*
Y86411D01*
Y86842D01*
X109057D01*
Y86411D01*
Y85980D01*
Y85549D01*
Y85118D01*
Y84687D01*
Y84255D01*
Y83824D01*
Y83393D01*
X108626D01*
Y82962D01*
X107332D01*
Y82531D01*
X102159D01*
Y82962D01*
X100866D01*
Y83393D01*
X100435D01*
Y83824D01*
X99573D01*
Y84255D01*
X99142D01*
Y84687D01*
Y85118D01*
X98710D01*
Y85549D01*
X98279D01*
Y85980D01*
Y86411D01*
Y86842D01*
X97848D01*
Y87273D01*
Y87704D01*
Y88135D01*
Y88566D01*
Y88998D01*
X98279D01*
Y89429D01*
Y89860D01*
Y90291D01*
X98710D01*
Y90722D01*
X99142D01*
Y91153D01*
Y91584D01*
X99573D01*
Y92015D01*
X100004D01*
Y92446D01*
X100435D01*
Y92878D01*
X100866D01*
Y93309D01*
X101728D01*
Y93740D01*
X102159D01*
Y94171D01*
X102590D01*
Y94602D01*
X103453D01*
Y95033D01*
X103884D01*
Y95464D01*
X104746D01*
Y95895D01*
X105177D01*
Y96326D01*
X105608D01*
Y96757D01*
X106039D01*
Y97189D01*
X106470D01*
Y97620D01*
Y98051D01*
X106901D01*
Y98482D01*
Y98913D01*
Y99344D01*
Y99775D01*
Y100206D01*
Y100637D01*
X106470D01*
Y101068D01*
Y101499D01*
X106039D01*
Y101931D01*
X105177D01*
Y102362D01*
X100435D01*
Y101931D01*
X100004D01*
Y101499D01*
X99573D01*
Y101068D01*
X99142D01*
Y100637D01*
Y100206D01*
X98710D01*
Y100637D01*
Y101068D01*
Y101499D01*
Y101931D01*
Y102362D01*
Y102793D01*
X100435D01*
Y103224D01*
X104315D01*
Y102793D01*
D02*
G37*
G36*
X67671D02*
X69396D01*
Y102362D01*
X70258D01*
Y101931D01*
X71120D01*
Y101499D01*
X71982D01*
Y101068D01*
X72413D01*
Y100637D01*
X72844D01*
Y100206D01*
X73276D01*
Y99775D01*
X73707D01*
Y99344D01*
X74138D01*
Y98913D01*
X74569D01*
Y98482D01*
Y98051D01*
X75000D01*
Y97620D01*
Y97189D01*
X75431D01*
Y96757D01*
Y96326D01*
X75862D01*
Y95895D01*
Y95464D01*
Y95033D01*
X76293D01*
Y94602D01*
Y94171D01*
Y93740D01*
Y93309D01*
Y92878D01*
Y92446D01*
Y92015D01*
Y91584D01*
Y91153D01*
Y90722D01*
X75862D01*
Y90291D01*
Y89860D01*
Y89429D01*
Y88998D01*
X75431D01*
Y88566D01*
Y88135D01*
X75000D01*
Y87704D01*
Y87273D01*
X74569D01*
Y86842D01*
X74138D01*
Y86411D01*
Y85980D01*
X73707D01*
Y85549D01*
X73276D01*
Y85118D01*
X72844D01*
Y84687D01*
X71982D01*
Y84255D01*
X71551D01*
Y83824D01*
X70689D01*
Y83393D01*
X69827D01*
Y82962D01*
X68102D01*
Y82531D01*
X63360D01*
Y82962D01*
X61636D01*
Y83393D01*
X60774D01*
Y82962D01*
X59911D01*
Y82531D01*
X59049D01*
Y82100D01*
X58618D01*
Y81669D01*
X57756D01*
Y81238D01*
X56894D01*
Y80807D01*
X56032D01*
Y80376D01*
X55169D01*
Y79944D01*
X54307D01*
Y79513D01*
X53445D01*
Y79082D01*
X52152D01*
Y78651D01*
X51289D01*
Y78220D01*
X49996D01*
Y77789D01*
X47841D01*
Y77358D01*
X41805D01*
Y77789D01*
X39650D01*
Y78220D01*
X45254D01*
Y78651D01*
X47409D01*
Y79082D01*
X48703D01*
Y79513D01*
X49996D01*
Y79944D01*
X51289D01*
Y80376D01*
X52152D01*
Y80807D01*
X53014D01*
Y81238D01*
X54307D01*
Y81669D01*
X55169D01*
Y82100D01*
X56032D01*
Y82531D01*
X56894D01*
Y82962D01*
X57756D01*
Y83393D01*
X58618D01*
Y83824D01*
X59480D01*
Y84255D01*
Y84687D01*
X59049D01*
Y85118D01*
X58187D01*
Y85549D01*
X57756D01*
Y85980D01*
X57325D01*
Y86411D01*
Y86842D01*
X56894D01*
Y87273D01*
X56463D01*
Y87704D01*
X56032D01*
Y88135D01*
Y88566D01*
X55600D01*
Y88998D01*
Y89429D01*
X55169D01*
Y89860D01*
Y90291D01*
Y90722D01*
Y91153D01*
X54738D01*
Y91584D01*
Y92015D01*
Y92446D01*
Y92878D01*
Y93309D01*
Y93740D01*
Y94171D01*
Y94602D01*
Y95033D01*
Y95464D01*
Y95895D01*
X55169D01*
Y96326D01*
Y96757D01*
Y97189D01*
X55600D01*
Y97620D01*
Y98051D01*
X56032D01*
Y98482D01*
Y98913D01*
X56463D01*
Y99344D01*
X56894D01*
Y99775D01*
X57325D01*
Y100206D01*
X57756D01*
Y100637D01*
X58187D01*
Y101068D01*
X58618D01*
Y101499D01*
X59480D01*
Y101931D01*
X60343D01*
Y102362D01*
X61636D01*
Y102793D01*
X63360D01*
Y103224D01*
X67671D01*
Y102793D01*
D02*
G37*
G36*
X256983Y85127D02*
X257280D01*
Y84978D01*
X257429D01*
Y84829D01*
Y84681D01*
Y84532D01*
Y84383D01*
Y84234D01*
X257280D01*
Y84086D01*
Y83937D01*
Y83788D01*
X257132D01*
Y83640D01*
Y83491D01*
X256983D01*
Y83342D01*
Y83193D01*
X256834D01*
Y83045D01*
X256686D01*
Y82896D01*
X256537D01*
Y82747D01*
X256388D01*
Y82598D01*
X256239D01*
Y82450D01*
X255793D01*
Y82598D01*
X255942D01*
Y82747D01*
Y82896D01*
Y83045D01*
Y83193D01*
Y83342D01*
Y83491D01*
Y83640D01*
X255793D01*
Y83788D01*
X255644D01*
Y83937D01*
X251331D01*
Y83788D01*
X251034D01*
Y83640D01*
X250885D01*
Y83491D01*
X250736D01*
Y83342D01*
X250588D01*
Y83193D01*
Y83045D01*
X250439D01*
Y82896D01*
Y82747D01*
Y82598D01*
X250290D01*
Y82450D01*
Y82301D01*
Y82152D01*
Y82003D01*
Y81855D01*
Y81706D01*
Y81557D01*
Y81409D01*
Y81260D01*
Y81111D01*
Y80962D01*
X250439D01*
Y80814D01*
X252670D01*
Y80665D01*
X255942D01*
Y80516D01*
X256686D01*
Y80367D01*
X256983D01*
Y80219D01*
X257132D01*
Y80070D01*
X257280D01*
Y79921D01*
X257429D01*
Y79773D01*
X257578D01*
Y79624D01*
Y79475D01*
Y79326D01*
X257727D01*
Y79178D01*
Y79029D01*
Y78880D01*
Y78731D01*
Y78583D01*
X257875D01*
Y78434D01*
Y78285D01*
Y78136D01*
Y77988D01*
Y77839D01*
Y77690D01*
Y77542D01*
Y77393D01*
Y77244D01*
Y77095D01*
Y76947D01*
Y76798D01*
Y76649D01*
Y76500D01*
Y76352D01*
Y76203D01*
Y76054D01*
Y75906D01*
Y75757D01*
X257727D01*
Y75608D01*
Y75459D01*
Y75311D01*
Y75162D01*
X257578D01*
Y75013D01*
Y74865D01*
X257429D01*
Y74716D01*
X257280D01*
Y74567D01*
X257132D01*
Y74418D01*
X256834D01*
Y74270D01*
X256537D01*
Y74121D01*
X247911D01*
Y74270D01*
Y74418D01*
Y74567D01*
Y74716D01*
Y74865D01*
Y75013D01*
Y75162D01*
Y75311D01*
Y75459D01*
Y75608D01*
Y75757D01*
Y75906D01*
Y76054D01*
Y76203D01*
Y76352D01*
Y76500D01*
Y76649D01*
Y76798D01*
Y76947D01*
Y77095D01*
Y77244D01*
Y77393D01*
Y77542D01*
Y77690D01*
Y77839D01*
Y77988D01*
Y78136D01*
Y78285D01*
Y78434D01*
Y78583D01*
Y78731D01*
Y78880D01*
Y79029D01*
Y79178D01*
Y79326D01*
Y79475D01*
Y79624D01*
Y79773D01*
Y79921D01*
Y80070D01*
Y80219D01*
Y80367D01*
Y80516D01*
Y80665D01*
Y80814D01*
Y80962D01*
Y81111D01*
Y81260D01*
Y81409D01*
Y81557D01*
Y81706D01*
Y81855D01*
Y82003D01*
Y82152D01*
Y82301D01*
Y82450D01*
Y82598D01*
Y82747D01*
Y82896D01*
Y83045D01*
Y83193D01*
X248059D01*
Y83342D01*
Y83491D01*
Y83640D01*
Y83788D01*
Y83937D01*
X248208D01*
Y84086D01*
Y84234D01*
X248357D01*
Y84383D01*
X248505D01*
Y84532D01*
X248654D01*
Y84681D01*
X248803D01*
Y84829D01*
X249100D01*
Y84978D01*
X249695D01*
Y85127D01*
X251629D01*
Y85276D01*
X256983D01*
Y85127D01*
D02*
G37*
G36*
X143976Y75634D02*
X143545D01*
Y76065D01*
X143976D01*
Y75634D01*
D02*
G37*
G36*
X107764Y80807D02*
Y80376D01*
Y79944D01*
Y79513D01*
Y79082D01*
Y78651D01*
Y78220D01*
X108195D01*
Y77789D01*
Y77358D01*
Y76927D01*
Y76496D01*
Y76065D01*
Y75634D01*
Y75202D01*
X107764D01*
Y75634D01*
Y76065D01*
Y76496D01*
X107332D01*
Y76065D01*
Y75634D01*
Y75202D01*
Y74771D01*
Y74340D01*
Y73909D01*
Y73478D01*
Y73047D01*
Y72616D01*
Y72185D01*
Y71754D01*
Y71323D01*
Y70891D01*
Y70460D01*
Y70029D01*
X106901D01*
Y70460D01*
Y70891D01*
Y71323D01*
Y71754D01*
Y72185D01*
Y72616D01*
Y73047D01*
Y73478D01*
Y73909D01*
Y74340D01*
Y74771D01*
Y75202D01*
Y75634D01*
Y76065D01*
Y76496D01*
Y76927D01*
Y77358D01*
Y77789D01*
Y78220D01*
X107332D01*
Y78651D01*
Y79082D01*
Y79513D01*
Y79944D01*
Y80376D01*
Y80807D01*
Y81238D01*
X107764D01*
Y80807D01*
D02*
G37*
G36*
X143545Y75202D02*
Y74771D01*
Y74340D01*
X143114D01*
Y74771D01*
Y75202D01*
Y75634D01*
X143545D01*
Y75202D01*
D02*
G37*
G36*
X34477Y80807D02*
Y80376D01*
Y79944D01*
Y79513D01*
Y79082D01*
Y78651D01*
Y78220D01*
Y77789D01*
Y77358D01*
X34908D01*
Y76927D01*
Y76496D01*
Y76065D01*
Y75634D01*
Y75202D01*
Y74771D01*
Y74340D01*
X34477D01*
Y74771D01*
Y75202D01*
Y75634D01*
Y76065D01*
Y76496D01*
X34045D01*
Y76065D01*
Y75634D01*
Y75202D01*
Y74771D01*
Y74340D01*
Y73909D01*
Y73478D01*
Y73047D01*
Y72616D01*
Y72185D01*
X33614D01*
Y72616D01*
Y73047D01*
Y73478D01*
Y73909D01*
Y74340D01*
Y74771D01*
Y75202D01*
Y75634D01*
Y76065D01*
Y76496D01*
Y76927D01*
Y77358D01*
Y77789D01*
Y78220D01*
Y78651D01*
Y79082D01*
Y79513D01*
Y79944D01*
Y80376D01*
X34045D01*
Y80807D01*
Y81238D01*
X34477D01*
Y80807D01*
D02*
G37*
G36*
X80173D02*
Y80376D01*
X80604D01*
Y79944D01*
Y79513D01*
Y79082D01*
Y78651D01*
Y78220D01*
Y77789D01*
Y77358D01*
Y76927D01*
X81035D01*
Y76496D01*
Y76065D01*
Y75634D01*
Y75202D01*
Y74771D01*
Y74340D01*
Y73909D01*
Y73478D01*
X80604D01*
Y73909D01*
Y74340D01*
Y74771D01*
Y75202D01*
Y75634D01*
Y76065D01*
Y76496D01*
X80173D01*
Y76065D01*
Y75634D01*
Y75202D01*
Y74771D01*
Y74340D01*
X79742D01*
Y74771D01*
Y75202D01*
Y75634D01*
Y76065D01*
Y76496D01*
Y76927D01*
Y77358D01*
Y77789D01*
Y78220D01*
Y78651D01*
Y79082D01*
Y79513D01*
Y79944D01*
Y80376D01*
Y80807D01*
Y81238D01*
X80173D01*
Y80807D01*
D02*
G37*
G36*
X237797Y118739D02*
Y118591D01*
Y118442D01*
Y118293D01*
Y118145D01*
Y117996D01*
Y117847D01*
Y117698D01*
Y117550D01*
Y117401D01*
Y117252D01*
Y117104D01*
Y116955D01*
Y116806D01*
Y116657D01*
Y116509D01*
Y116360D01*
Y116211D01*
Y116062D01*
Y115914D01*
Y115765D01*
Y115616D01*
Y115468D01*
Y115319D01*
Y115170D01*
Y115021D01*
Y114873D01*
Y114724D01*
Y114575D01*
Y114426D01*
Y114278D01*
Y114129D01*
Y113980D01*
Y113831D01*
Y113683D01*
Y113534D01*
Y113385D01*
Y113237D01*
Y113088D01*
Y112939D01*
Y112790D01*
Y112642D01*
Y112493D01*
Y112344D01*
Y112196D01*
Y112047D01*
Y111898D01*
Y111749D01*
Y111600D01*
Y111452D01*
Y111303D01*
Y111154D01*
Y111006D01*
Y110857D01*
Y110708D01*
Y110559D01*
Y110411D01*
Y110262D01*
Y110113D01*
Y109965D01*
Y109816D01*
Y109667D01*
Y109518D01*
Y109370D01*
Y109221D01*
Y109072D01*
Y108923D01*
Y108775D01*
Y108626D01*
Y108477D01*
Y108328D01*
Y108180D01*
Y108031D01*
Y107882D01*
Y107734D01*
Y107585D01*
Y107436D01*
Y107287D01*
Y107139D01*
Y106990D01*
Y106841D01*
Y106693D01*
Y106544D01*
Y106395D01*
Y106246D01*
Y106098D01*
Y105949D01*
Y105800D01*
Y105651D01*
Y105503D01*
Y105354D01*
Y105205D01*
Y105057D01*
Y104908D01*
Y104759D01*
Y104610D01*
Y104462D01*
Y104313D01*
Y104164D01*
Y104015D01*
Y103867D01*
Y103718D01*
Y103569D01*
Y103420D01*
Y103272D01*
Y103123D01*
Y102974D01*
Y102825D01*
Y102677D01*
Y102528D01*
Y102379D01*
Y102231D01*
Y102082D01*
Y101933D01*
Y101784D01*
Y101636D01*
Y101487D01*
Y101338D01*
Y101189D01*
Y101041D01*
Y100892D01*
Y100743D01*
Y100595D01*
Y100446D01*
Y100297D01*
Y100148D01*
Y100000D01*
Y99851D01*
Y99702D01*
Y99554D01*
Y99405D01*
Y99256D01*
Y99107D01*
Y98959D01*
Y98810D01*
Y98661D01*
Y98512D01*
Y98364D01*
Y98215D01*
Y98066D01*
Y97917D01*
Y97769D01*
Y97620D01*
Y97471D01*
Y97323D01*
Y97174D01*
Y97025D01*
Y96876D01*
Y96728D01*
Y96579D01*
Y96430D01*
Y96281D01*
Y96133D01*
Y95984D01*
Y95835D01*
Y95687D01*
Y95538D01*
Y95389D01*
Y95240D01*
Y95092D01*
Y94943D01*
Y94794D01*
Y94645D01*
Y94497D01*
Y94348D01*
Y94199D01*
Y94051D01*
Y93902D01*
Y93753D01*
Y93604D01*
Y93456D01*
Y93307D01*
Y93158D01*
Y93009D01*
Y92861D01*
Y92712D01*
Y92563D01*
Y92414D01*
Y92266D01*
Y92117D01*
Y91968D01*
Y91820D01*
Y91671D01*
Y91522D01*
Y91373D01*
Y91225D01*
Y91076D01*
Y90927D01*
Y90778D01*
Y90630D01*
Y90481D01*
Y90332D01*
Y90184D01*
Y90035D01*
Y89886D01*
Y89737D01*
Y89589D01*
Y89440D01*
Y89291D01*
Y89143D01*
Y88994D01*
Y88845D01*
Y88696D01*
Y88548D01*
Y88399D01*
Y88250D01*
Y88101D01*
Y87953D01*
Y87804D01*
Y87655D01*
Y87506D01*
Y87358D01*
Y87209D01*
Y87060D01*
Y86911D01*
Y86763D01*
Y86614D01*
Y86465D01*
Y86317D01*
Y86168D01*
Y86019D01*
Y85870D01*
Y85722D01*
Y85573D01*
Y85424D01*
Y85276D01*
Y85127D01*
Y84978D01*
Y84829D01*
Y84681D01*
Y84532D01*
Y84383D01*
Y84234D01*
Y84086D01*
Y83937D01*
Y83788D01*
Y83640D01*
Y83491D01*
Y83342D01*
Y83193D01*
Y83045D01*
Y82896D01*
Y82747D01*
Y82598D01*
Y82450D01*
Y82301D01*
Y82152D01*
Y82003D01*
Y81855D01*
Y81706D01*
Y81557D01*
Y81409D01*
Y81260D01*
Y81111D01*
Y80962D01*
Y80814D01*
Y80665D01*
Y80516D01*
Y80367D01*
Y80219D01*
Y80070D01*
Y79921D01*
Y79773D01*
Y79624D01*
Y79475D01*
Y79326D01*
Y79178D01*
Y79029D01*
Y78880D01*
Y78731D01*
Y78583D01*
Y78434D01*
Y78285D01*
Y78136D01*
Y77988D01*
Y77839D01*
Y77690D01*
Y77542D01*
Y77393D01*
Y77244D01*
Y77095D01*
Y76947D01*
Y76798D01*
Y76649D01*
Y76500D01*
Y76352D01*
Y76203D01*
Y76054D01*
Y75906D01*
Y75757D01*
Y75608D01*
Y75459D01*
Y75311D01*
Y75162D01*
Y75013D01*
Y74865D01*
Y74716D01*
Y74567D01*
Y74418D01*
Y74270D01*
Y74121D01*
Y73972D01*
Y73823D01*
Y73675D01*
Y73526D01*
Y73377D01*
X192286D01*
Y73526D01*
Y73675D01*
Y73823D01*
Y73972D01*
Y74121D01*
Y74270D01*
Y74418D01*
Y74567D01*
Y74716D01*
Y74865D01*
Y75013D01*
Y75162D01*
Y75311D01*
Y75459D01*
Y75608D01*
Y75757D01*
Y75906D01*
Y76054D01*
Y76203D01*
Y76352D01*
Y76500D01*
Y76649D01*
Y76798D01*
Y76947D01*
Y77095D01*
Y77244D01*
Y77393D01*
Y77542D01*
Y77690D01*
Y77839D01*
Y77988D01*
Y78136D01*
Y78285D01*
Y78434D01*
Y78583D01*
Y78731D01*
Y78880D01*
Y79029D01*
Y79178D01*
Y79326D01*
Y79475D01*
Y79624D01*
Y79773D01*
Y79921D01*
Y80070D01*
Y80219D01*
Y80367D01*
Y80516D01*
Y80665D01*
Y80814D01*
Y80962D01*
Y81111D01*
Y81260D01*
Y81409D01*
Y81557D01*
Y81706D01*
Y81855D01*
Y82003D01*
Y82152D01*
Y82301D01*
Y82450D01*
Y82598D01*
Y82747D01*
Y82896D01*
Y83045D01*
Y83193D01*
Y83342D01*
Y83491D01*
Y83640D01*
Y83788D01*
Y83937D01*
Y84086D01*
Y84234D01*
Y84383D01*
Y84532D01*
Y84681D01*
Y84829D01*
Y84978D01*
Y85127D01*
Y85276D01*
Y85424D01*
Y85573D01*
Y85722D01*
Y85870D01*
Y86019D01*
Y86168D01*
Y86317D01*
Y86465D01*
Y86614D01*
Y86763D01*
Y86911D01*
Y87060D01*
Y87209D01*
Y87358D01*
Y87506D01*
Y87655D01*
Y87804D01*
Y87953D01*
Y88101D01*
Y88250D01*
Y88399D01*
Y88548D01*
Y88696D01*
Y88845D01*
Y88994D01*
Y89143D01*
Y89291D01*
Y89440D01*
Y89589D01*
Y89737D01*
Y89886D01*
Y90035D01*
Y90184D01*
Y90332D01*
Y90481D01*
Y90630D01*
Y90778D01*
Y90927D01*
Y91076D01*
Y91225D01*
Y91373D01*
Y91522D01*
Y91671D01*
Y91820D01*
Y91968D01*
Y92117D01*
Y92266D01*
Y92414D01*
Y92563D01*
Y92712D01*
Y92861D01*
Y93009D01*
Y93158D01*
Y93307D01*
Y93456D01*
Y93604D01*
Y93753D01*
Y93902D01*
Y94051D01*
Y94199D01*
Y94348D01*
Y94497D01*
Y94645D01*
Y94794D01*
Y94943D01*
Y95092D01*
Y95240D01*
Y95389D01*
Y95538D01*
Y95687D01*
Y95835D01*
Y95984D01*
Y96133D01*
Y96281D01*
Y96430D01*
Y96579D01*
Y96728D01*
Y96876D01*
Y97025D01*
Y97174D01*
Y97323D01*
Y97471D01*
Y97620D01*
Y97769D01*
Y97917D01*
Y98066D01*
Y98215D01*
Y98364D01*
Y98512D01*
Y98661D01*
Y98810D01*
Y98959D01*
Y99107D01*
Y99256D01*
Y99405D01*
Y99554D01*
Y99702D01*
Y99851D01*
Y100000D01*
Y100148D01*
Y100297D01*
Y100446D01*
Y100595D01*
Y100743D01*
Y100892D01*
Y101041D01*
Y101189D01*
Y101338D01*
Y101487D01*
Y101636D01*
Y101784D01*
Y101933D01*
Y102082D01*
Y102231D01*
Y102379D01*
Y102528D01*
Y102677D01*
Y102825D01*
Y102974D01*
Y103123D01*
Y103272D01*
Y103420D01*
Y103569D01*
Y103718D01*
Y103867D01*
Y104015D01*
Y104164D01*
Y104313D01*
Y104462D01*
Y104610D01*
Y104759D01*
Y104908D01*
Y105057D01*
Y105205D01*
Y105354D01*
Y105503D01*
Y105651D01*
Y105800D01*
Y105949D01*
Y106098D01*
Y106246D01*
Y106395D01*
Y106544D01*
Y106693D01*
Y106841D01*
Y106990D01*
Y107139D01*
Y107287D01*
Y107436D01*
Y107585D01*
Y107734D01*
Y107882D01*
Y108031D01*
Y108180D01*
Y108328D01*
Y108477D01*
Y108626D01*
Y108775D01*
Y108923D01*
Y109072D01*
Y109221D01*
Y109370D01*
Y109518D01*
Y109667D01*
Y109816D01*
Y109965D01*
Y110113D01*
Y110262D01*
Y110411D01*
Y110559D01*
Y110708D01*
Y110857D01*
Y111006D01*
Y111154D01*
Y111303D01*
Y111452D01*
Y111600D01*
Y111749D01*
Y111898D01*
Y112047D01*
Y112196D01*
Y112344D01*
Y112493D01*
Y112642D01*
Y112790D01*
Y112939D01*
Y113088D01*
Y113237D01*
Y113385D01*
Y113534D01*
Y113683D01*
Y113831D01*
Y113980D01*
Y114129D01*
Y114278D01*
Y114426D01*
Y114575D01*
Y114724D01*
Y114873D01*
Y115021D01*
Y115170D01*
Y115319D01*
Y115468D01*
Y115616D01*
Y115765D01*
Y115914D01*
Y116062D01*
Y116211D01*
Y116360D01*
Y116509D01*
Y116657D01*
Y116806D01*
Y116955D01*
Y117104D01*
Y117252D01*
Y117401D01*
Y117550D01*
Y117698D01*
Y117847D01*
Y117996D01*
Y118145D01*
Y118293D01*
Y118442D01*
Y118591D01*
Y118739D01*
Y118888D01*
X237797D01*
Y118739D01*
D02*
G37*
G36*
X38787Y72185D02*
X38356D01*
Y72616D01*
X38787D01*
Y72185D01*
D02*
G37*
G36*
X38356Y71754D02*
X37925D01*
Y72185D01*
X38356D01*
Y71754D01*
D02*
G37*
G36*
X108626Y74340D02*
Y73909D01*
Y73478D01*
Y73047D01*
Y72616D01*
Y72185D01*
Y71754D01*
Y71323D01*
X108195D01*
Y71754D01*
Y72185D01*
Y72616D01*
Y73047D01*
Y73478D01*
Y73909D01*
Y74340D01*
Y74771D01*
X108626D01*
Y74340D01*
D02*
G37*
G36*
X32321D02*
Y73909D01*
Y73478D01*
Y73047D01*
Y72616D01*
Y72185D01*
Y71754D01*
Y71323D01*
X31890D01*
Y71754D01*
X31459D01*
Y72185D01*
Y72616D01*
Y73047D01*
Y73478D01*
Y73909D01*
X31890D01*
Y74340D01*
Y74771D01*
X32321D01*
Y74340D01*
D02*
G37*
G36*
X105608D02*
Y73909D01*
Y73478D01*
Y73047D01*
Y72616D01*
Y72185D01*
Y71754D01*
X105177D01*
Y71323D01*
Y70891D01*
X104746D01*
Y71323D01*
Y71754D01*
Y72185D01*
Y72616D01*
Y73047D01*
Y73478D01*
X105177D01*
Y73909D01*
Y74340D01*
Y74771D01*
X105608D01*
Y74340D01*
D02*
G37*
G36*
X84053Y71323D02*
Y70891D01*
X83622D01*
Y71323D01*
Y71754D01*
X84053D01*
Y71323D01*
D02*
G37*
G36*
X37925D02*
Y70891D01*
X37494D01*
Y71323D01*
Y71754D01*
X37925D01*
Y71323D01*
D02*
G37*
G36*
X35339Y73478D02*
Y73047D01*
Y72616D01*
Y72185D01*
Y71754D01*
Y71323D01*
Y70891D01*
X34908D01*
Y71323D01*
Y71754D01*
Y72185D01*
Y72616D01*
Y73047D01*
Y73478D01*
Y73909D01*
X35339D01*
Y73478D01*
D02*
G37*
G36*
X111212Y70891D02*
Y70460D01*
X110781D01*
Y70891D01*
Y71323D01*
X111212D01*
Y70891D01*
D02*
G37*
G36*
X78449Y73909D02*
Y73478D01*
Y73047D01*
Y72616D01*
Y72185D01*
Y71754D01*
Y71323D01*
Y70891D01*
Y70460D01*
X78018D01*
Y70891D01*
Y71323D01*
Y71754D01*
X77587D01*
Y72185D01*
Y72616D01*
Y73047D01*
Y73478D01*
Y73909D01*
Y74340D01*
X78449D01*
Y73909D01*
D02*
G37*
G36*
X109057Y70460D02*
X110781D01*
Y70029D01*
X108626D01*
Y70460D01*
Y70891D01*
X109057D01*
Y70460D01*
D02*
G37*
G36*
X89226Y70029D02*
X87933D01*
Y70460D01*
X89226D01*
Y70029D01*
D02*
G37*
G36*
X81466Y72616D02*
Y72185D01*
Y71754D01*
Y71323D01*
Y70891D01*
Y70460D01*
X83191D01*
Y70891D01*
X83622D01*
Y70460D01*
Y70029D01*
X81035D01*
Y70460D01*
Y70891D01*
Y71323D01*
Y71754D01*
Y72185D01*
Y72616D01*
Y73047D01*
X81466D01*
Y72616D01*
D02*
G37*
G36*
X77587Y71323D02*
Y70891D01*
Y70460D01*
Y70029D01*
X41805D01*
Y70460D01*
X77155D01*
Y70891D01*
Y71323D01*
Y71754D01*
X77587D01*
Y71323D01*
D02*
G37*
G36*
X37494Y70460D02*
Y70029D01*
X35339D01*
Y70460D01*
X37063D01*
Y70891D01*
X37494D01*
Y70460D01*
D02*
G37*
G36*
X115092Y69598D02*
X114661D01*
Y70029D01*
X115092D01*
Y69598D01*
D02*
G37*
G36*
X104746Y70029D02*
Y69598D01*
X89657D01*
Y70029D01*
X104315D01*
Y70460D01*
X104746D01*
Y70029D01*
D02*
G37*
G36*
X87933Y69598D02*
X87502D01*
Y70029D01*
X87933D01*
Y69598D01*
D02*
G37*
G36*
X84915Y72185D02*
X85346D01*
Y71754D01*
Y71323D01*
X85777D01*
Y70891D01*
Y70460D01*
X86208D01*
Y70029D01*
Y69598D01*
X85777D01*
Y70029D01*
Y70460D01*
X85346D01*
Y70891D01*
Y71323D01*
X84915D01*
Y71754D01*
X84053D01*
Y72185D01*
X84484D01*
Y72616D01*
X84915D01*
Y72185D01*
D02*
G37*
G36*
X41805Y69598D02*
X40943D01*
Y70029D01*
X41805D01*
Y69598D01*
D02*
G37*
G36*
X112074Y72185D02*
X112506D01*
Y71754D01*
X112937D01*
Y71323D01*
Y70891D01*
X113368D01*
Y70460D01*
Y70029D01*
X113799D01*
Y69598D01*
X114661D01*
Y69167D01*
X113368D01*
Y69598D01*
Y70029D01*
X112937D01*
Y70460D01*
Y70891D01*
X112506D01*
Y71323D01*
Y71754D01*
X111643D01*
Y71323D01*
X111212D01*
Y71754D01*
Y72185D01*
X111643D01*
Y72616D01*
X112074D01*
Y72185D01*
D02*
G37*
G36*
X39650Y71323D02*
Y70891D01*
X40081D01*
Y70460D01*
Y70029D01*
X40512D01*
Y69598D01*
X40943D01*
Y69167D01*
X40081D01*
Y69598D01*
Y70029D01*
X39650D01*
Y70460D01*
Y70891D01*
X39219D01*
Y71323D01*
Y71754D01*
X39650D01*
Y71323D01*
D02*
G37*
G36*
X22837D02*
X23268D01*
Y70891D01*
X23699D01*
Y70460D01*
Y70029D01*
X31028D01*
Y70460D01*
Y70891D01*
Y71323D01*
X31459D01*
Y70891D01*
Y70460D01*
Y70029D01*
Y69598D01*
X23699D01*
Y69167D01*
X23268D01*
Y68736D01*
X22406D01*
Y68305D01*
X21543D01*
Y68736D01*
X21113D01*
Y69167D01*
X20681D01*
Y69598D01*
Y70029D01*
Y70460D01*
Y70891D01*
Y71323D01*
X21543D01*
Y70891D01*
X21113D01*
Y70460D01*
Y70029D01*
Y69598D01*
Y69167D01*
X22837D01*
Y69598D01*
X23268D01*
Y70029D01*
Y70460D01*
Y70891D01*
X22406D01*
Y71323D01*
X21543D01*
Y71754D01*
X22837D01*
Y71323D01*
D02*
G37*
G36*
X106039Y70891D02*
Y70460D01*
Y70029D01*
Y69598D01*
Y69167D01*
Y68736D01*
Y68305D01*
Y67874D01*
X105608D01*
Y68305D01*
Y68736D01*
Y69167D01*
Y69598D01*
Y70029D01*
Y70460D01*
Y70891D01*
Y71323D01*
X106039D01*
Y70891D01*
D02*
G37*
G36*
X79742Y72185D02*
Y71754D01*
Y71323D01*
Y70891D01*
Y70460D01*
Y70029D01*
Y69598D01*
Y69167D01*
Y68736D01*
Y68305D01*
Y67874D01*
Y67443D01*
Y67011D01*
Y66580D01*
Y66149D01*
Y65718D01*
Y65287D01*
Y64856D01*
X79311D01*
Y64425D01*
Y63994D01*
Y63563D01*
Y63132D01*
Y62700D01*
Y62269D01*
Y61838D01*
X78880D01*
Y62269D01*
Y62700D01*
Y63132D01*
Y63563D01*
Y63994D01*
Y64425D01*
Y64856D01*
Y65287D01*
Y65718D01*
X78449D01*
Y66149D01*
Y66580D01*
Y67011D01*
Y67443D01*
Y67874D01*
Y68305D01*
Y68736D01*
Y69167D01*
Y69598D01*
X78880D01*
Y69167D01*
Y68736D01*
Y68305D01*
Y67874D01*
Y67443D01*
X79311D01*
Y67874D01*
Y68305D01*
Y68736D01*
Y69167D01*
Y69598D01*
Y70029D01*
Y70460D01*
Y70891D01*
Y71323D01*
Y71754D01*
Y72185D01*
Y72616D01*
X79742D01*
Y72185D01*
D02*
G37*
G36*
X33614Y70460D02*
Y70029D01*
Y69598D01*
Y69167D01*
Y68736D01*
Y68305D01*
Y67874D01*
Y67443D01*
Y67011D01*
Y66580D01*
Y66149D01*
Y65718D01*
Y65287D01*
Y64856D01*
Y64425D01*
Y63994D01*
Y63563D01*
Y63132D01*
X33183D01*
Y62700D01*
Y62269D01*
X32752D01*
Y62700D01*
Y63132D01*
Y63563D01*
Y63994D01*
Y64425D01*
Y64856D01*
Y65287D01*
Y65718D01*
Y66149D01*
Y66580D01*
Y67011D01*
X32321D01*
Y67443D01*
Y67874D01*
Y68305D01*
Y68736D01*
Y69167D01*
Y69598D01*
Y70029D01*
Y70460D01*
Y70891D01*
X32752D01*
Y70460D01*
Y70029D01*
Y69598D01*
Y69167D01*
Y68736D01*
Y68305D01*
Y67874D01*
Y67443D01*
X33183D01*
Y67874D01*
Y68305D01*
Y68736D01*
Y69167D01*
Y69598D01*
Y70029D01*
Y70460D01*
Y70891D01*
X33614D01*
Y70460D01*
D02*
G37*
G36*
X128456Y67011D02*
X128887D01*
Y66580D01*
Y66149D01*
X130612D01*
Y66580D01*
X131043D01*
Y66149D01*
Y65718D01*
X130181D01*
Y65287D01*
X129318D01*
Y65718D01*
X128456D01*
Y66149D01*
Y66580D01*
X128025D01*
Y67011D01*
Y67443D01*
X128456D01*
Y67011D01*
D02*
G37*
G36*
X136216Y63563D02*
X135785D01*
Y63994D01*
X136216D01*
Y63563D01*
D02*
G37*
G36*
X239582Y66089D02*
X239731D01*
Y65941D01*
Y65792D01*
Y65643D01*
Y65495D01*
Y65346D01*
Y65197D01*
Y65048D01*
X239582D01*
Y64900D01*
Y64751D01*
Y64602D01*
X239433D01*
Y64453D01*
Y64305D01*
X239284D01*
Y64156D01*
X239136D01*
Y64007D01*
X238987D01*
Y63858D01*
X238838D01*
Y63710D01*
X238689D01*
Y63561D01*
X238243D01*
Y63710D01*
Y63858D01*
Y64007D01*
X238392D01*
Y64156D01*
Y64305D01*
Y64453D01*
Y64602D01*
X238243D01*
Y64751D01*
X238094D01*
Y64900D01*
X237797D01*
Y65048D01*
X234674D01*
Y64900D01*
X233484D01*
Y64751D01*
X233186D01*
Y64602D01*
X233038D01*
Y64453D01*
Y64305D01*
X232889D01*
Y64156D01*
Y64007D01*
Y63858D01*
X232740D01*
Y63710D01*
Y63561D01*
Y63412D01*
Y63264D01*
Y63115D01*
X232592D01*
Y62966D01*
Y62817D01*
Y62669D01*
Y62520D01*
Y62371D01*
Y62222D01*
Y62074D01*
X232740D01*
Y61925D01*
X233186D01*
Y61776D01*
X237351D01*
Y61628D01*
X238838D01*
Y61479D01*
X239284D01*
Y61330D01*
X239433D01*
Y61181D01*
X239582D01*
Y61033D01*
X239731D01*
Y60884D01*
X239879D01*
Y60735D01*
Y60587D01*
X240028D01*
Y60438D01*
Y60289D01*
Y60140D01*
Y59992D01*
X240177D01*
Y59843D01*
Y59694D01*
Y59545D01*
Y59397D01*
Y59248D01*
Y59099D01*
Y58951D01*
Y58802D01*
Y58653D01*
Y58504D01*
Y58356D01*
Y58207D01*
X240325D01*
Y58058D01*
Y57909D01*
Y57761D01*
X240177D01*
Y57612D01*
Y57463D01*
Y57314D01*
Y57166D01*
Y57017D01*
Y56868D01*
Y56720D01*
Y56571D01*
Y56422D01*
X240028D01*
Y56273D01*
Y56125D01*
X239879D01*
Y55976D01*
Y55827D01*
X239731D01*
Y55678D01*
X239582D01*
Y55530D01*
X239284D01*
Y55381D01*
X238987D01*
Y55232D01*
X238243D01*
Y55084D01*
X230212D01*
Y55232D01*
Y55381D01*
Y55530D01*
Y55678D01*
Y55827D01*
Y55976D01*
Y56125D01*
Y56273D01*
Y56422D01*
Y56571D01*
Y56720D01*
Y56868D01*
Y57017D01*
Y57166D01*
Y57314D01*
Y57463D01*
Y57612D01*
Y57761D01*
Y57909D01*
Y58058D01*
Y58207D01*
Y58356D01*
Y58504D01*
Y58653D01*
Y58802D01*
Y58951D01*
Y59099D01*
Y59248D01*
Y59397D01*
Y59545D01*
Y59694D01*
Y59843D01*
Y59992D01*
Y60140D01*
Y60289D01*
Y60438D01*
Y60587D01*
Y60735D01*
Y60884D01*
Y61033D01*
Y61181D01*
Y61330D01*
Y61479D01*
Y61628D01*
Y61776D01*
Y61925D01*
Y62074D01*
Y62222D01*
Y62371D01*
Y62520D01*
Y62669D01*
Y62817D01*
Y62966D01*
Y63115D01*
Y63264D01*
Y63412D01*
Y63561D01*
X230361D01*
Y63710D01*
Y63858D01*
Y64007D01*
Y64156D01*
Y64305D01*
Y64453D01*
Y64602D01*
Y64751D01*
X230509D01*
Y64900D01*
Y65048D01*
Y65197D01*
X230658D01*
Y65346D01*
X230807D01*
Y65495D01*
X230956D01*
Y65643D01*
X231104D01*
Y65792D01*
X231253D01*
Y65941D01*
X231699D01*
Y66089D01*
X232294D01*
Y66238D01*
X239582D01*
Y66089D01*
D02*
G37*
G36*
X238243Y63412D02*
X238094D01*
Y63561D01*
X238243D01*
Y63412D01*
D02*
G37*
G36*
X196599Y66089D02*
X196748D01*
Y65941D01*
Y65792D01*
X196897D01*
Y65643D01*
X196748D01*
Y65495D01*
Y65346D01*
Y65197D01*
Y65048D01*
Y64900D01*
X196599D01*
Y64751D01*
Y64602D01*
X196450D01*
Y64453D01*
Y64305D01*
X196302D01*
Y64156D01*
X196153D01*
Y64007D01*
Y63858D01*
X195855D01*
Y63710D01*
X195707D01*
Y63561D01*
X195409D01*
Y63412D01*
X195261D01*
Y63561D01*
Y63710D01*
Y63858D01*
X195409D01*
Y64007D01*
Y64156D01*
Y64305D01*
Y64453D01*
Y64602D01*
X195261D01*
Y64751D01*
X195112D01*
Y64900D01*
X194814D01*
Y65048D01*
X192881D01*
Y64900D01*
X190650D01*
Y64751D01*
X190352D01*
Y64602D01*
X190204D01*
Y64453D01*
X190055D01*
Y64305D01*
X189906D01*
Y64156D01*
Y64007D01*
Y63858D01*
Y63710D01*
X189758D01*
Y63561D01*
Y63412D01*
Y63264D01*
Y63115D01*
Y62966D01*
Y62817D01*
X189609D01*
Y62669D01*
Y62520D01*
Y62371D01*
Y62222D01*
X189758D01*
Y62074D01*
Y61925D01*
X190204D01*
Y61776D01*
X194071D01*
Y61628D01*
X195855D01*
Y61479D01*
X196302D01*
Y61330D01*
X196450D01*
Y61181D01*
X196748D01*
Y61033D01*
Y60884D01*
X196897D01*
Y60735D01*
Y60587D01*
X197045D01*
Y60438D01*
Y60289D01*
Y60140D01*
X197194D01*
Y59992D01*
Y59843D01*
Y59694D01*
Y59545D01*
Y59397D01*
Y59248D01*
Y59099D01*
Y58951D01*
X197343D01*
Y58802D01*
Y58653D01*
Y58504D01*
Y58356D01*
Y58207D01*
Y58058D01*
Y57909D01*
Y57761D01*
Y57612D01*
Y57463D01*
Y57314D01*
Y57166D01*
Y57017D01*
X197194D01*
Y56868D01*
Y56720D01*
Y56571D01*
Y56422D01*
X197045D01*
Y56273D01*
Y56125D01*
Y55976D01*
X196897D01*
Y55827D01*
X196748D01*
Y55678D01*
X196599D01*
Y55530D01*
X196450D01*
Y55381D01*
X196153D01*
Y55232D01*
X195409D01*
Y55084D01*
X187378D01*
Y55232D01*
Y55381D01*
Y55530D01*
Y55678D01*
Y55827D01*
Y55976D01*
Y56125D01*
Y56273D01*
Y56422D01*
Y56571D01*
Y56720D01*
Y56868D01*
Y57017D01*
Y57166D01*
Y57314D01*
Y57463D01*
Y57612D01*
Y57761D01*
Y57909D01*
Y58058D01*
X187229D01*
Y58207D01*
Y58356D01*
Y58504D01*
Y58653D01*
Y58802D01*
Y58951D01*
Y59099D01*
Y59248D01*
Y59397D01*
Y59545D01*
Y59694D01*
Y59843D01*
Y59992D01*
Y60140D01*
Y60289D01*
Y60438D01*
Y60587D01*
Y60735D01*
Y60884D01*
Y61033D01*
Y61181D01*
Y61330D01*
Y61479D01*
Y61628D01*
Y61776D01*
Y61925D01*
Y62074D01*
Y62222D01*
X187378D01*
Y62371D01*
Y62520D01*
Y62669D01*
Y62817D01*
Y62966D01*
Y63115D01*
Y63264D01*
Y63412D01*
Y63561D01*
Y63710D01*
Y63858D01*
Y64007D01*
Y64156D01*
Y64305D01*
Y64453D01*
Y64602D01*
X187527D01*
Y64751D01*
Y64900D01*
Y65048D01*
X187675D01*
Y65197D01*
Y65346D01*
X187824D01*
Y65495D01*
X187973D01*
Y65643D01*
X188121D01*
Y65792D01*
X188419D01*
Y65941D01*
X188716D01*
Y66089D01*
X189609D01*
Y66238D01*
X196599D01*
Y66089D01*
D02*
G37*
G36*
X226196D02*
X226494D01*
Y65941D01*
X226791D01*
Y65792D01*
X227088D01*
Y65643D01*
X227237D01*
Y65495D01*
X227535D01*
Y65346D01*
X227683D01*
Y65197D01*
X227832D01*
Y65048D01*
X227981D01*
Y64900D01*
X228130D01*
Y64751D01*
Y64602D01*
X228278D01*
Y64453D01*
X228427D01*
Y64305D01*
X228576D01*
Y64156D01*
Y64007D01*
X228725D01*
Y63858D01*
X228873D01*
Y63710D01*
Y63561D01*
X229022D01*
Y63412D01*
Y63264D01*
X229171D01*
Y63115D01*
Y62966D01*
X229319D01*
Y62817D01*
Y62669D01*
X229468D01*
Y62520D01*
X229171D01*
Y62669D01*
X229022D01*
Y62817D01*
X228725D01*
Y62966D01*
X227981D01*
Y62817D01*
X227832D01*
Y62669D01*
Y62520D01*
Y62371D01*
Y62222D01*
Y62074D01*
Y61925D01*
Y61776D01*
Y61628D01*
Y61479D01*
Y61330D01*
Y61181D01*
Y61033D01*
Y60884D01*
Y60735D01*
Y60587D01*
Y60438D01*
Y60289D01*
Y60140D01*
Y59992D01*
Y59843D01*
Y59694D01*
Y59545D01*
Y59397D01*
Y59248D01*
Y59099D01*
Y58951D01*
Y58802D01*
Y58653D01*
Y58504D01*
Y58356D01*
Y58207D01*
Y58058D01*
Y57909D01*
Y57761D01*
Y57612D01*
Y57463D01*
Y57314D01*
Y57166D01*
Y57017D01*
Y56868D01*
Y56720D01*
Y56571D01*
Y56422D01*
Y56273D01*
Y56125D01*
Y55976D01*
Y55827D01*
Y55678D01*
Y55530D01*
Y55381D01*
Y55232D01*
Y55084D01*
X225452D01*
Y55232D01*
Y55381D01*
Y55530D01*
Y55678D01*
Y55827D01*
Y55976D01*
Y56125D01*
Y56273D01*
Y56422D01*
Y56571D01*
Y56720D01*
Y56868D01*
Y57017D01*
Y57166D01*
Y57314D01*
Y57463D01*
Y57612D01*
Y57761D01*
Y57909D01*
Y58058D01*
Y58207D01*
Y58356D01*
Y58504D01*
Y58653D01*
Y58802D01*
Y58951D01*
Y59099D01*
Y59248D01*
Y59397D01*
Y59545D01*
Y59694D01*
Y59843D01*
Y59992D01*
Y60140D01*
Y60289D01*
Y60438D01*
Y60587D01*
Y60735D01*
Y60884D01*
Y61033D01*
Y61181D01*
Y61330D01*
Y61479D01*
Y61628D01*
Y61776D01*
Y61925D01*
Y62074D01*
Y62222D01*
Y62371D01*
Y62520D01*
Y62669D01*
Y62817D01*
Y62966D01*
Y63115D01*
Y63264D01*
Y63412D01*
Y63561D01*
Y63710D01*
Y63858D01*
Y64007D01*
Y64156D01*
Y64305D01*
Y64453D01*
Y64602D01*
Y64751D01*
X225304D01*
Y64900D01*
X225006D01*
Y65048D01*
X220544D01*
Y64900D01*
Y64751D01*
Y64602D01*
Y64453D01*
Y64305D01*
Y64156D01*
Y64007D01*
Y63858D01*
Y63710D01*
Y63561D01*
Y63412D01*
Y63264D01*
Y63115D01*
Y62966D01*
Y62817D01*
Y62669D01*
Y62520D01*
Y62371D01*
Y62222D01*
Y62074D01*
Y61925D01*
Y61776D01*
Y61628D01*
Y61479D01*
Y61330D01*
Y61181D01*
Y61033D01*
Y60884D01*
Y60735D01*
Y60587D01*
Y60438D01*
Y60289D01*
Y60140D01*
Y59992D01*
Y59843D01*
Y59694D01*
Y59545D01*
Y59397D01*
Y59248D01*
Y59099D01*
Y58951D01*
Y58802D01*
Y58653D01*
Y58504D01*
Y58356D01*
Y58207D01*
Y58058D01*
Y57909D01*
Y57761D01*
Y57612D01*
Y57463D01*
Y57314D01*
Y57166D01*
Y57017D01*
Y56868D01*
Y56720D01*
Y56571D01*
Y56422D01*
Y56273D01*
Y56125D01*
Y55976D01*
Y55827D01*
Y55678D01*
Y55530D01*
Y55381D01*
Y55232D01*
X218165D01*
Y55381D01*
Y55530D01*
Y55678D01*
Y55827D01*
Y55976D01*
Y56125D01*
Y56273D01*
Y56422D01*
Y56571D01*
Y56720D01*
Y56868D01*
Y57017D01*
Y57166D01*
Y57314D01*
Y57463D01*
Y57612D01*
Y57761D01*
Y57909D01*
Y58058D01*
Y58207D01*
Y58356D01*
Y58504D01*
Y58653D01*
Y58802D01*
Y58951D01*
Y59099D01*
Y59248D01*
Y59397D01*
Y59545D01*
Y59694D01*
Y59843D01*
Y59992D01*
Y60140D01*
Y60289D01*
Y60438D01*
Y60587D01*
Y60735D01*
Y60884D01*
Y61033D01*
Y61181D01*
Y61330D01*
Y61479D01*
Y61628D01*
Y61776D01*
Y61925D01*
Y62074D01*
Y62222D01*
Y62371D01*
Y62520D01*
Y62669D01*
Y62817D01*
Y62966D01*
Y63115D01*
Y63264D01*
Y63412D01*
Y63561D01*
Y63710D01*
Y63858D01*
Y64007D01*
Y64156D01*
Y64305D01*
Y64453D01*
Y64602D01*
Y64751D01*
X218016D01*
Y64900D01*
X217719D01*
Y65048D01*
X215041D01*
Y64900D01*
X214298D01*
Y64751D01*
X214000D01*
Y64602D01*
X213703D01*
Y64453D01*
Y64305D01*
X213554D01*
Y64156D01*
Y64007D01*
X213405D01*
Y63858D01*
Y63710D01*
Y63561D01*
Y63412D01*
Y63264D01*
X213257D01*
Y63115D01*
Y62966D01*
Y62817D01*
Y62669D01*
Y62520D01*
Y62371D01*
Y62222D01*
Y62074D01*
Y61925D01*
Y61776D01*
Y61628D01*
Y61479D01*
Y61330D01*
Y61181D01*
Y61033D01*
Y60884D01*
Y60735D01*
Y60587D01*
Y60438D01*
Y60289D01*
Y60140D01*
Y59992D01*
Y59843D01*
Y59694D01*
Y59545D01*
Y59397D01*
Y59248D01*
Y59099D01*
Y58951D01*
Y58802D01*
Y58653D01*
Y58504D01*
Y58356D01*
Y58207D01*
Y58058D01*
Y57909D01*
Y57761D01*
Y57612D01*
Y57463D01*
Y57314D01*
Y57166D01*
Y57017D01*
Y56868D01*
Y56720D01*
Y56571D01*
Y56422D01*
Y56273D01*
Y56125D01*
Y55976D01*
Y55827D01*
Y55678D01*
Y55530D01*
Y55381D01*
Y55232D01*
Y55084D01*
X210877D01*
Y55232D01*
Y55381D01*
Y55530D01*
Y55678D01*
Y55827D01*
Y55976D01*
Y56125D01*
Y56273D01*
Y56422D01*
Y56571D01*
Y56720D01*
Y56868D01*
Y57017D01*
Y57166D01*
Y57314D01*
Y57463D01*
Y57612D01*
Y57761D01*
Y57909D01*
Y58058D01*
Y58207D01*
Y58356D01*
Y58504D01*
Y58653D01*
Y58802D01*
Y58951D01*
Y59099D01*
Y59248D01*
Y59397D01*
Y59545D01*
Y59694D01*
Y59843D01*
Y59992D01*
Y60140D01*
Y60289D01*
Y60438D01*
Y60587D01*
Y60735D01*
Y60884D01*
Y61033D01*
Y61181D01*
Y61330D01*
Y61479D01*
Y61628D01*
Y61776D01*
Y61925D01*
Y62074D01*
Y62222D01*
Y62371D01*
Y62520D01*
Y62669D01*
Y62817D01*
Y62966D01*
Y63115D01*
Y63264D01*
Y63412D01*
Y63561D01*
Y63710D01*
Y63858D01*
Y64007D01*
X211026D01*
Y64156D01*
Y64305D01*
Y64453D01*
Y64602D01*
X211175D01*
Y64751D01*
Y64900D01*
Y65048D01*
X211323D01*
Y65197D01*
Y65346D01*
X211472D01*
Y65495D01*
X211621D01*
Y65643D01*
X211769D01*
Y65792D01*
X212067D01*
Y65941D01*
X212364D01*
Y66089D01*
X212959D01*
Y66238D01*
X226196D01*
Y66089D01*
D02*
G37*
G36*
X137940Y63994D02*
X138372D01*
Y63563D01*
Y63132D01*
Y62700D01*
Y62269D01*
Y61838D01*
X137940D01*
Y62269D01*
Y62700D01*
Y63132D01*
Y63563D01*
X137509D01*
Y63994D01*
X136216D01*
Y64425D01*
X137940D01*
Y63994D01*
D02*
G37*
G36*
X106901Y68305D02*
Y67874D01*
Y67443D01*
Y67011D01*
Y66580D01*
Y66149D01*
Y65718D01*
Y65287D01*
Y64856D01*
Y64425D01*
Y63994D01*
Y63563D01*
Y63132D01*
Y62700D01*
Y62269D01*
Y61838D01*
X106470D01*
Y62269D01*
Y62700D01*
Y63132D01*
X106039D01*
Y63563D01*
Y63994D01*
Y64425D01*
Y64856D01*
Y65287D01*
Y65718D01*
Y66149D01*
Y66580D01*
Y67011D01*
Y67443D01*
X106470D01*
Y67874D01*
Y68305D01*
Y68736D01*
X106901D01*
Y68305D01*
D02*
G37*
G36*
X269030Y69064D02*
X269625D01*
Y68915D01*
X269922D01*
Y68767D01*
X270220D01*
Y68618D01*
X270369D01*
Y68469D01*
X270666D01*
Y68320D01*
X270815D01*
Y68172D01*
X270964D01*
Y68023D01*
X271112D01*
Y67874D01*
X271261D01*
Y67725D01*
X271410D01*
Y67577D01*
X271558D01*
Y67428D01*
X271707D01*
Y67279D01*
X271856D01*
Y67131D01*
Y66982D01*
X272005D01*
Y66833D01*
X272153D01*
Y66684D01*
Y66536D01*
X272302D01*
Y66387D01*
X272451D01*
Y66238D01*
Y66089D01*
X272600D01*
Y65941D01*
Y65792D01*
X272748D01*
Y65643D01*
Y65495D01*
X272451D01*
Y65643D01*
X272302D01*
Y65792D01*
X271856D01*
Y65941D01*
X271261D01*
Y65792D01*
X270964D01*
Y65643D01*
Y65495D01*
X270815D01*
Y65346D01*
Y65197D01*
Y65048D01*
Y64900D01*
Y64751D01*
Y64602D01*
Y64453D01*
Y64305D01*
Y64156D01*
Y64007D01*
Y63858D01*
Y63710D01*
Y63561D01*
Y63412D01*
Y63264D01*
Y63115D01*
Y62966D01*
Y62817D01*
Y62669D01*
Y62520D01*
Y62371D01*
Y62222D01*
Y62074D01*
Y61925D01*
Y61776D01*
Y61628D01*
Y61479D01*
Y61330D01*
Y61181D01*
Y61033D01*
Y60884D01*
Y60735D01*
Y60587D01*
Y60438D01*
Y60289D01*
Y60140D01*
Y59992D01*
Y59843D01*
Y59694D01*
Y59545D01*
Y59397D01*
Y59248D01*
Y59099D01*
Y58951D01*
Y58802D01*
Y58653D01*
Y58504D01*
Y58356D01*
Y58207D01*
Y58058D01*
Y57909D01*
Y57761D01*
Y57612D01*
Y57463D01*
Y57314D01*
Y57166D01*
Y57017D01*
Y56868D01*
Y56720D01*
Y56571D01*
Y56422D01*
Y56273D01*
Y56125D01*
Y55976D01*
Y55827D01*
Y55678D01*
Y55530D01*
Y55381D01*
Y55232D01*
Y55084D01*
X268584D01*
Y55232D01*
Y55381D01*
Y55530D01*
Y55678D01*
Y55827D01*
Y55976D01*
Y56125D01*
Y56273D01*
Y56422D01*
Y56571D01*
Y56720D01*
Y56868D01*
Y57017D01*
Y57166D01*
Y57314D01*
Y57463D01*
Y57612D01*
Y57761D01*
Y57909D01*
Y58058D01*
Y58207D01*
Y58356D01*
Y58504D01*
Y58653D01*
Y58802D01*
Y58951D01*
Y59099D01*
Y59248D01*
Y59397D01*
Y59545D01*
Y59694D01*
Y59843D01*
Y59992D01*
Y60140D01*
Y60289D01*
Y60438D01*
Y60587D01*
Y60735D01*
Y60884D01*
Y61033D01*
Y61181D01*
Y61330D01*
Y61479D01*
Y61628D01*
Y61776D01*
Y61925D01*
Y62074D01*
Y62222D01*
Y62371D01*
Y62520D01*
Y62669D01*
Y62817D01*
Y62966D01*
Y63115D01*
Y63264D01*
Y63412D01*
Y63561D01*
Y63710D01*
Y63858D01*
Y64007D01*
Y64156D01*
Y64305D01*
Y64453D01*
Y64602D01*
Y64751D01*
Y64900D01*
Y65048D01*
Y65197D01*
Y65346D01*
Y65495D01*
Y65643D01*
Y65792D01*
Y65941D01*
Y66089D01*
Y66238D01*
Y66387D01*
X268435D01*
Y66536D01*
X267989D01*
Y66387D01*
X267840D01*
Y66238D01*
Y66089D01*
X267691D01*
Y65941D01*
Y65792D01*
Y65643D01*
X267543D01*
Y65495D01*
Y65346D01*
X267394D01*
Y65197D01*
Y65048D01*
Y64900D01*
X267245D01*
Y64751D01*
Y64602D01*
X267097D01*
Y64453D01*
Y64305D01*
Y64156D01*
X266948D01*
Y64007D01*
Y63858D01*
Y63710D01*
X266799D01*
Y63561D01*
Y63412D01*
X266650D01*
Y63264D01*
Y63115D01*
Y62966D01*
X266502D01*
Y62817D01*
Y62669D01*
Y62520D01*
X266353D01*
Y62371D01*
Y62222D01*
X266204D01*
Y62074D01*
Y61925D01*
Y61776D01*
X266055D01*
Y61628D01*
Y61479D01*
Y61330D01*
X265907D01*
Y61181D01*
Y61033D01*
X265758D01*
Y60884D01*
Y60735D01*
Y60587D01*
X265609D01*
Y60438D01*
Y60289D01*
Y60140D01*
X265461D01*
Y59992D01*
Y59843D01*
X265312D01*
Y59694D01*
Y59545D01*
Y59397D01*
X265163D01*
Y59248D01*
Y59099D01*
Y58951D01*
X265014D01*
Y58802D01*
Y58653D01*
X264866D01*
Y58504D01*
Y58356D01*
Y58207D01*
X264717D01*
Y58058D01*
Y57909D01*
X264568D01*
Y57761D01*
Y57612D01*
Y57463D01*
X264420D01*
Y57314D01*
Y57166D01*
Y57017D01*
X264271D01*
Y56868D01*
Y56720D01*
X264122D01*
Y56571D01*
Y56422D01*
Y56273D01*
X263973D01*
Y56125D01*
Y55976D01*
X263825D01*
Y55827D01*
Y55678D01*
X263676D01*
Y55530D01*
Y55381D01*
X263378D01*
Y55232D01*
X262932D01*
Y55084D01*
X261147D01*
Y55232D01*
X260850D01*
Y55381D01*
X260701D01*
Y55530D01*
X260553D01*
Y55678D01*
Y55827D01*
X260404D01*
Y55976D01*
Y56125D01*
Y56273D01*
X260255D01*
Y56422D01*
Y56571D01*
X260106D01*
Y56720D01*
Y56868D01*
Y57017D01*
X259958D01*
Y57166D01*
Y57314D01*
Y57463D01*
X259809D01*
Y57612D01*
Y57761D01*
X259660D01*
Y57909D01*
Y58058D01*
Y58207D01*
X259511D01*
Y58356D01*
Y58504D01*
X259363D01*
Y58653D01*
Y58802D01*
Y58951D01*
X259214D01*
Y59099D01*
Y59248D01*
Y59397D01*
X259065D01*
Y59545D01*
Y59694D01*
X258916D01*
Y59843D01*
Y59992D01*
Y60140D01*
X258768D01*
Y60289D01*
Y60438D01*
Y60587D01*
X258619D01*
Y60735D01*
Y60884D01*
X258470D01*
Y61033D01*
Y61181D01*
Y61330D01*
X258322D01*
Y61479D01*
Y61628D01*
X258173D01*
Y61776D01*
Y61925D01*
Y62074D01*
X258024D01*
Y62222D01*
Y62371D01*
Y62520D01*
X257875D01*
Y62669D01*
Y62817D01*
X257727D01*
Y62966D01*
Y63115D01*
Y63264D01*
X257578D01*
Y63412D01*
Y63561D01*
X257429D01*
Y63710D01*
Y63858D01*
Y64007D01*
X257280D01*
Y64156D01*
Y64305D01*
X257132D01*
Y64453D01*
Y64602D01*
Y64751D01*
X256983D01*
Y64900D01*
Y65048D01*
Y65197D01*
X256834D01*
Y65346D01*
Y65495D01*
X256686D01*
Y65643D01*
Y65792D01*
Y65941D01*
X256537D01*
Y66089D01*
Y66238D01*
X256388D01*
Y66387D01*
Y66536D01*
X256239D01*
Y66684D01*
X255942D01*
Y66536D01*
X255793D01*
Y66387D01*
Y66238D01*
Y66089D01*
Y65941D01*
Y65792D01*
Y65643D01*
Y65495D01*
Y65346D01*
Y65197D01*
Y65048D01*
Y64900D01*
Y64751D01*
Y64602D01*
Y64453D01*
Y64305D01*
Y64156D01*
Y64007D01*
Y63858D01*
Y63710D01*
Y63561D01*
Y63412D01*
Y63264D01*
Y63115D01*
Y62966D01*
Y62817D01*
Y62669D01*
Y62520D01*
Y62371D01*
Y62222D01*
Y62074D01*
Y61925D01*
Y61776D01*
Y61628D01*
Y61479D01*
Y61330D01*
Y61181D01*
Y61033D01*
Y60884D01*
Y60735D01*
Y60587D01*
Y60438D01*
Y60289D01*
Y60140D01*
Y59992D01*
Y59843D01*
Y59694D01*
Y59545D01*
Y59397D01*
Y59248D01*
Y59099D01*
Y58951D01*
Y58802D01*
Y58653D01*
Y58504D01*
Y58356D01*
Y58207D01*
Y58058D01*
Y57909D01*
Y57761D01*
Y57612D01*
Y57463D01*
Y57314D01*
Y57166D01*
Y57017D01*
Y56868D01*
Y56720D01*
Y56571D01*
Y56422D01*
Y56273D01*
Y56125D01*
Y55976D01*
Y55827D01*
Y55678D01*
Y55530D01*
Y55381D01*
Y55232D01*
Y55084D01*
X253414D01*
Y55232D01*
Y55381D01*
Y55530D01*
Y55678D01*
Y55827D01*
Y55976D01*
Y56125D01*
Y56273D01*
Y56422D01*
Y56571D01*
Y56720D01*
Y56868D01*
Y57017D01*
Y57166D01*
Y57314D01*
Y57463D01*
Y57612D01*
Y57761D01*
Y57909D01*
Y58058D01*
Y58207D01*
Y58356D01*
Y58504D01*
Y58653D01*
Y58802D01*
Y58951D01*
Y59099D01*
Y59248D01*
Y59397D01*
Y59545D01*
Y59694D01*
Y59843D01*
Y59992D01*
Y60140D01*
Y60289D01*
Y60438D01*
Y60587D01*
Y60735D01*
Y60884D01*
Y61033D01*
Y61181D01*
Y61330D01*
Y61479D01*
Y61628D01*
Y61776D01*
Y61925D01*
Y62074D01*
Y62222D01*
Y62371D01*
Y62520D01*
Y62669D01*
Y62817D01*
Y62966D01*
Y63115D01*
Y63264D01*
Y63412D01*
Y63561D01*
Y63710D01*
Y63858D01*
Y64007D01*
Y64156D01*
Y64305D01*
Y64453D01*
Y64602D01*
Y64751D01*
Y64900D01*
Y65048D01*
Y65197D01*
Y65346D01*
Y65495D01*
Y65643D01*
Y65792D01*
Y65941D01*
Y66089D01*
Y66238D01*
Y66387D01*
Y66536D01*
Y66684D01*
Y66833D01*
Y66982D01*
Y67131D01*
Y67279D01*
Y67428D01*
Y67577D01*
Y67725D01*
Y67874D01*
Y68023D01*
Y68172D01*
Y68320D01*
Y68469D01*
Y68618D01*
Y68767D01*
Y68915D01*
Y69064D01*
Y69213D01*
X256834D01*
Y69064D01*
X257132D01*
Y68915D01*
Y68767D01*
X257280D01*
Y68618D01*
Y68469D01*
X257429D01*
Y68320D01*
Y68172D01*
Y68023D01*
X257578D01*
Y67874D01*
Y67725D01*
Y67577D01*
X257727D01*
Y67428D01*
Y67279D01*
X257875D01*
Y67131D01*
Y66982D01*
Y66833D01*
X258024D01*
Y66684D01*
Y66536D01*
Y66387D01*
X258173D01*
Y66238D01*
Y66089D01*
X258322D01*
Y65941D01*
Y65792D01*
Y65643D01*
X258470D01*
Y65495D01*
Y65346D01*
Y65197D01*
X258619D01*
Y65048D01*
Y64900D01*
X258768D01*
Y64751D01*
Y64602D01*
Y64453D01*
X258916D01*
Y64305D01*
Y64156D01*
X259065D01*
Y64007D01*
Y63858D01*
Y63710D01*
X259214D01*
Y63561D01*
Y63412D01*
Y63264D01*
X259363D01*
Y63115D01*
Y62966D01*
X259511D01*
Y62817D01*
Y62669D01*
Y62520D01*
X259660D01*
Y62371D01*
Y62222D01*
Y62074D01*
X259809D01*
Y61925D01*
Y61776D01*
X259958D01*
Y61628D01*
Y61479D01*
Y61330D01*
X260106D01*
Y61181D01*
Y61033D01*
X260255D01*
Y60884D01*
Y60735D01*
Y60587D01*
X260404D01*
Y60438D01*
Y60289D01*
Y60140D01*
X260553D01*
Y59992D01*
Y59843D01*
X260701D01*
Y59694D01*
Y59545D01*
Y59397D01*
X260850D01*
Y59248D01*
Y59099D01*
X260999D01*
Y58951D01*
Y58802D01*
Y58653D01*
X261147D01*
Y58504D01*
Y58356D01*
X261296D01*
Y58207D01*
Y58058D01*
Y57909D01*
X261445D01*
Y57761D01*
Y57612D01*
X261594D01*
Y57463D01*
Y57314D01*
X261891D01*
Y57463D01*
X262040D01*
Y57612D01*
Y57761D01*
Y57909D01*
X262189D01*
Y58058D01*
Y58207D01*
X262337D01*
Y58356D01*
Y58504D01*
Y58653D01*
X262486D01*
Y58802D01*
Y58951D01*
X262635D01*
Y59099D01*
Y59248D01*
Y59397D01*
X262783D01*
Y59545D01*
Y59694D01*
Y59843D01*
X262932D01*
Y59992D01*
Y60140D01*
X263081D01*
Y60289D01*
Y60438D01*
Y60587D01*
X263230D01*
Y60735D01*
Y60884D01*
Y61033D01*
X263378D01*
Y61181D01*
Y61330D01*
Y61479D01*
X263527D01*
Y61628D01*
Y61776D01*
X263676D01*
Y61925D01*
Y62074D01*
Y62222D01*
X263825D01*
Y62371D01*
Y62520D01*
Y62669D01*
X263973D01*
Y62817D01*
Y62966D01*
X264122D01*
Y63115D01*
Y63264D01*
Y63412D01*
X264271D01*
Y63561D01*
Y63710D01*
Y63858D01*
X264420D01*
Y64007D01*
Y64156D01*
X264568D01*
Y64305D01*
Y64453D01*
Y64602D01*
X264717D01*
Y64751D01*
Y64900D01*
Y65048D01*
X264866D01*
Y65197D01*
Y65346D01*
X265014D01*
Y65495D01*
Y65643D01*
Y65792D01*
X265163D01*
Y65941D01*
Y66089D01*
Y66238D01*
X265312D01*
Y66387D01*
Y66536D01*
X265461D01*
Y66684D01*
Y66833D01*
Y66982D01*
X265609D01*
Y67131D01*
Y67279D01*
Y67428D01*
X265758D01*
Y67577D01*
Y67725D01*
X265907D01*
Y67874D01*
Y68023D01*
Y68172D01*
X266055D01*
Y68320D01*
Y68469D01*
Y68618D01*
X266204D01*
Y68767D01*
Y68915D01*
X266353D01*
Y69064D01*
Y69213D01*
X269030D01*
Y69064D01*
D02*
G37*
G36*
X206713Y66089D02*
X207308D01*
Y65941D01*
X207605D01*
Y65792D01*
X207754D01*
Y65643D01*
X208051D01*
Y65495D01*
X208200D01*
Y65346D01*
X208349D01*
Y65197D01*
Y65048D01*
X208497D01*
Y64900D01*
Y64751D01*
X208646D01*
Y64602D01*
Y64453D01*
X208795D01*
Y64305D01*
Y64156D01*
Y64007D01*
X208944D01*
Y63858D01*
Y63710D01*
Y63561D01*
Y63412D01*
X209092D01*
Y63264D01*
Y63115D01*
Y62966D01*
Y62817D01*
Y62669D01*
Y62520D01*
X209241D01*
Y62371D01*
Y62222D01*
Y62074D01*
Y61925D01*
Y61776D01*
Y61628D01*
Y61479D01*
Y61330D01*
Y61181D01*
Y61033D01*
Y60884D01*
Y60735D01*
Y60587D01*
Y60438D01*
Y60289D01*
Y60140D01*
Y59992D01*
Y59843D01*
Y59694D01*
Y59545D01*
Y59397D01*
Y59248D01*
Y59099D01*
Y58951D01*
Y58802D01*
X209092D01*
Y58653D01*
Y58504D01*
Y58356D01*
Y58207D01*
Y58058D01*
Y57909D01*
Y57761D01*
X208944D01*
Y57612D01*
Y57463D01*
Y57314D01*
Y57166D01*
Y57017D01*
X208795D01*
Y56868D01*
Y56720D01*
Y56571D01*
X208646D01*
Y56422D01*
Y56273D01*
X208497D01*
Y56125D01*
X208349D01*
Y55976D01*
Y55827D01*
X208200D01*
Y55678D01*
X208051D01*
Y55530D01*
X207754D01*
Y55381D01*
X207456D01*
Y55232D01*
X207010D01*
Y55084D01*
X200764D01*
Y55232D01*
X200317D01*
Y55381D01*
X200020D01*
Y55530D01*
X199722D01*
Y55678D01*
X199574D01*
Y55827D01*
X199425D01*
Y55976D01*
X199276D01*
Y56125D01*
Y56273D01*
X199127D01*
Y56422D01*
Y56571D01*
X198979D01*
Y56720D01*
Y56868D01*
X198830D01*
Y57017D01*
Y57166D01*
Y57314D01*
Y57463D01*
Y57612D01*
X198681D01*
Y57761D01*
Y57909D01*
Y58058D01*
Y58207D01*
Y58356D01*
Y58504D01*
Y58653D01*
Y58802D01*
Y58951D01*
Y59099D01*
X198532D01*
Y59248D01*
Y59397D01*
Y59545D01*
Y59694D01*
Y59843D01*
Y59992D01*
Y60140D01*
Y60289D01*
Y60438D01*
Y60587D01*
Y60735D01*
Y60884D01*
Y61033D01*
Y61181D01*
Y61330D01*
Y61479D01*
Y61628D01*
Y61776D01*
Y61925D01*
Y62074D01*
Y62222D01*
Y62371D01*
Y62520D01*
Y62669D01*
Y62817D01*
Y62966D01*
X198681D01*
Y63115D01*
Y63264D01*
Y63412D01*
Y63561D01*
Y63710D01*
Y63858D01*
Y64007D01*
X198830D01*
Y64156D01*
Y64305D01*
Y64453D01*
X198979D01*
Y64602D01*
Y64751D01*
Y64900D01*
X199127D01*
Y65048D01*
X199276D01*
Y65197D01*
Y65346D01*
X199425D01*
Y65495D01*
X199574D01*
Y65643D01*
X199871D01*
Y65792D01*
X200169D01*
Y65941D01*
X200466D01*
Y66089D01*
X201061D01*
Y66238D01*
X206713D01*
Y66089D01*
D02*
G37*
G36*
X249695Y65941D02*
X250142D01*
Y65792D01*
X250439D01*
Y65643D01*
X250588D01*
Y65495D01*
X250736D01*
Y65346D01*
X250885D01*
Y65197D01*
X251034D01*
Y65048D01*
X251183D01*
Y64900D01*
Y64751D01*
X251331D01*
Y64602D01*
Y64453D01*
X251480D01*
Y64305D01*
Y64156D01*
Y64007D01*
X251629D01*
Y63858D01*
Y63710D01*
Y63561D01*
Y63412D01*
X251778D01*
Y63264D01*
Y63115D01*
Y62966D01*
Y62817D01*
Y62669D01*
X251926D01*
Y62520D01*
Y62371D01*
Y62222D01*
Y62074D01*
Y61925D01*
Y61776D01*
Y61628D01*
Y61479D01*
X252075D01*
Y61330D01*
Y61181D01*
Y61033D01*
Y60884D01*
Y60735D01*
Y60587D01*
Y60438D01*
Y60289D01*
Y60140D01*
Y59992D01*
Y59843D01*
Y59694D01*
Y59545D01*
X251926D01*
Y59397D01*
Y59248D01*
Y59099D01*
Y58951D01*
Y58802D01*
Y58653D01*
Y58504D01*
Y58356D01*
X251778D01*
Y58207D01*
Y58058D01*
Y57909D01*
Y57761D01*
Y57612D01*
Y57463D01*
X251629D01*
Y57314D01*
Y57166D01*
Y57017D01*
Y56868D01*
X251480D01*
Y56720D01*
Y56571D01*
Y56422D01*
X251331D01*
Y56273D01*
Y56125D01*
X251183D01*
Y55976D01*
X251034D01*
Y55827D01*
Y55678D01*
X250885D01*
Y55530D01*
X250588D01*
Y55381D01*
X250439D01*
Y55232D01*
X250142D01*
Y55084D01*
X249547D01*
Y54935D01*
X243746D01*
Y55084D01*
X243151D01*
Y55232D01*
X242854D01*
Y55381D01*
X242556D01*
Y55530D01*
X242408D01*
Y55678D01*
X242259D01*
Y55827D01*
X242110D01*
Y55976D01*
X241961D01*
Y56125D01*
X241813D01*
Y56273D01*
Y56422D01*
X241664D01*
Y56571D01*
Y56720D01*
Y56868D01*
X241515D01*
Y57017D01*
Y57166D01*
Y57314D01*
Y57463D01*
Y57612D01*
Y57761D01*
X241367D01*
Y57909D01*
Y58058D01*
Y58207D01*
Y58356D01*
Y58504D01*
Y58653D01*
Y58802D01*
Y58951D01*
Y59099D01*
Y59248D01*
Y59397D01*
Y59545D01*
X241218D01*
Y59694D01*
Y59843D01*
Y59992D01*
Y60140D01*
Y60289D01*
Y60438D01*
Y60587D01*
Y60735D01*
Y60884D01*
Y61033D01*
Y61181D01*
Y61330D01*
Y61479D01*
Y61628D01*
Y61776D01*
Y61925D01*
Y62074D01*
Y62222D01*
Y62371D01*
X241367D01*
Y62520D01*
Y62669D01*
Y62817D01*
Y62966D01*
Y63115D01*
Y63264D01*
Y63412D01*
Y63561D01*
Y63710D01*
X241515D01*
Y63858D01*
Y64007D01*
Y64156D01*
Y64305D01*
X241664D01*
Y64453D01*
Y64602D01*
X241813D01*
Y64751D01*
Y64900D01*
X241961D01*
Y65048D01*
Y65197D01*
X242110D01*
Y65346D01*
X242259D01*
Y65495D01*
X242556D01*
Y65643D01*
X242705D01*
Y65792D01*
X243003D01*
Y65941D01*
X243597D01*
Y66089D01*
X249695D01*
Y65941D01*
D02*
G37*
%LPC*%
G36*
X125007Y107104D02*
X120696D01*
Y106673D01*
X120265D01*
Y106242D01*
X119403D01*
Y105810D01*
X118972D01*
Y105379D01*
X118541D01*
Y104948D01*
Y104517D01*
X118110D01*
Y104086D01*
Y103655D01*
Y103224D01*
X117679D01*
Y102793D01*
Y102362D01*
Y101931D01*
Y101499D01*
Y101068D01*
Y100637D01*
Y100206D01*
Y99775D01*
X128025D01*
Y100206D01*
Y100637D01*
Y101068D01*
Y101499D01*
Y101931D01*
Y102362D01*
Y102793D01*
Y103224D01*
Y103655D01*
Y104086D01*
X127594D01*
Y104517D01*
Y104948D01*
X127163D01*
Y105379D01*
X126732D01*
Y105810D01*
X126301D01*
Y106242D01*
X125870D01*
Y106673D01*
X125007D01*
Y107104D01*
D02*
G37*
G36*
X119403Y94602D02*
X118972D01*
Y94171D01*
X119403D01*
Y93740D01*
Y93309D01*
X118972D01*
Y93740D01*
Y94171D01*
X118541D01*
Y93740D01*
X118110D01*
Y93309D01*
Y92878D01*
Y92446D01*
Y92015D01*
Y91584D01*
Y91153D01*
Y90722D01*
X118541D01*
Y90291D01*
X118972D01*
Y89860D01*
X119403D01*
Y90291D01*
Y90722D01*
X118972D01*
Y91153D01*
Y91584D01*
X118541D01*
Y92015D01*
Y92446D01*
Y92878D01*
X118972D01*
Y92446D01*
Y92015D01*
Y91584D01*
X119403D01*
Y91153D01*
Y90722D01*
X119834D01*
Y91153D01*
Y91584D01*
X120265D01*
Y91153D01*
X120696D01*
Y91584D01*
Y92015D01*
Y92446D01*
Y92878D01*
Y93309D01*
Y93740D01*
X120265D01*
Y94171D01*
X119403D01*
Y94602D01*
D02*
G37*
G36*
X130181Y96326D02*
X129750D01*
Y95895D01*
Y95464D01*
Y95033D01*
X130181D01*
Y94602D01*
Y94171D01*
X130612D01*
Y93740D01*
Y93309D01*
Y92878D01*
X130181D01*
Y93309D01*
Y93740D01*
Y94171D01*
X129750D01*
Y94602D01*
Y95033D01*
X129318D01*
Y95464D01*
X128456D01*
Y95033D01*
X128887D01*
Y94602D01*
X129318D01*
Y94171D01*
Y93740D01*
Y93309D01*
X128887D01*
Y93740D01*
Y94171D01*
X128456D01*
Y94602D01*
Y95033D01*
X127594D01*
Y94602D01*
X128025D01*
Y94171D01*
Y93740D01*
X128456D01*
Y93309D01*
Y92878D01*
Y92446D01*
Y92015D01*
Y91584D01*
Y91153D01*
Y90722D01*
X128025D01*
Y90291D01*
Y89860D01*
X128456D01*
Y90291D01*
X128887D01*
Y89860D01*
Y89429D01*
X128456D01*
Y88998D01*
X129318D01*
Y89429D01*
X129750D01*
Y88998D01*
Y88566D01*
X130181D01*
Y88998D01*
X130612D01*
Y89429D01*
X131043D01*
Y89860D01*
Y90291D01*
X131474D01*
Y90722D01*
Y91153D01*
Y91584D01*
Y92015D01*
Y92446D01*
Y92878D01*
Y93309D01*
Y93740D01*
Y94171D01*
X131043D01*
Y94602D01*
Y95033D01*
X130612D01*
Y95464D01*
Y95895D01*
X130181D01*
Y96326D01*
D02*
G37*
G36*
X127163Y94602D02*
X126732D01*
Y94171D01*
Y93740D01*
X127163D01*
Y93309D01*
Y92878D01*
X126732D01*
Y93309D01*
Y93740D01*
X126301D01*
Y94171D01*
X125870D01*
Y93740D01*
X126301D01*
Y93309D01*
Y92878D01*
Y92446D01*
X125870D01*
Y92878D01*
Y93309D01*
Y93740D01*
X125439D01*
Y93309D01*
Y92878D01*
Y92446D01*
Y92015D01*
Y91584D01*
Y91153D01*
X125870D01*
Y90722D01*
X126732D01*
Y90291D01*
Y89860D01*
X127163D01*
Y90291D01*
X127594D01*
Y90722D01*
Y91153D01*
X128025D01*
Y91584D01*
Y92015D01*
Y92446D01*
Y92878D01*
Y93309D01*
Y93740D01*
X127594D01*
Y94171D01*
X127163D01*
Y94602D01*
D02*
G37*
G36*
X128025Y89860D02*
X127594D01*
Y89429D01*
X128025D01*
Y89860D01*
D02*
G37*
G36*
X116385Y96326D02*
X115954D01*
Y95895D01*
X115523D01*
Y95464D01*
Y95033D01*
X115092D01*
Y94602D01*
X114661D01*
Y94171D01*
Y93740D01*
Y93309D01*
Y92878D01*
X114230D01*
Y92446D01*
Y92015D01*
X114661D01*
Y91584D01*
Y91153D01*
Y90722D01*
Y90291D01*
X115092D01*
Y89860D01*
Y89429D01*
X115523D01*
Y88998D01*
X115954D01*
Y88566D01*
X116385D01*
Y88998D01*
Y89429D01*
X115954D01*
Y89860D01*
Y90291D01*
X115523D01*
Y90722D01*
Y91153D01*
Y91584D01*
X115954D01*
Y91153D01*
Y90722D01*
Y90291D01*
X116385D01*
Y89860D01*
Y89429D01*
X116817D01*
Y88998D01*
X117248D01*
Y89429D01*
Y89860D01*
X116817D01*
Y90291D01*
Y90722D01*
Y91153D01*
X116385D01*
Y91584D01*
Y92015D01*
Y92446D01*
Y92878D01*
Y93309D01*
X116817D01*
Y92878D01*
Y92446D01*
Y92015D01*
Y91584D01*
Y91153D01*
X117248D01*
Y90722D01*
Y90291D01*
X117679D01*
Y89860D01*
Y89429D01*
X118110D01*
Y89860D01*
Y90291D01*
Y90722D01*
X117679D01*
Y91153D01*
Y91584D01*
Y92015D01*
Y92446D01*
Y92878D01*
Y93309D01*
Y93740D01*
Y94171D01*
X118110D01*
Y94602D01*
Y95033D01*
X117679D01*
Y94602D01*
X117248D01*
Y95033D01*
Y95464D01*
X116817D01*
Y95033D01*
X116385D01*
Y94602D01*
X115954D01*
Y95033D01*
Y95464D01*
X116385D01*
Y95895D01*
Y96326D01*
D02*
G37*
G36*
X124145Y94171D02*
X121990D01*
Y93740D01*
X121559D01*
Y93309D01*
X121127D01*
Y92878D01*
Y92446D01*
Y92015D01*
Y91584D01*
Y91153D01*
X121559D01*
Y90722D01*
X121990D01*
Y90291D01*
Y89860D01*
Y89429D01*
Y88998D01*
Y88566D01*
Y88135D01*
Y87704D01*
Y87273D01*
Y86842D01*
Y86411D01*
Y85980D01*
X124145D01*
Y86411D01*
Y86842D01*
Y87273D01*
Y87704D01*
Y88135D01*
Y88566D01*
Y88998D01*
Y89429D01*
Y89860D01*
Y90291D01*
Y90722D01*
X124576D01*
Y91153D01*
Y91584D01*
X125007D01*
Y92015D01*
Y92446D01*
Y92878D01*
Y93309D01*
X124576D01*
Y93740D01*
X124145D01*
Y94171D01*
D02*
G37*
%LPD*%
G36*
X120265Y93309D02*
Y92878D01*
X119834D01*
Y93309D01*
Y93740D01*
X120265D01*
Y93309D01*
D02*
G37*
G36*
X130612Y91584D02*
Y91153D01*
Y90722D01*
Y90291D01*
X130181D01*
Y90722D01*
Y91153D01*
Y91584D01*
Y92015D01*
X130612D01*
Y91584D01*
D02*
G37*
G36*
X129318Y90722D02*
Y90291D01*
X128887D01*
Y90722D01*
Y91153D01*
X129318D01*
Y90722D01*
D02*
G37*
G36*
X130181Y89860D02*
Y89429D01*
X129750D01*
Y89860D01*
Y90291D01*
X130181D01*
Y89860D01*
D02*
G37*
G36*
X126301Y91584D02*
Y91153D01*
X125870D01*
Y91584D01*
Y92015D01*
X126301D01*
Y91584D01*
D02*
G37*
G36*
X127163Y91153D02*
Y90722D01*
X126732D01*
Y91153D01*
Y91584D01*
X127163D01*
Y91153D01*
D02*
G37*
G36*
X117248Y94171D02*
Y93740D01*
X116817D01*
Y94171D01*
Y94602D01*
X117248D01*
Y94171D01*
D02*
G37*
G36*
X115954D02*
Y93740D01*
Y93309D01*
X115523D01*
Y93740D01*
Y94171D01*
Y94602D01*
X115954D01*
Y94171D01*
D02*
G37*
%LPC*%
G36*
X46116Y102362D02*
X43099D01*
Y101931D01*
X41805D01*
Y101499D01*
X41374D01*
Y101068D01*
X40943D01*
Y100637D01*
X40512D01*
Y100206D01*
X40081D01*
Y99775D01*
Y99344D01*
X39650D01*
Y98913D01*
Y98482D01*
Y98051D01*
Y97620D01*
Y97189D01*
Y96757D01*
Y96326D01*
Y95895D01*
Y95464D01*
Y95033D01*
Y94602D01*
Y94171D01*
X40081D01*
Y93740D01*
Y93309D01*
X40512D01*
Y92878D01*
X40943D01*
Y92446D01*
X41805D01*
Y92015D01*
X45685D01*
Y92446D01*
X46978D01*
Y92878D01*
Y93309D01*
Y93740D01*
Y94171D01*
Y94602D01*
Y95033D01*
Y95464D01*
Y95895D01*
Y96326D01*
Y96757D01*
Y97189D01*
Y97620D01*
Y98051D01*
Y98482D01*
Y98913D01*
Y99344D01*
Y99775D01*
Y100206D01*
Y100637D01*
Y101068D01*
Y101499D01*
Y101931D01*
X46116D01*
Y102362D01*
D02*
G37*
G36*
X68533D02*
X62929D01*
Y101931D01*
X62067D01*
Y101499D01*
X61205D01*
Y101068D01*
X60774D01*
Y100637D01*
X59911D01*
Y100206D01*
X59480D01*
Y99775D01*
Y99344D01*
X59049D01*
Y98913D01*
X58618D01*
Y98482D01*
Y98051D01*
X58187D01*
Y97620D01*
Y97189D01*
X57756D01*
Y96757D01*
Y96326D01*
Y95895D01*
X57325D01*
Y95464D01*
Y95033D01*
Y94602D01*
Y94171D01*
Y93740D01*
Y93309D01*
Y92878D01*
Y92446D01*
Y92015D01*
Y91584D01*
Y91153D01*
Y90722D01*
Y90291D01*
Y89860D01*
Y89429D01*
Y88998D01*
X57756D01*
Y88566D01*
Y88135D01*
Y87704D01*
X58187D01*
Y87273D01*
Y86842D01*
X58618D01*
Y86411D01*
X59049D01*
Y85980D01*
Y85549D01*
X59480D01*
Y85118D01*
X59911D01*
Y84687D01*
X60774D01*
Y84255D01*
X61205D01*
Y83824D01*
X62498D01*
Y83393D01*
X67671D01*
Y83824D01*
X68533D01*
Y84255D01*
X69396D01*
Y84687D01*
X70258D01*
Y85118D01*
X70689D01*
Y85549D01*
X71120D01*
Y85980D01*
X71551D01*
Y86411D01*
Y86842D01*
X71982D01*
Y87273D01*
X72413D01*
Y87704D01*
Y88135D01*
X72844D01*
Y88566D01*
Y88998D01*
X73276D01*
Y89429D01*
Y89860D01*
Y90291D01*
X73707D01*
Y90722D01*
Y91153D01*
Y91584D01*
Y92015D01*
Y92446D01*
Y92878D01*
Y93309D01*
Y93740D01*
Y94171D01*
Y94602D01*
Y95033D01*
Y95464D01*
Y95895D01*
Y96326D01*
Y96757D01*
X73276D01*
Y97189D01*
Y97620D01*
Y98051D01*
X72844D01*
Y98482D01*
Y98913D01*
X72413D01*
Y99344D01*
Y99775D01*
X71982D01*
Y100206D01*
X71551D01*
Y100637D01*
X71120D01*
Y101068D01*
X70258D01*
Y101499D01*
X69827D01*
Y101931D01*
X68533D01*
Y102362D01*
D02*
G37*
G36*
X254455Y79624D02*
X250290D01*
Y79475D01*
Y79326D01*
Y79178D01*
Y79029D01*
Y78880D01*
Y78731D01*
Y78583D01*
Y78434D01*
Y78285D01*
Y78136D01*
Y77988D01*
Y77839D01*
Y77690D01*
Y77542D01*
Y77393D01*
Y77244D01*
Y77095D01*
Y76947D01*
Y76798D01*
Y76649D01*
Y76500D01*
Y76352D01*
Y76203D01*
Y76054D01*
Y75906D01*
Y75757D01*
Y75608D01*
Y75459D01*
X250588D01*
Y75311D01*
X254603D01*
Y75459D01*
X254901D01*
Y75608D01*
X255049D01*
Y75757D01*
X255198D01*
Y75906D01*
X255347D01*
Y76054D01*
Y76203D01*
Y76352D01*
Y76500D01*
Y76649D01*
X255496D01*
Y76798D01*
Y76947D01*
Y77095D01*
Y77244D01*
Y77393D01*
Y77542D01*
Y77690D01*
Y77839D01*
Y77988D01*
Y78136D01*
Y78285D01*
X255347D01*
Y78434D01*
Y78583D01*
Y78731D01*
Y78880D01*
X255198D01*
Y79029D01*
Y79178D01*
X254901D01*
Y79326D01*
X254752D01*
Y79475D01*
X254455D01*
Y79624D01*
D02*
G37*
G36*
X236012Y117252D02*
X194071D01*
Y117104D01*
X193922D01*
Y116955D01*
Y116806D01*
Y116657D01*
Y116509D01*
Y116360D01*
Y116211D01*
Y116062D01*
Y115914D01*
Y115765D01*
Y115616D01*
Y115468D01*
Y115319D01*
Y115170D01*
Y115021D01*
Y114873D01*
Y114724D01*
Y114575D01*
Y114426D01*
Y114278D01*
Y114129D01*
Y113980D01*
Y113831D01*
Y113683D01*
Y113534D01*
Y113385D01*
Y113237D01*
Y113088D01*
Y112939D01*
Y112790D01*
Y112642D01*
Y112493D01*
Y112344D01*
Y112196D01*
Y112047D01*
Y111898D01*
Y111749D01*
Y111600D01*
Y111452D01*
Y111303D01*
Y111154D01*
Y111006D01*
Y110857D01*
Y110708D01*
Y110559D01*
Y110411D01*
Y110262D01*
Y110113D01*
Y109965D01*
Y109816D01*
Y109667D01*
Y109518D01*
Y109370D01*
Y109221D01*
Y109072D01*
Y108923D01*
Y108775D01*
Y108626D01*
Y108477D01*
Y108328D01*
Y108180D01*
Y108031D01*
Y107882D01*
Y107734D01*
Y107585D01*
Y107436D01*
Y107287D01*
Y107139D01*
Y106990D01*
Y106841D01*
Y106693D01*
Y106544D01*
Y106395D01*
Y106246D01*
Y106098D01*
Y105949D01*
Y105800D01*
Y105651D01*
Y105503D01*
Y105354D01*
Y105205D01*
Y105057D01*
Y104908D01*
Y104759D01*
Y104610D01*
Y104462D01*
Y104313D01*
Y104164D01*
Y104015D01*
X194071D01*
Y103867D01*
Y103718D01*
Y103569D01*
X213257D01*
Y103420D01*
Y103272D01*
Y103123D01*
Y102974D01*
X213108D01*
Y102825D01*
Y102677D01*
Y102528D01*
Y102379D01*
Y102231D01*
X212959D01*
Y102082D01*
Y101933D01*
Y101784D01*
Y101636D01*
X212810D01*
Y101487D01*
Y101338D01*
Y101189D01*
Y101041D01*
X212662D01*
Y100892D01*
Y100743D01*
Y100595D01*
X212513D01*
Y100446D01*
Y100297D01*
Y100148D01*
X212364D01*
Y100000D01*
Y99851D01*
X212216D01*
Y99702D01*
Y99554D01*
X212067D01*
Y99405D01*
Y99256D01*
X211918D01*
Y99107D01*
Y98959D01*
X211769D01*
Y98810D01*
Y98661D01*
X211621D01*
Y98512D01*
X211472D01*
Y98364D01*
Y98215D01*
X211323D01*
Y98066D01*
X211175D01*
Y97917D01*
X211026D01*
Y97769D01*
Y97620D01*
X210877D01*
Y97471D01*
X210728D01*
Y97323D01*
X210580D01*
Y97174D01*
X210282D01*
Y97323D01*
X210133D01*
Y97471D01*
X209985D01*
Y97620D01*
X209836D01*
Y97769D01*
X209687D01*
Y97917D01*
X209390D01*
Y98066D01*
X209241D01*
Y98215D01*
X209092D01*
Y98364D01*
X208944D01*
Y98512D01*
X208646D01*
Y98661D01*
X208497D01*
Y98810D01*
X208349D01*
Y98959D01*
X208200D01*
Y99107D01*
X208051D01*
Y99256D01*
X207754D01*
Y99405D01*
X207605D01*
Y99554D01*
X207456D01*
Y99702D01*
X207308D01*
Y99851D01*
X207159D01*
Y100000D01*
X206861D01*
Y100148D01*
X206713D01*
Y100000D01*
X206564D01*
Y99851D01*
X206266D01*
Y99702D01*
X206118D01*
Y99554D01*
X205969D01*
Y99405D01*
X205820D01*
Y99256D01*
X205672D01*
Y99107D01*
X205374D01*
Y98959D01*
X205225D01*
Y98810D01*
X205077D01*
Y98661D01*
X204928D01*
Y98512D01*
X204779D01*
Y98364D01*
X204482D01*
Y98215D01*
X204333D01*
Y98066D01*
X204184D01*
Y97917D01*
X204035D01*
Y97769D01*
X203738D01*
Y97620D01*
X203589D01*
Y97471D01*
X203441D01*
Y97323D01*
X203292D01*
Y97174D01*
X203143D01*
Y97025D01*
X202846D01*
Y96876D01*
X202697D01*
Y96728D01*
X202399D01*
Y96876D01*
X202251D01*
Y97025D01*
X202102D01*
Y97174D01*
X201805D01*
Y97323D01*
X201656D01*
Y97471D01*
X201507D01*
Y97620D01*
X201358D01*
Y97769D01*
X201061D01*
Y97917D01*
X200912D01*
Y98066D01*
X200764D01*
Y98215D01*
X200615D01*
Y98364D01*
X200466D01*
Y98512D01*
X200169D01*
Y98661D01*
X200020D01*
Y98810D01*
X199871D01*
Y98959D01*
X199722D01*
Y99107D01*
X199574D01*
Y99256D01*
X199276D01*
Y99405D01*
X199127D01*
Y99554D01*
X198979D01*
Y99702D01*
X198830D01*
Y99851D01*
X198681D01*
Y100000D01*
X198384D01*
Y100148D01*
X198235D01*
Y100000D01*
X198086D01*
Y99851D01*
X197789D01*
Y99702D01*
X197640D01*
Y99554D01*
X197491D01*
Y99405D01*
X197343D01*
Y99256D01*
X197194D01*
Y99107D01*
X196897D01*
Y98959D01*
X196748D01*
Y98810D01*
X196599D01*
Y98661D01*
X196450D01*
Y98512D01*
X196302D01*
Y98364D01*
X196004D01*
Y98215D01*
X195855D01*
Y98066D01*
X195707D01*
Y97917D01*
X195558D01*
Y97769D01*
X195261D01*
Y97620D01*
X195112D01*
Y97471D01*
X194963D01*
Y97323D01*
X194814D01*
Y97174D01*
X194666D01*
Y97025D01*
X194368D01*
Y96876D01*
X194219D01*
Y96728D01*
X194071D01*
Y96579D01*
X193922D01*
Y96430D01*
Y96281D01*
Y96133D01*
Y95984D01*
Y95835D01*
Y95687D01*
Y95538D01*
Y95389D01*
Y95240D01*
Y95092D01*
X194071D01*
Y95240D01*
X194219D01*
Y95389D01*
X194517D01*
Y95538D01*
X194666D01*
Y95687D01*
X194814D01*
Y95835D01*
X194963D01*
Y95984D01*
X195112D01*
Y96133D01*
X195409D01*
Y96281D01*
X195558D01*
Y96430D01*
X195707D01*
Y96579D01*
X195855D01*
Y96728D01*
X196004D01*
Y96876D01*
X196302D01*
Y97025D01*
X196450D01*
Y97174D01*
X196599D01*
Y97323D01*
X196748D01*
Y97471D01*
X196897D01*
Y97620D01*
X197194D01*
Y97769D01*
X197343D01*
Y97917D01*
X197491D01*
Y98066D01*
X197640D01*
Y98215D01*
X197789D01*
Y98364D01*
X198086D01*
Y98512D01*
X198235D01*
Y98661D01*
X198384D01*
Y98512D01*
X198532D01*
Y98364D01*
X198830D01*
Y98215D01*
X198979D01*
Y98066D01*
X199127D01*
Y97917D01*
X199276D01*
Y97769D01*
X199425D01*
Y97620D01*
X199722D01*
Y97471D01*
X199871D01*
Y97323D01*
X200020D01*
Y97174D01*
X200169D01*
Y97025D01*
X200466D01*
Y96876D01*
X200615D01*
Y96728D01*
X200764D01*
Y96579D01*
X200912D01*
Y96430D01*
X201061D01*
Y96281D01*
X201358D01*
Y96133D01*
X201507D01*
Y95984D01*
X201656D01*
Y95835D01*
X201805D01*
Y95687D01*
X201953D01*
Y95538D01*
X202251D01*
Y95389D01*
X202399D01*
Y95240D01*
X202697D01*
Y95389D01*
X202994D01*
Y95538D01*
X203143D01*
Y95687D01*
X203292D01*
Y95835D01*
X203441D01*
Y95984D01*
X203589D01*
Y96133D01*
X203887D01*
Y96281D01*
X204035D01*
Y96430D01*
X204184D01*
Y96579D01*
X204333D01*
Y96728D01*
X204482D01*
Y96876D01*
X204779D01*
Y97025D01*
X204928D01*
Y97174D01*
X205077D01*
Y97323D01*
X205225D01*
Y97471D01*
X205374D01*
Y97620D01*
X205672D01*
Y97769D01*
X205820D01*
Y97917D01*
X205969D01*
Y98066D01*
X206118D01*
Y98215D01*
X206415D01*
Y98364D01*
X206564D01*
Y98512D01*
X206713D01*
Y98661D01*
X206861D01*
Y98512D01*
X207010D01*
Y98364D01*
X207308D01*
Y98215D01*
X207456D01*
Y98066D01*
X207605D01*
Y97917D01*
X207754D01*
Y97769D01*
X208051D01*
Y97620D01*
X208200D01*
Y97471D01*
X208349D01*
Y97323D01*
X208497D01*
Y97174D01*
X208646D01*
Y97025D01*
X208944D01*
Y96876D01*
X209092D01*
Y96728D01*
X209241D01*
Y96579D01*
X209390D01*
Y96430D01*
X209539D01*
Y96281D01*
X209687D01*
Y96133D01*
Y95984D01*
X209539D01*
Y95835D01*
X209390D01*
Y95687D01*
X209241D01*
Y95538D01*
X208944D01*
Y95687D01*
X208795D01*
Y95835D01*
X208497D01*
Y95984D01*
X208349D01*
Y96133D01*
X208200D01*
Y96281D01*
X208051D01*
Y96430D01*
X207754D01*
Y96579D01*
X207605D01*
Y96728D01*
X207456D01*
Y96876D01*
X207308D01*
Y97025D01*
X207159D01*
Y97174D01*
X206861D01*
Y97323D01*
X206564D01*
Y97174D01*
X206415D01*
Y97025D01*
X206266D01*
Y96876D01*
X205969D01*
Y96728D01*
X205820D01*
Y96579D01*
X205672D01*
Y96430D01*
X205523D01*
Y96281D01*
X205374D01*
Y96133D01*
X205077D01*
Y95984D01*
X204928D01*
Y95835D01*
X204779D01*
Y95687D01*
X204630D01*
Y95538D01*
X204333D01*
Y95389D01*
X204184D01*
Y95240D01*
X204035D01*
Y95092D01*
X203887D01*
Y94943D01*
X203738D01*
Y94794D01*
X203441D01*
Y94645D01*
X203292D01*
Y94497D01*
X203143D01*
Y94348D01*
X202994D01*
Y94199D01*
X202846D01*
Y94051D01*
X202548D01*
Y93902D01*
X202399D01*
Y94051D01*
X202251D01*
Y94199D01*
X202102D01*
Y94348D01*
X201805D01*
Y94497D01*
X201656D01*
Y94645D01*
X201507D01*
Y94794D01*
X201358D01*
Y94943D01*
X201210D01*
Y95092D01*
X200912D01*
Y95240D01*
X200764D01*
Y95389D01*
X200615D01*
Y95538D01*
X200466D01*
Y95687D01*
X200317D01*
Y95835D01*
X200020D01*
Y95984D01*
X199871D01*
Y96133D01*
X199722D01*
Y96281D01*
X199574D01*
Y96430D01*
X199276D01*
Y96579D01*
X199127D01*
Y96728D01*
X198979D01*
Y96876D01*
X198830D01*
Y97025D01*
X198681D01*
Y97174D01*
X198384D01*
Y97323D01*
X198086D01*
Y97174D01*
X197938D01*
Y97025D01*
X197789D01*
Y96876D01*
X197491D01*
Y96728D01*
X197343D01*
Y96579D01*
X197194D01*
Y96430D01*
X197045D01*
Y96281D01*
X196897D01*
Y96133D01*
X196599D01*
Y95984D01*
X196450D01*
Y95835D01*
X196302D01*
Y95687D01*
X196153D01*
Y95538D01*
X195855D01*
Y95389D01*
X195707D01*
Y95240D01*
X195558D01*
Y95092D01*
X195409D01*
Y94943D01*
X195261D01*
Y94794D01*
X194963D01*
Y94645D01*
X194814D01*
Y94497D01*
X194666D01*
Y94348D01*
X194517D01*
Y94199D01*
X194368D01*
Y94051D01*
X194071D01*
Y93902D01*
X193922D01*
Y93753D01*
X193773D01*
Y93604D01*
Y93456D01*
Y93307D01*
Y93158D01*
Y93009D01*
Y92861D01*
Y92712D01*
Y92563D01*
Y92414D01*
X194219D01*
Y92563D01*
X194368D01*
Y92712D01*
X194517D01*
Y92861D01*
X194666D01*
Y93009D01*
X194814D01*
Y93158D01*
X195112D01*
Y93307D01*
X195261D01*
Y93456D01*
X195409D01*
Y93604D01*
X195558D01*
Y93753D01*
X195707D01*
Y93902D01*
X196004D01*
Y94051D01*
X196153D01*
Y94199D01*
X196302D01*
Y94348D01*
X196450D01*
Y94497D01*
X196599D01*
Y94645D01*
X196897D01*
Y94794D01*
X197045D01*
Y94943D01*
X197194D01*
Y95092D01*
X197343D01*
Y95240D01*
X197491D01*
Y95389D01*
X197789D01*
Y95538D01*
X197938D01*
Y95687D01*
X198086D01*
Y95835D01*
X198384D01*
Y95687D01*
X198681D01*
Y95538D01*
X198830D01*
Y95389D01*
X198979D01*
Y95240D01*
X199127D01*
Y95092D01*
X199276D01*
Y94943D01*
X199574D01*
Y94794D01*
X199722D01*
Y94645D01*
X199871D01*
Y94497D01*
X200020D01*
Y94348D01*
X200169D01*
Y94199D01*
X200466D01*
Y94051D01*
X200615D01*
Y93902D01*
X200764D01*
Y93753D01*
X200912D01*
Y93604D01*
X201061D01*
Y93456D01*
X201358D01*
Y93307D01*
X201507D01*
Y93158D01*
X201656D01*
Y93009D01*
X201805D01*
Y92861D01*
X201953D01*
Y92712D01*
X202251D01*
Y92563D01*
X202399D01*
Y92414D01*
X202697D01*
Y92563D01*
X202846D01*
Y92712D01*
X202994D01*
Y92861D01*
X203143D01*
Y93009D01*
X203292D01*
Y93158D01*
X203589D01*
Y93307D01*
X203738D01*
Y93456D01*
X203887D01*
Y93604D01*
X204035D01*
Y93753D01*
X204184D01*
Y93902D01*
X204482D01*
Y94051D01*
X204630D01*
Y94199D01*
X204779D01*
Y94348D01*
X204928D01*
Y94497D01*
X205077D01*
Y94645D01*
X205374D01*
Y94794D01*
X205523D01*
Y94943D01*
X205672D01*
Y95092D01*
X205820D01*
Y95240D01*
X206118D01*
Y95389D01*
X206266D01*
Y95538D01*
X206415D01*
Y95687D01*
X206564D01*
Y95835D01*
X206861D01*
Y95687D01*
X207159D01*
Y95538D01*
X207308D01*
Y95389D01*
X207456D01*
Y95240D01*
X207605D01*
Y95092D01*
X207754D01*
Y94943D01*
X208051D01*
Y94794D01*
X208200D01*
Y94645D01*
X208349D01*
Y94497D01*
X208200D01*
Y94348D01*
X208051D01*
Y94199D01*
X207903D01*
Y94051D01*
X207754D01*
Y93902D01*
X207605D01*
Y93753D01*
X207456D01*
Y93604D01*
X207308D01*
Y93456D01*
X207159D01*
Y93307D01*
X207010D01*
Y93158D01*
X206861D01*
Y93009D01*
X206713D01*
Y92861D01*
X206564D01*
Y92712D01*
X206415D01*
Y92563D01*
X206266D01*
Y92414D01*
X206118D01*
Y92266D01*
X205969D01*
Y92117D01*
X205820D01*
Y91968D01*
X205672D01*
Y91820D01*
X205523D01*
Y91671D01*
X205374D01*
Y91522D01*
X205225D01*
Y91373D01*
X205077D01*
Y91225D01*
X204928D01*
Y91076D01*
X204779D01*
Y90927D01*
X204630D01*
Y90778D01*
X204482D01*
Y90630D01*
X204333D01*
Y90481D01*
X204184D01*
Y90332D01*
X204035D01*
Y90184D01*
X203887D01*
Y90035D01*
X203738D01*
Y89886D01*
X203589D01*
Y89737D01*
X203441D01*
Y89589D01*
X203292D01*
Y89440D01*
X203143D01*
Y89291D01*
X202994D01*
Y89143D01*
X202846D01*
Y88994D01*
X202697D01*
Y88845D01*
X202548D01*
Y88696D01*
X202399D01*
Y88548D01*
X202251D01*
Y88399D01*
X202102D01*
Y88250D01*
X201953D01*
Y88101D01*
X201805D01*
Y87953D01*
X201656D01*
Y87804D01*
X201507D01*
Y87655D01*
X201358D01*
Y87506D01*
X201210D01*
Y87358D01*
X201061D01*
Y87209D01*
X200912D01*
Y87060D01*
X200764D01*
Y86911D01*
X200615D01*
Y86763D01*
Y86614D01*
X200466D01*
Y86465D01*
X200317D01*
Y86317D01*
X200169D01*
Y86168D01*
X200020D01*
Y86019D01*
X199871D01*
Y85870D01*
X199722D01*
Y85722D01*
X199574D01*
Y85573D01*
X199425D01*
Y85424D01*
X199276D01*
Y85276D01*
X199127D01*
Y85127D01*
Y84978D01*
X198979D01*
Y84829D01*
X198830D01*
Y84681D01*
X198681D01*
Y84532D01*
X198532D01*
Y84383D01*
X198384D01*
Y84234D01*
X198235D01*
Y84086D01*
Y83937D01*
X198086D01*
Y83788D01*
X197938D01*
Y83640D01*
X197789D01*
Y83491D01*
X197640D01*
Y83342D01*
Y83193D01*
X197491D01*
Y83045D01*
X197343D01*
Y82896D01*
X197194D01*
Y82747D01*
X197045D01*
Y82598D01*
Y82450D01*
X196897D01*
Y82301D01*
X196748D01*
Y82152D01*
Y82003D01*
X196599D01*
Y81855D01*
X196450D01*
Y81706D01*
X196302D01*
Y81557D01*
Y81409D01*
X196153D01*
Y81260D01*
X196004D01*
Y81111D01*
Y80962D01*
X195855D01*
Y80814D01*
Y80665D01*
X195707D01*
Y80516D01*
X195558D01*
Y80367D01*
Y80219D01*
X195409D01*
Y80070D01*
Y79921D01*
X195261D01*
Y79773D01*
Y79624D01*
X195112D01*
Y79475D01*
Y79326D01*
X194963D01*
Y79178D01*
Y79029D01*
X194814D01*
Y78880D01*
Y78731D01*
X194666D01*
Y78583D01*
Y78434D01*
Y78285D01*
X194517D01*
Y78136D01*
Y77988D01*
X194368D01*
Y77839D01*
Y77690D01*
Y77542D01*
Y77393D01*
X194219D01*
Y77244D01*
Y77095D01*
Y76947D01*
Y76798D01*
X194071D01*
Y76649D01*
Y76500D01*
Y76352D01*
Y76203D01*
Y76054D01*
Y75906D01*
Y75757D01*
Y75608D01*
Y75459D01*
Y75311D01*
Y75162D01*
X236161D01*
Y75311D01*
Y75459D01*
Y75608D01*
X236012D01*
Y75757D01*
Y75906D01*
Y76054D01*
Y76203D01*
Y76352D01*
Y76500D01*
Y76649D01*
Y76798D01*
X235863D01*
Y76947D01*
Y77095D01*
Y77244D01*
Y77393D01*
X235715D01*
Y77542D01*
Y77690D01*
Y77839D01*
Y77988D01*
X235566D01*
Y78136D01*
Y78285D01*
X235417D01*
Y78434D01*
Y78583D01*
Y78731D01*
X235269D01*
Y78880D01*
Y79029D01*
X235120D01*
Y79178D01*
Y79326D01*
X234971D01*
Y79475D01*
Y79624D01*
X234822D01*
Y79773D01*
Y79921D01*
X234674D01*
Y80070D01*
Y80219D01*
X234525D01*
Y80367D01*
Y80516D01*
X234376D01*
Y80665D01*
X234227D01*
Y80814D01*
Y80962D01*
X234079D01*
Y81111D01*
Y81260D01*
X233930D01*
Y81409D01*
X233781D01*
Y81557D01*
Y81706D01*
X233633D01*
Y81855D01*
X233484D01*
Y82003D01*
Y82152D01*
X233335D01*
Y82301D01*
X233186D01*
Y82450D01*
X233038D01*
Y82598D01*
Y82747D01*
X232889D01*
Y82896D01*
X232740D01*
Y83045D01*
X232592D01*
Y83193D01*
Y83342D01*
X232443D01*
Y83491D01*
X232294D01*
Y83640D01*
X232145D01*
Y83788D01*
X231997D01*
Y83937D01*
Y84086D01*
X231848D01*
Y84234D01*
X231699D01*
Y84383D01*
X231550D01*
Y84532D01*
X231402D01*
Y84681D01*
X231253D01*
Y84829D01*
X231104D01*
Y84978D01*
Y85127D01*
X230956D01*
Y85276D01*
X230807D01*
Y85424D01*
X230658D01*
Y85573D01*
X230509D01*
Y85722D01*
X230361D01*
Y85870D01*
X230212D01*
Y86019D01*
X230063D01*
Y86168D01*
X229914D01*
Y86317D01*
X229766D01*
Y86465D01*
Y86614D01*
X229617D01*
Y86763D01*
X229468D01*
Y86911D01*
X229319D01*
Y87060D01*
X229171D01*
Y87209D01*
X229022D01*
Y87358D01*
X228873D01*
Y87506D01*
X228725D01*
Y87655D01*
X228576D01*
Y87804D01*
X228427D01*
Y87953D01*
X228278D01*
Y88101D01*
X228130D01*
Y88250D01*
X227981D01*
Y88399D01*
X227832D01*
Y88548D01*
X227683D01*
Y88696D01*
X227535D01*
Y88845D01*
X227386D01*
Y88994D01*
X227237D01*
Y89143D01*
X227088D01*
Y89291D01*
X226940D01*
Y89440D01*
X226791D01*
Y89589D01*
X226642D01*
Y89737D01*
X226494D01*
Y89886D01*
X226345D01*
Y90035D01*
X226196D01*
Y90184D01*
X226047D01*
Y90332D01*
X225899D01*
Y90481D01*
X225750D01*
Y90630D01*
X225601D01*
Y90778D01*
X225452D01*
Y90927D01*
X225304D01*
Y91076D01*
X225155D01*
Y91225D01*
X225006D01*
Y91373D01*
X224858D01*
Y91522D01*
X224709D01*
Y91671D01*
X224560D01*
Y91820D01*
X224411D01*
Y91968D01*
X224263D01*
Y92117D01*
X224114D01*
Y92266D01*
X223965D01*
Y92414D01*
X223816D01*
Y92563D01*
X223668D01*
Y92712D01*
X223519D01*
Y92861D01*
X223370D01*
Y93009D01*
X223221D01*
Y93158D01*
X223073D01*
Y93307D01*
X222924D01*
Y93456D01*
X222775D01*
Y93604D01*
X222627D01*
Y93753D01*
X222478D01*
Y93902D01*
X222329D01*
Y94051D01*
X222180D01*
Y94199D01*
X222032D01*
Y94348D01*
Y94497D01*
X221883D01*
Y94645D01*
X221734D01*
Y94794D01*
X221883D01*
Y94943D01*
X222032D01*
Y95092D01*
X222329D01*
Y95240D01*
X222478D01*
Y95389D01*
X222627D01*
Y95538D01*
X222775D01*
Y95687D01*
X222924D01*
Y95835D01*
X223370D01*
Y95687D01*
X223519D01*
Y95538D01*
X223668D01*
Y95389D01*
X223816D01*
Y95240D01*
X224114D01*
Y95092D01*
X224263D01*
Y94943D01*
X224411D01*
Y94794D01*
X224560D01*
Y94645D01*
X224709D01*
Y94497D01*
X225006D01*
Y94348D01*
X225155D01*
Y94199D01*
X225304D01*
Y94051D01*
X225452D01*
Y93902D01*
X225601D01*
Y93753D01*
X225899D01*
Y93604D01*
X226047D01*
Y93456D01*
X226196D01*
Y93307D01*
X226345D01*
Y93158D01*
X226494D01*
Y93009D01*
X226791D01*
Y92861D01*
X226940D01*
Y92712D01*
X227088D01*
Y92563D01*
X227237D01*
Y92414D01*
X227535D01*
Y92563D01*
X227683D01*
Y92712D01*
X227832D01*
Y92861D01*
X227981D01*
Y93009D01*
X228278D01*
Y93158D01*
X228427D01*
Y93307D01*
X228576D01*
Y93456D01*
X228725D01*
Y93604D01*
X228873D01*
Y93753D01*
X229171D01*
Y93902D01*
X229319D01*
Y94051D01*
X229468D01*
Y94199D01*
X229617D01*
Y94348D01*
X229914D01*
Y94497D01*
X230063D01*
Y94645D01*
X230212D01*
Y94794D01*
X230361D01*
Y94943D01*
X230509D01*
Y95092D01*
X230807D01*
Y95240D01*
X230956D01*
Y95389D01*
X231104D01*
Y95538D01*
X231253D01*
Y95687D01*
X231402D01*
Y95835D01*
X231848D01*
Y95687D01*
X231997D01*
Y95538D01*
X232145D01*
Y95389D01*
X232294D01*
Y95240D01*
X232592D01*
Y95092D01*
X232740D01*
Y94943D01*
X232889D01*
Y94794D01*
X233038D01*
Y94645D01*
X233186D01*
Y94497D01*
X233484D01*
Y94348D01*
X233633D01*
Y94199D01*
X233781D01*
Y94051D01*
X233930D01*
Y93902D01*
X234079D01*
Y93753D01*
X234376D01*
Y93604D01*
X234525D01*
Y93456D01*
X234674D01*
Y93307D01*
X234822D01*
Y93158D01*
X234971D01*
Y93009D01*
X235269D01*
Y92861D01*
X235417D01*
Y92712D01*
X235566D01*
Y92563D01*
X235715D01*
Y92414D01*
X236012D01*
Y92563D01*
Y92712D01*
Y92861D01*
Y93009D01*
Y93158D01*
Y93307D01*
Y93456D01*
Y93604D01*
Y93753D01*
Y93902D01*
X235715D01*
Y94051D01*
X235566D01*
Y94199D01*
X235417D01*
Y94348D01*
X235269D01*
Y94497D01*
X235120D01*
Y94645D01*
X234822D01*
Y94794D01*
X234674D01*
Y94943D01*
X234525D01*
Y95092D01*
X234376D01*
Y95240D01*
X234227D01*
Y95389D01*
X233930D01*
Y95538D01*
X233781D01*
Y95687D01*
X233633D01*
Y95835D01*
X233484D01*
Y95984D01*
X233186D01*
Y96133D01*
X233038D01*
Y96281D01*
X232889D01*
Y96430D01*
X232740D01*
Y96579D01*
X232592D01*
Y96728D01*
X232294D01*
Y96876D01*
X232145D01*
Y97025D01*
X231997D01*
Y97174D01*
X231848D01*
Y97323D01*
X231402D01*
Y97174D01*
X231253D01*
Y97025D01*
X231104D01*
Y96876D01*
X230956D01*
Y96728D01*
X230658D01*
Y96579D01*
X230509D01*
Y96430D01*
X230361D01*
Y96281D01*
X230212D01*
Y96133D01*
X230063D01*
Y95984D01*
X229766D01*
Y95835D01*
X229617D01*
Y95687D01*
X229468D01*
Y95538D01*
X229319D01*
Y95389D01*
X229171D01*
Y95240D01*
X228873D01*
Y95092D01*
X228725D01*
Y94943D01*
X228576D01*
Y94794D01*
X228427D01*
Y94645D01*
X228278D01*
Y94497D01*
X227981D01*
Y94348D01*
X227832D01*
Y94199D01*
X227683D01*
Y94051D01*
X227535D01*
Y93902D01*
X227237D01*
Y94051D01*
X227088D01*
Y94199D01*
X226940D01*
Y94348D01*
X226791D01*
Y94497D01*
X226642D01*
Y94645D01*
X226345D01*
Y94794D01*
X226196D01*
Y94943D01*
X226047D01*
Y95092D01*
X225899D01*
Y95240D01*
X225750D01*
Y95389D01*
X225452D01*
Y95538D01*
X225304D01*
Y95687D01*
X225155D01*
Y95835D01*
X225006D01*
Y95984D01*
X224709D01*
Y96133D01*
X224560D01*
Y96281D01*
X224411D01*
Y96430D01*
X224263D01*
Y96579D01*
X224114D01*
Y96728D01*
X223816D01*
Y96876D01*
X223668D01*
Y97025D01*
X223519D01*
Y97174D01*
X223370D01*
Y97323D01*
X222924D01*
Y97174D01*
X222775D01*
Y97025D01*
X222627D01*
Y96876D01*
X222478D01*
Y96728D01*
X222180D01*
Y96579D01*
X222032D01*
Y96430D01*
X221883D01*
Y96281D01*
X221734D01*
Y96133D01*
X221585D01*
Y95984D01*
X221288D01*
Y95835D01*
X221139D01*
Y95687D01*
X220991D01*
Y95538D01*
X220842D01*
Y95687D01*
X220693D01*
Y95835D01*
X220544D01*
Y95984D01*
Y96133D01*
X220396D01*
Y96281D01*
X220247D01*
Y96430D01*
X220544D01*
Y96579D01*
X220693D01*
Y96728D01*
X220842D01*
Y96876D01*
X220991D01*
Y97025D01*
X221139D01*
Y97174D01*
X221437D01*
Y97323D01*
X221585D01*
Y97471D01*
X221734D01*
Y97620D01*
X221883D01*
Y97769D01*
X222032D01*
Y97917D01*
X222329D01*
Y98066D01*
X222478D01*
Y98215D01*
X222627D01*
Y98364D01*
X222775D01*
Y98512D01*
X222924D01*
Y98661D01*
X223221D01*
Y98512D01*
X223370D01*
Y98364D01*
X223519D01*
Y98215D01*
X223668D01*
Y98066D01*
X223965D01*
Y97917D01*
X224114D01*
Y97769D01*
X224263D01*
Y97620D01*
X224411D01*
Y97471D01*
X224709D01*
Y97323D01*
X224858D01*
Y97174D01*
X225006D01*
Y97025D01*
X225155D01*
Y96876D01*
X225304D01*
Y96728D01*
X225601D01*
Y96579D01*
X225750D01*
Y96430D01*
X225899D01*
Y96281D01*
X226047D01*
Y96133D01*
X226196D01*
Y95984D01*
X226494D01*
Y95835D01*
X226642D01*
Y95687D01*
X226791D01*
Y95538D01*
X226940D01*
Y95389D01*
X227088D01*
Y95240D01*
X227535D01*
Y95389D01*
X227683D01*
Y95538D01*
X227832D01*
Y95687D01*
X228130D01*
Y95835D01*
X228278D01*
Y95984D01*
X228427D01*
Y96133D01*
X228576D01*
Y96281D01*
X228725D01*
Y96430D01*
X229022D01*
Y96579D01*
X229171D01*
Y96728D01*
X229319D01*
Y96876D01*
X229468D01*
Y97025D01*
X229617D01*
Y97174D01*
X229914D01*
Y97323D01*
X230063D01*
Y97471D01*
X230212D01*
Y97620D01*
X230361D01*
Y97769D01*
X230509D01*
Y97917D01*
X230807D01*
Y98066D01*
X230956D01*
Y98215D01*
X231104D01*
Y98364D01*
X231253D01*
Y98512D01*
X231402D01*
Y98661D01*
X231699D01*
Y98512D01*
X231848D01*
Y98364D01*
X231997D01*
Y98215D01*
X232294D01*
Y98066D01*
X232443D01*
Y97917D01*
X232592D01*
Y97769D01*
X232740D01*
Y97620D01*
X232889D01*
Y97471D01*
X233186D01*
Y97323D01*
X233335D01*
Y97174D01*
X233484D01*
Y97025D01*
X233633D01*
Y96876D01*
X233781D01*
Y96728D01*
X234079D01*
Y96579D01*
X234227D01*
Y96430D01*
X234376D01*
Y96281D01*
X234525D01*
Y96133D01*
X234674D01*
Y95984D01*
X234971D01*
Y95835D01*
X235120D01*
Y95687D01*
X235269D01*
Y95538D01*
X235417D01*
Y95389D01*
X235566D01*
Y95240D01*
X235863D01*
Y95092D01*
X236012D01*
Y95240D01*
Y95389D01*
Y95538D01*
Y95687D01*
Y95835D01*
Y95984D01*
Y96133D01*
Y96281D01*
Y96430D01*
Y96579D01*
X235863D01*
Y96728D01*
X235715D01*
Y96876D01*
X235417D01*
Y97025D01*
X235269D01*
Y97174D01*
X235120D01*
Y97323D01*
X234971D01*
Y97471D01*
X234822D01*
Y97620D01*
X234525D01*
Y97769D01*
X234376D01*
Y97917D01*
X234227D01*
Y98066D01*
X234079D01*
Y98215D01*
X233930D01*
Y98364D01*
X233633D01*
Y98512D01*
X233484D01*
Y98661D01*
X233335D01*
Y98810D01*
X233186D01*
Y98959D01*
X232889D01*
Y99107D01*
X232740D01*
Y99256D01*
X232592D01*
Y99405D01*
X232443D01*
Y99554D01*
X232294D01*
Y99702D01*
X231997D01*
Y99851D01*
X231848D01*
Y100000D01*
X231699D01*
Y100148D01*
X231402D01*
Y100000D01*
X231253D01*
Y99851D01*
X231104D01*
Y99702D01*
X230956D01*
Y99554D01*
X230807D01*
Y99405D01*
X230509D01*
Y99256D01*
X230361D01*
Y99107D01*
X230212D01*
Y98959D01*
X230063D01*
Y98810D01*
X229914D01*
Y98661D01*
X229617D01*
Y98512D01*
X229468D01*
Y98364D01*
X229319D01*
Y98215D01*
X229171D01*
Y98066D01*
X228873D01*
Y97917D01*
X228725D01*
Y97769D01*
X228576D01*
Y97620D01*
X228427D01*
Y97471D01*
X228278D01*
Y97323D01*
X227981D01*
Y97174D01*
X227832D01*
Y97025D01*
X227683D01*
Y96876D01*
X227535D01*
Y96728D01*
X227237D01*
Y96876D01*
X226940D01*
Y97025D01*
X226791D01*
Y97174D01*
X226642D01*
Y97323D01*
X226494D01*
Y97471D01*
X226345D01*
Y97620D01*
X226047D01*
Y97769D01*
X225899D01*
Y97917D01*
X225750D01*
Y98066D01*
X225601D01*
Y98215D01*
X225452D01*
Y98364D01*
X225155D01*
Y98512D01*
X225006D01*
Y98661D01*
X224858D01*
Y98810D01*
X224709D01*
Y98959D01*
X224411D01*
Y99107D01*
X224263D01*
Y99256D01*
X224114D01*
Y99405D01*
X223965D01*
Y99554D01*
X223816D01*
Y99702D01*
X223519D01*
Y99851D01*
X223370D01*
Y100000D01*
X223221D01*
Y100148D01*
X222924D01*
Y100000D01*
X222775D01*
Y99851D01*
X222627D01*
Y99702D01*
X222478D01*
Y99554D01*
X222329D01*
Y99405D01*
X222032D01*
Y99256D01*
X221883D01*
Y99107D01*
X221734D01*
Y98959D01*
X221585D01*
Y98810D01*
X221288D01*
Y98661D01*
X221139D01*
Y98512D01*
X220991D01*
Y98364D01*
X220842D01*
Y98215D01*
X220693D01*
Y98066D01*
X220396D01*
Y97917D01*
X220247D01*
Y97769D01*
X220098D01*
Y97620D01*
X219950D01*
Y97471D01*
X219801D01*
Y97323D01*
X219355D01*
Y97471D01*
X219206D01*
Y97620D01*
Y97769D01*
X219057D01*
Y97917D01*
X218908D01*
Y98066D01*
X218760D01*
Y98215D01*
Y98364D01*
X218611D01*
Y98512D01*
X218462D01*
Y98661D01*
Y98810D01*
X218314D01*
Y98959D01*
Y99107D01*
X218165D01*
Y99256D01*
X218016D01*
Y99405D01*
Y99554D01*
X217867D01*
Y99702D01*
Y99851D01*
X217719D01*
Y100000D01*
Y100148D01*
Y100297D01*
X217570D01*
Y100446D01*
Y100595D01*
Y100743D01*
X217421D01*
Y100892D01*
Y101041D01*
Y101189D01*
X217272D01*
Y101338D01*
Y101487D01*
Y101636D01*
Y101784D01*
Y101933D01*
X217124D01*
Y102082D01*
Y102231D01*
Y102379D01*
Y102528D01*
X216975D01*
Y102677D01*
Y102825D01*
Y102974D01*
Y103123D01*
Y103272D01*
X216826D01*
Y103420D01*
Y103569D01*
X236012D01*
Y103718D01*
Y103867D01*
Y104015D01*
Y104164D01*
Y104313D01*
Y104462D01*
Y104610D01*
Y104759D01*
Y104908D01*
Y105057D01*
Y105205D01*
Y105354D01*
Y105503D01*
Y105651D01*
Y105800D01*
Y105949D01*
Y106098D01*
Y106246D01*
Y106395D01*
Y106544D01*
Y106693D01*
Y106841D01*
Y106990D01*
Y107139D01*
Y107287D01*
Y107436D01*
Y107585D01*
Y107734D01*
Y107882D01*
Y108031D01*
Y108180D01*
Y108328D01*
Y108477D01*
Y108626D01*
Y108775D01*
Y108923D01*
Y109072D01*
Y109221D01*
Y109370D01*
Y109518D01*
Y109667D01*
Y109816D01*
Y109965D01*
Y110113D01*
Y110262D01*
Y110411D01*
Y110559D01*
Y110708D01*
Y110857D01*
Y111006D01*
Y111154D01*
Y111303D01*
Y111452D01*
Y111600D01*
Y111749D01*
Y111898D01*
Y112047D01*
Y112196D01*
Y112344D01*
Y112493D01*
Y112642D01*
Y112790D01*
Y112939D01*
Y113088D01*
Y113237D01*
Y113385D01*
Y113534D01*
Y113683D01*
Y113831D01*
Y113980D01*
Y114129D01*
Y114278D01*
Y114426D01*
Y114575D01*
Y114724D01*
Y114873D01*
Y115021D01*
Y115170D01*
Y115319D01*
Y115468D01*
Y115616D01*
Y115765D01*
Y115914D01*
Y116062D01*
Y116211D01*
Y116360D01*
Y116509D01*
Y116657D01*
Y116806D01*
Y116955D01*
Y117104D01*
Y117252D01*
D02*
G37*
%LPD*%
G36*
X215190Y109965D02*
Y109816D01*
Y109667D01*
Y109518D01*
Y109370D01*
Y109221D01*
Y109072D01*
Y108923D01*
X215339D01*
Y108775D01*
Y108626D01*
Y108477D01*
Y108328D01*
Y108180D01*
Y108031D01*
Y107882D01*
X215488D01*
Y107734D01*
Y107585D01*
Y107436D01*
Y107287D01*
Y107139D01*
Y106990D01*
Y106841D01*
X215636D01*
Y106693D01*
Y106544D01*
Y106395D01*
Y106246D01*
Y106098D01*
Y105949D01*
Y105800D01*
X215785D01*
Y105651D01*
Y105503D01*
Y105354D01*
Y105205D01*
Y105057D01*
Y104908D01*
X215934D01*
Y104759D01*
Y104610D01*
Y104462D01*
Y104313D01*
Y104164D01*
Y104015D01*
X216083D01*
Y103867D01*
Y103718D01*
Y103569D01*
Y103420D01*
Y103272D01*
X216231D01*
Y103123D01*
Y102974D01*
Y102825D01*
Y102677D01*
Y102528D01*
X216380D01*
Y102379D01*
Y102231D01*
Y102082D01*
Y101933D01*
X216529D01*
Y101784D01*
Y101636D01*
Y101487D01*
Y101338D01*
Y101189D01*
X216677D01*
Y101041D01*
Y100892D01*
Y100743D01*
X216826D01*
Y100595D01*
Y100446D01*
Y100297D01*
Y100148D01*
X216975D01*
Y100000D01*
Y99851D01*
X217124D01*
Y99702D01*
Y99554D01*
X217272D01*
Y99405D01*
Y99256D01*
Y99107D01*
X217421D01*
Y98959D01*
X217570D01*
Y98810D01*
Y98661D01*
X217719D01*
Y98512D01*
Y98364D01*
X217867D01*
Y98215D01*
X218016D01*
Y98066D01*
Y97917D01*
X218165D01*
Y97769D01*
X218314D01*
Y97620D01*
Y97471D01*
X218462D01*
Y97323D01*
X218611D01*
Y97174D01*
X218760D01*
Y97025D01*
Y96876D01*
X218908D01*
Y96728D01*
X219057D01*
Y96579D01*
X219206D01*
Y96430D01*
X219355D01*
Y96281D01*
Y96133D01*
X219503D01*
Y95984D01*
X219652D01*
Y95835D01*
X219801D01*
Y95687D01*
X219950D01*
Y95538D01*
X220098D01*
Y95389D01*
X220247D01*
Y95240D01*
Y95092D01*
X220396D01*
Y94943D01*
X220544D01*
Y94794D01*
X220693D01*
Y94645D01*
X220842D01*
Y94497D01*
X220991D01*
Y94348D01*
X221139D01*
Y94199D01*
X221288D01*
Y94051D01*
X221437D01*
Y93902D01*
X221585D01*
Y93753D01*
X221734D01*
Y93604D01*
X221883D01*
Y93456D01*
X222032D01*
Y93307D01*
X222180D01*
Y93158D01*
X222329D01*
Y93009D01*
Y92861D01*
X222478D01*
Y92712D01*
X222627D01*
Y92563D01*
X222775D01*
Y92414D01*
X222924D01*
Y92266D01*
X223073D01*
Y92117D01*
X223221D01*
Y91968D01*
X223370D01*
Y91820D01*
X223519D01*
Y91671D01*
X223668D01*
Y91522D01*
X223816D01*
Y91373D01*
X223965D01*
Y91225D01*
X224114D01*
Y91076D01*
X224263D01*
Y90927D01*
X224411D01*
Y90778D01*
X224560D01*
Y90630D01*
X224709D01*
Y90481D01*
X224858D01*
Y90332D01*
X225006D01*
Y90184D01*
X225155D01*
Y90035D01*
X225304D01*
Y89886D01*
X225452D01*
Y89737D01*
X225601D01*
Y89589D01*
X225750D01*
Y89440D01*
X225899D01*
Y89291D01*
X226047D01*
Y89143D01*
X226196D01*
Y88994D01*
X226345D01*
Y88845D01*
X226494D01*
Y88696D01*
X226642D01*
Y88548D01*
X226791D01*
Y88399D01*
X226940D01*
Y88250D01*
X227088D01*
Y88101D01*
X227237D01*
Y87953D01*
X227386D01*
Y87804D01*
X227535D01*
Y87655D01*
X227683D01*
Y87506D01*
X227832D01*
Y87358D01*
X227981D01*
Y87209D01*
X228130D01*
Y87060D01*
X228278D01*
Y86911D01*
X228427D01*
Y86763D01*
X228576D01*
Y86614D01*
X228725D01*
Y86465D01*
X228873D01*
Y86317D01*
X229022D01*
Y86168D01*
X229171D01*
Y86019D01*
X229319D01*
Y85870D01*
X229468D01*
Y85722D01*
X229617D01*
Y85573D01*
Y85424D01*
X229766D01*
Y85276D01*
X229914D01*
Y85127D01*
X230063D01*
Y84978D01*
X230212D01*
Y84829D01*
X230361D01*
Y84681D01*
X230509D01*
Y84532D01*
X230658D01*
Y84383D01*
X230807D01*
Y84234D01*
Y84086D01*
X230956D01*
Y83937D01*
X231104D01*
Y83788D01*
X231253D01*
Y83640D01*
X231402D01*
Y83491D01*
X231550D01*
Y83342D01*
Y83193D01*
X231699D01*
Y83045D01*
X231848D01*
Y82896D01*
X231997D01*
Y82747D01*
X232145D01*
Y82598D01*
Y82450D01*
X232294D01*
Y82301D01*
X232443D01*
Y82152D01*
X232592D01*
Y82003D01*
Y81855D01*
X232740D01*
Y81706D01*
X232889D01*
Y81557D01*
Y81409D01*
X233038D01*
Y81260D01*
X233186D01*
Y81111D01*
Y80962D01*
X233335D01*
Y80814D01*
X233484D01*
Y80665D01*
Y80516D01*
X233633D01*
Y80367D01*
X233781D01*
Y80219D01*
Y80070D01*
X233930D01*
Y79921D01*
Y79773D01*
X234079D01*
Y79624D01*
Y79475D01*
X234227D01*
Y79326D01*
X234376D01*
Y79178D01*
Y79029D01*
Y78880D01*
X234525D01*
Y78731D01*
Y78583D01*
X234674D01*
Y78434D01*
Y78285D01*
X234822D01*
Y78136D01*
Y77988D01*
Y77839D01*
X234971D01*
Y77690D01*
Y77542D01*
Y77393D01*
X235120D01*
Y77244D01*
Y77095D01*
Y76947D01*
Y76798D01*
X235269D01*
Y76649D01*
Y76500D01*
Y76352D01*
Y76203D01*
Y76054D01*
Y75906D01*
X235417D01*
Y75757D01*
X231848D01*
Y75906D01*
Y76054D01*
X231699D01*
Y76203D01*
Y76352D01*
Y76500D01*
Y76649D01*
Y76798D01*
Y76947D01*
Y77095D01*
Y77244D01*
Y77393D01*
X231550D01*
Y77542D01*
Y77690D01*
Y77839D01*
Y77988D01*
Y78136D01*
X231402D01*
Y78285D01*
Y78434D01*
Y78583D01*
Y78731D01*
X231253D01*
Y78880D01*
Y79029D01*
Y79178D01*
X231104D01*
Y79326D01*
Y79475D01*
Y79624D01*
X230956D01*
Y79773D01*
Y79921D01*
X230807D01*
Y80070D01*
Y80219D01*
Y80367D01*
X230658D01*
Y80516D01*
Y80665D01*
X230509D01*
Y80814D01*
Y80962D01*
X230361D01*
Y81111D01*
Y81260D01*
X230212D01*
Y81409D01*
Y81557D01*
X230063D01*
Y81706D01*
X229914D01*
Y81855D01*
Y82003D01*
X229766D01*
Y82152D01*
X229617D01*
Y82301D01*
Y82450D01*
X229468D01*
Y82598D01*
X229319D01*
Y82747D01*
Y82896D01*
X229171D01*
Y83045D01*
X229022D01*
Y83193D01*
X228873D01*
Y83342D01*
X228725D01*
Y83491D01*
Y83640D01*
X228576D01*
Y83788D01*
X228427D01*
Y83937D01*
X228278D01*
Y84086D01*
X228130D01*
Y84234D01*
X227981D01*
Y84383D01*
X227832D01*
Y84532D01*
X227683D01*
Y84681D01*
X227535D01*
Y84829D01*
X227386D01*
Y84978D01*
X227237D01*
Y85127D01*
X227088D01*
Y85276D01*
X226791D01*
Y85424D01*
X226642D01*
Y85573D01*
X226494D01*
Y85722D01*
X226345D01*
Y85870D01*
X226047D01*
Y86019D01*
X225899D01*
Y86168D01*
X225750D01*
Y86317D01*
X225452D01*
Y86465D01*
X225304D01*
Y86614D01*
X225006D01*
Y86763D01*
X224709D01*
Y86911D01*
X224560D01*
Y87060D01*
X224263D01*
Y87209D01*
X223965D01*
Y87358D01*
X223668D01*
Y87506D01*
X223370D01*
Y87655D01*
X223073D01*
Y87804D01*
X222775D01*
Y87953D01*
X222329D01*
Y88101D01*
X222032D01*
Y88250D01*
X221585D01*
Y88399D01*
X221139D01*
Y88548D01*
X220693D01*
Y88696D01*
X220098D01*
Y88845D01*
X219503D01*
Y88994D01*
X218908D01*
Y89143D01*
X218016D01*
Y89291D01*
X216677D01*
Y89440D01*
X213405D01*
Y89291D01*
X212067D01*
Y89143D01*
X211175D01*
Y88994D01*
X210580D01*
Y88845D01*
X209985D01*
Y88696D01*
X209390D01*
Y88548D01*
X208944D01*
Y88399D01*
X208497D01*
Y88250D01*
X208051D01*
Y88101D01*
X207754D01*
Y87953D01*
X207308D01*
Y87804D01*
X207010D01*
Y87655D01*
X206713D01*
Y87506D01*
X206415D01*
Y87358D01*
X206118D01*
Y87209D01*
X205820D01*
Y87060D01*
X205523D01*
Y86911D01*
X205374D01*
Y86763D01*
X205077D01*
Y86614D01*
X204779D01*
Y86465D01*
X204630D01*
Y86317D01*
X204333D01*
Y86168D01*
X204184D01*
Y86019D01*
X204035D01*
Y85870D01*
X203738D01*
Y85722D01*
X203589D01*
Y85573D01*
X203441D01*
Y85424D01*
X203292D01*
Y85276D01*
X202994D01*
Y85127D01*
X202846D01*
Y84978D01*
X202697D01*
Y84829D01*
X202548D01*
Y84681D01*
X202399D01*
Y84532D01*
X202251D01*
Y84383D01*
X202102D01*
Y84234D01*
X201953D01*
Y84086D01*
X201805D01*
Y83937D01*
X201656D01*
Y83788D01*
X201507D01*
Y83640D01*
X201358D01*
Y83491D01*
Y83342D01*
X201210D01*
Y83193D01*
X201061D01*
Y83045D01*
X200912D01*
Y82896D01*
X200764D01*
Y82747D01*
Y82598D01*
X200615D01*
Y82450D01*
X200466D01*
Y82301D01*
Y82152D01*
X200317D01*
Y82003D01*
X200169D01*
Y81855D01*
Y81706D01*
X200020D01*
Y81557D01*
X199871D01*
Y81409D01*
Y81260D01*
X199722D01*
Y81111D01*
Y80962D01*
X199574D01*
Y80814D01*
Y80665D01*
X199425D01*
Y80516D01*
Y80367D01*
X199276D01*
Y80219D01*
Y80070D01*
Y79921D01*
X199127D01*
Y79773D01*
Y79624D01*
X198979D01*
Y79475D01*
Y79326D01*
Y79178D01*
X198830D01*
Y79029D01*
Y78880D01*
Y78731D01*
X198681D01*
Y78583D01*
Y78434D01*
Y78285D01*
Y78136D01*
X198532D01*
Y77988D01*
Y77839D01*
Y77690D01*
Y77542D01*
Y77393D01*
X198384D01*
Y77244D01*
Y77095D01*
Y76947D01*
Y76798D01*
Y76649D01*
Y76500D01*
Y76352D01*
Y76203D01*
Y76054D01*
Y75906D01*
X198235D01*
Y75757D01*
X194814D01*
Y75906D01*
Y76054D01*
Y76203D01*
Y76352D01*
Y76500D01*
Y76649D01*
Y76798D01*
X194963D01*
Y76947D01*
Y77095D01*
Y77244D01*
Y77393D01*
X195112D01*
Y77542D01*
Y77690D01*
Y77839D01*
X195261D01*
Y77988D01*
Y78136D01*
Y78285D01*
X195409D01*
Y78434D01*
Y78583D01*
X195558D01*
Y78731D01*
Y78880D01*
X195707D01*
Y79029D01*
Y79178D01*
X195855D01*
Y79326D01*
Y79475D01*
X196004D01*
Y79624D01*
Y79773D01*
X196153D01*
Y79921D01*
Y80070D01*
X196302D01*
Y80219D01*
Y80367D01*
X196450D01*
Y80516D01*
X196599D01*
Y80665D01*
Y80814D01*
X196748D01*
Y80962D01*
X196897D01*
Y81111D01*
Y81260D01*
X197045D01*
Y81409D01*
X197194D01*
Y81557D01*
Y81706D01*
X197343D01*
Y81855D01*
X197491D01*
Y82003D01*
Y82152D01*
X197640D01*
Y82301D01*
X197789D01*
Y82450D01*
X197938D01*
Y82598D01*
Y82747D01*
X198086D01*
Y82896D01*
X198235D01*
Y83045D01*
X198384D01*
Y83193D01*
X198532D01*
Y83342D01*
Y83491D01*
X198681D01*
Y83640D01*
X198830D01*
Y83788D01*
X198979D01*
Y83937D01*
X199127D01*
Y84086D01*
X199276D01*
Y84234D01*
X199425D01*
Y84383D01*
Y84532D01*
X199574D01*
Y84681D01*
X199722D01*
Y84829D01*
X199871D01*
Y84978D01*
X200020D01*
Y85127D01*
X200169D01*
Y85276D01*
X200317D01*
Y85424D01*
X200466D01*
Y85573D01*
X200615D01*
Y85722D01*
Y85870D01*
X200764D01*
Y86019D01*
X200912D01*
Y86168D01*
X201061D01*
Y86317D01*
X201210D01*
Y86465D01*
X201358D01*
Y86614D01*
X201507D01*
Y86763D01*
X201656D01*
Y86911D01*
X201805D01*
Y87060D01*
X201953D01*
Y87209D01*
X202102D01*
Y87358D01*
X202251D01*
Y87506D01*
X202399D01*
Y87655D01*
X202548D01*
Y87804D01*
X202697D01*
Y87953D01*
X202846D01*
Y88101D01*
X202994D01*
Y88250D01*
X203143D01*
Y88399D01*
X203292D01*
Y88548D01*
X203441D01*
Y88696D01*
X203589D01*
Y88845D01*
X203738D01*
Y88994D01*
X203887D01*
Y89143D01*
X204035D01*
Y89291D01*
X204184D01*
Y89440D01*
X204333D01*
Y89589D01*
X204482D01*
Y89737D01*
X204630D01*
Y89886D01*
X204779D01*
Y90035D01*
X204928D01*
Y90184D01*
X205077D01*
Y90332D01*
X205225D01*
Y90481D01*
X205374D01*
Y90630D01*
X205523D01*
Y90778D01*
X205672D01*
Y90927D01*
X205820D01*
Y91076D01*
X205969D01*
Y91225D01*
X206118D01*
Y91373D01*
X206266D01*
Y91522D01*
X206415D01*
Y91671D01*
X206564D01*
Y91820D01*
X206713D01*
Y91968D01*
X206861D01*
Y92117D01*
X207010D01*
Y92266D01*
X207159D01*
Y92414D01*
X207308D01*
Y92563D01*
X207456D01*
Y92712D01*
X207605D01*
Y92861D01*
X207754D01*
Y93009D01*
X207903D01*
Y93158D01*
X208051D01*
Y93307D01*
X208200D01*
Y93456D01*
X208349D01*
Y93604D01*
X208497D01*
Y93753D01*
X208646D01*
Y93902D01*
X208795D01*
Y94051D01*
Y94199D01*
X208944D01*
Y94348D01*
X209092D01*
Y94497D01*
X209241D01*
Y94645D01*
X209390D01*
Y94794D01*
X209539D01*
Y94943D01*
X209687D01*
Y95092D01*
X209836D01*
Y95240D01*
X209985D01*
Y95389D01*
X210133D01*
Y95538D01*
X210282D01*
Y95687D01*
Y95835D01*
X210431D01*
Y95984D01*
X210580D01*
Y96133D01*
X210728D01*
Y96281D01*
X210877D01*
Y96430D01*
X211026D01*
Y96579D01*
Y96728D01*
X211175D01*
Y96876D01*
X211323D01*
Y97025D01*
X211472D01*
Y97174D01*
Y97323D01*
X211621D01*
Y97471D01*
X211769D01*
Y97620D01*
X211918D01*
Y97769D01*
Y97917D01*
X212067D01*
Y98066D01*
X212216D01*
Y98215D01*
Y98364D01*
X212364D01*
Y98512D01*
X212513D01*
Y98661D01*
Y98810D01*
X212662D01*
Y98959D01*
Y99107D01*
X212810D01*
Y99256D01*
Y99405D01*
X212959D01*
Y99554D01*
Y99702D01*
X213108D01*
Y99851D01*
Y100000D01*
Y100148D01*
X213257D01*
Y100297D01*
Y100446D01*
Y100595D01*
X213405D01*
Y100743D01*
Y100892D01*
Y101041D01*
X213554D01*
Y101189D01*
Y101338D01*
Y101487D01*
Y101636D01*
X213703D01*
Y101784D01*
Y101933D01*
Y102082D01*
Y102231D01*
Y102379D01*
X213852D01*
Y102528D01*
Y102677D01*
Y102825D01*
Y102974D01*
X214000D01*
Y103123D01*
Y103272D01*
Y103420D01*
Y103569D01*
Y103718D01*
Y103867D01*
X214149D01*
Y104015D01*
Y104164D01*
Y104313D01*
Y104462D01*
Y104610D01*
X214298D01*
Y104759D01*
Y104908D01*
Y105057D01*
Y105205D01*
Y105354D01*
Y105503D01*
X214446D01*
Y105651D01*
Y105800D01*
Y105949D01*
Y106098D01*
Y106246D01*
Y106395D01*
Y106544D01*
X214595D01*
Y106693D01*
Y106841D01*
Y106990D01*
Y107139D01*
Y107287D01*
Y107436D01*
X214744D01*
Y107585D01*
Y107734D01*
Y107882D01*
Y108031D01*
Y108180D01*
Y108328D01*
Y108477D01*
Y108626D01*
X214893D01*
Y108775D01*
Y108923D01*
Y109072D01*
Y109221D01*
Y109370D01*
Y109518D01*
Y109667D01*
X215041D01*
Y109816D01*
Y109965D01*
Y110113D01*
X215190D01*
Y109965D01*
D02*
G37*
%LPC*%
G36*
X236161Y60735D02*
X232740D01*
Y60587D01*
X232592D01*
Y60438D01*
Y60289D01*
Y60140D01*
Y59992D01*
Y59843D01*
Y59694D01*
Y59545D01*
Y59397D01*
Y59248D01*
Y59099D01*
Y58951D01*
Y58802D01*
Y58653D01*
Y58504D01*
Y58356D01*
Y58207D01*
Y58058D01*
Y57909D01*
Y57761D01*
Y57612D01*
Y57463D01*
Y57314D01*
Y57166D01*
Y57017D01*
Y56868D01*
Y56720D01*
X232740D01*
Y56571D01*
X232889D01*
Y56422D01*
X233633D01*
Y56273D01*
X235566D01*
Y56422D01*
X237053D01*
Y56571D01*
X237351D01*
Y56720D01*
X237499D01*
Y56868D01*
X237648D01*
Y57017D01*
Y57166D01*
X237797D01*
Y57314D01*
Y57463D01*
Y57612D01*
Y57761D01*
Y57909D01*
Y58058D01*
Y58207D01*
Y58356D01*
Y58504D01*
Y58653D01*
Y58802D01*
Y58951D01*
Y59099D01*
Y59248D01*
Y59397D01*
Y59545D01*
Y59694D01*
X237648D01*
Y59843D01*
Y59992D01*
X237499D01*
Y60140D01*
Y60289D01*
X237202D01*
Y60438D01*
X237053D01*
Y60587D01*
X236161D01*
Y60735D01*
D02*
G37*
G36*
X192881D02*
X191245D01*
Y60587D01*
X189609D01*
Y60438D01*
Y60289D01*
Y60140D01*
Y59992D01*
Y59843D01*
Y59694D01*
Y59545D01*
Y59397D01*
Y59248D01*
Y59099D01*
Y58951D01*
Y58802D01*
Y58653D01*
Y58504D01*
Y58356D01*
Y58207D01*
Y58058D01*
Y57909D01*
Y57761D01*
Y57612D01*
Y57463D01*
Y57314D01*
X189758D01*
Y57166D01*
Y57017D01*
Y56868D01*
Y56720D01*
Y56571D01*
X189906D01*
Y56422D01*
X190055D01*
Y56273D01*
X193178D01*
Y56422D01*
X194071D01*
Y56571D01*
X194368D01*
Y56720D01*
X194517D01*
Y56868D01*
X194666D01*
Y57017D01*
X194814D01*
Y57166D01*
Y57314D01*
Y57463D01*
Y57612D01*
Y57761D01*
Y57909D01*
Y58058D01*
Y58207D01*
Y58356D01*
Y58504D01*
Y58653D01*
Y58802D01*
Y58951D01*
Y59099D01*
Y59248D01*
Y59397D01*
Y59545D01*
Y59694D01*
Y59843D01*
X194666D01*
Y59992D01*
Y60140D01*
X194517D01*
Y60289D01*
X194219D01*
Y60438D01*
X194071D01*
Y60587D01*
X192881D01*
Y60735D01*
D02*
G37*
G36*
X205374Y65048D02*
X202251D01*
Y64900D01*
X202102D01*
Y64751D01*
X202251D01*
Y64602D01*
X202399D01*
Y64453D01*
Y64305D01*
X202548D01*
Y64156D01*
X202697D01*
Y64007D01*
Y63858D01*
X202846D01*
Y63710D01*
Y63561D01*
Y63412D01*
X202994D01*
Y63264D01*
Y63115D01*
Y62966D01*
Y62817D01*
X202846D01*
Y62966D01*
X202697D01*
Y63115D01*
X202548D01*
Y63264D01*
X202399D01*
Y63412D01*
X202102D01*
Y63561D01*
X201805D01*
Y63710D01*
X201507D01*
Y63561D01*
X201210D01*
Y63412D01*
Y63264D01*
X201061D01*
Y63115D01*
Y62966D01*
Y62817D01*
Y62669D01*
X200912D01*
Y62520D01*
Y62371D01*
Y62222D01*
Y62074D01*
Y61925D01*
Y61776D01*
Y61628D01*
Y61479D01*
Y61330D01*
Y61181D01*
Y61033D01*
Y60884D01*
Y60735D01*
Y60587D01*
Y60438D01*
Y60289D01*
Y60140D01*
Y59992D01*
Y59843D01*
Y59694D01*
Y59545D01*
Y59397D01*
Y59248D01*
Y59099D01*
Y58951D01*
Y58802D01*
Y58653D01*
X201061D01*
Y58504D01*
Y58356D01*
Y58207D01*
Y58058D01*
Y57909D01*
Y57761D01*
X201210D01*
Y57612D01*
Y57463D01*
Y57314D01*
Y57166D01*
X201358D01*
Y57017D01*
Y56868D01*
X201507D01*
Y56720D01*
X201656D01*
Y56571D01*
X201805D01*
Y56422D01*
X201953D01*
Y56273D01*
X202548D01*
Y56125D01*
X205225D01*
Y56273D01*
X205672D01*
Y56422D01*
X205969D01*
Y56571D01*
X206118D01*
Y56720D01*
X206266D01*
Y56868D01*
Y57017D01*
X206415D01*
Y57166D01*
Y57314D01*
Y57463D01*
X206564D01*
Y57612D01*
Y57761D01*
Y57909D01*
X206713D01*
Y58058D01*
Y58207D01*
Y58356D01*
Y58504D01*
Y58653D01*
X206861D01*
Y58802D01*
Y58951D01*
Y59099D01*
Y59248D01*
Y59397D01*
Y59545D01*
Y59694D01*
Y59843D01*
Y59992D01*
Y60140D01*
X207010D01*
Y60289D01*
Y60438D01*
Y60587D01*
Y60735D01*
Y60884D01*
Y61033D01*
X206861D01*
Y61181D01*
Y61330D01*
Y61479D01*
Y61628D01*
Y61776D01*
Y61925D01*
Y62074D01*
Y62222D01*
Y62371D01*
Y62520D01*
X206713D01*
Y62669D01*
Y62817D01*
Y62966D01*
Y63115D01*
Y63264D01*
X206564D01*
Y63412D01*
Y63561D01*
Y63710D01*
Y63858D01*
X206415D01*
Y64007D01*
Y64156D01*
X206266D01*
Y64305D01*
Y64453D01*
X206118D01*
Y64602D01*
X205969D01*
Y64751D01*
X205820D01*
Y64900D01*
X205374D01*
Y65048D01*
D02*
G37*
G36*
X248357Y64900D02*
X244787D01*
Y64751D01*
Y64602D01*
X244936D01*
Y64453D01*
X245085D01*
Y64305D01*
X245233D01*
Y64156D01*
Y64007D01*
X245382D01*
Y63858D01*
X245531D01*
Y63710D01*
Y63561D01*
Y63412D01*
X245680D01*
Y63264D01*
Y63115D01*
Y62966D01*
Y62817D01*
X245382D01*
Y62966D01*
X245233D01*
Y63115D01*
X245085D01*
Y63264D01*
X244936D01*
Y63412D01*
X244638D01*
Y63561D01*
X244192D01*
Y63412D01*
X243895D01*
Y63264D01*
Y63115D01*
X243746D01*
Y62966D01*
Y62817D01*
Y62669D01*
Y62520D01*
Y62371D01*
Y62222D01*
X243597D01*
Y62074D01*
Y61925D01*
Y61776D01*
Y61628D01*
Y61479D01*
Y61330D01*
Y61181D01*
Y61033D01*
Y60884D01*
Y60735D01*
Y60587D01*
Y60438D01*
Y60289D01*
Y60140D01*
Y59992D01*
Y59843D01*
Y59694D01*
Y59545D01*
Y59397D01*
Y59248D01*
Y59099D01*
Y58951D01*
X243746D01*
Y58802D01*
Y58653D01*
Y58504D01*
Y58356D01*
Y58207D01*
Y58058D01*
Y57909D01*
X243895D01*
Y57761D01*
Y57612D01*
Y57463D01*
Y57314D01*
X244044D01*
Y57166D01*
Y57017D01*
Y56868D01*
X244192D01*
Y56720D01*
Y56571D01*
X244341D01*
Y56422D01*
X244638D01*
Y56273D01*
X244936D01*
Y56125D01*
X248208D01*
Y56273D01*
X248505D01*
Y56422D01*
X248803D01*
Y56571D01*
X248952D01*
Y56720D01*
Y56868D01*
X249100D01*
Y57017D01*
Y57166D01*
X249249D01*
Y57314D01*
Y57463D01*
Y57612D01*
Y57761D01*
X249398D01*
Y57909D01*
Y58058D01*
Y58207D01*
Y58356D01*
X249547D01*
Y58504D01*
Y58653D01*
Y58802D01*
Y58951D01*
Y59099D01*
Y59248D01*
Y59397D01*
X249695D01*
Y59545D01*
Y59694D01*
Y59843D01*
Y59992D01*
Y60140D01*
Y60289D01*
Y60438D01*
Y60587D01*
Y60735D01*
Y60884D01*
Y61033D01*
Y61181D01*
Y61330D01*
Y61479D01*
Y61628D01*
X249547D01*
Y61776D01*
Y61925D01*
Y62074D01*
Y62222D01*
Y62371D01*
Y62520D01*
Y62669D01*
X249398D01*
Y62817D01*
Y62966D01*
Y63115D01*
Y63264D01*
Y63412D01*
X249249D01*
Y63561D01*
Y63710D01*
Y63858D01*
X249100D01*
Y64007D01*
Y64156D01*
X248952D01*
Y64305D01*
Y64453D01*
X248803D01*
Y64602D01*
X248654D01*
Y64751D01*
X248357D01*
Y64900D01*
D02*
G37*
%LPD*%
D11*
X285090Y38899D02*
Y42897D01*
X282424Y38899D01*
Y42897D01*
X281091Y39565D02*
X280425Y38899D01*
X279092D01*
X278425Y39565D01*
Y42231D01*
X279092Y42897D01*
X280425D01*
X281091Y42231D01*
Y41564D01*
X280425Y40898D01*
X278425D01*
X274427Y42897D02*
X277092D01*
Y40898D01*
X275759Y41564D01*
X275093D01*
X274427Y40898D01*
Y39565D01*
X275093Y38899D01*
X276426D01*
X277092Y39565D01*
X269095Y42897D02*
Y38899D01*
X267096D01*
X266429Y39565D01*
Y42231D01*
X267096Y42897D01*
X269095D01*
X263097Y38899D02*
X264430D01*
X265096Y39565D01*
Y40898D01*
X264430Y41564D01*
X263097D01*
X262430Y40898D01*
Y40231D01*
X265096D01*
X258432Y41564D02*
X260431D01*
X261098Y40898D01*
Y39565D01*
X260431Y38899D01*
X258432D01*
X256432D02*
X255099D01*
X254433Y39565D01*
Y40898D01*
X255099Y41564D01*
X256432D01*
X257099Y40898D01*
Y39565D01*
X256432Y38899D01*
X253100D02*
Y41564D01*
X251101D01*
X250434Y40898D01*
Y38899D01*
X245103D02*
Y42897D01*
X243770Y41564D01*
X242437Y42897D01*
Y38899D01*
X240438D02*
X239105D01*
X238438Y39565D01*
Y40898D01*
X239105Y41564D01*
X240438D01*
X241104Y40898D01*
Y39565D01*
X240438Y38899D01*
X237105D02*
Y41564D01*
X235106D01*
X234439Y40898D01*
Y38899D01*
X233106D02*
X231774D01*
X232440D01*
Y41564D01*
X233106D01*
X229108Y42231D02*
Y41564D01*
X229774D01*
X228441D01*
X229108D01*
Y39565D01*
X228441Y38899D01*
X225776D02*
X224443D01*
X223776Y39565D01*
Y40898D01*
X224443Y41564D01*
X225776D01*
X226442Y40898D01*
Y39565D01*
X225776Y38899D01*
X222443Y41564D02*
Y38899D01*
Y40231D01*
X221777Y40898D01*
X221110Y41564D01*
X220444D01*
X285090Y34366D02*
X283757Y31700D01*
X282424Y34366D01*
X281091Y35032D02*
X280425Y35699D01*
X279092D01*
X278425Y35032D01*
Y32366D01*
X279092Y31700D01*
X280425D01*
X281091Y32366D01*
Y35032D01*
X277092Y31700D02*
Y32366D01*
X276426D01*
Y31700D01*
X277092D01*
X273760Y35032D02*
X273094Y35699D01*
X271761D01*
X271094Y35032D01*
Y32366D01*
X271761Y31700D01*
X273094D01*
X273760Y32366D01*
Y35032D01*
X265763Y31700D02*
X263097Y34366D01*
X261764Y31700D02*
X259098Y34366D01*
X251101Y31700D02*
X253766D01*
X251101Y34366D01*
Y35032D01*
X251767Y35699D01*
X253100D01*
X253766Y35032D01*
X249768D02*
X249101Y35699D01*
X247768D01*
X247102Y35032D01*
Y32366D01*
X247768Y31700D01*
X249101D01*
X249768Y32366D01*
Y35032D01*
X243103Y31700D02*
X245769D01*
X243103Y34366D01*
Y35032D01*
X243770Y35699D01*
X245103D01*
X245769Y35032D01*
X241770D02*
X241104Y35699D01*
X239771D01*
X239105Y35032D01*
Y32366D01*
X239771Y31700D01*
X241104D01*
X241770Y32366D01*
Y35032D01*
X237772Y33699D02*
X235106D01*
X233773Y35032D02*
X233106Y35699D01*
X231774D01*
X231107Y35032D01*
Y32366D01*
X231774Y31700D01*
X233106D01*
X233773Y32366D01*
Y35032D01*
X229774D02*
X229108Y35699D01*
X227775D01*
X227109Y35032D01*
Y34366D01*
X227775Y33699D01*
X227109Y33033D01*
Y32366D01*
X227775Y31700D01*
X229108D01*
X229774Y32366D01*
Y33033D01*
X229108Y33699D01*
X229774Y34366D01*
Y35032D01*
X229108Y33699D02*
X227775D01*
X225776D02*
X223110D01*
X221777Y35032D02*
X221110Y35699D01*
X219777D01*
X219111Y35032D01*
Y32366D01*
X219777Y31700D01*
X221110D01*
X221777Y32366D01*
Y35032D01*
X217778Y35699D02*
X215112D01*
Y35032D01*
X217778Y32366D01*
Y31700D01*
M02*
