G04*
G04 #@! TF.GenerationSoftware,Altium Limited,Altium Designer,20.1.14 (287)*
G04*
G04 Layer_Physical_Order=3*
G04 Layer_Color=16440176*
%FSLAX25Y25*%
%MOIN*%
G70*
G04*
G04 #@! TF.SameCoordinates,90A7C2A2-6745-46E1-82FD-39DD7986B322*
G04*
G04*
G04 #@! TF.FilePolarity,Positive*
G04*
G01*
G75*
%ADD66C,0.06693*%
%ADD72C,0.02000*%
G36*
X271219Y116678D02*
X270719Y116411D01*
X270592Y116496D01*
X269890Y116635D01*
X269187Y116496D01*
X268592Y116098D01*
X268194Y115502D01*
X268055Y114800D01*
X268194Y114098D01*
X268592Y113502D01*
X269187Y113104D01*
X269890Y112965D01*
X270592Y113104D01*
X270719Y113189D01*
X271219Y112922D01*
Y111400D01*
X269519D01*
Y77571D01*
X288671D01*
X288671Y32990D01*
Y32500D01*
X288480Y31537D01*
X288104Y30631D01*
X287559Y29815D01*
X286865Y29121D01*
X286050Y28576D01*
X285143Y28201D01*
X284181Y28010D01*
X283711Y28010D01*
X283710Y28010D01*
X283710Y28010D01*
X236460Y27998D01*
X236435Y27993D01*
X236410Y27996D01*
X235822Y27968D01*
X235749Y27949D01*
X235673D01*
X234520Y27720D01*
X234427Y27681D01*
X234328Y27662D01*
X233242Y27211D01*
X233158Y27156D01*
X233066Y27117D01*
X232890Y27000D01*
X228890D01*
Y3698D01*
X228875Y3664D01*
X228330Y2848D01*
X227637Y2154D01*
X226821Y1609D01*
X225915Y1234D01*
X224933Y1038D01*
X224442Y1020D01*
X5991Y1019D01*
X5500D01*
X4538Y1210D01*
X3631Y1586D01*
X2816Y2131D01*
X2122Y2824D01*
X1577Y3640D01*
X1201Y4546D01*
X1012Y5500D01*
X1019Y5973D01*
X1018Y5982D01*
X1020Y5990D01*
X1019Y165071D01*
Y165561D01*
X1210Y166524D01*
X1586Y167430D01*
X2131Y168246D01*
X2824Y168939D01*
X3640Y169484D01*
X4546Y169860D01*
X5509Y170051D01*
X5999D01*
X271219Y170052D01*
Y116678D01*
D02*
G37*
%LPC*%
G36*
X115890Y165735D02*
X115187Y165596D01*
X114592Y165198D01*
X114194Y164602D01*
X114055Y163900D01*
X114194Y163198D01*
X114592Y162602D01*
X115187Y162204D01*
X115890Y162065D01*
X116592Y162204D01*
X117188Y162602D01*
X117585Y163198D01*
X117725Y163900D01*
X117585Y164602D01*
X117188Y165198D01*
X116592Y165596D01*
X115890Y165735D01*
D02*
G37*
G36*
X236036Y168147D02*
X227743D01*
Y159853D01*
X236036D01*
Y168147D01*
D02*
G37*
G36*
X167036D02*
X158743D01*
Y159853D01*
X167036D01*
Y168147D01*
D02*
G37*
G36*
X261890Y168182D02*
X260807Y168040D01*
X259799Y167622D01*
X258932Y166957D01*
X258268Y166091D01*
X257850Y165082D01*
X257708Y164000D01*
X257850Y162918D01*
X258268Y161909D01*
X258932Y161043D01*
X259799Y160378D01*
X260807Y159960D01*
X261890Y159818D01*
X262972Y159960D01*
X263981Y160378D01*
X264847Y161043D01*
X265512Y161909D01*
X265930Y162918D01*
X266072Y164000D01*
X265930Y165082D01*
X265512Y166091D01*
X264847Y166957D01*
X263981Y167622D01*
X262972Y168040D01*
X261890Y168182D01*
D02*
G37*
G36*
X251890D02*
X250807Y168040D01*
X249799Y167622D01*
X248933Y166957D01*
X248268Y166091D01*
X247850Y165082D01*
X247708Y164000D01*
X247850Y162918D01*
X248268Y161909D01*
X248933Y161043D01*
X249799Y160378D01*
X250807Y159960D01*
X251890Y159818D01*
X252972Y159960D01*
X253981Y160378D01*
X254847Y161043D01*
X255512Y161909D01*
X255929Y162918D01*
X256072Y164000D01*
X255929Y165082D01*
X255512Y166091D01*
X254847Y166957D01*
X253981Y167622D01*
X252972Y168040D01*
X251890Y168182D01*
D02*
G37*
G36*
X241890D02*
X240807Y168040D01*
X239799Y167622D01*
X238932Y166957D01*
X238268Y166091D01*
X237850Y165082D01*
X237707Y164000D01*
X237850Y162918D01*
X238268Y161909D01*
X238932Y161043D01*
X239799Y160378D01*
X240807Y159960D01*
X241890Y159818D01*
X242972Y159960D01*
X243981Y160378D01*
X244847Y161043D01*
X245512Y161909D01*
X245930Y162918D01*
X246072Y164000D01*
X245930Y165082D01*
X245512Y166091D01*
X244847Y166957D01*
X243981Y167622D01*
X242972Y168040D01*
X241890Y168182D01*
D02*
G37*
G36*
X202890D02*
X201807Y168040D01*
X200799Y167622D01*
X199933Y166957D01*
X199268Y166091D01*
X198850Y165082D01*
X198707Y164000D01*
X198850Y162918D01*
X199268Y161909D01*
X199933Y161043D01*
X200799Y160378D01*
X201807Y159960D01*
X202890Y159818D01*
X203972Y159960D01*
X204981Y160378D01*
X205847Y161043D01*
X206512Y161909D01*
X206929Y162918D01*
X207072Y164000D01*
X206929Y165082D01*
X206512Y166091D01*
X205847Y166957D01*
X204981Y167622D01*
X203972Y168040D01*
X202890Y168182D01*
D02*
G37*
G36*
X192890D02*
X191807Y168040D01*
X190799Y167622D01*
X189933Y166957D01*
X189268Y166091D01*
X188850Y165082D01*
X188707Y164000D01*
X188850Y162918D01*
X189268Y161909D01*
X189933Y161043D01*
X190799Y160378D01*
X191807Y159960D01*
X192890Y159818D01*
X193972Y159960D01*
X194981Y160378D01*
X195847Y161043D01*
X196512Y161909D01*
X196930Y162918D01*
X197072Y164000D01*
X196930Y165082D01*
X196512Y166091D01*
X195847Y166957D01*
X194981Y167622D01*
X193972Y168040D01*
X192890Y168182D01*
D02*
G37*
G36*
X182890D02*
X181807Y168040D01*
X180799Y167622D01*
X179932Y166957D01*
X179268Y166091D01*
X178850Y165082D01*
X178708Y164000D01*
X178850Y162918D01*
X179268Y161909D01*
X179932Y161043D01*
X180799Y160378D01*
X181807Y159960D01*
X182890Y159818D01*
X183972Y159960D01*
X184981Y160378D01*
X185847Y161043D01*
X186512Y161909D01*
X186930Y162918D01*
X187072Y164000D01*
X186930Y165082D01*
X186512Y166091D01*
X185847Y166957D01*
X184981Y167622D01*
X183972Y168040D01*
X182890Y168182D01*
D02*
G37*
G36*
X172890D02*
X171807Y168040D01*
X170799Y167622D01*
X169932Y166957D01*
X169268Y166091D01*
X168850Y165082D01*
X168708Y164000D01*
X168850Y162918D01*
X169268Y161909D01*
X169932Y161043D01*
X170799Y160378D01*
X171807Y159960D01*
X172890Y159818D01*
X173972Y159960D01*
X174981Y160378D01*
X175847Y161043D01*
X176512Y161909D01*
X176929Y162918D01*
X177072Y164000D01*
X176929Y165082D01*
X176512Y166091D01*
X175847Y166957D01*
X174981Y167622D01*
X173972Y168040D01*
X172890Y168182D01*
D02*
G37*
G36*
X92636Y166147D02*
X84343D01*
Y157853D01*
X92636D01*
Y166147D01*
D02*
G37*
G36*
X98490Y166182D02*
X97407Y166040D01*
X96399Y165622D01*
X95533Y164957D01*
X94868Y164091D01*
X94450Y163082D01*
X94308Y162000D01*
X94450Y160918D01*
X94868Y159909D01*
X95533Y159043D01*
X96399Y158378D01*
X97407Y157960D01*
X98490Y157818D01*
X99572Y157960D01*
X100581Y158378D01*
X101447Y159043D01*
X102112Y159909D01*
X102530Y160918D01*
X102672Y162000D01*
X102530Y163082D01*
X102112Y164091D01*
X101447Y164957D01*
X100581Y165622D01*
X99572Y166040D01*
X98490Y166182D01*
D02*
G37*
G36*
X153890Y158135D02*
X153187Y157996D01*
X152592Y157598D01*
X152194Y157002D01*
X152055Y156300D01*
X152194Y155598D01*
X152592Y155002D01*
X153187Y154604D01*
X153890Y154465D01*
X154592Y154604D01*
X155187Y155002D01*
X155585Y155598D01*
X155725Y156300D01*
X155585Y157002D01*
X155187Y157598D01*
X154592Y157996D01*
X153890Y158135D01*
D02*
G37*
G36*
X222690Y157835D02*
X221987Y157696D01*
X221392Y157298D01*
X220994Y156702D01*
X220854Y156000D01*
X220994Y155298D01*
X221392Y154702D01*
X221987Y154304D01*
X222690Y154165D01*
X223392Y154304D01*
X223988Y154702D01*
X224385Y155298D01*
X224525Y156000D01*
X224385Y156702D01*
X223988Y157298D01*
X223392Y157696D01*
X222690Y157835D01*
D02*
G37*
G36*
X211990Y155835D02*
X211287Y155696D01*
X210692Y155298D01*
X210294Y154702D01*
X210155Y154000D01*
X210294Y153298D01*
X210692Y152702D01*
X211287Y152304D01*
X211990Y152165D01*
X212692Y152304D01*
X213287Y152702D01*
X213685Y153298D01*
X213825Y154000D01*
X213685Y154702D01*
X213287Y155298D01*
X212692Y155696D01*
X211990Y155835D01*
D02*
G37*
G36*
X149350D02*
X148648Y155696D01*
X148052Y155298D01*
X147654Y154702D01*
X147515Y154000D01*
X147654Y153298D01*
X148052Y152702D01*
X148648Y152304D01*
X149350Y152165D01*
X150052Y152304D01*
X150648Y152702D01*
X151046Y153298D01*
X151185Y154000D01*
X151046Y154702D01*
X150648Y155298D01*
X150052Y155696D01*
X149350Y155835D01*
D02*
G37*
G36*
X237890Y142335D02*
X237187Y142196D01*
X236592Y141798D01*
X236194Y141202D01*
X236054Y140500D01*
X236194Y139798D01*
X236592Y139202D01*
X237187Y138804D01*
X237890Y138665D01*
X238592Y138804D01*
X239188Y139202D01*
X239585Y139798D01*
X239725Y140500D01*
X239585Y141202D01*
X239188Y141798D01*
X238592Y142196D01*
X237890Y142335D01*
D02*
G37*
G36*
X24095Y148426D02*
X13243D01*
Y137574D01*
X24095D01*
Y148426D01*
D02*
G37*
G36*
X54890Y148473D02*
X53473Y148286D01*
X52153Y147740D01*
X51020Y146870D01*
X50150Y145736D01*
X49603Y144416D01*
X49417Y143000D01*
X49603Y141584D01*
X50150Y140264D01*
X51020Y139130D01*
X52153Y138260D01*
X53473Y137714D01*
X54890Y137527D01*
X56306Y137714D01*
X57626Y138260D01*
X58760Y139130D01*
X59629Y140264D01*
X60176Y141584D01*
X60363Y143000D01*
X60176Y144416D01*
X59629Y145736D01*
X58760Y146870D01*
X57626Y147740D01*
X56306Y148286D01*
X54890Y148473D01*
D02*
G37*
G36*
X36779D02*
X35363Y148286D01*
X34043Y147740D01*
X32910Y146870D01*
X32040Y145736D01*
X31493Y144416D01*
X31307Y143000D01*
X31493Y141584D01*
X32040Y140264D01*
X32910Y139130D01*
X34043Y138260D01*
X35363Y137714D01*
X36779Y137527D01*
X38196Y137714D01*
X39516Y138260D01*
X40649Y139130D01*
X41519Y140264D01*
X42066Y141584D01*
X42252Y143000D01*
X42066Y144416D01*
X41519Y145736D01*
X40649Y146870D01*
X39516Y147740D01*
X38196Y148286D01*
X36779Y148473D01*
D02*
G37*
G36*
X263890Y139335D02*
X263187Y139196D01*
X262592Y138798D01*
X262194Y138202D01*
X262054Y137500D01*
X262174Y136899D01*
X261970Y136596D01*
X261818Y136460D01*
X261690Y136486D01*
X260987Y136346D01*
X260392Y135948D01*
X259994Y135353D01*
X259855Y134650D01*
X259994Y133948D01*
X260392Y133353D01*
X260987Y132955D01*
X261690Y132815D01*
X262392Y132955D01*
X262987Y133353D01*
X263385Y133948D01*
X263525Y134650D01*
X263405Y135251D01*
X263610Y135554D01*
X263761Y135690D01*
X263890Y135665D01*
X264592Y135804D01*
X265188Y136202D01*
X265585Y136798D01*
X265725Y137500D01*
X265585Y138202D01*
X265188Y138798D01*
X264592Y139196D01*
X263890Y139335D01*
D02*
G37*
G36*
X190690Y120735D02*
X189987Y120596D01*
X189392Y120198D01*
X188994Y119602D01*
X188855Y118900D01*
X188994Y118198D01*
X189392Y117602D01*
X189987Y117204D01*
X190690Y117065D01*
X191392Y117204D01*
X191988Y117602D01*
X192385Y118198D01*
X192525Y118900D01*
X192385Y119602D01*
X191988Y120198D01*
X191392Y120596D01*
X190690Y120735D01*
D02*
G37*
G36*
X254490Y116635D02*
X253787Y116496D01*
X253192Y116098D01*
X252794Y115502D01*
X252655Y114800D01*
X252794Y114098D01*
X253192Y113502D01*
X253787Y113104D01*
X254490Y112965D01*
X255192Y113104D01*
X255787Y113502D01*
X256185Y114098D01*
X256325Y114800D01*
X256185Y115502D01*
X255787Y116098D01*
X255192Y116496D01*
X254490Y116635D01*
D02*
G37*
G36*
X241890D02*
X241187Y116496D01*
X240592Y116098D01*
X240194Y115502D01*
X240054Y114800D01*
X240194Y114098D01*
X240592Y113502D01*
X241187Y113104D01*
X241890Y112965D01*
X242592Y113104D01*
X243187Y113502D01*
X243585Y114098D01*
X243725Y114800D01*
X243585Y115502D01*
X243187Y116098D01*
X242592Y116496D01*
X241890Y116635D01*
D02*
G37*
G36*
X235590D02*
X234887Y116496D01*
X234292Y116098D01*
X233894Y115502D01*
X233754Y114800D01*
X233894Y114098D01*
X234292Y113502D01*
X234887Y113104D01*
X235590Y112965D01*
X236292Y113104D01*
X236888Y113502D01*
X237285Y114098D01*
X237425Y114800D01*
X237285Y115502D01*
X236888Y116098D01*
X236292Y116496D01*
X235590Y116635D01*
D02*
G37*
G36*
X28390Y111835D02*
X27687Y111696D01*
X27092Y111298D01*
X26694Y110702D01*
X26555Y110000D01*
X26694Y109298D01*
X27092Y108702D01*
X27687Y108304D01*
X28390Y108165D01*
X29092Y108304D01*
X29688Y108702D01*
X30085Y109298D01*
X30225Y110000D01*
X30085Y110702D01*
X29688Y111298D01*
X29092Y111696D01*
X28390Y111835D01*
D02*
G37*
G36*
X257690Y108735D02*
X256987Y108596D01*
X256392Y108198D01*
X255994Y107602D01*
X255855Y106900D01*
X255994Y106198D01*
X256392Y105602D01*
X256987Y105204D01*
X257690Y105065D01*
X258392Y105204D01*
X258987Y105602D01*
X259385Y106198D01*
X259525Y106900D01*
X259385Y107602D01*
X258987Y108198D01*
X258392Y108596D01*
X257690Y108735D01*
D02*
G37*
G36*
X248190D02*
X247487Y108596D01*
X246892Y108198D01*
X246494Y107602D01*
X246355Y106900D01*
X246494Y106198D01*
X246892Y105602D01*
X247487Y105204D01*
X248190Y105065D01*
X248892Y105204D01*
X249487Y105602D01*
X249885Y106198D01*
X250025Y106900D01*
X249885Y107602D01*
X249487Y108198D01*
X248892Y108596D01*
X248190Y108735D01*
D02*
G37*
G36*
X237990Y107335D02*
X237287Y107196D01*
X236692Y106798D01*
X236294Y106202D01*
X236155Y105500D01*
X236294Y104798D01*
X236692Y104202D01*
X237287Y103804D01*
X237990Y103665D01*
X238692Y103804D01*
X239287Y104202D01*
X239685Y104798D01*
X239825Y105500D01*
X239685Y106202D01*
X239287Y106798D01*
X238692Y107196D01*
X237990Y107335D01*
D02*
G37*
G36*
X30890Y105335D02*
X30187Y105196D01*
X29592Y104798D01*
X29194Y104202D01*
X29054Y103500D01*
X29194Y102798D01*
X29592Y102202D01*
X30187Y101804D01*
X30890Y101665D01*
X31592Y101804D01*
X32188Y102202D01*
X32585Y102798D01*
X32725Y103500D01*
X32585Y104202D01*
X32188Y104798D01*
X31592Y105196D01*
X30890Y105335D01*
D02*
G37*
G36*
X242190Y104335D02*
X241487Y104196D01*
X240892Y103798D01*
X240494Y103202D01*
X240354Y102500D01*
X240494Y101798D01*
X240892Y101202D01*
X241487Y100804D01*
X242190Y100665D01*
X242892Y100804D01*
X243488Y101202D01*
X243885Y101798D01*
X244025Y102500D01*
X243885Y103202D01*
X243488Y103798D01*
X242892Y104196D01*
X242190Y104335D01*
D02*
G37*
G36*
X11536Y106647D02*
X3243D01*
Y98353D01*
X11536D01*
Y106647D01*
D02*
G37*
G36*
X267090Y101535D02*
X266387Y101396D01*
X265792Y100998D01*
X265394Y100402D01*
X265254Y99700D01*
X265394Y98998D01*
X265792Y98402D01*
X266387Y98004D01*
X267090Y97865D01*
X267792Y98004D01*
X268388Y98402D01*
X268785Y98998D01*
X268925Y99700D01*
X268785Y100402D01*
X268388Y100998D01*
X267792Y101396D01*
X267090Y101535D01*
D02*
G37*
G36*
X238890Y100835D02*
X238187Y100696D01*
X237592Y100298D01*
X237194Y99702D01*
X237054Y99000D01*
X237194Y98298D01*
X237592Y97702D01*
X238187Y97304D01*
X238890Y97165D01*
X239592Y97304D01*
X240188Y97702D01*
X240585Y98298D01*
X240725Y99000D01*
X240585Y99702D01*
X240188Y100298D01*
X239592Y100696D01*
X238890Y100835D01*
D02*
G37*
G36*
X26390Y100335D02*
X25687Y100196D01*
X25092Y99798D01*
X24694Y99202D01*
X24554Y98500D01*
X24694Y97798D01*
X25092Y97202D01*
X25687Y96804D01*
X26390Y96665D01*
X27092Y96804D01*
X27687Y97202D01*
X28085Y97798D01*
X28225Y98500D01*
X28085Y99202D01*
X27687Y99798D01*
X27092Y100196D01*
X26390Y100335D01*
D02*
G37*
G36*
X230190Y101314D02*
X229487Y101174D01*
X228892Y100776D01*
X228494Y100181D01*
X228355Y99478D01*
X228494Y98776D01*
X228892Y98181D01*
X229103Y98040D01*
Y97439D01*
X228892Y97298D01*
X228494Y96702D01*
X228355Y96000D01*
X228494Y95298D01*
X228892Y94702D01*
X229487Y94304D01*
X230190Y94165D01*
X230892Y94304D01*
X231487Y94702D01*
X231885Y95298D01*
X232025Y96000D01*
X231885Y96702D01*
X231487Y97298D01*
X231277Y97439D01*
Y98040D01*
X231487Y98181D01*
X231885Y98776D01*
X232025Y99478D01*
X231885Y100181D01*
X231487Y100776D01*
X230892Y101174D01*
X230190Y101314D01*
D02*
G37*
G36*
X219890Y97835D02*
X219187Y97696D01*
X218592Y97298D01*
X218194Y96702D01*
X218055Y96000D01*
X218194Y95298D01*
X218592Y94702D01*
X219187Y94304D01*
X219890Y94165D01*
X220592Y94304D01*
X221187Y94702D01*
X221585Y95298D01*
X221725Y96000D01*
X221585Y96702D01*
X221187Y97298D01*
X220592Y97696D01*
X219890Y97835D01*
D02*
G37*
G36*
X209390Y95835D02*
X208687Y95696D01*
X208092Y95298D01*
X207694Y94702D01*
X207555Y94000D01*
X207694Y93298D01*
X208092Y92702D01*
X208687Y92304D01*
X209390Y92165D01*
X210092Y92304D01*
X210687Y92702D01*
X211085Y93298D01*
X211225Y94000D01*
X211085Y94702D01*
X210687Y95298D01*
X210092Y95696D01*
X209390Y95835D01*
D02*
G37*
G36*
X204390D02*
X203687Y95696D01*
X203092Y95298D01*
X202694Y94702D01*
X202554Y94000D01*
X202694Y93298D01*
X203092Y92702D01*
X203687Y92304D01*
X204390Y92165D01*
X205092Y92304D01*
X205687Y92702D01*
X206085Y93298D01*
X206225Y94000D01*
X206085Y94702D01*
X205687Y95298D01*
X205092Y95696D01*
X204390Y95835D01*
D02*
G37*
G36*
X198390D02*
X197687Y95696D01*
X197092Y95298D01*
X196694Y94702D01*
X196555Y94000D01*
X196694Y93298D01*
X197092Y92702D01*
X197687Y92304D01*
X198390Y92165D01*
X199092Y92304D01*
X199688Y92702D01*
X200085Y93298D01*
X200225Y94000D01*
X200085Y94702D01*
X199688Y95298D01*
X199092Y95696D01*
X198390Y95835D01*
D02*
G37*
G36*
X193390D02*
X192687Y95696D01*
X192092Y95298D01*
X191694Y94702D01*
X191554Y94000D01*
X191694Y93298D01*
X192092Y92702D01*
X192687Y92304D01*
X193390Y92165D01*
X194092Y92304D01*
X194687Y92702D01*
X195085Y93298D01*
X195225Y94000D01*
X195085Y94702D01*
X194687Y95298D01*
X194092Y95696D01*
X193390Y95835D01*
D02*
G37*
G36*
X7390Y96682D02*
X6307Y96540D01*
X5299Y96122D01*
X4433Y95457D01*
X3768Y94591D01*
X3350Y93582D01*
X3207Y92500D01*
X3350Y91418D01*
X3768Y90409D01*
X4433Y89543D01*
X5299Y88878D01*
X6307Y88460D01*
X7390Y88318D01*
X8472Y88460D01*
X9481Y88878D01*
X10347Y89543D01*
X11012Y90409D01*
X11429Y91418D01*
X11572Y92500D01*
X11429Y93582D01*
X11012Y94591D01*
X10347Y95457D01*
X9481Y96122D01*
X8472Y96540D01*
X7390Y96682D01*
D02*
G37*
G36*
X230190Y91335D02*
X229487Y91196D01*
X228892Y90798D01*
X228494Y90202D01*
X228355Y89500D01*
X228494Y88798D01*
X228892Y88202D01*
X229487Y87804D01*
X230190Y87665D01*
X230892Y87804D01*
X231487Y88202D01*
X231885Y88798D01*
X232025Y89500D01*
X231885Y90202D01*
X231487Y90798D01*
X230892Y91196D01*
X230190Y91335D01*
D02*
G37*
G36*
X267090Y94235D02*
X266387Y94096D01*
X265792Y93698D01*
X265394Y93102D01*
X265254Y92400D01*
X265394Y91698D01*
X265747Y91169D01*
X265795Y90952D01*
Y90748D01*
X265747Y90531D01*
X265394Y90002D01*
X265254Y89300D01*
X265394Y88598D01*
X265792Y88002D01*
X266387Y87604D01*
X267090Y87465D01*
X267792Y87604D01*
X268388Y88002D01*
X268785Y88598D01*
X268925Y89300D01*
X268785Y90002D01*
X268432Y90531D01*
X268384Y90748D01*
Y90952D01*
X268432Y91169D01*
X268785Y91698D01*
X268925Y92400D01*
X268785Y93102D01*
X268388Y93698D01*
X267792Y94096D01*
X267090Y94235D01*
D02*
G37*
G36*
X216390Y87646D02*
X215687Y87507D01*
X215092Y87109D01*
X214694Y86513D01*
X214555Y85811D01*
X214694Y85109D01*
X215092Y84513D01*
X215687Y84115D01*
X216390Y83976D01*
X217092Y84115D01*
X217688Y84513D01*
X218085Y85109D01*
X218225Y85811D01*
X218085Y86513D01*
X217688Y87109D01*
X217092Y87507D01*
X216390Y87646D01*
D02*
G37*
G36*
X257890Y84035D02*
X257187Y83896D01*
X256592Y83498D01*
X256440Y83271D01*
X255839D01*
X255687Y83498D01*
X255092Y83896D01*
X254390Y84035D01*
X253687Y83896D01*
X253092Y83498D01*
X252688D01*
X252092Y83896D01*
X251390Y84035D01*
X250687Y83896D01*
X250092Y83498D01*
X249694Y82902D01*
X249554Y82200D01*
X249694Y81498D01*
X250092Y80902D01*
X250687Y80504D01*
X251390Y80365D01*
X252092Y80504D01*
X252688Y80902D01*
X253092D01*
X253687Y80504D01*
X254390Y80365D01*
X255092Y80504D01*
X255687Y80902D01*
X255839Y81129D01*
X256440D01*
X256592Y80902D01*
X257187Y80504D01*
X257890Y80365D01*
X258592Y80504D01*
X259188Y80902D01*
X259585Y81498D01*
X259725Y82200D01*
X259585Y82902D01*
X259188Y83498D01*
X258592Y83896D01*
X257890Y84035D01*
D02*
G37*
G36*
X237790Y85335D02*
X237087Y85196D01*
X236492Y84798D01*
X236094Y84202D01*
X235954Y83500D01*
X236094Y82798D01*
X236492Y82202D01*
X237087Y81804D01*
X237790Y81665D01*
X238492Y81804D01*
X239088Y82202D01*
X239485Y82798D01*
X239625Y83500D01*
X239485Y84202D01*
X239088Y84798D01*
X238492Y85196D01*
X237790Y85335D01*
D02*
G37*
G36*
X245090Y84035D02*
X244387Y83896D01*
X243792Y83498D01*
X243394Y82902D01*
X243254Y82200D01*
X243394Y81498D01*
X243792Y80902D01*
X244387Y80504D01*
X245090Y80365D01*
X245792Y80504D01*
X246388Y80902D01*
X246785Y81498D01*
X246925Y82200D01*
X246785Y82902D01*
X246388Y83498D01*
X245792Y83896D01*
X245090Y84035D01*
D02*
G37*
G36*
X270390Y75835D02*
X269687Y75696D01*
X269092Y75298D01*
X268940Y75071D01*
X268339D01*
X268187Y75298D01*
X267592Y75696D01*
X266890Y75835D01*
X266187Y75696D01*
X265592Y75298D01*
X265188D01*
X264592Y75696D01*
X263890Y75835D01*
X263187Y75696D01*
X262592Y75298D01*
X262194Y74702D01*
X262054Y74000D01*
X262194Y73298D01*
X262592Y72702D01*
X263187Y72304D01*
X263890Y72165D01*
X264592Y72304D01*
X265051Y72611D01*
X265390Y72668D01*
X265728Y72611D01*
X266187Y72304D01*
X266890Y72165D01*
X267592Y72304D01*
X268187Y72702D01*
X268339Y72929D01*
X268940D01*
X269092Y72702D01*
X269687Y72304D01*
X270390Y72165D01*
X271092Y72304D01*
X271688Y72702D01*
X272085Y73298D01*
X272225Y74000D01*
X272085Y74702D01*
X271688Y75298D01*
X271092Y75696D01*
X270390Y75835D01*
D02*
G37*
G36*
X226490Y75440D02*
Y74000D01*
X227929D01*
X227874Y74280D01*
X227432Y74942D01*
X226770Y75384D01*
X226490Y75440D01*
D02*
G37*
G36*
X225490D02*
X225209Y75384D01*
X224548Y74942D01*
X224106Y74280D01*
X224050Y74000D01*
X225490D01*
Y75440D01*
D02*
G37*
G36*
X285590Y75835D02*
X284887Y75696D01*
X284292Y75298D01*
X283894Y74702D01*
X283754Y74000D01*
X283894Y73298D01*
X284292Y72702D01*
X284887Y72304D01*
X285590Y72165D01*
X286292Y72304D01*
X286888Y72702D01*
X287285Y73298D01*
X287425Y74000D01*
X287285Y74702D01*
X286888Y75298D01*
X286292Y75696D01*
X285590Y75835D01*
D02*
G37*
G36*
X280490D02*
X279787Y75696D01*
X279192Y75298D01*
X278794Y74702D01*
X278655Y74000D01*
X278794Y73298D01*
X279192Y72702D01*
X279787Y72304D01*
X280490Y72165D01*
X281192Y72304D01*
X281787Y72702D01*
X282185Y73298D01*
X282325Y74000D01*
X282185Y74702D01*
X281787Y75298D01*
X281192Y75696D01*
X280490Y75835D01*
D02*
G37*
G36*
X275390D02*
X274687Y75696D01*
X274092Y75298D01*
X273694Y74702D01*
X273554Y74000D01*
X273694Y73298D01*
X274092Y72702D01*
X274687Y72304D01*
X275390Y72165D01*
X276092Y72304D01*
X276688Y72702D01*
X277085Y73298D01*
X277225Y74000D01*
X277085Y74702D01*
X276688Y75298D01*
X276092Y75696D01*
X275390Y75835D01*
D02*
G37*
G36*
X257390D02*
X256687Y75696D01*
X256092Y75298D01*
X255694Y74702D01*
X255555Y74000D01*
X255694Y73298D01*
X256092Y72702D01*
X256687Y72304D01*
X257390Y72165D01*
X258092Y72304D01*
X258687Y72702D01*
X259085Y73298D01*
X259225Y74000D01*
X259085Y74702D01*
X258687Y75298D01*
X258092Y75696D01*
X257390Y75835D01*
D02*
G37*
G36*
X248192D02*
X247490Y75696D01*
X246894Y75298D01*
X246497Y74702D01*
X246357Y74000D01*
X246497Y73298D01*
X246894Y72702D01*
X247490Y72304D01*
X248192Y72165D01*
X248895Y72304D01*
X249490Y72702D01*
X249888Y73298D01*
X250027Y74000D01*
X249888Y74702D01*
X249490Y75298D01*
X248895Y75696D01*
X248192Y75835D01*
D02*
G37*
G36*
X237790D02*
X237087Y75696D01*
X236492Y75298D01*
X236094Y74702D01*
X235954Y74000D01*
X236094Y73298D01*
X236492Y72702D01*
X237087Y72304D01*
X237790Y72165D01*
X238492Y72304D01*
X239088Y72702D01*
X239485Y73298D01*
X239625Y74000D01*
X239485Y74702D01*
X239088Y75298D01*
X238492Y75696D01*
X237790Y75835D01*
D02*
G37*
G36*
X232490D02*
X231787Y75696D01*
X231192Y75298D01*
X230794Y74702D01*
X230655Y74000D01*
X230794Y73298D01*
X231192Y72702D01*
X231787Y72304D01*
X232490Y72165D01*
X233192Y72304D01*
X233787Y72702D01*
X234185Y73298D01*
X234325Y74000D01*
X234185Y74702D01*
X233787Y75298D01*
X233192Y75696D01*
X232490Y75835D01*
D02*
G37*
G36*
X218790Y75335D02*
X218087Y75196D01*
X217492Y74798D01*
X217094Y74202D01*
X216954Y73500D01*
X217094Y72798D01*
X217492Y72202D01*
X218087Y71804D01*
X218790Y71665D01*
X219492Y71804D01*
X220088Y72202D01*
X220485Y72798D01*
X220625Y73500D01*
X220485Y74202D01*
X220088Y74798D01*
X219492Y75196D01*
X218790Y75335D01*
D02*
G37*
G36*
X227929Y73000D02*
X226490D01*
Y71560D01*
X226770Y71616D01*
X227432Y72058D01*
X227874Y72720D01*
X227929Y73000D01*
D02*
G37*
G36*
X225490D02*
X224050D01*
X224106Y72720D01*
X224548Y72058D01*
X225209Y71616D01*
X225490Y71560D01*
Y73000D01*
D02*
G37*
G36*
X11536Y77147D02*
X3243D01*
Y68853D01*
X11536D01*
Y77147D01*
D02*
G37*
G36*
X251390Y68635D02*
X250687Y68496D01*
X250092Y68098D01*
X249694Y67502D01*
X249554Y66800D01*
X249694Y66098D01*
X250092Y65502D01*
X250687Y65104D01*
X251390Y64965D01*
X252092Y65104D01*
X252688Y65502D01*
X253085Y66098D01*
X253225Y66800D01*
X253085Y67502D01*
X252688Y68098D01*
X252092Y68496D01*
X251390Y68635D01*
D02*
G37*
G36*
X7890Y67318D02*
Y63500D01*
X11708D01*
X11624Y64135D01*
X11186Y65192D01*
X10490Y66100D01*
X9582Y66797D01*
X8524Y67235D01*
X7890Y67318D01*
D02*
G37*
G36*
X6890D02*
X6255Y67235D01*
X5198Y66797D01*
X4290Y66100D01*
X3593Y65192D01*
X3155Y64135D01*
X3072Y63500D01*
X6890D01*
Y67318D01*
D02*
G37*
G36*
X254490Y65735D02*
X253787Y65596D01*
X253192Y65198D01*
X252794Y64602D01*
X252655Y63900D01*
X252794Y63198D01*
X253192Y62602D01*
X253787Y62204D01*
X254490Y62065D01*
X255192Y62204D01*
X255787Y62602D01*
X256185Y63198D01*
X256325Y63900D01*
X256185Y64602D01*
X255787Y65198D01*
X255192Y65596D01*
X254490Y65735D01*
D02*
G37*
G36*
X245090Y63235D02*
X244387Y63096D01*
X243792Y62698D01*
X243394Y62102D01*
X243254Y61400D01*
X243394Y60698D01*
X243792Y60102D01*
X244387Y59704D01*
X245090Y59565D01*
X245792Y59704D01*
X246388Y60102D01*
X246785Y60698D01*
X246925Y61400D01*
X246785Y62102D01*
X246388Y62698D01*
X245792Y63096D01*
X245090Y63235D01*
D02*
G37*
G36*
X21390Y62835D02*
X20687Y62696D01*
X20092Y62298D01*
X19694Y61702D01*
X19555Y61000D01*
X19694Y60298D01*
X20092Y59702D01*
X20687Y59304D01*
X21390Y59165D01*
X22092Y59304D01*
X22688Y59702D01*
X23085Y60298D01*
X23225Y61000D01*
X23085Y61702D01*
X22688Y62298D01*
X22092Y62696D01*
X21390Y62835D01*
D02*
G37*
G36*
X11708Y62500D02*
X7890D01*
Y58682D01*
X8524Y58765D01*
X9582Y59203D01*
X10490Y59900D01*
X11186Y60808D01*
X11624Y61865D01*
X11708Y62500D01*
D02*
G37*
G36*
X6890D02*
X3072D01*
X3155Y61865D01*
X3593Y60808D01*
X4290Y59900D01*
X5198Y59203D01*
X6255Y58765D01*
X6890Y58682D01*
Y62500D01*
D02*
G37*
G36*
X28890Y61835D02*
X28187Y61696D01*
X27592Y61298D01*
X27194Y60702D01*
X27055Y60000D01*
X27194Y59298D01*
X27592Y58702D01*
X28187Y58304D01*
X28890Y58165D01*
X29592Y58304D01*
X30187Y58702D01*
X30585Y59298D01*
X30725Y60000D01*
X30585Y60702D01*
X30187Y61298D01*
X29592Y61696D01*
X28890Y61835D01*
D02*
G37*
G36*
X248237Y59488D02*
X247534Y59349D01*
X246939Y58951D01*
X246541Y58355D01*
X246401Y57653D01*
X246541Y56951D01*
X246939Y56355D01*
X247534Y55958D01*
X248237Y55818D01*
X248939Y55958D01*
X249534Y56355D01*
X249932Y56951D01*
X250072Y57653D01*
X249932Y58355D01*
X249534Y58951D01*
X248939Y59349D01*
X248237Y59488D01*
D02*
G37*
G36*
X216290Y48835D02*
X215587Y48696D01*
X214992Y48298D01*
X214594Y47702D01*
X214455Y47000D01*
X214594Y46298D01*
X214992Y45702D01*
X215587Y45304D01*
X216290Y45165D01*
X216992Y45304D01*
X217587Y45702D01*
X217985Y46298D01*
X218125Y47000D01*
X217985Y47702D01*
X217587Y48298D01*
X216992Y48696D01*
X216290Y48835D01*
D02*
G37*
G36*
X233590Y47935D02*
X232887Y47796D01*
X232292Y47398D01*
X231894Y46802D01*
X231754Y46100D01*
X231894Y45398D01*
X232292Y44802D01*
X232887Y44404D01*
X233590Y44265D01*
X234292Y44404D01*
X234888Y44802D01*
X235285Y45398D01*
X235425Y46100D01*
X235285Y46802D01*
X234888Y47398D01*
X234292Y47796D01*
X233590Y47935D01*
D02*
G37*
G36*
X228690Y47835D02*
X227987Y47696D01*
X227392Y47298D01*
X226994Y46702D01*
X226854Y46000D01*
X226994Y45298D01*
X227392Y44702D01*
X227987Y44304D01*
X228690Y44165D01*
X229392Y44304D01*
X229988Y44702D01*
X230385Y45298D01*
X230525Y46000D01*
X230385Y46702D01*
X229988Y47298D01*
X229392Y47696D01*
X228690Y47835D01*
D02*
G37*
G36*
X215890Y43440D02*
Y42000D01*
X217330D01*
X217274Y42280D01*
X216832Y42942D01*
X216170Y43384D01*
X215890Y43440D01*
D02*
G37*
G36*
X214890D02*
X214609Y43384D01*
X213948Y42942D01*
X213506Y42280D01*
X213450Y42000D01*
X214890D01*
Y43440D01*
D02*
G37*
G36*
X200390D02*
Y42000D01*
X201830D01*
X201774Y42280D01*
X201332Y42942D01*
X200670Y43384D01*
X200390Y43440D01*
D02*
G37*
G36*
X199390D02*
X199109Y43384D01*
X198448Y42942D01*
X198006Y42280D01*
X197950Y42000D01*
X199390D01*
Y43440D01*
D02*
G37*
G36*
X241889Y44399D02*
X241186Y44259D01*
X240591Y43861D01*
X240193Y43266D01*
X240053Y42564D01*
X240193Y41861D01*
X240545Y41335D01*
X240360Y41006D01*
X240274Y40909D01*
X239681Y41027D01*
X238979Y40887D01*
X238383Y40489D01*
X237985Y39894D01*
X237846Y39191D01*
X237985Y38489D01*
X238383Y37894D01*
X238979Y37496D01*
X239681Y37356D01*
X240383Y37496D01*
X240979Y37894D01*
X241377Y38489D01*
X241516Y39191D01*
X241377Y39894D01*
X241025Y40420D01*
X241210Y40749D01*
X241296Y40846D01*
X241889Y40728D01*
X242591Y40868D01*
X243186Y41266D01*
X243584Y41861D01*
X243724Y42564D01*
X243584Y43266D01*
X243186Y43861D01*
X242591Y44259D01*
X241889Y44399D01*
D02*
G37*
G36*
X217330Y41000D02*
X215890D01*
Y39560D01*
X216170Y39616D01*
X216832Y40058D01*
X217274Y40720D01*
X217330Y41000D01*
D02*
G37*
G36*
X214890D02*
X213450D01*
X213506Y40720D01*
X213948Y40058D01*
X214609Y39616D01*
X214890Y39560D01*
Y41000D01*
D02*
G37*
G36*
X201830D02*
X200390D01*
Y39560D01*
X200670Y39616D01*
X201332Y40058D01*
X201774Y40720D01*
X201830Y41000D01*
D02*
G37*
G36*
X199390D02*
X197950D01*
X198006Y40720D01*
X198448Y40058D01*
X199109Y39616D01*
X199390Y39560D01*
Y41000D01*
D02*
G37*
G36*
X239390Y35335D02*
X238687Y35196D01*
X238092Y34798D01*
X237694Y34202D01*
X237555Y33500D01*
X237694Y32798D01*
X238092Y32202D01*
X238687Y31804D01*
X239390Y31665D01*
X240092Y31804D01*
X240687Y32202D01*
X241085Y32798D01*
X241225Y33500D01*
X241085Y34202D01*
X240687Y34798D01*
X240092Y35196D01*
X239390Y35335D01*
D02*
G37*
G36*
X74490Y27535D02*
X73787Y27396D01*
X73192Y26998D01*
X72794Y26402D01*
X72654Y25700D01*
X72794Y24998D01*
X73192Y24402D01*
X73787Y24004D01*
X74490Y23865D01*
X75192Y24004D01*
X75788Y24402D01*
X76185Y24998D01*
X76325Y25700D01*
X76185Y26402D01*
X75788Y26998D01*
X75192Y27396D01*
X74490Y27535D01*
D02*
G37*
G36*
X7190Y23835D02*
X6487Y23696D01*
X5892Y23298D01*
X5494Y22702D01*
X5354Y22000D01*
X5494Y21298D01*
X5892Y20702D01*
X6487Y20304D01*
X7190Y20165D01*
X7892Y20304D01*
X8488Y20702D01*
X8885Y21298D01*
X9025Y22000D01*
X8885Y22702D01*
X8488Y23298D01*
X7892Y23696D01*
X7190Y23835D01*
D02*
G37*
G36*
X23590Y9640D02*
Y8200D01*
X25030D01*
X24974Y8480D01*
X24532Y9142D01*
X23870Y9584D01*
X23590Y9640D01*
D02*
G37*
G36*
X22590D02*
X22309Y9584D01*
X21648Y9142D01*
X21206Y8480D01*
X21150Y8200D01*
X22590D01*
Y9640D01*
D02*
G37*
G36*
X25030Y7200D02*
X23590D01*
Y5760D01*
X23870Y5816D01*
X24532Y6258D01*
X24974Y6920D01*
X25030Y7200D01*
D02*
G37*
G36*
X22590D02*
X21150D01*
X21206Y6920D01*
X21648Y6258D01*
X22309Y5816D01*
X22590Y5760D01*
Y7200D01*
D02*
G37*
G36*
X124921Y8935D02*
X124219Y8796D01*
X123624Y8398D01*
X123226Y7802D01*
X123086Y7100D01*
X123226Y6398D01*
X123624Y5802D01*
X124219Y5404D01*
X124921Y5265D01*
X125624Y5404D01*
X126219Y5802D01*
X126617Y6398D01*
X126757Y7100D01*
X126617Y7802D01*
X126219Y8398D01*
X125624Y8796D01*
X124921Y8935D01*
D02*
G37*
G36*
X83842Y11453D02*
X76337D01*
Y3947D01*
X83842D01*
Y11453D01*
D02*
G37*
G36*
X60090Y11485D02*
X59110Y11356D01*
X58197Y10978D01*
X57413Y10377D01*
X56812Y9593D01*
X56434Y8680D01*
X56305Y7700D01*
X56434Y6720D01*
X56812Y5807D01*
X57413Y5023D01*
X58197Y4422D01*
X59110Y4044D01*
X60090Y3915D01*
X61069Y4044D01*
X61982Y4422D01*
X62766Y5023D01*
X63368Y5807D01*
X63746Y6720D01*
X63875Y7700D01*
X63746Y8680D01*
X63368Y9593D01*
X62766Y10377D01*
X61982Y10978D01*
X61069Y11356D01*
X60090Y11485D01*
D02*
G37*
G36*
X50090D02*
X49110Y11356D01*
X48197Y10978D01*
X47413Y10377D01*
X46812Y9593D01*
X46434Y8680D01*
X46305Y7700D01*
X46434Y6720D01*
X46812Y5807D01*
X47413Y5023D01*
X48197Y4422D01*
X49110Y4044D01*
X50090Y3915D01*
X51069Y4044D01*
X51982Y4422D01*
X52766Y5023D01*
X53368Y5807D01*
X53746Y6720D01*
X53875Y7700D01*
X53746Y8680D01*
X53368Y9593D01*
X52766Y10377D01*
X51982Y10978D01*
X51069Y11356D01*
X50090Y11485D01*
D02*
G37*
G36*
X70090Y11485D02*
X69110Y11356D01*
X68197Y10978D01*
X67413Y10377D01*
X66812Y9593D01*
X66434Y8680D01*
X66305Y7700D01*
X66434Y6720D01*
X66812Y5807D01*
X67413Y5023D01*
X68197Y4422D01*
X69110Y4044D01*
X70090Y3915D01*
X71069Y4044D01*
X71982Y4422D01*
X72766Y5023D01*
X73368Y5807D01*
X73746Y6720D01*
X73875Y7700D01*
X73746Y8680D01*
X73368Y9593D01*
X72766Y10377D01*
X71982Y10978D01*
X71069Y11356D01*
X70090Y11485D01*
D02*
G37*
G36*
X40090D02*
X39110Y11356D01*
X38197Y10978D01*
X37413Y10377D01*
X36812Y9593D01*
X36434Y8680D01*
X36305Y7700D01*
X36434Y6720D01*
X36812Y5807D01*
X37413Y5023D01*
X38197Y4422D01*
X39110Y4044D01*
X40090Y3915D01*
X41069Y4044D01*
X41982Y4422D01*
X42766Y5023D01*
X43368Y5807D01*
X43746Y6720D01*
X43875Y7700D01*
X43746Y8680D01*
X43368Y9593D01*
X42766Y10377D01*
X41982Y10978D01*
X41069Y11356D01*
X40090Y11485D01*
D02*
G37*
G36*
X210990Y24500D02*
X205190D01*
Y18700D01*
X205416D01*
X205662Y18200D01*
X205557Y18063D01*
X205264Y17357D01*
X205165Y16600D01*
X205264Y15843D01*
X205557Y15137D01*
X206021Y14532D01*
X206258Y14350D01*
Y13850D01*
X206021Y13668D01*
X205557Y13062D01*
X205264Y12357D01*
X205165Y11600D01*
X205264Y10843D01*
X205557Y10137D01*
X206021Y9532D01*
X206258Y9350D01*
Y8850D01*
X206021Y8668D01*
X205557Y8062D01*
X205264Y7357D01*
X205165Y6600D01*
X205264Y5843D01*
X205557Y5138D01*
X206021Y4532D01*
X206627Y4067D01*
X207333Y3775D01*
X208090Y3675D01*
X208847Y3775D01*
X209552Y4067D01*
X210158Y4532D01*
X210623Y5138D01*
X210915Y5843D01*
X211015Y6600D01*
X210915Y7357D01*
X210623Y8062D01*
X210158Y8668D01*
X209921Y8850D01*
Y9350D01*
X210158Y9532D01*
X210623Y10137D01*
X210915Y10843D01*
X211015Y11600D01*
X210915Y12357D01*
X210623Y13062D01*
X210158Y13668D01*
X209921Y13850D01*
Y14350D01*
X210158Y14532D01*
X210623Y15137D01*
X210915Y15843D01*
X211015Y16600D01*
X210915Y17357D01*
X210623Y18063D01*
X210517Y18200D01*
X210764Y18700D01*
X210990D01*
Y24500D01*
D02*
G37*
%LPD*%
D66*
X7390Y63000D02*
D03*
D72*
X23090Y7700D02*
D03*
X225990Y73500D02*
D03*
X199890Y41500D02*
D03*
X215390D02*
D03*
M02*
