G04*
G04 #@! TF.GenerationSoftware,Altium Limited,Altium Designer,20.1.14 (287)*
G04*
G04 Layer_Physical_Order=4*
G04 Layer_Color=16711680*
%FSLAX25Y25*%
%MOIN*%
G70*
G04*
G04 #@! TF.SameCoordinates,90A7C2A2-6745-46E1-82FD-39DD7986B322*
G04*
G04*
G04 #@! TF.FilePolarity,Positive*
G04*
G01*
G75*
%ADD11C,0.01000*%
%ADD63C,0.04200*%
%ADD64R,0.04200X0.04200*%
%ADD65R,0.06693X0.06693*%
%ADD66C,0.06693*%
%ADD67R,0.06693X0.06693*%
%ADD68C,0.09252*%
%ADD69R,0.09252X0.09252*%
%ADD70R,0.05906X0.05906*%
%ADD71C,0.05906*%
%ADD72C,0.02000*%
D11*
X149350Y154000D02*
X211990D01*
X96490D02*
X149350D01*
X88490Y162000D02*
X96490Y154000D01*
X40090Y6900D02*
Y7700D01*
Y6900D02*
X44190Y2800D01*
X204290D02*
X208090Y6600D01*
X44190Y2800D02*
X204290D01*
X63990Y21600D02*
X208090D01*
X50090Y7700D02*
X63990Y21600D01*
X238890Y91236D02*
X240090Y90036D01*
Y73047D02*
Y90036D01*
X239589Y72546D02*
X240090Y73047D01*
X239589Y39284D02*
Y72546D01*
Y39284D02*
X239681Y39191D01*
X241890Y42565D02*
Y102200D01*
X241889Y42564D02*
X241890Y42565D01*
Y102200D02*
X242190Y102500D01*
X264690Y85700D02*
X266890Y83500D01*
X263890Y137229D02*
X264690Y136429D01*
Y85700D02*
Y136429D01*
X230390Y162500D02*
X231890Y164000D01*
X230343Y99848D02*
X230390Y99895D01*
X230343Y99822D02*
Y99848D01*
Y99822D02*
X230390Y99775D01*
Y99895D02*
Y162500D01*
X232890Y155000D02*
X241890Y164000D01*
X232890Y92200D02*
Y155000D01*
X230190Y89500D02*
X232890Y92200D01*
X261690Y134650D02*
X262890Y133450D01*
Y84954D02*
Y133450D01*
Y84954D02*
X263890Y83954D01*
Y137229D02*
Y137500D01*
X235190Y108522D02*
X238501Y111833D01*
Y139889D01*
X237890Y140500D02*
X238501Y139889D01*
X235190Y80314D02*
X237790Y77714D01*
X235190Y80314D02*
Y108522D01*
X248237Y57653D02*
Y58219D01*
X248192Y58263D02*
X248237Y58219D01*
X248192Y58263D02*
Y74000D01*
X254390Y82200D02*
X254490Y82100D01*
Y63900D02*
Y82100D01*
X251390Y66800D02*
Y82200D01*
X245090Y61400D02*
Y82200D01*
X263890Y74000D02*
Y83954D01*
X266890Y74000D02*
Y83500D01*
X237790Y74000D02*
Y77714D01*
X238890Y91236D02*
Y99000D01*
D63*
X208090Y11600D02*
D03*
Y6600D02*
D03*
Y16600D02*
D03*
D64*
Y21600D02*
D03*
D65*
X7390Y102500D02*
D03*
Y73000D02*
D03*
D66*
Y92500D02*
D03*
X172890Y164000D02*
D03*
X182890D02*
D03*
X192890D02*
D03*
X202890D02*
D03*
X241890D02*
D03*
X251890D02*
D03*
X261890D02*
D03*
X98490Y162000D02*
D03*
X7390Y63000D02*
D03*
D67*
X162890Y164000D02*
D03*
X231890D02*
D03*
X88490Y162000D02*
D03*
D68*
X54890Y143000D02*
D03*
X36779D02*
D03*
D69*
X18669D02*
D03*
D70*
X80090Y7700D02*
D03*
D71*
X70090Y7700D02*
D03*
X60090Y7700D02*
D03*
X50090D02*
D03*
X40090Y7700D02*
D03*
D72*
X149350Y154000D02*
D03*
X211990D02*
D03*
X23090Y7700D02*
D03*
X74490Y25700D02*
D03*
X225990Y73500D02*
D03*
X199890Y41500D02*
D03*
X215390D02*
D03*
X228690Y46000D02*
D03*
X241889Y42564D02*
D03*
X239681Y39191D02*
D03*
X233590Y46100D02*
D03*
X190690Y118900D02*
D03*
X242190Y102500D02*
D03*
X245090Y61400D02*
D03*
X248237Y57653D02*
D03*
X248192Y74000D02*
D03*
X269890Y114800D02*
D03*
X216290Y47000D02*
D03*
X124921Y7100D02*
D03*
X115890Y163900D02*
D03*
X218790Y73500D02*
D03*
X254490Y63900D02*
D03*
X251390Y66800D02*
D03*
X261690Y134650D02*
D03*
X263890Y137500D02*
D03*
X270390Y74000D02*
D03*
X266890D02*
D03*
X263890D02*
D03*
X254390Y82200D02*
D03*
X257890D02*
D03*
X257390Y74000D02*
D03*
X251390Y82200D02*
D03*
X237890Y140500D02*
D03*
X230190Y99478D02*
D03*
Y89500D02*
D03*
X219890Y96000D02*
D03*
X237790Y74000D02*
D03*
X239390Y33500D02*
D03*
X238890Y99000D02*
D03*
X209390Y94000D02*
D03*
X204390D02*
D03*
X198390D02*
D03*
X193390D02*
D03*
X153890Y156300D02*
D03*
X222690Y156000D02*
D03*
X267090Y99700D02*
D03*
Y89300D02*
D03*
Y92400D02*
D03*
X216390Y85811D02*
D03*
X275390Y74000D02*
D03*
X232490D02*
D03*
X237790Y83500D02*
D03*
X230190Y96000D02*
D03*
X237990Y105500D02*
D03*
X235590Y114800D02*
D03*
X241890D02*
D03*
X254490D02*
D03*
X257690Y106900D02*
D03*
X248190D02*
D03*
X245090Y82200D02*
D03*
X21390Y61000D02*
D03*
X28890Y60000D02*
D03*
X285590Y74000D02*
D03*
X280490D02*
D03*
X7190Y22000D02*
D03*
X30890Y103500D02*
D03*
X26390Y98500D02*
D03*
X28390Y110000D02*
D03*
M02*
