G04*
G04 #@! TF.GenerationSoftware,Altium Limited,Altium Designer,20.1.14 (287)*
G04*
G04 Layer_Color=8421504*
%FSLAX25Y25*%
%MOIN*%
G70*
G04*
G04 #@! TF.SameCoordinates,90A7C2A2-6745-46E1-82FD-39DD7986B322*
G04*
G04*
G04 #@! TF.FilePolarity,Positive*
G04*
G01*
G75*
%ADD15C,0.07874*%
%ADD16C,0.03937*%
%ADD17R,0.08300X0.05500*%
%ADD18R,0.02201X0.02850*%
%ADD19R,0.03937X0.05315*%
%ADD20R,0.02756X0.03543*%
%ADD21R,0.01575X0.01890*%
%ADD22R,0.02362X0.03150*%
%ADD23R,0.05118X0.05709*%
%ADD24R,0.03937X0.03937*%
%ADD25R,0.20000X0.20000*%
%ADD26R,0.05900X0.03900*%
%ADD27R,0.01950X0.03100*%
G04:AMPARAMS|DCode=28|XSize=19.68mil|YSize=19.68mil|CornerRadius=0mil|HoleSize=0mil|Usage=FLASHONLY|Rotation=0.000|XOffset=0mil|YOffset=0mil|HoleType=Round|Shape=RoundedRectangle|*
%AMROUNDEDRECTD28*
21,1,0.01968,0.01968,0,0,0.0*
21,1,0.01968,0.01968,0,0,0.0*
1,1,0.00000,0.00984,-0.00984*
1,1,0.00000,-0.00984,-0.00984*
1,1,0.00000,-0.00984,0.00984*
1,1,0.00000,0.00984,0.00984*
%
%ADD28ROUNDEDRECTD28*%
G04:AMPARAMS|DCode=29|XSize=19.68mil|YSize=19.68mil|CornerRadius=0mil|HoleSize=0mil|Usage=FLASHONLY|Rotation=90.000|XOffset=0mil|YOffset=0mil|HoleType=Round|Shape=RoundedRectangle|*
%AMROUNDEDRECTD29*
21,1,0.01968,0.01968,0,0,90.0*
21,1,0.01968,0.01968,0,0,90.0*
1,1,0.00000,0.00984,0.00984*
1,1,0.00000,0.00984,-0.00984*
1,1,0.00000,-0.00984,-0.00984*
1,1,0.00000,-0.00984,0.00984*
%
%ADD29ROUNDEDRECTD29*%
%ADD30R,0.01968X0.01968*%
%ADD31R,0.03100X0.01950*%
%ADD32R,0.03900X0.05900*%
%ADD33R,0.01890X0.01575*%
%ADD34R,0.03937X0.03937*%
%ADD35R,0.05709X0.05118*%
%ADD36R,0.05315X0.03937*%
D15*
X16790Y7800D02*
D03*
D16*
X266890Y130600D02*
D03*
X251290Y122800D02*
D03*
X257890Y130600D02*
D03*
X260790Y122800D02*
D03*
D17*
X245840Y33450D02*
D03*
X281740D02*
D03*
X245840Y51150D02*
D03*
X281740D02*
D03*
D18*
X26130Y95682D02*
D03*
X18650D02*
D03*
X22390Y88318D02*
D03*
D19*
X212133Y122600D02*
D03*
X204047D02*
D03*
X199846Y36500D02*
D03*
X207933D02*
D03*
X215347D02*
D03*
X223433D02*
D03*
X14633Y49100D02*
D03*
X6547D02*
D03*
X120846Y155400D02*
D03*
X128933D02*
D03*
X119965Y15600D02*
D03*
X111878D02*
D03*
D20*
X216334Y57700D02*
D03*
X222846D02*
D03*
D21*
X231190Y46102D02*
D03*
Y51298D02*
D03*
D22*
X196444Y122600D02*
D03*
X190735D02*
D03*
D23*
X226039Y78200D02*
D03*
X218740D02*
D03*
X26539Y103500D02*
D03*
X19240D02*
D03*
D24*
X70390Y19938D02*
D03*
Y25662D02*
D03*
X187390Y16862D02*
D03*
Y11138D02*
D03*
X222590Y159819D02*
D03*
Y165543D02*
D03*
X153890Y159819D02*
D03*
Y165543D02*
D03*
X21390Y70862D02*
D03*
Y65138D02*
D03*
D25*
X51390Y81500D02*
D03*
X201390D02*
D03*
D26*
X120321Y7050D02*
D03*
X106521D02*
D03*
X134290Y163950D02*
D03*
X120490D02*
D03*
D27*
X111846Y8750D02*
D03*
X114996D02*
D03*
X125815Y162250D02*
D03*
X128965D02*
D03*
D28*
X232444Y92925D02*
D03*
Y83476D02*
D03*
Y111823D02*
D03*
X232444Y108673D02*
D03*
X232444Y105524D02*
D03*
Y102374D02*
D03*
Y99224D02*
D03*
Y96075D02*
D03*
X232444Y89776D02*
D03*
Y86626D02*
D03*
X232444Y80327D02*
D03*
Y77177D02*
D03*
D29*
X272798Y79736D02*
D03*
X267090Y112413D02*
D03*
X235594Y76587D02*
D03*
X263940Y112413D02*
D03*
X260790D02*
D03*
X257641D02*
D03*
X254491D02*
D03*
X251342D02*
D03*
X248192D02*
D03*
X245042D02*
D03*
X241893D02*
D03*
X238743D02*
D03*
X235594D02*
D03*
X238743Y76587D02*
D03*
X241893D02*
D03*
X245042D02*
D03*
X248192D02*
D03*
X251342D02*
D03*
X254491D02*
D03*
X257641Y76587D02*
D03*
X260790Y76587D02*
D03*
X263940D02*
D03*
X267090D02*
D03*
X270239D02*
D03*
Y112413D02*
D03*
X275358Y76587D02*
D03*
X280476D02*
D03*
X285594D02*
D03*
D30*
X267090Y109264D02*
D03*
X235594Y105524D02*
D03*
X238743Y79736D02*
D03*
X263940Y109264D02*
D03*
X260790D02*
D03*
X257641D02*
D03*
X254491D02*
D03*
X251342D02*
D03*
X248192D02*
D03*
X245042D02*
D03*
X241893D02*
D03*
X238743D02*
D03*
X235594D02*
D03*
Y102374D02*
D03*
Y99224D02*
D03*
Y96075D02*
D03*
Y92925D02*
D03*
Y89776D02*
D03*
Y86626D02*
D03*
Y83476D02*
D03*
Y79736D02*
D03*
X241893Y79736D02*
D03*
X245042D02*
D03*
X248192D02*
D03*
X251342D02*
D03*
X254491Y79736D02*
D03*
X257641Y79736D02*
D03*
X260790D02*
D03*
X263940Y79736D02*
D03*
X267090D02*
D03*
Y94500D02*
D03*
Y101882D02*
D03*
Y87118D02*
D03*
D31*
X8840Y31925D02*
D03*
Y35075D02*
D03*
D32*
X7140Y40400D02*
D03*
Y26600D02*
D03*
D33*
X25488Y110000D02*
D03*
X20291D02*
D03*
D34*
X222452Y51200D02*
D03*
X216728D02*
D03*
X225752Y85800D02*
D03*
X220028D02*
D03*
Y92500D02*
D03*
X225752D02*
D03*
D35*
X28890Y64350D02*
D03*
Y71650D02*
D03*
D36*
X15490Y25457D02*
D03*
Y33543D02*
D03*
X143390Y155857D02*
D03*
Y163943D02*
D03*
X97421Y16143D02*
D03*
Y8057D02*
D03*
M02*
