G04*
G04 #@! TF.GenerationSoftware,Altium Limited,Altium Designer,20.1.14 (287)*
G04*
G04 Layer_Color=16711935*
%FSLAX25Y25*%
%MOIN*%
G70*
G04*
G04 #@! TF.SameCoordinates,90A7C2A2-6745-46E1-82FD-39DD7986B322*
G04*
G04*
G04 #@! TF.FilePolarity,Positive*
G04*
G01*
G75*
%ADD10C,0.00394*%
%ADD73C,0.00098*%
%ADD76C,0.00050*%
D10*
X275601Y30489D02*
Y54111D01*
X251979D02*
X275601D01*
X251979Y30489D02*
X275601D01*
X251979D02*
Y54111D01*
X203956Y119942D02*
X212224D01*
X203956Y125258D02*
X212224D01*
Y119942D02*
Y125258D01*
X203956Y119942D02*
Y125258D01*
X216243Y59472D02*
X222936D01*
X216243Y55928D02*
X222936D01*
X216243D02*
Y59472D01*
X222936Y55928D02*
Y59472D01*
X232765Y46338D02*
Y51062D01*
X229615Y46338D02*
X232765D01*
X229615D02*
Y51062D01*
X232765D01*
X226720Y75346D02*
Y81054D01*
X218059Y75346D02*
Y81054D01*
Y75346D02*
X226720D01*
X218059Y81054D02*
X226720D01*
X68421Y19257D02*
X72358D01*
X68421Y26343D02*
X72358D01*
X68421Y19257D02*
Y26343D01*
X72358Y19257D02*
Y26343D01*
X20528Y111575D02*
X25252D01*
Y108425D02*
Y111575D01*
X20528Y108425D02*
X25252D01*
X20528D02*
Y111575D01*
X185421Y17543D02*
X189358D01*
X185421Y10457D02*
X189358D01*
Y17543D01*
X185421Y10457D02*
Y17543D01*
X220621Y159138D02*
Y166224D01*
X224558Y159138D02*
Y166224D01*
X220621Y159138D02*
X224558D01*
X220621Y166224D02*
X224558D01*
X151921Y159138D02*
Y166224D01*
X155858Y159138D02*
Y166224D01*
X151921Y159138D02*
X155858D01*
X151921Y166224D02*
X155858D01*
X223133Y49231D02*
Y53168D01*
X216047Y49231D02*
Y53168D01*
Y49231D02*
X223133D01*
X216047Y53168D02*
X223133D01*
X26035Y63669D02*
Y72331D01*
X31744Y63669D02*
Y72331D01*
X26035Y63669D02*
X31744D01*
X26035Y72331D02*
X31744D01*
X19421Y71543D02*
X23358D01*
X19421Y64457D02*
X23358D01*
Y71543D01*
X19421Y64457D02*
Y71543D01*
X18559Y100646D02*
X27220D01*
X18559Y106354D02*
X27220D01*
Y100646D02*
Y106354D01*
X18559Y100646D02*
Y106354D01*
X226433Y83832D02*
Y87769D01*
X219346Y83832D02*
Y87769D01*
Y83832D02*
X226433D01*
X219346Y87769D02*
X226433D01*
X199756Y39158D02*
X208024D01*
X199756Y33843D02*
X208024D01*
X199756D02*
Y39158D01*
X208024Y33843D02*
Y39158D01*
X215256D02*
X223524D01*
X215256Y33843D02*
X223524D01*
X215256D02*
Y39158D01*
X223524Y33843D02*
Y39158D01*
X12832Y25366D02*
X18147D01*
X12832Y33634D02*
X18147D01*
X12832Y25366D02*
Y33634D01*
X18147Y25366D02*
Y33634D01*
X14724Y46442D02*
Y51758D01*
X6456Y46442D02*
Y51758D01*
Y46442D02*
X14724D01*
X6456Y51758D02*
X14724D01*
X120756Y152743D02*
Y158057D01*
X129024Y152743D02*
Y158057D01*
X120756D02*
X129024D01*
X120756Y152743D02*
X129024D01*
X140732Y155766D02*
X146047D01*
X140732Y164034D02*
X146047D01*
X140732Y155766D02*
Y164034D01*
X146047Y155766D02*
Y164034D01*
X120055Y12943D02*
Y18258D01*
X111787Y12943D02*
Y18258D01*
Y12943D02*
X120055D01*
X111787Y18258D02*
X120055D01*
X94764Y16234D02*
X100079D01*
X94764Y7966D02*
X100079D01*
Y16234D01*
X94764Y7966D02*
Y16234D01*
X219346Y94468D02*
X226433D01*
X219346Y90531D02*
X226433D01*
X219346D02*
Y94468D01*
X226433Y90531D02*
Y94468D01*
D73*
X230279Y74421D02*
X290121D01*
X230279Y114579D02*
X230279Y74421D01*
X290121D02*
Y114579D01*
X230279Y114579D02*
X290121Y114579D01*
D76*
X275161Y94500D02*
G03*
X271224Y94500I-1969J0D01*
G01*
D02*
G03*
X275161Y94500I1969J0D01*
G01*
X264822Y94500D02*
G03*
X261673Y94500I-1575J0D01*
G01*
X248877Y107295D02*
G03*
X252027Y107295I1575J0D01*
G01*
D02*
G03*
X248877Y107295I-1575J0D01*
G01*
X236082Y94500D02*
G03*
X239232Y94500I1575J0D01*
G01*
D02*
G03*
X236082Y94500I-1575J0D01*
G01*
X257892Y85419D02*
G03*
X261041Y85419I1575J0D01*
G01*
D02*
G03*
X257892Y85419I-1575J0D01*
G01*
X257892Y103581D02*
G03*
X261041Y103581I1575J0D01*
G01*
D02*
G03*
X257892Y103581I-1575J0D01*
G01*
X239863Y103581D02*
G03*
X243013Y103581I1575J0D01*
G01*
D02*
G03*
X239863Y103581I-1575J0D01*
G01*
X239863Y85419D02*
G03*
X243013Y85419I1575J0D01*
G01*
D02*
G03*
X239863Y85419I-1575J0D01*
G01*
X248877Y81705D02*
G03*
X252027Y81705I1575J0D01*
G01*
X263972Y106886D02*
G03*
X263972Y109613I0J1364D01*
G01*
D02*
G03*
X263972Y106886I0J-1364D01*
G01*
X252027Y81705D02*
G03*
X248877Y81705I-1575J0D01*
G01*
X261673Y94500D02*
G03*
X264822Y94500I1575J0D01*
G01*
X279546Y80081D02*
G03*
X279556Y80071I318J304D01*
G01*
X279675Y79991D02*
G03*
X279682Y79988I114J281D01*
G01*
X279561Y80638D02*
G03*
X279551Y80628I304J-318D01*
G01*
X279471Y80509D02*
G03*
X279468Y80502I281J-114D01*
G01*
X275035Y78365D02*
G03*
X275091Y78341I923J2117D01*
G01*
X274985Y78388D02*
G03*
X275035Y78365I965J2077D01*
G01*
X274936Y78411D02*
G03*
X274985Y78388I1003J2030D01*
G01*
X274888Y78436D02*
G03*
X274936Y78411I1041J1983D01*
G01*
X274846Y78458D02*
G03*
X274888Y78436I1071J1939D01*
G01*
X274804Y78482D02*
G03*
X274846Y78458I1102J1896D01*
G01*
X274763Y78506D02*
G03*
X274804Y78482I1132J1852D01*
G01*
X274628Y78597D02*
G03*
X274763Y78506I1247J1729D01*
G01*
X274504Y82012D02*
G03*
X274628Y78597I1391J-1660D01*
G01*
X274723Y82173D02*
G03*
X274504Y82012I1157J-1801D01*
G01*
X274763Y82199D02*
G03*
X274723Y82173I1120J-1834D01*
G01*
X274804Y82223D02*
G03*
X274763Y82199I1091J-1877D01*
G01*
X274846Y82246D02*
G03*
X274804Y82223I1060J-1919D01*
G01*
X274888Y82269D02*
G03*
X274846Y82246I1029J-1961D01*
G01*
X274930Y82291D02*
G03*
X274888Y82269I997J-2003D01*
G01*
X274973Y82311D02*
G03*
X274930Y82291I965J-2044D01*
G01*
X275079Y82358D02*
G03*
X274973Y82311I875J-2125D01*
G01*
X275476Y82477D02*
G03*
X275443Y82470I306J-1688D01*
G01*
X276786Y82326D02*
G03*
X276736Y82348I-950J-2094D01*
G01*
X276835Y82303D02*
G03*
X276786Y82326I-989J-2048D01*
G01*
X276884Y82278D02*
G03*
X276835Y82303I-1027J-2001D01*
G01*
X276926Y82256D02*
G03*
X276884Y82278I-1058J-1957D01*
G01*
X276968Y82233D02*
G03*
X276926Y82256I-1089J-1914D01*
G01*
X277009Y82209D02*
G03*
X276968Y82233I-1119J-1871D01*
G01*
X277055Y82181D02*
G03*
X277009Y82209I-1153J-1822D01*
G01*
X277101Y82151D02*
G03*
X277055Y82181I-1186J-1772D01*
G01*
X277195Y82084D02*
G03*
X277101Y82151I-1281J-1707D01*
G01*
X277367Y78765D02*
G03*
X277195Y82084I-1472J1588D01*
G01*
Y78621D02*
G03*
X277367Y78765I-1296J1726D01*
G01*
X277095Y78550D02*
G03*
X277195Y78621I-1181J1777D01*
G01*
X277049Y78521D02*
G03*
X277095Y78550I-1136J1808D01*
G01*
X277009Y78496D02*
G03*
X277049Y78521I-1108J1852D01*
G01*
X276968Y78472D02*
G03*
X277009Y78496I-1078J1895D01*
G01*
X276926Y78449D02*
G03*
X276968Y78472I-1047J1937D01*
G01*
X276884Y78426D02*
G03*
X276926Y78449I-1016J1979D01*
G01*
X276841Y78405D02*
G03*
X276884Y78426I-983J2021D01*
G01*
X276792Y78382D02*
G03*
X276841Y78405I-945J2065D01*
G01*
X276717Y78349D02*
G03*
X276792Y78382I-883J2127D01*
G01*
X276314Y78228D02*
G03*
X276347Y78234I-306J1688D01*
G01*
X276447Y79658D02*
G03*
X276460Y79669I-558J690D01*
G01*
Y79669D02*
G03*
X276472Y79680I-578J687D01*
G01*
D02*
G03*
X276487Y79693I-597J684D01*
G01*
D02*
G03*
X276568Y79777I-625J685D01*
G01*
X276569Y79777D02*
G03*
X276603Y79821I-699J594D01*
G01*
X276603Y79821D02*
G03*
X276631Y79860I-727J545D01*
G01*
Y79860D02*
G03*
X276655Y79897I-746J501D01*
G01*
X276654Y79897D02*
G03*
X276675Y79933I-762J459D01*
G01*
X276675D02*
G03*
X276693Y79968I-775J418D01*
G01*
X276693Y79968D02*
G03*
X276716Y80021I-782J379D01*
G01*
X276716Y80021D02*
G03*
X276731Y80060I-808J326D01*
G01*
Y80060D02*
G03*
X276748Y80592I-836J292D01*
G01*
X276748D02*
G03*
X276731Y80645I-848J-237D01*
G01*
Y80645D02*
G03*
X276709Y80702I-821J-287D01*
G01*
Y80702D02*
G03*
X276693Y80737I-800J-345D01*
G01*
Y80737D02*
G03*
X276675Y80771I-792J-384D01*
G01*
X276675Y80771D02*
G03*
X276655Y80808I-783J-423D01*
G01*
X276655D02*
G03*
X276631Y80845I-770J-464D01*
G01*
X276631D02*
G03*
X276603Y80884I-754J-506D01*
G01*
Y80884D02*
G03*
X276569Y80927I-734J-551D01*
G01*
X276568D02*
G03*
X276521Y80979I-707J-600D01*
G01*
D02*
G03*
X276501Y80998I-659J-651D01*
G01*
Y80998D02*
G03*
X276485Y81014I-632J-663D01*
G01*
D02*
G03*
X276470Y81027I-609J-671D01*
G01*
X276470D02*
G03*
X276457Y81037I-587J-677D01*
G01*
Y81038D02*
G03*
X276444Y81048I-568J-680D01*
G01*
X276201Y79967D02*
G03*
X276209Y79973I-310J383D01*
G01*
Y79973D02*
G03*
X276216Y79979I-321J382D01*
G01*
D02*
G03*
X276224Y79986I-332J380D01*
G01*
D02*
G03*
X276268Y80032I-347J381D01*
G01*
Y80032D02*
G03*
X276288Y80056I-388J331D01*
G01*
D02*
G03*
X276304Y80079I-403J304D01*
G01*
Y80079D02*
G03*
X276317Y80099I-415J278D01*
G01*
X276317D02*
G03*
X276328Y80120I-423J255D01*
G01*
X276328D02*
G03*
X276338Y80139I-430J232D01*
G01*
X276338Y80139D02*
G03*
X276351Y80168I-435J211D01*
G01*
X276351D02*
G03*
X276360Y80190I-449J181D01*
G01*
D02*
G03*
X276386Y80321I-466J163D01*
G01*
D02*
G03*
X276387Y80352I-489J31D01*
G01*
Y80352D02*
G03*
X276369Y80485I-494J-0D01*
G01*
X276369Y80485D02*
G03*
X276360Y80515I-471J-132D01*
G01*
X276360D02*
G03*
X276347Y80546I-456J-159D01*
G01*
D02*
G03*
X276338Y80566I-445J-191D01*
G01*
X276338D02*
G03*
X276328Y80585I-440J-213D01*
G01*
Y80585D02*
G03*
X276317Y80605I-435J-235D01*
G01*
X276317D02*
G03*
X276304Y80626I-428J-258D01*
G01*
X276304Y80626D02*
G03*
X276288Y80648I-419J-281D01*
G01*
X276288Y80648D02*
G03*
X276269Y80672I-408J-306D01*
G01*
Y80672D02*
G03*
X276243Y80700I-392J-334D01*
G01*
D02*
G03*
X276232Y80711I-366J-362D01*
G01*
D02*
G03*
X276223Y80720I-351J-369D01*
G01*
X276223Y80720D02*
G03*
X276215Y80727I-338J-373D01*
G01*
X276215Y80727D02*
G03*
X276207Y80733I-326J-376D01*
G01*
D02*
G03*
X276200Y80739I-316J-378D01*
G01*
X275343Y81046D02*
G03*
X275330Y81036I558J-690D01*
G01*
Y81036D02*
G03*
X275318Y81025I578J-687D01*
G01*
Y81025D02*
G03*
X275303Y81012I597J-684D01*
G01*
X275303Y81012D02*
G03*
X275221Y80927I625J-685D01*
G01*
X275221D02*
G03*
X275186Y80884I699J-594D01*
G01*
X275187Y80884D02*
G03*
X275159Y80845I727J-545D01*
G01*
Y80845D02*
G03*
X275135Y80808I746J-501D01*
G01*
X275135Y80808D02*
G03*
X275115Y80771I762J-459D01*
G01*
X275115Y80771D02*
G03*
X275097Y80737I775J-418D01*
G01*
D02*
G03*
X275073Y80684I782J-379D01*
G01*
Y80684D02*
G03*
X275059Y80645I808J-326D01*
G01*
Y80645D02*
G03*
X275042Y80113I836J-292D01*
G01*
D02*
G03*
X275059Y80060I848J237D01*
G01*
X275059Y80060D02*
G03*
X275081Y80003I821J287D01*
G01*
X275081Y80003D02*
G03*
X275097Y79968I800J345D01*
G01*
X275097Y79968D02*
G03*
X275115Y79933I792J384D01*
G01*
X275115D02*
G03*
X275135Y79897I783J423D01*
G01*
D02*
G03*
X275159Y79860I770J464D01*
G01*
X275159Y79860D02*
G03*
X275186Y79821I754J506D01*
G01*
D02*
G03*
X275221Y79777I734J551D01*
G01*
D02*
G03*
X275269Y79726I707J600D01*
G01*
X275269Y79726D02*
G03*
X275289Y79706I659J651D01*
G01*
X275289Y79706D02*
G03*
X275305Y79691I632J663D01*
G01*
D02*
G03*
X275320Y79678I609J671D01*
G01*
X275320D02*
G03*
X275332Y79667I587J677D01*
G01*
Y79667D02*
G03*
X275345Y79656I568J680D01*
G01*
X275588Y80738D02*
G03*
X275581Y80732I310J-383D01*
G01*
X275581Y80732D02*
G03*
X275574Y80726I321J-382D01*
G01*
X275574D02*
G03*
X275566Y80719I332J-380D01*
G01*
X275566Y80719D02*
G03*
X275521Y80672I347J-381D01*
G01*
X275521D02*
G03*
X275501Y80648I389J-330D01*
G01*
X275501D02*
G03*
X275486Y80626I404J-303D01*
G01*
Y80626D02*
G03*
X275473Y80605I415J-278D01*
G01*
Y80605D02*
G03*
X275461Y80585I423J-255D01*
G01*
D02*
G03*
X275452Y80566I430J-232D01*
G01*
X275452Y80566D02*
G03*
X275438Y80536I435J-210D01*
G01*
X275438D02*
G03*
X275430Y80515I449J-181D01*
G01*
Y80515D02*
G03*
X275421Y80220I465J-162D01*
G01*
Y80219D02*
G03*
X275430Y80190I471J132D01*
G01*
X275430Y80190D02*
G03*
X275443Y80158I456J159D01*
G01*
X275443D02*
G03*
X275452Y80139I445J191D01*
G01*
X275452Y80139D02*
G03*
X275462Y80120I440J213D01*
G01*
X275461D02*
G03*
X275473Y80099I435J235D01*
G01*
X275473Y80099D02*
G03*
X275486Y80079I428J258D01*
G01*
X275486Y80079D02*
G03*
X275501Y80057I419J281D01*
G01*
X275501D02*
G03*
X275521Y80033I408J306D01*
G01*
X275521Y80033D02*
G03*
X275547Y80004I392J333D01*
G01*
X275547Y80004D02*
G03*
X275558Y79993I366J362D01*
G01*
Y79993D02*
G03*
X275567Y79985I351J369D01*
G01*
D02*
G03*
X275575Y79978I338J373D01*
G01*
D02*
G03*
X275582Y79972I326J376D01*
G01*
X275582Y79972D02*
G03*
X275590Y79966I316J378D01*
G01*
X274799Y83095D02*
G03*
X274722Y83062I1182J-2919D01*
G01*
D02*
G03*
X274655Y83032I1248J-2863D01*
G01*
X274655Y83032D02*
G03*
X274587Y82999I1301J-2801D01*
G01*
D02*
G03*
X274521Y82966I1353J-2737D01*
G01*
Y82966D02*
G03*
X274464Y82935I1404J-2675D01*
G01*
D02*
G03*
X274408Y82903I1446J-2617D01*
G01*
D02*
G03*
X274352Y82870I1488J-2559D01*
G01*
X274352D02*
G03*
X274182Y82758I1515J-2481D01*
G01*
X274182D02*
G03*
X274027Y78065I1713J-2405D01*
G01*
Y78065D02*
G03*
X274289Y77874I1846J2259D01*
G01*
Y77874D02*
G03*
X274344Y77840I1588J2458D01*
G01*
X274344Y77840D02*
G03*
X274400Y77806I1549J2517D01*
G01*
X274400Y77806D02*
G03*
X274456Y77774I1508J2577D01*
G01*
X274456Y77774D02*
G03*
X274513Y77743I1467J2635D01*
G01*
Y77743D02*
G03*
X274571Y77714I1424J2693D01*
G01*
X274571D02*
G03*
X274638Y77681I1381J2753D01*
G01*
D02*
G03*
X274782Y77617I1337J2834D01*
G01*
X275278Y77464D02*
G03*
X275323Y77456I463J2293D01*
G01*
X277042Y77632D02*
G03*
X277110Y77662I-1228J2886D01*
G01*
X277110Y77662D02*
G03*
X277177Y77693I-1282J2824D01*
G01*
X277177Y77693D02*
G03*
X277244Y77726I-1334J2761D01*
G01*
Y77726D02*
G03*
X277301Y77756I-1385J2699D01*
G01*
Y77756D02*
G03*
X277358Y77788I-1428J2642D01*
G01*
Y77788D02*
G03*
X277414Y77820I-1470J2584D01*
G01*
Y77820D02*
G03*
X277477Y77859I-1510J2524D01*
G01*
Y77859D02*
G03*
X277539Y77900I-1555J2457D01*
G01*
Y77900D02*
G03*
X277668Y77991I-1619J2419D01*
G01*
Y77991D02*
G03*
X277903Y82517I-1773J2361D01*
G01*
X277903Y82517D02*
G03*
X277668Y82714I-2002J-2158D01*
G01*
Y82714D02*
G03*
X277532Y82810I-1747J-2327D01*
G01*
X277532Y82810D02*
G03*
X277469Y82850I-1612J-2425D01*
G01*
X277469Y82850D02*
G03*
X277414Y82884I-1566J-2492D01*
G01*
Y82884D02*
G03*
X277358Y82917I-1526J-2551D01*
G01*
D02*
G03*
X277301Y82948I-1485J-2610D01*
G01*
X277301D02*
G03*
X277244Y82979I-1443J-2669D01*
G01*
X277244Y82979D02*
G03*
X277186Y83008I-1399J-2726D01*
G01*
X277186Y83008D02*
G03*
X277118Y83039I-1355J-2785D01*
G01*
Y83039D02*
G03*
X277016Y83084I-1306J-2856D01*
G01*
X276512Y83240D02*
G03*
X276466Y83249I-463J-2293D01*
G01*
X276932Y77757D02*
G03*
X277013Y77791I-1119J2764D01*
G01*
X277013D02*
G03*
X277077Y77820I-1188J2703D01*
G01*
X277077Y77820D02*
G03*
X277140Y77850I-1238J2644D01*
G01*
X277140D02*
G03*
X277195Y77878I-1288J2586D01*
G01*
D02*
G03*
X277249Y77907I-1329J2532D01*
G01*
Y77907D02*
G03*
X277303Y77938I-1369J2478D01*
G01*
X277303Y77938D02*
G03*
X277355Y77969I-1408J2423D01*
G01*
D02*
G03*
X277517Y78075I-1434J2348D01*
G01*
X277517Y78075D02*
G03*
X277663Y82517I-1622J2277D01*
G01*
X277663Y82517D02*
G03*
X277415Y82698I-1747J-2138D01*
G01*
X277415D02*
G03*
X277363Y82731I-1504J-2327D01*
G01*
X277363Y82731D02*
G03*
X277310Y82763I-1466J-2383D01*
G01*
X277310D02*
G03*
X277257Y82793I-1428J-2439D01*
G01*
X277257Y82793D02*
G03*
X277203Y82822I-1389J-2495D01*
G01*
X277203Y82822D02*
G03*
X277148Y82850I-1348J-2550D01*
G01*
Y82850D02*
G03*
X277085Y82881I-1307J-2606D01*
G01*
Y82881D02*
G03*
X276948Y82942I-1266J-2683D01*
G01*
X276479Y83087D02*
G03*
X276436Y83095I-438J-2170D01*
G01*
X274858Y82948D02*
G03*
X274777Y82914I1119J-2764D01*
G01*
X274777D02*
G03*
X274713Y82885I1188J-2703D01*
G01*
X274713D02*
G03*
X274649Y82854I1238J-2644D01*
G01*
X274649D02*
G03*
X274595Y82826I1288J-2586D01*
G01*
D02*
G03*
X274541Y82797I1329J-2532D01*
G01*
X274541D02*
G03*
X274487Y82767I1369J-2478D01*
G01*
X274487D02*
G03*
X274434Y82736I1408J-2423D01*
G01*
D02*
G03*
X274273Y82629I1434J-2348D01*
G01*
X274273Y82629D02*
G03*
X274127Y78187I1622J-2277D01*
G01*
X274127Y78187D02*
G03*
X274375Y78007I1747J2138D01*
G01*
X274375D02*
G03*
X274427Y77974I1504J2327D01*
G01*
D02*
G03*
X274480Y77942I1466J2383D01*
G01*
X274480D02*
G03*
X274533Y77912I1428J2439D01*
G01*
D02*
G03*
X274587Y77882I1389J2495D01*
G01*
D02*
G03*
X274641Y77854I1348J2550D01*
G01*
Y77854D02*
G03*
X274705Y77824I1307J2606D01*
G01*
Y77824D02*
G03*
X274841Y77763I1266J2683D01*
G01*
X275311Y77618D02*
G03*
X275354Y77610I438J2170D01*
G01*
X274874Y78092D02*
G03*
X274931Y78067I1089J2399D01*
G01*
X274818Y78118D02*
G03*
X274874Y78092I1133J2346D01*
G01*
X274762Y78146D02*
G03*
X274818Y78118I1176J2292D01*
G01*
X274714Y78172D02*
G03*
X274762Y78146I1212J2242D01*
G01*
X274666Y78198D02*
G03*
X274714Y78172I1247J2193D01*
G01*
X274619Y78226D02*
G03*
X274666Y78198I1282J2143D01*
G01*
X274566Y78258D02*
G03*
X274619Y78226I1321J2087D01*
G01*
X274514Y78292D02*
G03*
X274566Y78258I1358J2030D01*
G01*
X274406Y78369D02*
G03*
X274514Y78292I1468J1955D01*
G01*
X274208Y82171D02*
G03*
X274406Y78369I1687J-1819D01*
G01*
Y82336D02*
G03*
X274208Y82171I1485J-1978D01*
G01*
X274520Y82417D02*
G03*
X274406Y82336I1353J-2036D01*
G01*
X274572Y82451D02*
G03*
X274520Y82417I1302J-2071D01*
G01*
X274619Y82479D02*
G03*
X274572Y82451I1269J-2122D01*
G01*
X274666Y82507D02*
G03*
X274619Y82479I1235J-2171D01*
G01*
X274714Y82533D02*
G03*
X274666Y82507I1200J-2219D01*
G01*
X274762Y82559D02*
G03*
X274714Y82533I1163J-2267D01*
G01*
X274811Y82583D02*
G03*
X274762Y82558I1126J-2314D01*
G01*
X274867Y82609D02*
G03*
X274811Y82583I1082J-2366D01*
G01*
X274953Y82647D02*
G03*
X274867Y82609I1011J-2436D01*
G01*
X275415Y82786D02*
G03*
X275377Y82778I351J-1933D01*
G01*
X276880Y82629D02*
G03*
X276815Y82656I-1057J-2425D01*
G01*
X276937Y82603D02*
G03*
X276880Y82629I-1105J-2379D01*
G01*
X276993Y82576D02*
G03*
X276937Y82603I-1149J-2326D01*
G01*
X277049Y82548D02*
G03*
X276993Y82576I-1192J-2271D01*
G01*
X277097Y82522D02*
G03*
X277049Y82548I-1227J-2221D01*
G01*
X277144Y82495D02*
G03*
X277097Y82522I-1262J-2172D01*
G01*
X277191Y82467D02*
G03*
X277144Y82495I-1296J-2122D01*
G01*
X277346Y82364D02*
G03*
X277191Y82467I-1428J-1980D01*
G01*
X277488Y78451D02*
G03*
X277346Y82364I-1593J1901D01*
G01*
X277237Y78267D02*
G03*
X277488Y78451I-1325J2063D01*
G01*
X277191Y78238D02*
G03*
X277237Y78267I-1283J2101D01*
G01*
X277144Y78210D02*
G03*
X277191Y78238I-1249J2150D01*
G01*
X277097Y78183D02*
G03*
X277144Y78210I-1215J2198D01*
G01*
X277049Y78157D02*
G03*
X277097Y78183I-1179J2247D01*
G01*
X277000Y78132D02*
G03*
X277049Y78157I-1142J2294D01*
G01*
X276951Y78108D02*
G03*
X277000Y78132I-1105J2341D01*
G01*
X276830Y78055D02*
G03*
X276951Y78108I-1002J2434D01*
G01*
X276375Y77919D02*
G03*
X276413Y77926I-351J1933D01*
G01*
X230672Y114185D02*
X289728D01*
X230672Y74815D02*
Y114185D01*
Y74815D02*
X289728D01*
Y114185D01*
X263972Y106886D02*
Y109613D01*
X232083Y112775D02*
X254839D01*
X232083Y78629D02*
Y93393D01*
X231295D02*
X232083D01*
X232083Y112775D02*
X232083Y93393D01*
X231295Y112775D02*
X232083Y112775D01*
X231295Y93393D02*
Y112775D01*
X254839Y113562D02*
X254839Y112775D01*
X268822Y112775D01*
X268822Y113562D02*
X268822Y112775D01*
X254839Y113562D02*
X268822D01*
X268822Y112775D02*
X269609D01*
X268822Y81225D02*
X268822Y112775D01*
X269609Y81225D02*
Y112775D01*
X268822Y81225D02*
X269609D01*
X268822D02*
X268822Y76225D01*
X269609D01*
Y81225D01*
X268822Y75438D02*
X268822Y76225D01*
X257932D02*
X268822D01*
X257932Y75438D02*
X268822Y75438D01*
X257932Y75438D02*
Y76225D01*
X234980Y76225D02*
X257932Y76225D01*
X234980Y75438D02*
Y76225D01*
Y75438D02*
X257932Y75438D01*
X234882Y76107D02*
X234980Y76225D01*
X234787Y75993D02*
X234882Y76107D01*
X234700Y75889D02*
X234787Y75993D01*
X234624Y75797D02*
X234700Y75889D01*
X234562Y75721D02*
X234624Y75797D01*
X234515Y75665D02*
X234562Y75721D01*
X234487Y75631D02*
X234515Y75665D01*
X234477Y75619D02*
X234487Y75631D01*
X232083Y78629D02*
X234980Y76225D01*
X231985Y78511D02*
X232083Y78629D01*
X231890Y78397D02*
X231985Y78511D01*
X231803Y78293D02*
X231890Y78397D01*
X231727Y78201D02*
X231803Y78293D01*
X231665Y78126D02*
X231727Y78201D01*
X231618Y78070D02*
X231665Y78126D01*
X231590Y78035D02*
X231618Y78070D01*
X231580Y78023D02*
X231590Y78035D01*
X231580Y78023D02*
X234477Y75619D01*
X272234Y81337D02*
X272588D01*
X272234Y80785D02*
Y81337D01*
X271958Y80785D02*
X272234D01*
X271958Y79919D02*
Y80785D01*
Y79919D02*
X272234Y79919D01*
Y79368D02*
Y79919D01*
Y79368D02*
X272588Y79368D01*
X278651Y83817D02*
Y84289D01*
X273139D02*
X278651D01*
X273139Y83817D02*
Y84289D01*
X279438Y80352D02*
X279438Y80352D01*
X279438Y80351D01*
X279438Y80351D01*
X279438Y80350D01*
X279438Y80349D01*
X279439Y80349D01*
X279439Y80348D01*
X279439Y80347D01*
X279439Y80347D01*
X279439Y80346D01*
X279439Y80346D01*
X279439Y80345D01*
X279439Y80344D01*
X279439Y80344D01*
X279439Y80343D01*
X279439Y80343D01*
X279439Y80342D01*
X279439Y80341D01*
X279440Y80341D01*
X279440Y80340D01*
X279440Y80339D01*
X279440Y80339D01*
X279440Y80338D01*
X279440Y80338D01*
X279440Y80337D01*
X279440Y80336D01*
X279440Y80336D01*
X279440Y80335D01*
X279440Y80334D01*
X279440Y80334D01*
X279440Y80333D01*
X279440Y80333D01*
X279441Y80332D01*
X279441Y80331D01*
X279441Y80331D01*
X279441Y80330D01*
X279441Y80330D01*
X279441Y80329D01*
X279441Y80328D01*
X279441Y80328D01*
X279441Y80327D01*
X279441Y80326D01*
X279441Y80326D01*
X279441Y80325D01*
X279441Y80325D01*
X279441Y80324D01*
X279442Y80323D01*
X279442Y80323D01*
X279442Y80322D01*
X279442Y80322D01*
X279442Y80321D01*
X279442Y80320D01*
X279442Y80320D01*
X279442Y80319D01*
X279442Y80318D01*
X279442Y80318D01*
X279442Y80317D01*
X279443Y80317D01*
X279443Y80316D01*
X279443Y80315D01*
X279443Y80315D01*
X279443Y80314D01*
X279443Y80313D01*
X279443Y80313D01*
X279443Y80312D01*
X279443Y80312D01*
X279443Y80311D01*
X279443Y80310D01*
X279443Y80310D01*
X279443Y80309D01*
X279444Y80309D01*
X279444Y80308D01*
X279444Y80307D01*
X279444Y80307D01*
X279444Y80306D01*
X279444Y80305D01*
X279444Y80305D01*
X279444Y80304D01*
X279444Y80304D01*
X279444Y80303D01*
X279444Y80302D01*
X279445Y80302D01*
X279445Y80301D01*
X279445Y80300D01*
X279445Y80300D01*
X279445Y80299D01*
X279445Y80299D01*
X279445Y80298D01*
X279445Y80297D01*
X279445Y80297D01*
X279445Y80296D01*
X279445Y80296D01*
X279445Y80295D01*
X279446Y80294D01*
X279446Y80294D01*
X279446Y80293D01*
X279446Y80293D01*
X279446Y80292D01*
X279446Y80291D01*
X279446Y80291D01*
X279446Y80290D01*
X279446Y80290D01*
X279446Y80289D01*
X279447Y80288D01*
X279447Y80287D01*
X279447Y80286D01*
X279447Y80285D01*
X279447Y80283D01*
X279447Y80282D01*
X279448Y80281D01*
X279448Y80280D01*
X279448Y80278D01*
X279448Y80277D01*
X279449Y80276D01*
X279449Y80275D01*
X279449Y80274D01*
X279449Y80273D01*
X279449Y80271D01*
X279450Y80270D01*
X279450Y80269D01*
X279450Y80268D01*
X279450Y80266D01*
X279450Y80265D01*
X279451Y80264D01*
X279451Y80263D01*
X279451Y80262D01*
X279451Y80260D01*
X279452Y80259D01*
X279452Y80258D01*
X279452Y80257D01*
X279452Y80256D01*
X279453Y80254D01*
X279453Y80253D01*
X279453Y80252D01*
X279454Y80251D01*
X279454Y80250D01*
X279454Y80248D01*
X279454Y80247D01*
X279455Y80246D01*
X279455Y80245D01*
X279455Y80244D01*
X279455Y80243D01*
X279456Y80241D01*
X279456Y80240D01*
X279456Y80239D01*
X279457Y80238D01*
X279457Y80237D01*
X279457Y80235D01*
X279458Y80234D01*
X279458Y80233D01*
X279458Y80232D01*
X279459Y80231D01*
X279459Y80230D01*
X279459Y80228D01*
X279460Y80227D01*
X279460Y80226D01*
X279461Y80224D01*
X279461Y80222D01*
X279462Y80221D01*
X279462Y80219D01*
X279463Y80217D01*
X279463Y80216D01*
X279464Y80214D01*
X279464Y80212D01*
X279465Y80210D01*
X279466Y80209D01*
X279466Y80207D01*
X279467Y80205D01*
X279468Y80203D01*
X279468Y80202D01*
X279470Y80198D01*
X279471Y80194D01*
X279472Y80191D01*
X279474Y80188D01*
X279475Y80184D01*
X279477Y80181D01*
X279479Y80178D01*
X279480Y80174D01*
X279482Y80171D01*
X279484Y80168D01*
X279485Y80164D01*
X279487Y80161D01*
X279489Y80158D01*
X279491Y80155D01*
X279492Y80152D01*
X279495Y80148D01*
X279496Y80145D01*
X279498Y80142D01*
X279500Y80139D01*
X279502Y80136D01*
X279505Y80132D01*
X279507Y80129D01*
X279510Y80125D01*
X279512Y80122D01*
X279515Y80118D01*
X279518Y80115D01*
X279520Y80111D01*
X279523Y80108D01*
X279526Y80105D01*
X279529Y80101D01*
X279532Y80097D01*
X279536Y80093D01*
X279539Y80089D01*
X279543Y80085D01*
X279546Y80081D01*
X279556Y80071D02*
X279561Y80067D01*
X279565Y80063D01*
X279569Y80059D01*
X279573Y80056D01*
X279576Y80053D01*
X279580Y80049D01*
X279584Y80046D01*
X279588Y80043D01*
X279591Y80040D01*
X279595Y80038D01*
X279598Y80035D01*
X279602Y80032D01*
X279605Y80030D01*
X279609Y80027D01*
X279612Y80025D01*
X279616Y80023D01*
X279620Y80020D01*
X279623Y80018D01*
X279626Y80016D01*
X279629Y80014D01*
X279632Y80012D01*
X279635Y80010D01*
X279639Y80009D01*
X279642Y80007D01*
X279645Y80005D01*
X279648Y80003D01*
X279652Y80002D01*
X279655Y80000D01*
X279658Y79998D01*
X279661Y79997D01*
X279665Y79995D01*
X279668Y79994D01*
X279672Y79993D01*
X279675Y79991D01*
X279682Y79988D02*
X279684Y79988D01*
X279686Y79987D01*
X279688Y79986D01*
X279689Y79986D01*
X279691Y79985D01*
X279693Y79984D01*
X279694Y79984D01*
X279696Y79983D01*
X279698Y79983D01*
X279700Y79982D01*
X279701Y79982D01*
X279703Y79981D01*
X279705Y79981D01*
X279706Y79980D01*
X279707Y79980D01*
X279708Y79980D01*
X279710Y79979D01*
X279711Y79979D01*
X279712Y79979D01*
X279713Y79978D01*
X279714Y79978D01*
X279715Y79978D01*
X279717Y79977D01*
X279718Y79977D01*
X279719Y79977D01*
X279720Y79976D01*
X279721Y79976D01*
X279723Y79976D01*
X279724Y79976D01*
X279725Y79975D01*
X279726Y79975D01*
X279727Y79975D01*
X279729Y79975D01*
X279730Y79974D01*
X279731Y79974D01*
X279732Y79974D01*
X279733Y79973D01*
X279734Y79973D01*
X279736Y79973D01*
X279737Y79973D01*
X279738Y79972D01*
X279739Y79972D01*
X279741Y79972D01*
X279742Y79972D01*
X279743Y79971D01*
X279744Y79971D01*
X279745Y79971D01*
X279747Y79971D01*
X279748Y79970D01*
X279749Y79970D01*
X279750Y79970D01*
X279751Y79970D01*
X279753Y79970D01*
X279754Y79969D01*
X279755Y79969D01*
X279756Y79969D01*
X279757Y79969D01*
X279759Y79968D01*
X279760Y79968D01*
X279761Y79968D01*
X279762Y79968D01*
X279764Y79968D01*
X279765Y79967D01*
X279766Y79967D01*
X279767Y79967D01*
X279768Y79967D01*
X279768Y79967D01*
X279769Y79967D01*
X279770Y79967D01*
X279770Y79966D01*
X279771Y79966D01*
X279771Y79966D01*
X279772Y79966D01*
X279773Y79966D01*
X279773Y79966D01*
X279774Y79966D01*
X279774Y79966D01*
X279775Y79966D01*
X279776Y79966D01*
X279776Y79966D01*
X279777Y79966D01*
X279778Y79965D01*
X279778Y79965D01*
X279779Y79965D01*
X279779Y79965D01*
X279780Y79965D01*
X279781Y79965D01*
X279781Y79965D01*
X279782Y79965D01*
X279783Y79965D01*
X279783Y79965D01*
X279784Y79965D01*
X279784Y79965D01*
X279785Y79964D01*
X279786Y79964D01*
X279786Y79964D01*
X279787Y79964D01*
X279787Y79964D01*
X279788Y79964D01*
X279789Y79964D01*
X279789Y79964D01*
X279790Y79964D01*
X279790Y79964D01*
X279791Y79964D01*
X279792Y79963D01*
X279792Y79963D01*
X279793Y79963D01*
X279794Y79963D01*
X279794Y79963D01*
X279795Y79963D01*
X279795Y79963D01*
X279796Y79963D01*
X279797Y79963D01*
X279797Y79963D01*
X279798Y79963D01*
X279799Y79963D01*
X279799Y79962D01*
X279800Y79962D01*
X279800Y79962D01*
X279801Y79962D01*
X279802Y79962D01*
X279802Y79962D01*
X279803Y79962D01*
X279803Y79962D01*
X279804Y79962D01*
X279805Y79962D01*
X279805Y79962D01*
X279806Y79962D01*
X279806Y79962D01*
X279807Y79962D01*
X279808Y79962D01*
X279808Y79961D01*
X279809Y79961D01*
X279810Y79961D01*
X279810Y79961D01*
X279811Y79961D01*
X279812Y79961D01*
X279812Y79961D01*
X279813Y79961D01*
X279813Y79961D01*
X279814Y79961D01*
X279815Y79961D01*
X279815Y79961D01*
X279816Y79961D01*
X279816Y79960D01*
X279817Y79960D01*
X279818Y79960D01*
X279818Y79960D01*
X279819Y79960D01*
X279819Y79960D01*
X279820Y79960D01*
X279821Y79960D01*
X279821Y79960D01*
X279822Y79960D01*
X279823Y79960D01*
X279823Y79960D01*
X279824Y79960D01*
X279824Y79959D01*
X279825Y79959D01*
X279826Y79959D01*
X279826Y79959D01*
X279827Y79959D01*
X279828Y79959D01*
X279828Y79959D01*
X279829Y79959D01*
X279829Y79959D01*
X279830Y79959D01*
X279831Y79959D01*
X279832Y79959D01*
X279832Y79565D02*
X279832Y79959D01*
X279831Y80746D02*
X279832Y80746D01*
X279831Y80746D02*
X279831Y80746D01*
X279830Y80746D02*
X279831Y80746D01*
X279829Y80746D02*
X279830Y80746D01*
X279829Y80746D02*
X279829Y80746D01*
X279828Y80746D02*
X279829Y80746D01*
X279828Y80746D02*
X279828Y80746D01*
X279827Y80746D02*
X279828Y80746D01*
X279826Y80745D02*
X279827Y80746D01*
X279826Y80745D02*
X279826Y80745D01*
X279825Y80745D02*
X279826Y80745D01*
X279824Y80745D02*
X279825Y80745D01*
X279824Y80745D02*
X279824Y80745D01*
X279823Y80745D02*
X279824Y80745D01*
X279823Y80745D02*
X279823Y80745D01*
X279822Y80745D02*
X279823Y80745D01*
X279821Y80745D02*
X279822Y80745D01*
X279821Y80745D02*
X279821Y80745D01*
X279820Y80745D02*
X279821Y80745D01*
X279819Y80745D02*
X279820Y80745D01*
X279819Y80745D02*
X279819Y80745D01*
X279818Y80744D02*
X279819Y80745D01*
X279818Y80744D02*
X279818Y80744D01*
X279817Y80744D02*
X279818Y80744D01*
X279816Y80744D02*
X279817Y80744D01*
X279816Y80744D02*
X279816Y80744D01*
X279815Y80744D02*
X279816Y80744D01*
X279815Y80744D02*
X279815Y80744D01*
X279814Y80744D02*
X279815Y80744D01*
X279813Y80744D02*
X279814Y80744D01*
X279813Y80744D02*
X279813Y80744D01*
X279812Y80744D02*
X279813Y80744D01*
X279812Y80744D02*
X279812Y80744D01*
X279811Y80744D02*
X279812Y80744D01*
X279810Y80744D02*
X279811Y80744D01*
X279810Y80743D02*
X279810Y80744D01*
X279809Y80743D02*
X279810Y80743D01*
X279808Y80743D02*
X279809Y80743D01*
X279808Y80743D02*
X279808Y80743D01*
X279807Y80743D02*
X279808Y80743D01*
X279806Y80743D02*
X279807Y80743D01*
X279806Y80743D02*
X279806Y80743D01*
X279805Y80743D02*
X279806Y80743D01*
X279805Y80743D02*
X279805Y80743D01*
X279804Y80743D02*
X279805Y80743D01*
X279803Y80743D02*
X279804Y80743D01*
X279803Y80743D02*
X279803Y80743D01*
X279802Y80743D02*
X279803Y80743D01*
X279802Y80743D02*
X279802Y80743D01*
X279801Y80742D02*
X279802Y80743D01*
X279800Y80742D02*
X279801Y80742D01*
X279800Y80742D02*
X279800Y80742D01*
X279799Y80742D02*
X279800Y80742D01*
X279799Y80742D02*
X279799Y80742D01*
X279798Y80742D02*
X279799Y80742D01*
X279797Y80742D02*
X279798Y80742D01*
X279797Y80742D02*
X279797Y80742D01*
X279796Y80742D02*
X279797Y80742D01*
X279795Y80742D02*
X279796Y80742D01*
X279795Y80742D02*
X279795Y80742D01*
X279794Y80742D02*
X279795Y80742D01*
X279794Y80742D02*
X279794Y80742D01*
X279793Y80741D02*
X279794Y80742D01*
X279792Y80741D02*
X279793Y80741D01*
X279792Y80741D02*
X279792Y80741D01*
X279791Y80741D02*
X279792Y80741D01*
X279790Y80741D02*
X279791Y80741D01*
X279790Y80741D02*
X279790Y80741D01*
X279789Y80741D02*
X279790Y80741D01*
X279789Y80741D02*
X279789Y80741D01*
X279788Y80741D02*
X279789Y80741D01*
X279787Y80741D02*
X279788Y80741D01*
X279787Y80741D02*
X279787Y80741D01*
X279786Y80740D02*
X279787Y80741D01*
X279786Y80740D02*
X279786Y80740D01*
X279785Y80740D02*
X279786Y80740D01*
X279784Y80740D02*
X279785Y80740D01*
X279784Y80740D02*
X279784Y80740D01*
X279783Y80740D02*
X279784Y80740D01*
X279783Y80740D02*
X279783Y80740D01*
X279782Y80740D02*
X279783Y80740D01*
X279781Y80740D02*
X279782Y80740D01*
X279781Y80740D02*
X279781Y80740D01*
X279780Y80740D02*
X279781Y80740D01*
X279779Y80739D02*
X279780Y80740D01*
X279779Y80739D02*
X279779Y80739D01*
X279778Y80739D02*
X279779Y80739D01*
X279778Y80739D02*
X279778Y80739D01*
X279777Y80739D02*
X279778Y80739D01*
X279776Y80739D02*
X279777Y80739D01*
X279776Y80739D02*
X279776Y80739D01*
X279775Y80739D02*
X279776Y80739D01*
X279774Y80739D02*
X279775Y80739D01*
X279774Y80739D02*
X279774Y80739D01*
X279773Y80739D02*
X279774Y80739D01*
X279773Y80739D02*
X279773Y80739D01*
X279772Y80739D02*
X279773Y80739D01*
X279771Y80738D02*
X279772Y80739D01*
X279771Y80738D02*
X279771Y80738D01*
X279770Y80738D02*
X279771Y80738D01*
X279770Y80738D02*
X279770Y80738D01*
X279769Y80738D02*
X279770Y80738D01*
X279768Y80738D02*
X279769Y80738D01*
X279768Y80738D02*
X279768Y80738D01*
X279767Y80738D02*
X279768Y80738D01*
X279765Y80737D02*
X279767Y80738D01*
X279764Y80737D02*
X279765Y80737D01*
X279763Y80737D02*
X279764Y80737D01*
X279762Y80737D02*
X279763Y80737D01*
X279761Y80737D02*
X279762Y80737D01*
X279759Y80736D02*
X279761Y80737D01*
X279758Y80736D02*
X279759Y80736D01*
X279757Y80736D02*
X279758Y80736D01*
X279756Y80736D02*
X279757Y80736D01*
X279754Y80736D02*
X279756Y80736D01*
X279753Y80735D02*
X279754Y80736D01*
X279752Y80735D02*
X279753Y80735D01*
X279751Y80735D02*
X279752Y80735D01*
X279750Y80735D02*
X279751Y80735D01*
X279748Y80734D02*
X279750Y80735D01*
X279747Y80734D02*
X279748Y80734D01*
X279746Y80734D02*
X279747Y80734D01*
X279745Y80734D02*
X279746Y80734D01*
X279744Y80734D02*
X279745Y80734D01*
X279742Y80733D02*
X279744Y80734D01*
X279741Y80733D02*
X279742Y80733D01*
X279740Y80733D02*
X279741Y80733D01*
X279739Y80733D02*
X279740Y80733D01*
X279737Y80732D02*
X279739Y80733D01*
X279736Y80732D02*
X279737Y80732D01*
X279735Y80732D02*
X279736Y80732D01*
X279734Y80731D02*
X279735Y80732D01*
X279733Y80731D02*
X279734Y80731D01*
X279731Y80731D02*
X279733Y80731D01*
X279730Y80731D02*
X279731Y80731D01*
X279729Y80730D02*
X279730Y80731D01*
X279728Y80730D02*
X279729Y80730D01*
X279727Y80730D02*
X279728Y80730D01*
X279726Y80730D02*
X279727Y80730D01*
X279724Y80729D02*
X279726Y80730D01*
X279723Y80729D02*
X279724Y80729D01*
X279722Y80729D02*
X279723Y80729D01*
X279721Y80728D02*
X279722Y80729D01*
X279720Y80728D02*
X279721Y80728D01*
X279718Y80728D02*
X279720Y80728D01*
X279717Y80727D02*
X279718Y80728D01*
X279716Y80727D02*
X279717Y80727D01*
X279715Y80727D02*
X279716Y80727D01*
X279714Y80727D02*
X279715Y80727D01*
X279713Y80726D02*
X279714Y80727D01*
X279711Y80726D02*
X279713Y80726D01*
X279710Y80726D02*
X279711Y80726D01*
X279709Y80725D02*
X279710Y80726D01*
X279708Y80725D02*
X279709Y80725D01*
X279707Y80725D02*
X279708Y80725D01*
X279706Y80724D02*
X279707Y80725D01*
X279704Y80724D02*
X279706Y80724D01*
X279702Y80723D02*
X279704Y80724D01*
X279700Y80723D02*
X279702Y80723D01*
X279698Y80722D02*
X279700Y80723D01*
X279697Y80722D02*
X279698Y80722D01*
X279695Y80721D02*
X279697Y80722D01*
X279693Y80720D02*
X279695Y80721D01*
X279692Y80720D02*
X279693Y80720D01*
X279690Y80719D02*
X279692Y80720D01*
X279688Y80719D02*
X279690Y80719D01*
X279686Y80718D02*
X279688Y80719D01*
X279685Y80717D02*
X279686Y80718D01*
X279683Y80717D02*
X279685Y80717D01*
X279681Y80716D02*
X279683Y80717D01*
X279677Y80714D02*
X279681Y80716D01*
X279674Y80713D02*
X279677Y80714D01*
X279671Y80712D02*
X279674Y80713D01*
X279667Y80710D02*
X279671Y80712D01*
X279664Y80709D02*
X279667Y80710D01*
X279660Y80707D02*
X279664Y80709D01*
X279657Y80706D02*
X279660Y80707D01*
X279654Y80704D02*
X279657Y80706D01*
X279650Y80702D02*
X279654Y80704D01*
X279647Y80701D02*
X279650Y80702D01*
X279644Y80699D02*
X279647Y80701D01*
X279641Y80697D02*
X279644Y80699D01*
X279638Y80695D02*
X279641Y80697D01*
X279634Y80694D02*
X279638Y80695D01*
X279631Y80692D02*
X279634Y80694D01*
X279628Y80690D02*
X279631Y80692D01*
X279625Y80688D02*
X279628Y80690D01*
X279622Y80686D02*
X279625Y80688D01*
X279619Y80684D02*
X279622Y80686D01*
X279615Y80682D02*
X279619Y80684D01*
X279612Y80679D02*
X279615Y80682D01*
X279608Y80677D02*
X279612Y80679D01*
X279605Y80674D02*
X279608Y80677D01*
X279601Y80672D02*
X279605Y80674D01*
X279598Y80669D02*
X279601Y80672D01*
X279594Y80667D02*
X279598Y80669D01*
X279591Y80664D02*
X279594Y80667D01*
X279587Y80661D02*
X279591Y80664D01*
X279584Y80659D02*
X279587Y80661D01*
X279580Y80655D02*
X279584Y80659D01*
X279576Y80652D02*
X279580Y80655D01*
X279573Y80649D02*
X279576Y80652D01*
X279569Y80645D02*
X279573Y80649D01*
X279565Y80642D02*
X279569Y80645D01*
X279561Y80638D02*
X279565Y80642D01*
X279546Y80624D02*
X279551Y80628D01*
X279543Y80620D02*
X279546Y80624D01*
X279539Y80615D02*
X279543Y80620D01*
X279536Y80612D02*
X279539Y80615D01*
X279532Y80608D02*
X279536Y80612D01*
X279529Y80604D02*
X279532Y80608D01*
X279526Y80600D02*
X279529Y80604D01*
X279523Y80596D02*
X279526Y80600D01*
X279520Y80593D02*
X279523Y80596D01*
X279517Y80589D02*
X279520Y80593D01*
X279515Y80586D02*
X279517Y80589D01*
X279512Y80582D02*
X279515Y80586D01*
X279509Y80579D02*
X279512Y80582D01*
X279507Y80576D02*
X279509Y80579D01*
X279504Y80572D02*
X279507Y80576D01*
X279502Y80568D02*
X279504Y80572D01*
X279500Y80565D02*
X279502Y80568D01*
X279498Y80562D02*
X279500Y80565D01*
X279496Y80558D02*
X279498Y80562D01*
X279494Y80555D02*
X279496Y80558D01*
X279492Y80552D02*
X279494Y80555D01*
X279490Y80549D02*
X279492Y80552D01*
X279488Y80546D02*
X279490Y80549D01*
X279486Y80542D02*
X279488Y80546D01*
X279485Y80539D02*
X279486Y80542D01*
X279483Y80536D02*
X279485Y80539D01*
X279481Y80533D02*
X279483Y80536D01*
X279480Y80529D02*
X279481Y80533D01*
X279478Y80526D02*
X279480Y80529D01*
X279476Y80523D02*
X279478Y80526D01*
X279475Y80519D02*
X279476Y80523D01*
X279473Y80516D02*
X279475Y80519D01*
X279472Y80513D02*
X279473Y80516D01*
X279471Y80509D02*
X279472Y80513D01*
X279467Y80500D02*
X279468Y80502D01*
X279467Y80498D02*
X279467Y80500D01*
X279466Y80497D02*
X279467Y80498D01*
X279465Y80495D02*
X279466Y80497D01*
X279465Y80493D02*
X279465Y80495D01*
X279464Y80492D02*
X279465Y80493D01*
X279464Y80490D02*
X279464Y80492D01*
X279463Y80488D02*
X279464Y80490D01*
X279462Y80486D02*
X279463Y80488D01*
X279462Y80485D02*
X279462Y80486D01*
X279461Y80483D02*
X279462Y80485D01*
X279461Y80481D02*
X279461Y80483D01*
X279460Y80479D02*
X279461Y80481D01*
X279460Y80478D02*
X279460Y80479D01*
X279460Y80477D02*
X279460Y80478D01*
X279459Y80476D02*
X279460Y80477D01*
X279459Y80475D02*
X279459Y80476D01*
X279458Y80474D02*
X279459Y80475D01*
X279458Y80472D02*
X279458Y80474D01*
X279458Y80471D02*
X279458Y80472D01*
X279457Y80470D02*
X279458Y80471D01*
X279457Y80469D02*
X279457Y80470D01*
X279457Y80468D02*
X279457Y80469D01*
X279457Y80466D02*
X279457Y80468D01*
X279456Y80465D02*
X279457Y80466D01*
X279456Y80464D02*
X279456Y80465D01*
X279456Y80463D02*
X279456Y80464D01*
X279455Y80462D02*
X279456Y80463D01*
X279455Y80461D02*
X279455Y80462D01*
X279455Y80459D02*
X279455Y80461D01*
X279454Y80458D02*
X279455Y80459D01*
X279454Y80457D02*
X279454Y80458D01*
X279454Y80456D02*
X279454Y80457D01*
X279454Y80454D02*
X279454Y80456D01*
X279453Y80453D02*
X279454Y80454D01*
X279453Y80452D02*
X279453Y80453D01*
X279453Y80451D02*
X279453Y80452D01*
X279453Y80450D02*
X279453Y80451D01*
X279452Y80449D02*
X279453Y80450D01*
X279452Y80447D02*
X279452Y80449D01*
X279452Y80446D02*
X279452Y80447D01*
X279452Y80445D02*
X279452Y80446D01*
X279451Y80444D02*
X279452Y80445D01*
X279451Y80443D02*
X279451Y80444D01*
X279451Y80441D02*
X279451Y80443D01*
X279451Y80440D02*
X279451Y80441D01*
X279450Y80439D02*
X279451Y80440D01*
X279450Y80438D02*
X279450Y80439D01*
X279450Y80436D02*
X279450Y80438D01*
X279450Y80435D02*
X279450Y80436D01*
X279450Y80434D02*
X279450Y80435D01*
X279449Y80433D02*
X279450Y80434D01*
X279449Y80432D02*
X279449Y80433D01*
X279449Y80430D02*
X279449Y80432D01*
X279449Y80429D02*
X279449Y80430D01*
X279448Y80428D02*
X279449Y80429D01*
X279448Y80427D02*
X279448Y80428D01*
X279448Y80426D02*
X279448Y80427D01*
X279448Y80424D02*
X279448Y80426D01*
X279448Y80423D02*
X279448Y80424D01*
X279447Y80422D02*
X279448Y80423D01*
X279447Y80421D02*
X279447Y80422D01*
X279447Y80419D02*
X279447Y80421D01*
X279447Y80418D02*
X279447Y80419D01*
X279447Y80417D02*
X279447Y80418D01*
X279447Y80416D02*
X279447Y80417D01*
X279446Y80416D02*
X279447Y80416D01*
X279446Y80415D02*
X279446Y80416D01*
X279446Y80415D02*
X279446Y80415D01*
X279446Y80414D02*
X279446Y80415D01*
X279446Y80413D02*
X279446Y80414D01*
X279446Y80413D02*
X279446Y80413D01*
X279446Y80412D02*
X279446Y80413D01*
X279446Y80412D02*
X279446Y80412D01*
X279446Y80411D02*
X279446Y80412D01*
X279446Y80410D02*
X279446Y80411D01*
X279445Y80410D02*
X279446Y80410D01*
X279445Y80409D02*
X279445Y80410D01*
X279445Y80409D02*
X279445Y80409D01*
X279445Y80408D02*
X279445Y80409D01*
X279445Y80407D02*
X279445Y80408D01*
X279445Y80407D02*
X279445Y80407D01*
X279445Y80406D02*
X279445Y80407D01*
X279445Y80405D02*
X279445Y80406D01*
X279445Y80405D02*
X279445Y80405D01*
X279445Y80404D02*
X279445Y80405D01*
X279445Y80404D02*
X279445Y80404D01*
X279445Y80403D02*
X279445Y80404D01*
X279444Y80402D02*
X279445Y80403D01*
X279444Y80402D02*
X279444Y80402D01*
X279444Y80401D02*
X279444Y80402D01*
X279444Y80401D02*
X279444Y80401D01*
X279444Y80400D02*
X279444Y80401D01*
X279444Y80399D02*
X279444Y80400D01*
X279444Y80399D02*
X279444Y80399D01*
X279444Y80398D02*
X279444Y80399D01*
X279444Y80397D02*
X279444Y80398D01*
X279444Y80397D02*
X279444Y80397D01*
X279444Y80396D02*
X279444Y80397D01*
X279443Y80396D02*
X279444Y80396D01*
X279443Y80395D02*
X279443Y80396D01*
X279443Y80394D02*
X279443Y80395D01*
X279443Y80394D02*
X279443Y80394D01*
X279443Y80393D02*
X279443Y80394D01*
X279443Y80392D02*
X279443Y80393D01*
X279443Y80392D02*
X279443Y80392D01*
X279443Y80391D02*
X279443Y80392D01*
X279443Y80391D02*
X279443Y80391D01*
X279443Y80390D02*
X279443Y80391D01*
X279443Y80389D02*
X279443Y80390D01*
X279443Y80389D02*
X279443Y80389D01*
X279443Y80388D02*
X279443Y80389D01*
X279442Y80388D02*
X279443Y80388D01*
X279442Y80387D02*
X279442Y80388D01*
X279442Y80386D02*
X279442Y80387D01*
X279442Y80386D02*
X279442Y80386D01*
X279442Y80385D02*
X279442Y80386D01*
X279442Y80384D02*
X279442Y80385D01*
X279442Y80384D02*
X279442Y80384D01*
X279442Y80383D02*
X279442Y80384D01*
X279442Y80383D02*
X279442Y80383D01*
X279442Y80382D02*
X279442Y80383D01*
X279442Y80381D02*
X279442Y80382D01*
X279441Y80381D02*
X279442Y80381D01*
X279441Y80380D02*
X279441Y80381D01*
X279441Y80380D02*
X279441Y80380D01*
X279441Y80379D02*
X279441Y80380D01*
X279441Y80378D02*
X279441Y80379D01*
X279441Y80378D02*
X279441Y80378D01*
X279441Y80377D02*
X279441Y80378D01*
X279441Y80376D02*
X279441Y80377D01*
X279441Y80376D02*
X279441Y80376D01*
X279441Y80375D02*
X279441Y80376D01*
X279441Y80375D02*
X279441Y80375D01*
X279441Y80374D02*
X279441Y80375D01*
X279441Y80373D02*
X279441Y80374D01*
X279441Y80373D02*
X279441Y80373D01*
X279440Y80372D02*
X279441Y80373D01*
X279440Y80372D02*
X279440Y80372D01*
X279440Y80371D02*
X279440Y80372D01*
X279440Y80370D02*
X279440Y80371D01*
X279440Y80370D02*
X279440Y80370D01*
X279440Y80369D02*
X279440Y80370D01*
X279440Y80369D02*
X279440Y80369D01*
X279440Y80368D02*
X279440Y80369D01*
X279440Y80367D02*
X279440Y80368D01*
X279440Y80367D02*
X279440Y80367D01*
X279440Y80366D02*
X279440Y80367D01*
X279440Y80365D02*
X279440Y80366D01*
X279440Y80365D02*
X279440Y80365D01*
X279440Y80364D02*
X279440Y80365D01*
X279439Y80364D02*
X279440Y80364D01*
X279439Y80363D02*
X279439Y80364D01*
X279439Y80362D02*
X279439Y80363D01*
X279439Y80362D02*
X279439Y80362D01*
X279439Y80361D02*
X279439Y80362D01*
X279439Y80360D02*
X279439Y80361D01*
X279439Y80360D02*
X279439Y80360D01*
X279439Y80359D02*
X279439Y80360D01*
X279439Y80359D02*
X279439Y80359D01*
X279439Y80358D02*
X279439Y80359D01*
X279439Y80357D02*
X279439Y80358D01*
X279439Y80357D02*
X279439Y80357D01*
X279439Y80356D02*
X279439Y80357D01*
X279438Y80356D02*
X279439Y80356D01*
X279438Y80355D02*
X279438Y80356D01*
X279438Y80354D02*
X279438Y80355D01*
X279438Y80354D02*
X279438Y80354D01*
X279438Y80352D02*
X279438Y80354D01*
X279832Y80746D02*
X279832Y81140D01*
X279202Y81140D02*
X279832Y81140D01*
X279202Y79565D02*
X279832Y79565D01*
X278651Y76415D02*
Y77518D01*
X273139Y76415D02*
X278651D01*
X273139D02*
Y76888D01*
X272588D02*
X278021D01*
X279202Y78069D01*
Y83817D01*
X272588D02*
X279202D01*
X272588Y76888D02*
Y83817D01*
X275888Y78187D02*
X275895Y78187D01*
X275881Y78188D02*
X275888Y78187D01*
X275874Y78188D02*
X275881Y78188D01*
X275868Y78189D02*
X275874Y78188D01*
X275861Y78189D02*
X275868Y78189D01*
X275854Y78189D02*
X275861Y78189D01*
X275847Y78190D02*
X275854Y78189D01*
X275840Y78190D02*
X275847Y78190D01*
X275834Y78190D02*
X275840Y78190D01*
X275827Y78191D02*
X275834Y78190D01*
X275820Y78191D02*
X275827Y78191D01*
X275813Y78192D02*
X275820Y78191D01*
X275806Y78192D02*
X275813Y78192D01*
X275800Y78193D02*
X275806Y78192D01*
X275793Y78193D02*
X275800Y78193D01*
X275786Y78193D02*
X275793Y78193D01*
X275779Y78194D02*
X275786Y78193D01*
X275773Y78194D02*
X275779Y78194D01*
X275766Y78195D02*
X275773Y78194D01*
X275759Y78195D02*
X275766Y78195D01*
X275752Y78196D02*
X275759Y78195D01*
X275745Y78196D02*
X275752Y78196D01*
X275739Y78197D02*
X275745Y78196D01*
X275732Y78197D02*
X275739Y78197D01*
X275725Y78198D02*
X275732Y78197D01*
X275718Y78198D02*
X275725Y78198D01*
X275711Y78199D02*
X275718Y78198D01*
X275705Y78199D02*
X275711Y78199D01*
X275698Y78200D02*
X275705Y78199D01*
X275691Y78201D02*
X275698Y78200D01*
X275684Y78201D02*
X275691Y78201D01*
X275678Y78202D02*
X275684Y78201D01*
X275671Y78202D02*
X275678Y78202D01*
X275664Y78203D02*
X275671Y78202D01*
X275657Y78204D02*
X275664Y78203D01*
X275651Y78204D02*
X275657Y78204D01*
X275644Y78205D02*
X275651Y78204D01*
X275637Y78206D02*
X275644Y78205D01*
X275630Y78206D02*
X275637Y78206D01*
X275623Y78207D02*
X275630Y78206D01*
X275617Y78208D02*
X275623Y78207D01*
X275610Y78209D02*
X275617Y78208D01*
X275603Y78209D02*
X275610Y78209D01*
X275596Y78210D02*
X275603Y78209D01*
X275590Y78211D02*
X275596Y78210D01*
X275583Y78212D02*
X275590Y78211D01*
X275576Y78213D02*
X275583Y78212D01*
X275570Y78214D02*
X275576Y78213D01*
X275563Y78214D02*
X275570Y78214D01*
X275556Y78215D02*
X275563Y78214D01*
X275549Y78216D02*
X275556Y78215D01*
X275543Y78217D02*
X275549Y78216D01*
X275536Y78218D02*
X275543Y78217D01*
X275529Y78219D02*
X275536Y78218D01*
X275523Y78220D02*
X275529Y78219D01*
X275516Y78221D02*
X275523Y78220D01*
X275509Y78222D02*
X275516Y78221D01*
X275502Y78223D02*
X275509Y78222D01*
X275496Y78224D02*
X275502Y78223D01*
X275489Y78226D02*
X275496Y78224D01*
X275483Y78227D02*
X275489Y78226D01*
X275462Y78231D02*
X275483Y78227D01*
X275443Y78234D02*
X275462Y78231D01*
X275423Y78238D02*
X275443Y78234D01*
X275403Y78243D02*
X275423Y78238D01*
X275389Y78246D02*
X275403Y78243D01*
X275376Y78249D02*
X275389Y78246D01*
X275363Y78252D02*
X275376Y78249D01*
X275350Y78256D02*
X275363Y78252D01*
X275337Y78259D02*
X275350Y78256D01*
X275324Y78263D02*
X275337Y78259D01*
X275310Y78266D02*
X275324Y78263D01*
X275297Y78270D02*
X275310Y78266D01*
X275284Y78274D02*
X275297Y78270D01*
X275271Y78278D02*
X275284Y78274D01*
X275258Y78282D02*
X275271Y78278D01*
X275245Y78286D02*
X275258Y78282D01*
X275232Y78290D02*
X275245Y78286D01*
X275219Y78294D02*
X275232Y78290D01*
X275206Y78299D02*
X275219Y78294D01*
X275194Y78303D02*
X275206Y78299D01*
X275181Y78308D02*
X275194Y78303D01*
X275168Y78312D02*
X275181Y78308D01*
X275149Y78319D02*
X275168Y78312D01*
X275130Y78326D02*
X275149Y78319D01*
X275110Y78334D02*
X275130Y78326D01*
X275091Y78342D02*
X275110Y78334D01*
X275079Y82358D02*
X275098Y82366D01*
X275117Y82373D01*
X275136Y82381D01*
X275155Y82388D01*
X275174Y82395D01*
X275194Y82402D01*
X275206Y82406D01*
X275219Y82411D01*
X275232Y82415D01*
X275245Y82419D01*
X275258Y82423D01*
X275271Y82427D01*
X275284Y82431D01*
X275297Y82435D01*
X275310Y82438D01*
X275324Y82442D01*
X275337Y82446D01*
X275350Y82449D01*
X275363Y82452D01*
X275383Y82457D01*
X275403Y82462D01*
X275423Y82466D01*
X275443Y82470D01*
X275476Y82477D02*
X275483Y82478D01*
X275489Y82479D01*
X275496Y82480D01*
X275502Y82481D01*
X275509Y82482D01*
X275516Y82484D01*
X275523Y82485D01*
X275529Y82486D01*
X275536Y82487D01*
X275543Y82488D01*
X275549Y82489D01*
X275556Y82489D01*
X275563Y82490D01*
X275570Y82491D01*
X275576Y82492D01*
X275583Y82493D01*
X275590Y82494D01*
X275596Y82495D01*
X275603Y82495D01*
X275610Y82496D01*
X275617Y82497D01*
X275623Y82498D01*
X275630Y82498D01*
X275637Y82499D01*
X275644Y82500D01*
X275651Y82500D01*
X275657Y82501D01*
X275664Y82502D01*
X275671Y82502D01*
X275678Y82503D01*
X275684Y82504D01*
X275691Y82504D01*
X275698Y82505D01*
X275705Y82505D01*
X275711Y82506D01*
X275718Y82506D01*
X275725Y82507D01*
X275732Y82507D01*
X275739Y82508D01*
X275745Y82508D01*
X275752Y82509D01*
X275759Y82509D01*
X275766Y82510D01*
X275773Y82510D01*
X275779Y82511D01*
X275786Y82511D01*
X275793Y82512D01*
X275800Y82512D01*
X275806Y82512D01*
X275813Y82513D01*
X275820Y82513D01*
X275827Y82514D01*
X275834Y82514D01*
X275840Y82515D01*
X275847Y82515D01*
X275854Y82515D01*
X275861Y82516D01*
X275868Y82516D01*
X275874Y82517D01*
X275881Y82517D01*
X275895Y82518D01*
Y77872D02*
Y78187D01*
Y82518D02*
Y82833D01*
Y82518D02*
X275902Y82517D01*
X275908Y82517D01*
X275915Y82517D01*
X275922Y82516D01*
X275929Y82516D01*
X275936Y82515D01*
X275942Y82515D01*
X275949Y82515D01*
X275956Y82514D01*
X275963Y82514D01*
X275970Y82513D01*
X275976Y82513D01*
X275983Y82512D01*
X275990Y82512D01*
X275997Y82512D01*
X276004Y82511D01*
X276010Y82511D01*
X276017Y82510D01*
X276024Y82510D01*
X276031Y82509D01*
X276038Y82509D01*
X276044Y82508D01*
X276051Y82508D01*
X276058Y82507D01*
X276065Y82507D01*
X276072Y82506D01*
X276078Y82506D01*
X276085Y82505D01*
X276092Y82505D01*
X276099Y82504D01*
X276105Y82504D01*
X276112Y82503D01*
X276119Y82502D01*
X276126Y82502D01*
X276132Y82501D01*
X276139Y82500D01*
X276146Y82500D01*
X276153Y82499D01*
X276160Y82498D01*
X276166Y82498D01*
X276173Y82497D01*
X276180Y82496D01*
X276186Y82495D01*
X276193Y82495D01*
X276200Y82494D01*
X276207Y82493D01*
X276214Y82492D01*
X276220Y82491D01*
X276227Y82490D01*
X276234Y82489D01*
X276240Y82489D01*
X276247Y82488D01*
X276254Y82487D01*
X276260Y82486D01*
X276267Y82485D01*
X276274Y82484D01*
X276281Y82482D01*
X276287Y82481D01*
X276294Y82480D01*
X276301Y82479D01*
X276307Y82478D01*
X276334Y82473D01*
X276354Y82469D01*
X276374Y82465D01*
X276394Y82460D01*
X276407Y82457D01*
X276420Y82454D01*
X276433Y82451D01*
X276447Y82447D01*
X276460Y82444D01*
X276473Y82440D01*
X276486Y82437D01*
X276499Y82433D01*
X276512Y82429D01*
X276525Y82425D01*
X276538Y82421D01*
X276551Y82417D01*
X276564Y82413D01*
X276577Y82408D01*
X276590Y82404D01*
X276603Y82399D01*
X276616Y82395D01*
X276628Y82390D01*
X276647Y82383D01*
X276667Y82376D01*
X276686Y82368D01*
X276705Y82361D01*
X276736Y82348D01*
X276698Y78342D02*
X276717Y78349D01*
X276679Y78334D02*
X276698Y78342D01*
X276660Y78326D02*
X276679Y78334D01*
X276641Y78319D02*
X276660Y78326D01*
X276622Y78312D02*
X276641Y78319D01*
X276603Y78305D02*
X276622Y78312D01*
X276583Y78299D02*
X276603Y78305D01*
X276571Y78294D02*
X276583Y78299D01*
X276557Y78290D02*
X276571Y78294D01*
X276545Y78286D02*
X276557Y78290D01*
X276532Y78282D02*
X276545Y78286D01*
X276519Y78278D02*
X276532Y78282D01*
X276505Y78274D02*
X276519Y78278D01*
X276493Y78270D02*
X276505Y78274D01*
X276479Y78266D02*
X276493Y78270D01*
X276466Y78263D02*
X276479Y78266D01*
X276453Y78259D02*
X276466Y78263D01*
X276440Y78256D02*
X276453Y78259D01*
X276427Y78252D02*
X276440Y78256D01*
X276407Y78247D02*
X276427Y78252D01*
X276387Y78243D02*
X276407Y78247D01*
X276367Y78238D02*
X276387Y78243D01*
X276347Y78234D02*
X276367Y78238D01*
X276307Y78227D02*
X276314Y78228D01*
X276301Y78226D02*
X276307Y78227D01*
X276294Y78224D02*
X276301Y78226D01*
X276287Y78223D02*
X276294Y78224D01*
X276281Y78222D02*
X276287Y78223D01*
X276274Y78221D02*
X276281Y78222D01*
X276267Y78220D02*
X276274Y78221D01*
X276260Y78219D02*
X276267Y78220D01*
X276254Y78218D02*
X276260Y78219D01*
X276247Y78217D02*
X276254Y78218D01*
X276240Y78216D02*
X276247Y78217D01*
X276234Y78215D02*
X276240Y78216D01*
X276227Y78214D02*
X276234Y78215D01*
X276220Y78214D02*
X276227Y78214D01*
X276214Y78213D02*
X276220Y78214D01*
X276207Y78212D02*
X276214Y78213D01*
X276200Y78211D02*
X276207Y78212D01*
X276193Y78210D02*
X276200Y78211D01*
X276186Y78209D02*
X276193Y78210D01*
X276180Y78209D02*
X276186Y78209D01*
X276173Y78208D02*
X276180Y78209D01*
X276166Y78207D02*
X276173Y78208D01*
X276160Y78206D02*
X276166Y78207D01*
X276153Y78206D02*
X276160Y78206D01*
X276146Y78205D02*
X276153Y78206D01*
X276139Y78204D02*
X276146Y78205D01*
X276132Y78204D02*
X276139Y78204D01*
X276126Y78203D02*
X276132Y78204D01*
X276119Y78202D02*
X276126Y78203D01*
X276112Y78202D02*
X276119Y78202D01*
X276105Y78201D02*
X276112Y78202D01*
X276099Y78201D02*
X276105Y78201D01*
X276092Y78200D02*
X276099Y78201D01*
X276085Y78199D02*
X276092Y78200D01*
X276078Y78199D02*
X276085Y78199D01*
X276072Y78198D02*
X276078Y78199D01*
X276065Y78198D02*
X276072Y78198D01*
X276058Y78197D02*
X276065Y78198D01*
X276051Y78197D02*
X276058Y78197D01*
X276044Y78196D02*
X276051Y78197D01*
X276038Y78196D02*
X276044Y78196D01*
X276031Y78195D02*
X276038Y78196D01*
X276024Y78195D02*
X276031Y78195D01*
X276017Y78194D02*
X276024Y78195D01*
X276010Y78194D02*
X276017Y78194D01*
X276004Y78193D02*
X276010Y78194D01*
X275997Y78193D02*
X276004Y78193D01*
X275990Y78193D02*
X275997Y78193D01*
X275983Y78192D02*
X275990Y78193D01*
X275976Y78192D02*
X275983Y78192D01*
X275970Y78191D02*
X275976Y78192D01*
X275963Y78191D02*
X275970Y78191D01*
X275956Y78191D02*
X275963Y78191D01*
X275949Y78190D02*
X275956Y78191D01*
X275942Y78190D02*
X275949Y78190D01*
X275936Y78189D02*
X275942Y78190D01*
X275929Y78189D02*
X275936Y78189D01*
X275922Y78189D02*
X275929Y78189D01*
X275915Y78188D02*
X275922Y78189D01*
X275908Y78188D02*
X275915Y78188D01*
X275895Y78187D02*
X275908Y78188D01*
X275895Y79466D02*
X275898Y79467D01*
X275901Y79467D01*
X275903Y79467D01*
X275906Y79468D01*
X275909Y79468D01*
X275912Y79469D01*
X275914Y79469D01*
X275917Y79469D01*
X275920Y79469D01*
X275923Y79470D01*
X275925Y79470D01*
X275928Y79470D01*
X275931Y79471D01*
X275934Y79471D01*
X275937Y79471D01*
X275939Y79472D01*
X275942Y79472D01*
X275945Y79472D01*
X275948Y79473D01*
X275951Y79473D01*
X275953Y79473D01*
X275956Y79474D01*
X275959Y79474D01*
X275962Y79474D01*
X275964Y79475D01*
X275967Y79475D01*
X275970Y79475D01*
X275973Y79476D01*
X275975Y79476D01*
X275978Y79476D01*
X275981Y79477D01*
X275984Y79477D01*
X275987Y79478D01*
X275989Y79478D01*
X275992Y79478D01*
X275995Y79479D01*
X275998Y79479D01*
X276000Y79479D01*
X276003Y79480D01*
X276006Y79480D01*
X276009Y79481D01*
X276011Y79481D01*
X276014Y79481D01*
X276017Y79482D01*
X276020Y79482D01*
X276022Y79483D01*
X276025Y79483D01*
X276028Y79483D01*
X276031Y79484D01*
X276033Y79484D01*
X276036Y79485D01*
X276039Y79485D01*
X276042Y79486D01*
X276044Y79486D01*
X276047Y79487D01*
X276050Y79487D01*
X276053Y79487D01*
X276055Y79488D01*
X276058Y79488D01*
X276061Y79489D01*
X276064Y79489D01*
X276066Y79490D01*
X276069Y79490D01*
X276072Y79491D01*
X276075Y79491D01*
X276077Y79492D01*
X276080Y79492D01*
X276083Y79493D01*
X276085Y79493D01*
X276088Y79494D01*
X276091Y79494D01*
X276094Y79495D01*
X276096Y79495D01*
X276099Y79496D01*
X276102Y79496D01*
X276104Y79497D01*
X276107Y79498D01*
X276110Y79498D01*
X276113Y79499D01*
X276115Y79499D01*
X276118Y79500D01*
X276121Y79501D01*
X276123Y79501D01*
X276126Y79502D01*
X276129Y79502D01*
X276131Y79503D01*
X276134Y79504D01*
X276137Y79504D01*
X276139Y79505D01*
X276142Y79506D01*
X276145Y79506D01*
X276147Y79507D01*
X276150Y79508D01*
X276153Y79508D01*
X276155Y79509D01*
X276158Y79510D01*
X276161Y79510D01*
X276163Y79511D01*
X276166Y79512D01*
X276169Y79513D01*
X276171Y79513D01*
X276177Y79515D01*
X276182Y79516D01*
X276187Y79518D01*
X276192Y79520D01*
X276198Y79521D01*
X276203Y79523D01*
X276208Y79525D01*
X276213Y79527D01*
X276218Y79528D01*
X276224Y79530D01*
X276229Y79532D01*
X276236Y79535D01*
X276247Y79539D01*
X276257Y79543D01*
X276267Y79548D01*
X276277Y79552D01*
X276287Y79557D01*
X276297Y79562D01*
X276307Y79567D01*
X276317Y79572D01*
X276326Y79577D01*
X276336Y79583D01*
X276346Y79588D01*
X276355Y79594D01*
X276365Y79600D01*
X276374Y79606D01*
X276383Y79612D01*
X276393Y79618D01*
X276402Y79624D01*
X276413Y79633D01*
X276425Y79641D01*
X276436Y79650D01*
X276447Y79658D01*
X276433Y81057D02*
X276444Y81048D01*
X276422Y81065D02*
X276433Y81057D01*
X276411Y81074D02*
X276422Y81065D01*
X276400Y81082D02*
X276411Y81074D01*
X276391Y81088D02*
X276400Y81082D01*
X276381Y81094D02*
X276391Y81088D01*
X276372Y81100D02*
X276381Y81094D01*
X276362Y81107D02*
X276372Y81100D01*
X276353Y81112D02*
X276362Y81107D01*
X276343Y81118D02*
X276353Y81112D01*
X276334Y81124D02*
X276343Y81118D01*
X276324Y81129D02*
X276334Y81124D01*
X276314Y81134D02*
X276324Y81129D01*
X276304Y81139D02*
X276314Y81134D01*
X276294Y81144D02*
X276304Y81139D01*
X276285Y81149D02*
X276294Y81144D01*
X276275Y81154D02*
X276285Y81149D01*
X276265Y81158D02*
X276275Y81154D01*
X276254Y81163D02*
X276265Y81158D01*
X276244Y81167D02*
X276254Y81163D01*
X276234Y81171D02*
X276244Y81167D01*
X276229Y81173D02*
X276234Y81171D01*
X276224Y81175D02*
X276229Y81173D01*
X276218Y81176D02*
X276224Y81175D01*
X276213Y81178D02*
X276218Y81176D01*
X276208Y81180D02*
X276213Y81178D01*
X276203Y81182D02*
X276208Y81180D01*
X276198Y81183D02*
X276203Y81182D01*
X276192Y81185D02*
X276198Y81183D01*
X276187Y81187D02*
X276192Y81185D01*
X276182Y81188D02*
X276187Y81187D01*
X276177Y81190D02*
X276182Y81188D01*
X276174Y81191D02*
X276177Y81190D01*
X276171Y81191D02*
X276174Y81191D01*
X276169Y81192D02*
X276171Y81191D01*
X276166Y81193D02*
X276169Y81192D01*
X276163Y81194D02*
X276166Y81193D01*
X276161Y81194D02*
X276163Y81194D01*
X276158Y81195D02*
X276161Y81194D01*
X276155Y81196D02*
X276158Y81195D01*
X276153Y81196D02*
X276155Y81196D01*
X276150Y81197D02*
X276153Y81196D01*
X276147Y81198D02*
X276150Y81197D01*
X276145Y81199D02*
X276147Y81198D01*
X276142Y81199D02*
X276145Y81199D01*
X276139Y81200D02*
X276142Y81199D01*
X276137Y81200D02*
X276139Y81200D01*
X276134Y81201D02*
X276137Y81200D01*
X276131Y81202D02*
X276134Y81201D01*
X276129Y81202D02*
X276131Y81202D01*
X276126Y81203D02*
X276129Y81202D01*
X276123Y81204D02*
X276126Y81203D01*
X276121Y81204D02*
X276123Y81204D01*
X276118Y81205D02*
X276121Y81204D01*
X276115Y81205D02*
X276118Y81205D01*
X276113Y81206D02*
X276115Y81205D01*
X276110Y81207D02*
X276113Y81206D01*
X276107Y81207D02*
X276110Y81207D01*
X276104Y81208D02*
X276107Y81207D01*
X276102Y81208D02*
X276104Y81208D01*
X276099Y81209D02*
X276102Y81208D01*
X276096Y81209D02*
X276099Y81209D01*
X276094Y81210D02*
X276096Y81209D01*
X276091Y81211D02*
X276094Y81210D01*
X276088Y81211D02*
X276091Y81211D01*
X276085Y81212D02*
X276088Y81211D01*
X276083Y81212D02*
X276085Y81212D01*
X276080Y81213D02*
X276083Y81212D01*
X276077Y81213D02*
X276080Y81213D01*
X276075Y81214D02*
X276077Y81213D01*
X276072Y81214D02*
X276075Y81214D01*
X276069Y81214D02*
X276072Y81214D01*
X276066Y81215D02*
X276069Y81214D01*
X276064Y81216D02*
X276066Y81215D01*
X276061Y81216D02*
X276064Y81216D01*
X276058Y81217D02*
X276061Y81216D01*
X276055Y81217D02*
X276058Y81217D01*
X276053Y81217D02*
X276055Y81217D01*
X276050Y81218D02*
X276053Y81217D01*
X276047Y81218D02*
X276050Y81218D01*
X276044Y81219D02*
X276047Y81218D01*
X276042Y81219D02*
X276044Y81219D01*
X276039Y81220D02*
X276042Y81219D01*
X276036Y81220D02*
X276039Y81220D01*
X276033Y81221D02*
X276036Y81220D01*
X276031Y81221D02*
X276033Y81221D01*
X276028Y81221D02*
X276031Y81221D01*
X276025Y81222D02*
X276028Y81221D01*
X276022Y81222D02*
X276025Y81222D01*
X276020Y81222D02*
X276022Y81222D01*
X276017Y81223D02*
X276020Y81222D01*
X276014Y81223D02*
X276017Y81223D01*
X276011Y81224D02*
X276014Y81223D01*
X276009Y81224D02*
X276011Y81224D01*
X276006Y81225D02*
X276009Y81224D01*
X276003Y81225D02*
X276006Y81225D01*
X276000Y81225D02*
X276003Y81225D01*
X275998Y81226D02*
X276000Y81225D01*
X275995Y81226D02*
X275998Y81226D01*
X275992Y81226D02*
X275995Y81226D01*
X275989Y81227D02*
X275992Y81226D01*
X275987Y81227D02*
X275989Y81227D01*
X275984Y81227D02*
X275987Y81227D01*
X275981Y81228D02*
X275984Y81227D01*
X275978Y81228D02*
X275981Y81228D01*
X275975Y81229D02*
X275978Y81228D01*
X275973Y81229D02*
X275975Y81229D01*
X275970Y81229D02*
X275973Y81229D01*
X275967Y81230D02*
X275970Y81229D01*
X275964Y81230D02*
X275967Y81230D01*
X275962Y81230D02*
X275964Y81230D01*
X275959Y81231D02*
X275962Y81230D01*
X275956Y81231D02*
X275959Y81231D01*
X275953Y81231D02*
X275956Y81231D01*
X275951Y81232D02*
X275953Y81231D01*
X275948Y81232D02*
X275951Y81232D01*
X275945Y81232D02*
X275948Y81232D01*
X275942Y81233D02*
X275945Y81232D01*
X275939Y81233D02*
X275942Y81233D01*
X275937Y81233D02*
X275939Y81233D01*
X275934Y81234D02*
X275937Y81233D01*
X275931Y81234D02*
X275934Y81234D01*
X275928Y81234D02*
X275931Y81234D01*
X275925Y81235D02*
X275928Y81234D01*
X275923Y81235D02*
X275925Y81235D01*
X275920Y81235D02*
X275923Y81235D01*
X275917Y81236D02*
X275920Y81235D01*
X275914Y81236D02*
X275917Y81236D01*
X275912Y81236D02*
X275914Y81236D01*
X275909Y81237D02*
X275912Y81236D01*
X275906Y81237D02*
X275909Y81237D01*
X275903Y81237D02*
X275906Y81237D01*
X275901Y81238D02*
X275903Y81237D01*
X275895Y81238D02*
X275901Y81238D01*
X275895Y79860D02*
X275896Y79860D01*
X275898Y79861D01*
X275900Y79861D01*
X275901Y79861D01*
X275903Y79861D01*
X275904Y79861D01*
X275906Y79861D01*
X275907Y79862D01*
X275909Y79862D01*
X275910Y79862D01*
X275912Y79862D01*
X275913Y79862D01*
X275915Y79863D01*
X275917Y79863D01*
X275918Y79863D01*
X275920Y79863D01*
X275921Y79863D01*
X275923Y79864D01*
X275924Y79864D01*
X275926Y79864D01*
X275927Y79864D01*
X275929Y79864D01*
X275930Y79864D01*
X275932Y79865D01*
X275934Y79865D01*
X275935Y79865D01*
X275937Y79865D01*
X275938Y79865D01*
X275940Y79866D01*
X275941Y79866D01*
X275943Y79866D01*
X275944Y79866D01*
X275946Y79866D01*
X275947Y79867D01*
X275949Y79867D01*
X275950Y79867D01*
X275952Y79867D01*
X275954Y79867D01*
X275955Y79868D01*
X275957Y79868D01*
X275958Y79868D01*
X275960Y79868D01*
X275961Y79869D01*
X275963Y79869D01*
X275964Y79869D01*
X275966Y79869D01*
X275967Y79869D01*
X275969Y79870D01*
X275970Y79870D01*
X275972Y79870D01*
X275973Y79870D01*
X275975Y79871D01*
X275976Y79871D01*
X275978Y79871D01*
X275979Y79871D01*
X275981Y79872D01*
X275982Y79872D01*
X275984Y79872D01*
X275986Y79872D01*
X275987Y79873D01*
X275989Y79873D01*
X275990Y79873D01*
X275992Y79873D01*
X275993Y79874D01*
X275995Y79874D01*
X275996Y79874D01*
X275998Y79874D01*
X275999Y79875D01*
X276001Y79875D01*
X276002Y79875D01*
X276004Y79876D01*
X276005Y79876D01*
X276007Y79876D01*
X276008Y79877D01*
X276010Y79877D01*
X276011Y79877D01*
X276013Y79878D01*
X276014Y79878D01*
X276016Y79878D01*
X276017Y79878D01*
X276019Y79879D01*
X276020Y79879D01*
X276022Y79879D01*
X276023Y79880D01*
X276025Y79880D01*
X276026Y79880D01*
X276028Y79881D01*
X276029Y79881D01*
X276031Y79882D01*
X276032Y79882D01*
X276034Y79882D01*
X276035Y79883D01*
X276037Y79883D01*
X276038Y79883D01*
X276040Y79884D01*
X276041Y79884D01*
X276043Y79885D01*
X276044Y79885D01*
X276045Y79885D01*
X276047Y79886D01*
X276048Y79886D01*
X276051Y79887D01*
X276054Y79888D01*
X276057Y79889D01*
X276060Y79890D01*
X276063Y79891D01*
X276066Y79892D01*
X276069Y79893D01*
X276072Y79893D01*
X276075Y79895D01*
X276078Y79896D01*
X276080Y79897D01*
X276085Y79898D01*
X276090Y79900D01*
X276096Y79903D01*
X276102Y79905D01*
X276107Y79908D01*
X276113Y79910D01*
X276118Y79913D01*
X276124Y79916D01*
X276129Y79919D01*
X276135Y79922D01*
X276140Y79925D01*
X276145Y79928D01*
X276151Y79931D01*
X276156Y79934D01*
X276161Y79938D01*
X276166Y79941D01*
X276171Y79944D01*
X276177Y79948D01*
X276183Y79953D01*
X276189Y79957D01*
X276195Y79962D01*
X276201Y79967D01*
X276194Y80744D02*
X276200Y80739D01*
X276188Y80748D02*
X276194Y80744D01*
X276182Y80753D02*
X276188Y80748D01*
X276175Y80758D02*
X276182Y80753D01*
X276170Y80761D02*
X276175Y80758D01*
X276165Y80765D02*
X276170Y80761D01*
X276160Y80768D02*
X276165Y80765D01*
X276155Y80771D02*
X276160Y80768D01*
X276149Y80775D02*
X276155Y80771D01*
X276144Y80778D02*
X276149Y80775D01*
X276139Y80781D02*
X276144Y80778D01*
X276133Y80784D02*
X276139Y80781D01*
X276128Y80787D02*
X276133Y80784D01*
X276122Y80790D02*
X276128Y80787D01*
X276117Y80792D02*
X276122Y80790D01*
X276111Y80795D02*
X276117Y80792D01*
X276106Y80798D02*
X276111Y80795D01*
X276100Y80800D02*
X276106Y80798D01*
X276095Y80803D02*
X276100Y80800D01*
X276089Y80805D02*
X276095Y80803D01*
X276083Y80807D02*
X276089Y80805D01*
X276080Y80808D02*
X276083Y80807D01*
X276078Y80809D02*
X276080Y80808D01*
X276075Y80810D02*
X276078Y80809D01*
X276072Y80811D02*
X276075Y80810D01*
X276069Y80812D02*
X276072Y80811D01*
X276066Y80813D02*
X276069Y80812D01*
X276063Y80814D02*
X276066Y80813D01*
X276060Y80815D02*
X276063Y80814D01*
X276057Y80816D02*
X276060Y80815D01*
X276054Y80817D02*
X276057Y80816D01*
X276051Y80818D02*
X276054Y80817D01*
X276050Y80818D02*
X276051Y80818D01*
X276048Y80818D02*
X276050Y80818D01*
X276047Y80819D02*
X276048Y80818D01*
X276045Y80819D02*
X276047Y80819D01*
X276044Y80820D02*
X276045Y80819D01*
X276043Y80820D02*
X276044Y80820D01*
X276041Y80821D02*
X276043Y80820D01*
X276040Y80821D02*
X276041Y80821D01*
X276038Y80821D02*
X276040Y80821D01*
X276037Y80822D02*
X276038Y80821D01*
X276035Y80822D02*
X276037Y80822D01*
X276034Y80822D02*
X276035Y80822D01*
X276032Y80823D02*
X276034Y80822D01*
X276031Y80823D02*
X276032Y80823D01*
X276029Y80823D02*
X276031Y80823D01*
X276028Y80824D02*
X276029Y80823D01*
X276026Y80824D02*
X276028Y80824D01*
X276025Y80825D02*
X276026Y80824D01*
X276023Y80825D02*
X276025Y80825D01*
X276022Y80825D02*
X276023Y80825D01*
X276020Y80826D02*
X276022Y80825D01*
X276019Y80826D02*
X276020Y80826D01*
X276017Y80826D02*
X276019Y80826D01*
X276016Y80827D02*
X276017Y80826D01*
X276014Y80827D02*
X276016Y80827D01*
X276013Y80827D02*
X276014Y80827D01*
X276011Y80828D02*
X276013Y80827D01*
X276010Y80828D02*
X276011Y80828D01*
X276008Y80828D02*
X276010Y80828D01*
X276007Y80828D02*
X276008Y80828D01*
X276005Y80829D02*
X276007Y80828D01*
X276004Y80829D02*
X276005Y80829D01*
X276002Y80829D02*
X276004Y80829D01*
X276001Y80830D02*
X276002Y80829D01*
X275999Y80830D02*
X276001Y80830D01*
X275998Y80830D02*
X275999Y80830D01*
X275996Y80831D02*
X275998Y80830D01*
X275995Y80831D02*
X275996Y80831D01*
X275993Y80831D02*
X275995Y80831D01*
X275992Y80831D02*
X275993Y80831D01*
X275990Y80832D02*
X275992Y80831D01*
X275989Y80832D02*
X275990Y80832D01*
X275987Y80832D02*
X275989Y80832D01*
X275986Y80832D02*
X275987Y80832D01*
X275984Y80833D02*
X275986Y80832D01*
X275982Y80833D02*
X275984Y80833D01*
X275981Y80833D02*
X275982Y80833D01*
X275979Y80833D02*
X275981Y80833D01*
X275978Y80834D02*
X275979Y80833D01*
X275976Y80834D02*
X275978Y80834D01*
X275975Y80834D02*
X275976Y80834D01*
X275973Y80834D02*
X275975Y80834D01*
X275972Y80835D02*
X275973Y80834D01*
X275970Y80835D02*
X275972Y80835D01*
X275969Y80835D02*
X275970Y80835D01*
X275967Y80835D02*
X275969Y80835D01*
X275966Y80836D02*
X275967Y80835D01*
X275964Y80836D02*
X275966Y80836D01*
X275963Y80836D02*
X275964Y80836D01*
X275961Y80836D02*
X275963Y80836D01*
X275960Y80836D02*
X275961Y80836D01*
X275958Y80837D02*
X275960Y80836D01*
X275957Y80837D02*
X275958Y80837D01*
X275955Y80837D02*
X275957Y80837D01*
X275954Y80837D02*
X275955Y80837D01*
X275952Y80838D02*
X275954Y80837D01*
X275950Y80838D02*
X275952Y80838D01*
X275949Y80838D02*
X275950Y80838D01*
X275947Y80838D02*
X275949Y80838D01*
X275946Y80838D02*
X275947Y80838D01*
X275944Y80839D02*
X275946Y80838D01*
X275943Y80839D02*
X275944Y80839D01*
X275941Y80839D02*
X275943Y80839D01*
X275940Y80839D02*
X275941Y80839D01*
X275938Y80839D02*
X275940Y80839D01*
X275937Y80840D02*
X275938Y80839D01*
X275935Y80840D02*
X275937Y80840D01*
X275934Y80840D02*
X275935Y80840D01*
X275932Y80840D02*
X275934Y80840D01*
X275930Y80840D02*
X275932Y80840D01*
X275929Y80840D02*
X275930Y80840D01*
X275927Y80841D02*
X275929Y80840D01*
X275926Y80841D02*
X275927Y80841D01*
X275924Y80841D02*
X275926Y80841D01*
X275923Y80841D02*
X275924Y80841D01*
X275921Y80841D02*
X275923Y80841D01*
X275920Y80842D02*
X275921Y80841D01*
X275918Y80842D02*
X275920Y80842D01*
X275917Y80842D02*
X275918Y80842D01*
X275915Y80842D02*
X275917Y80842D01*
X275913Y80842D02*
X275915Y80842D01*
X275912Y80843D02*
X275913Y80842D01*
X275910Y80843D02*
X275912Y80843D01*
X275909Y80843D02*
X275910Y80843D01*
X275907Y80843D02*
X275909Y80843D01*
X275906Y80843D02*
X275907Y80843D01*
X275904Y80843D02*
X275906Y80843D01*
X275903Y80844D02*
X275904Y80843D01*
X275901Y80844D02*
X275903Y80844D01*
X275900Y80844D02*
X275901Y80844D01*
X275898Y80844D02*
X275900Y80844D01*
X275895Y80844D02*
X275898Y80844D01*
X275892Y81238D02*
X275895Y81238D01*
X275889Y81238D02*
X275892Y81238D01*
X275887Y81237D02*
X275889Y81238D01*
X275884Y81237D02*
X275887Y81237D01*
X275881Y81237D02*
X275884Y81237D01*
X275878Y81236D02*
X275881Y81237D01*
X275875Y81236D02*
X275878Y81236D01*
X275873Y81236D02*
X275875Y81236D01*
X275870Y81235D02*
X275873Y81236D01*
X275867Y81235D02*
X275870Y81235D01*
X275864Y81235D02*
X275867Y81235D01*
X275862Y81234D02*
X275864Y81235D01*
X275859Y81234D02*
X275862Y81234D01*
X275856Y81234D02*
X275859Y81234D01*
X275853Y81233D02*
X275856Y81234D01*
X275850Y81233D02*
X275853Y81233D01*
X275848Y81233D02*
X275850Y81233D01*
X275845Y81232D02*
X275848Y81233D01*
X275842Y81232D02*
X275845Y81232D01*
X275839Y81232D02*
X275842Y81232D01*
X275836Y81231D02*
X275839Y81232D01*
X275834Y81231D02*
X275836Y81231D01*
X275831Y81231D02*
X275834Y81231D01*
X275828Y81230D02*
X275831Y81231D01*
X275825Y81230D02*
X275828Y81230D01*
X275823Y81230D02*
X275825Y81230D01*
X275820Y81229D02*
X275823Y81230D01*
X275817Y81229D02*
X275820Y81229D01*
X275814Y81229D02*
X275817Y81229D01*
X275812Y81228D02*
X275814Y81229D01*
X275809Y81228D02*
X275812Y81228D01*
X275806Y81227D02*
X275809Y81228D01*
X275803Y81227D02*
X275806Y81227D01*
X275800Y81227D02*
X275803Y81227D01*
X275798Y81226D02*
X275800Y81227D01*
X275795Y81226D02*
X275798Y81226D01*
X275792Y81226D02*
X275795Y81226D01*
X275789Y81225D02*
X275792Y81226D01*
X275787Y81225D02*
X275789Y81225D01*
X275784Y81225D02*
X275787Y81225D01*
X275781Y81224D02*
X275784Y81225D01*
X275778Y81224D02*
X275781Y81224D01*
X275776Y81223D02*
X275778Y81224D01*
X275773Y81223D02*
X275776Y81223D01*
X275770Y81222D02*
X275773Y81223D01*
X275767Y81222D02*
X275770Y81222D01*
X275765Y81222D02*
X275767Y81222D01*
X275762Y81221D02*
X275765Y81222D01*
X275759Y81221D02*
X275762Y81221D01*
X275756Y81221D02*
X275759Y81221D01*
X275754Y81220D02*
X275756Y81221D01*
X275751Y81220D02*
X275754Y81220D01*
X275748Y81219D02*
X275751Y81220D01*
X275745Y81219D02*
X275748Y81219D01*
X275743Y81218D02*
X275745Y81219D01*
X275740Y81218D02*
X275743Y81218D01*
X275737Y81217D02*
X275740Y81218D01*
X275734Y81217D02*
X275737Y81217D01*
X275732Y81217D02*
X275734Y81217D01*
X275729Y81216D02*
X275732Y81217D01*
X275726Y81216D02*
X275729Y81216D01*
X275724Y81215D02*
X275726Y81216D01*
X275721Y81214D02*
X275724Y81215D01*
X275718Y81214D02*
X275721Y81214D01*
X275715Y81213D02*
X275718Y81214D01*
X275712Y81213D02*
X275715Y81213D01*
X275710Y81213D02*
X275712Y81213D01*
X275707Y81212D02*
X275710Y81213D01*
X275704Y81212D02*
X275707Y81212D01*
X275702Y81211D02*
X275704Y81212D01*
X275699Y81211D02*
X275702Y81211D01*
X275696Y81210D02*
X275699Y81211D01*
X275693Y81209D02*
X275696Y81210D01*
X275691Y81209D02*
X275693Y81209D01*
X275688Y81208D02*
X275691Y81209D01*
X275685Y81208D02*
X275688Y81208D01*
X275683Y81207D02*
X275685Y81208D01*
X275680Y81207D02*
X275683Y81207D01*
X275677Y81206D02*
X275680Y81207D01*
X275675Y81205D02*
X275677Y81206D01*
X275672Y81205D02*
X275675Y81205D01*
X275669Y81204D02*
X275672Y81205D01*
X275666Y81204D02*
X275669Y81204D01*
X275664Y81203D02*
X275666Y81204D01*
X275661Y81202D02*
X275664Y81203D01*
X275658Y81202D02*
X275661Y81202D01*
X275656Y81201D02*
X275658Y81202D01*
X275653Y81200D02*
X275656Y81201D01*
X275650Y81200D02*
X275653Y81200D01*
X275648Y81199D02*
X275650Y81200D01*
X275645Y81199D02*
X275648Y81199D01*
X275642Y81198D02*
X275645Y81199D01*
X275640Y81197D02*
X275642Y81198D01*
X275637Y81196D02*
X275640Y81197D01*
X275634Y81196D02*
X275637Y81196D01*
X275632Y81195D02*
X275634Y81196D01*
X275629Y81194D02*
X275632Y81195D01*
X275626Y81194D02*
X275629Y81194D01*
X275624Y81193D02*
X275626Y81194D01*
X275621Y81192D02*
X275624Y81193D01*
X275619Y81191D02*
X275621Y81192D01*
X275613Y81190D02*
X275619Y81191D01*
X275608Y81188D02*
X275613Y81190D01*
X275603Y81187D02*
X275608Y81188D01*
X275597Y81185D02*
X275603Y81187D01*
X275592Y81183D02*
X275597Y81185D01*
X275587Y81182D02*
X275592Y81183D01*
X275582Y81180D02*
X275587Y81182D01*
X275577Y81178D02*
X275582Y81180D01*
X275571Y81176D02*
X275577Y81178D01*
X275566Y81175D02*
X275571Y81176D01*
X275561Y81173D02*
X275566Y81175D01*
X275553Y81170D02*
X275561Y81173D01*
X275543Y81166D02*
X275553Y81170D01*
X275533Y81161D02*
X275543Y81166D01*
X275523Y81157D02*
X275533Y81161D01*
X275513Y81153D02*
X275523Y81157D01*
X275503Y81148D02*
X275513Y81153D01*
X275493Y81143D02*
X275503Y81148D01*
X275483Y81138D02*
X275493Y81143D01*
X275473Y81133D02*
X275483Y81138D01*
X275463Y81128D02*
X275473Y81133D01*
X275454Y81122D02*
X275463Y81128D01*
X275444Y81117D02*
X275454Y81122D01*
X275434Y81111D02*
X275444Y81117D01*
X275425Y81105D02*
X275434Y81111D01*
X275416Y81099D02*
X275425Y81105D01*
X275406Y81093D02*
X275416Y81099D01*
X275397Y81087D02*
X275406Y81093D01*
X275388Y81080D02*
X275397Y81087D01*
X275377Y81072D02*
X275388Y81080D01*
X275365Y81064D02*
X275377Y81072D01*
X275354Y81055D02*
X275365Y81064D01*
X275343Y81046D02*
X275354Y81055D01*
X275345Y79656D02*
X275356Y79648D01*
X275367Y79639D01*
X275379Y79631D01*
X275390Y79623D01*
X275399Y79616D01*
X275409Y79610D01*
X275418Y79604D01*
X275427Y79598D01*
X275437Y79592D01*
X275446Y79587D01*
X275456Y79581D01*
X275466Y79576D01*
X275476Y79571D01*
X275485Y79565D01*
X275495Y79560D01*
X275505Y79556D01*
X275515Y79551D01*
X275525Y79546D01*
X275535Y79542D01*
X275546Y79538D01*
X275556Y79534D01*
X275561Y79532D01*
X275566Y79530D01*
X275571Y79528D01*
X275577Y79527D01*
X275582Y79525D01*
X275587Y79523D01*
X275592Y79521D01*
X275597Y79520D01*
X275603Y79518D01*
X275608Y79516D01*
X275613Y79515D01*
X275616Y79514D01*
X275619Y79513D01*
X275621Y79513D01*
X275624Y79512D01*
X275626Y79511D01*
X275629Y79510D01*
X275632Y79510D01*
X275634Y79509D01*
X275637Y79508D01*
X275640Y79508D01*
X275642Y79507D01*
X275645Y79506D01*
X275648Y79506D01*
X275650Y79505D01*
X275653Y79504D01*
X275656Y79504D01*
X275658Y79503D01*
X275661Y79502D01*
X275664Y79502D01*
X275666Y79501D01*
X275669Y79501D01*
X275672Y79500D01*
X275675Y79499D01*
X275677Y79499D01*
X275680Y79498D01*
X275683Y79498D01*
X275685Y79497D01*
X275688Y79496D01*
X275691Y79496D01*
X275693Y79495D01*
X275696Y79495D01*
X275699Y79494D01*
X275702Y79494D01*
X275704Y79493D01*
X275707Y79493D01*
X275710Y79492D01*
X275712Y79492D01*
X275715Y79491D01*
X275718Y79491D01*
X275721Y79490D01*
X275724Y79490D01*
X275726Y79489D01*
X275729Y79489D01*
X275732Y79488D01*
X275734Y79488D01*
X275737Y79487D01*
X275740Y79487D01*
X275743Y79487D01*
X275745Y79486D01*
X275748Y79486D01*
X275751Y79485D01*
X275754Y79485D01*
X275756Y79484D01*
X275759Y79484D01*
X275762Y79483D01*
X275765Y79483D01*
X275767Y79483D01*
X275770Y79482D01*
X275773Y79482D01*
X275776Y79481D01*
X275778Y79481D01*
X275781Y79481D01*
X275784Y79480D01*
X275787Y79480D01*
X275789Y79479D01*
X275792Y79479D01*
X275795Y79479D01*
X275798Y79478D01*
X275800Y79478D01*
X275803Y79478D01*
X275806Y79477D01*
X275809Y79477D01*
X275812Y79476D01*
X275814Y79476D01*
X275817Y79476D01*
X275820Y79475D01*
X275823Y79475D01*
X275825Y79475D01*
X275828Y79474D01*
X275831Y79474D01*
X275834Y79474D01*
X275836Y79473D01*
X275839Y79473D01*
X275842Y79473D01*
X275845Y79472D01*
X275848Y79472D01*
X275850Y79472D01*
X275853Y79471D01*
X275856Y79471D01*
X275859Y79471D01*
X275862Y79470D01*
X275864Y79470D01*
X275867Y79470D01*
X275870Y79469D01*
X275873Y79469D01*
X275875Y79469D01*
X275878Y79469D01*
X275881Y79468D01*
X275884Y79468D01*
X275887Y79467D01*
X275889Y79467D01*
X275895Y79466D01*
Y79860D01*
X275893Y80844D02*
X275895Y80844D01*
X275892Y80844D02*
X275893Y80844D01*
X275890Y80844D02*
X275892Y80844D01*
X275889Y80844D02*
X275890Y80844D01*
X275887Y80844D02*
X275889Y80844D01*
X275886Y80843D02*
X275887Y80844D01*
X275884Y80843D02*
X275886Y80843D01*
X275883Y80843D02*
X275884Y80843D01*
X275881Y80843D02*
X275883Y80843D01*
X275879Y80843D02*
X275881Y80843D01*
X275878Y80843D02*
X275879Y80843D01*
X275876Y80842D02*
X275878Y80843D01*
X275875Y80842D02*
X275876Y80842D01*
X275873Y80842D02*
X275875Y80842D01*
X275872Y80842D02*
X275873Y80842D01*
X275870Y80842D02*
X275872Y80842D01*
X275869Y80841D02*
X275870Y80842D01*
X275867Y80841D02*
X275869Y80841D01*
X275866Y80841D02*
X275867Y80841D01*
X275864Y80841D02*
X275866Y80841D01*
X275862Y80841D02*
X275864Y80841D01*
X275861Y80840D02*
X275862Y80841D01*
X275859Y80840D02*
X275861Y80840D01*
X275858Y80840D02*
X275859Y80840D01*
X275856Y80840D02*
X275858Y80840D01*
X275855Y80840D02*
X275856Y80840D01*
X275853Y80840D02*
X275855Y80840D01*
X275852Y80839D02*
X275853Y80840D01*
X275850Y80839D02*
X275852Y80839D01*
X275849Y80839D02*
X275850Y80839D01*
X275847Y80839D02*
X275849Y80839D01*
X275846Y80839D02*
X275847Y80839D01*
X275844Y80838D02*
X275846Y80839D01*
X275842Y80838D02*
X275844Y80838D01*
X275841Y80838D02*
X275842Y80838D01*
X275839Y80838D02*
X275841Y80838D01*
X275838Y80838D02*
X275839Y80838D01*
X275836Y80837D02*
X275838Y80838D01*
X275835Y80837D02*
X275836Y80837D01*
X275833Y80837D02*
X275835Y80837D01*
X275832Y80837D02*
X275833Y80837D01*
X275830Y80836D02*
X275832Y80837D01*
X275829Y80836D02*
X275830Y80836D01*
X275827Y80836D02*
X275829Y80836D01*
X275826Y80836D02*
X275827Y80836D01*
X275824Y80836D02*
X275826Y80836D01*
X275822Y80835D02*
X275824Y80836D01*
X275821Y80835D02*
X275822Y80835D01*
X275819Y80835D02*
X275821Y80835D01*
X275818Y80835D02*
X275819Y80835D01*
X275816Y80834D02*
X275818Y80835D01*
X275815Y80834D02*
X275816Y80834D01*
X275813Y80834D02*
X275815Y80834D01*
X275812Y80834D02*
X275813Y80834D01*
X275810Y80833D02*
X275812Y80834D01*
X275809Y80833D02*
X275810Y80833D01*
X275807Y80833D02*
X275809Y80833D01*
X275806Y80833D02*
X275807Y80833D01*
X275804Y80832D02*
X275806Y80833D01*
X275803Y80832D02*
X275804Y80832D01*
X275801Y80832D02*
X275803Y80832D01*
X275800Y80832D02*
X275801Y80832D01*
X275798Y80831D02*
X275800Y80832D01*
X275797Y80831D02*
X275798Y80831D01*
X275795Y80831D02*
X275797Y80831D01*
X275794Y80831D02*
X275795Y80831D01*
X275792Y80830D02*
X275794Y80831D01*
X275791Y80830D02*
X275792Y80830D01*
X275789Y80830D02*
X275791Y80830D01*
X275787Y80829D02*
X275789Y80830D01*
X275786Y80829D02*
X275787Y80829D01*
X275784Y80829D02*
X275786Y80829D01*
X275783Y80828D02*
X275784Y80829D01*
X275781Y80828D02*
X275783Y80828D01*
X275780Y80828D02*
X275781Y80828D01*
X275779Y80828D02*
X275780Y80828D01*
X275777Y80827D02*
X275779Y80828D01*
X275776Y80827D02*
X275777Y80827D01*
X275774Y80827D02*
X275776Y80827D01*
X275773Y80826D02*
X275774Y80827D01*
X275771Y80826D02*
X275773Y80826D01*
X275769Y80826D02*
X275771Y80826D01*
X275768Y80825D02*
X275769Y80826D01*
X275766Y80825D02*
X275768Y80825D01*
X275765Y80825D02*
X275766Y80825D01*
X275764Y80824D02*
X275765Y80825D01*
X275762Y80824D02*
X275764Y80824D01*
X275761Y80823D02*
X275762Y80824D01*
X275759Y80823D02*
X275761Y80823D01*
X275758Y80823D02*
X275759Y80823D01*
X275756Y80822D02*
X275758Y80823D01*
X275755Y80822D02*
X275756Y80822D01*
X275753Y80822D02*
X275755Y80822D01*
X275752Y80821D02*
X275753Y80822D01*
X275750Y80821D02*
X275752Y80821D01*
X275749Y80821D02*
X275750Y80821D01*
X275747Y80820D02*
X275749Y80821D01*
X275746Y80820D02*
X275747Y80820D01*
X275744Y80819D02*
X275746Y80820D01*
X275743Y80819D02*
X275744Y80819D01*
X275741Y80818D02*
X275743Y80819D01*
X275738Y80818D02*
X275741Y80818D01*
X275735Y80817D02*
X275738Y80818D01*
X275732Y80816D02*
X275735Y80817D01*
X275730Y80815D02*
X275732Y80816D01*
X275727Y80814D02*
X275730Y80815D01*
X275724Y80813D02*
X275727Y80814D01*
X275721Y80812D02*
X275724Y80813D01*
X275718Y80811D02*
X275721Y80812D01*
X275715Y80810D02*
X275718Y80811D01*
X275712Y80809D02*
X275715Y80810D01*
X275709Y80808D02*
X275712Y80809D01*
X275705Y80806D02*
X275709Y80808D01*
X275699Y80804D02*
X275705Y80806D01*
X275694Y80802D02*
X275699Y80804D01*
X275688Y80800D02*
X275694Y80802D01*
X275683Y80797D02*
X275688Y80800D01*
X275677Y80794D02*
X275683Y80797D01*
X275672Y80792D02*
X275677Y80794D01*
X275666Y80789D02*
X275672Y80792D01*
X275660Y80786D02*
X275666Y80789D01*
X275655Y80783D02*
X275660Y80786D01*
X275650Y80780D02*
X275655Y80783D01*
X275644Y80777D02*
X275650Y80780D01*
X275639Y80774D02*
X275644Y80777D01*
X275634Y80770D02*
X275639Y80774D01*
X275629Y80767D02*
X275634Y80770D01*
X275623Y80764D02*
X275629Y80767D01*
X275618Y80760D02*
X275623Y80764D01*
X275613Y80757D02*
X275618Y80760D01*
X275607Y80752D02*
X275613Y80757D01*
X275601Y80748D02*
X275607Y80752D01*
X275594Y80743D02*
X275601Y80748D01*
X275588Y80738D02*
X275594Y80743D01*
X275590Y79966D02*
X275596Y79961D01*
X275602Y79956D01*
X275608Y79952D01*
X275615Y79947D01*
X275620Y79944D01*
X275625Y79940D01*
X275630Y79937D01*
X275635Y79933D01*
X275640Y79930D01*
X275646Y79927D01*
X275651Y79924D01*
X275656Y79921D01*
X275662Y79918D01*
X275667Y79915D01*
X275673Y79912D01*
X275678Y79910D01*
X275684Y79907D01*
X275690Y79905D01*
X275695Y79902D01*
X275701Y79900D01*
X275707Y79898D01*
X275709Y79897D01*
X275712Y79896D01*
X275715Y79895D01*
X275718Y79893D01*
X275721Y79893D01*
X275724Y79892D01*
X275727Y79891D01*
X275730Y79890D01*
X275733Y79889D01*
X275735Y79888D01*
X275738Y79887D01*
X275740Y79887D01*
X275741Y79886D01*
X275743Y79886D01*
X275744Y79885D01*
X275746Y79885D01*
X275747Y79885D01*
X275749Y79884D01*
X275750Y79884D01*
X275752Y79883D01*
X275753Y79883D01*
X275755Y79883D01*
X275756Y79882D01*
X275758Y79882D01*
X275759Y79882D01*
X275761Y79881D01*
X275762Y79881D01*
X275764Y79880D01*
X275765Y79880D01*
X275766Y79880D01*
X275768Y79879D01*
X275769Y79879D01*
X275771Y79879D01*
X275773Y79878D01*
X275774Y79878D01*
X275776Y79878D01*
X275777Y79878D01*
X275779Y79877D01*
X275780Y79877D01*
X275781Y79877D01*
X275783Y79876D01*
X275784Y79876D01*
X275786Y79876D01*
X275787Y79875D01*
X275789Y79875D01*
X275791Y79875D01*
X275792Y79874D01*
X275794Y79874D01*
X275795Y79874D01*
X275797Y79874D01*
X275798Y79873D01*
X275800Y79873D01*
X275801Y79873D01*
X275803Y79873D01*
X275804Y79872D01*
X275806Y79872D01*
X275807Y79872D01*
X275809Y79872D01*
X275810Y79871D01*
X275812Y79871D01*
X275813Y79871D01*
X275815Y79871D01*
X275816Y79870D01*
X275818Y79870D01*
X275819Y79870D01*
X275821Y79870D01*
X275822Y79869D01*
X275824Y79869D01*
X275826Y79869D01*
X275827Y79869D01*
X275829Y79869D01*
X275830Y79868D01*
X275832Y79868D01*
X275833Y79868D01*
X275835Y79868D01*
X275836Y79867D01*
X275838Y79867D01*
X275839Y79867D01*
X275841Y79867D01*
X275842Y79867D01*
X275844Y79866D01*
X275846Y79866D01*
X275847Y79866D01*
X275849Y79866D01*
X275850Y79866D01*
X275852Y79865D01*
X275853Y79865D01*
X275855Y79865D01*
X275856Y79865D01*
X275858Y79865D01*
X275859Y79864D01*
X275861Y79864D01*
X275862Y79864D01*
X275864Y79864D01*
X275866Y79864D01*
X275867Y79864D01*
X275869Y79863D01*
X275870Y79863D01*
X275872Y79863D01*
X275873Y79863D01*
X275875Y79863D01*
X275876Y79862D01*
X275878Y79862D01*
X275879Y79862D01*
X275881Y79862D01*
X275883Y79862D01*
X275884Y79861D01*
X275886Y79861D01*
X275887Y79861D01*
X275889Y79861D01*
X275890Y79861D01*
X275892Y79861D01*
X275895Y79860D01*
Y80844D02*
Y81238D01*
X275886Y83305D02*
X275895Y83305D01*
X275876Y83304D02*
X275886Y83305D01*
X275867Y83303D02*
X275876Y83304D01*
X275858Y83303D02*
X275867Y83303D01*
X275849Y83302D02*
X275858Y83303D01*
X275839Y83302D02*
X275849Y83302D01*
X275830Y83301D02*
X275839Y83302D01*
X275821Y83301D02*
X275830Y83301D01*
X275811Y83300D02*
X275821Y83301D01*
X275802Y83300D02*
X275811Y83300D01*
X275793Y83299D02*
X275802Y83300D01*
X275784Y83299D02*
X275793Y83299D01*
X275774Y83298D02*
X275784Y83299D01*
X275765Y83297D02*
X275774Y83298D01*
X275756Y83297D02*
X275765Y83297D01*
X275746Y83296D02*
X275756Y83297D01*
X275737Y83296D02*
X275746Y83296D01*
X275728Y83295D02*
X275737Y83296D01*
X275719Y83294D02*
X275728Y83295D01*
X275710Y83294D02*
X275719Y83294D01*
X275700Y83293D02*
X275710Y83294D01*
X275691Y83293D02*
X275700Y83293D01*
X275682Y83292D02*
X275691Y83293D01*
X275673Y83291D02*
X275682Y83292D01*
X275663Y83290D02*
X275673Y83291D01*
X275654Y83290D02*
X275663Y83290D01*
X275645Y83289D02*
X275654Y83290D01*
X275636Y83288D02*
X275645Y83289D01*
X275626Y83288D02*
X275636Y83288D01*
X275617Y83287D02*
X275626Y83288D01*
X275608Y83286D02*
X275617Y83287D01*
X275599Y83285D02*
X275608Y83286D01*
X275589Y83284D02*
X275599Y83285D01*
X275580Y83283D02*
X275589Y83284D01*
X275571Y83283D02*
X275580Y83283D01*
X275562Y83282D02*
X275571Y83283D01*
X275552Y83281D02*
X275562Y83282D01*
X275543Y83280D02*
X275552Y83281D01*
X275534Y83279D02*
X275543Y83280D01*
X275525Y83278D02*
X275534Y83279D01*
X275516Y83277D02*
X275525Y83278D01*
X275506Y83276D02*
X275516Y83277D01*
X275497Y83275D02*
X275506Y83276D01*
X275488Y83274D02*
X275497Y83275D01*
X275479Y83272D02*
X275488Y83274D01*
X275470Y83271D02*
X275479Y83272D01*
X275461Y83270D02*
X275470Y83271D01*
X275451Y83269D02*
X275461Y83270D01*
X275442Y83268D02*
X275451Y83269D01*
X275433Y83267D02*
X275442Y83268D01*
X275424Y83265D02*
X275433Y83267D01*
X275415Y83264D02*
X275424Y83265D01*
X275406Y83263D02*
X275415Y83264D01*
X275396Y83261D02*
X275406Y83263D01*
X275387Y83260D02*
X275396Y83261D01*
X275378Y83258D02*
X275387Y83260D01*
X275369Y83257D02*
X275378Y83258D01*
X275360Y83255D02*
X275369Y83257D01*
X275351Y83254D02*
X275360Y83255D01*
X275342Y83252D02*
X275351Y83254D01*
X275332Y83251D02*
X275342Y83252D01*
X275305Y83246D02*
X275332Y83251D01*
X275278Y83240D02*
X275305Y83246D01*
X275251Y83235D02*
X275278Y83240D01*
X275224Y83229D02*
X275251Y83235D01*
X275206Y83225D02*
X275224Y83229D01*
X275188Y83220D02*
X275206Y83225D01*
X275169Y83216D02*
X275188Y83220D01*
X275152Y83211D02*
X275169Y83216D01*
X275134Y83207D02*
X275152Y83211D01*
X275116Y83202D02*
X275134Y83207D01*
X275098Y83197D02*
X275116Y83202D01*
X275080Y83192D02*
X275098Y83197D01*
X275062Y83187D02*
X275080Y83192D01*
X275044Y83181D02*
X275062Y83187D01*
X275027Y83176D02*
X275044Y83181D01*
X275009Y83170D02*
X275027Y83176D01*
X274991Y83165D02*
X275009Y83170D01*
X274974Y83159D02*
X274991Y83165D01*
X274956Y83153D02*
X274974Y83159D01*
X274939Y83147D02*
X274956Y83153D01*
X274921Y83141D02*
X274939Y83147D01*
X274903Y83134D02*
X274921Y83141D01*
X274877Y83125D02*
X274903Y83134D01*
X274851Y83115D02*
X274877Y83125D01*
X274825Y83105D02*
X274851Y83115D01*
X274799Y83095D02*
X274825Y83105D01*
X274782Y77617D02*
X274808Y77607D01*
X274834Y77596D01*
X274860Y77587D01*
X274886Y77577D01*
X274912Y77567D01*
X274939Y77558D01*
X274956Y77552D01*
X274974Y77546D01*
X274991Y77540D01*
X275009Y77534D01*
X275027Y77529D01*
X275044Y77523D01*
X275062Y77518D01*
X275080Y77513D01*
X275098Y77508D01*
X275116Y77503D01*
X275134Y77498D01*
X275152Y77493D01*
X275170Y77489D01*
X275197Y77482D01*
X275224Y77476D01*
X275251Y77470D01*
X275278Y77464D01*
X275323Y77456D02*
X275332Y77454D01*
X275342Y77452D01*
X275351Y77451D01*
X275360Y77449D01*
X275369Y77448D01*
X275378Y77446D01*
X275387Y77445D01*
X275396Y77443D01*
X275406Y77442D01*
X275415Y77441D01*
X275424Y77439D01*
X275433Y77438D01*
X275442Y77437D01*
X275451Y77436D01*
X275461Y77434D01*
X275470Y77433D01*
X275479Y77432D01*
X275488Y77431D01*
X275497Y77430D01*
X275506Y77429D01*
X275516Y77428D01*
X275525Y77427D01*
X275534Y77426D01*
X275543Y77425D01*
X275552Y77424D01*
X275562Y77423D01*
X275571Y77422D01*
X275580Y77421D01*
X275589Y77421D01*
X275599Y77420D01*
X275608Y77419D01*
X275617Y77418D01*
X275626Y77417D01*
X275636Y77416D01*
X275645Y77416D01*
X275654Y77415D01*
X275663Y77414D01*
X275673Y77414D01*
X275682Y77413D01*
X275691Y77412D01*
X275700Y77412D01*
X275710Y77411D01*
X275719Y77410D01*
X275728Y77410D01*
X275737Y77409D01*
X275746Y77408D01*
X275756Y77408D01*
X275765Y77407D01*
X275774Y77407D01*
X275784Y77406D01*
X275793Y77406D01*
X275802Y77405D01*
X275811Y77404D01*
X275821Y77404D01*
X275830Y77403D01*
X275839Y77403D01*
X275849Y77402D01*
X275858Y77402D01*
X275867Y77401D01*
X275876Y77401D01*
X275895Y77400D01*
Y77557D01*
Y77400D02*
X275904Y77400D01*
X275913Y77401D01*
X275923Y77401D01*
X275932Y77402D01*
X275941Y77402D01*
X275951Y77403D01*
X275960Y77403D01*
X275969Y77404D01*
X275978Y77404D01*
X275988Y77405D01*
X275997Y77406D01*
X276006Y77406D01*
X276015Y77407D01*
X276025Y77407D01*
X276034Y77408D01*
X276043Y77408D01*
X276052Y77409D01*
X276062Y77410D01*
X276071Y77410D01*
X276080Y77411D01*
X276090Y77412D01*
X276099Y77412D01*
X276108Y77413D01*
X276117Y77414D01*
X276127Y77414D01*
X276136Y77415D01*
X276145Y77416D01*
X276154Y77416D01*
X276164Y77417D01*
X276173Y77418D01*
X276182Y77419D01*
X276191Y77420D01*
X276201Y77421D01*
X276210Y77421D01*
X276219Y77422D01*
X276228Y77423D01*
X276237Y77424D01*
X276247Y77425D01*
X276256Y77426D01*
X276265Y77427D01*
X276274Y77428D01*
X276283Y77429D01*
X276293Y77430D01*
X276302Y77431D01*
X276311Y77432D01*
X276320Y77433D01*
X276329Y77434D01*
X276339Y77436D01*
X276348Y77437D01*
X276357Y77438D01*
X276366Y77439D01*
X276375Y77441D01*
X276384Y77442D01*
X276393Y77443D01*
X276403Y77445D01*
X276412Y77446D01*
X276421Y77448D01*
X276430Y77449D01*
X276439Y77451D01*
X276448Y77452D01*
X276457Y77454D01*
X276494Y77461D01*
X276521Y77466D01*
X276548Y77472D01*
X276575Y77478D01*
X276593Y77482D01*
X276611Y77486D01*
X276629Y77491D01*
X276647Y77496D01*
X276665Y77500D01*
X276683Y77505D01*
X276701Y77510D01*
X276719Y77515D01*
X276736Y77521D01*
X276754Y77526D01*
X276772Y77532D01*
X276790Y77537D01*
X276807Y77543D01*
X276825Y77549D01*
X276842Y77555D01*
X276860Y77561D01*
X276878Y77567D01*
X276895Y77574D01*
X276921Y77583D01*
X276947Y77593D01*
X276973Y77603D01*
X276999Y77614D01*
X277042Y77632D01*
X276991Y83095D02*
X277016Y83084D01*
X276965Y83105D02*
X276991Y83095D01*
X276939Y83115D02*
X276965Y83105D01*
X276912Y83125D02*
X276939Y83115D01*
X276886Y83135D02*
X276912Y83125D01*
X276860Y83144D02*
X276886Y83135D01*
X276834Y83153D02*
X276860Y83144D01*
X276816Y83159D02*
X276834Y83153D01*
X276799Y83165D02*
X276816Y83159D01*
X276781Y83170D02*
X276799Y83165D01*
X276763Y83176D02*
X276781Y83170D01*
X276745Y83181D02*
X276763Y83176D01*
X276728Y83187D02*
X276745Y83181D01*
X276710Y83192D02*
X276728Y83187D01*
X276692Y83197D02*
X276710Y83192D01*
X276674Y83202D02*
X276692Y83197D01*
X276656Y83207D02*
X276674Y83202D01*
X276638Y83211D02*
X276656Y83207D01*
X276620Y83216D02*
X276638Y83211D01*
X276593Y83223D02*
X276620Y83216D01*
X276566Y83229D02*
X276593Y83223D01*
X276539Y83235D02*
X276566Y83229D01*
X276512Y83240D02*
X276539Y83235D01*
X276457Y83251D02*
X276466Y83249D01*
X276448Y83252D02*
X276457Y83251D01*
X276439Y83254D02*
X276448Y83252D01*
X276430Y83255D02*
X276439Y83254D01*
X276421Y83257D02*
X276430Y83255D01*
X276412Y83258D02*
X276421Y83257D01*
X276403Y83260D02*
X276412Y83258D01*
X276393Y83261D02*
X276403Y83260D01*
X276384Y83263D02*
X276393Y83261D01*
X276375Y83264D02*
X276384Y83263D01*
X276366Y83265D02*
X276375Y83264D01*
X276357Y83267D02*
X276366Y83265D01*
X276348Y83268D02*
X276357Y83267D01*
X276339Y83269D02*
X276348Y83268D01*
X276329Y83270D02*
X276339Y83269D01*
X276320Y83271D02*
X276329Y83270D01*
X276311Y83272D02*
X276320Y83271D01*
X276302Y83274D02*
X276311Y83272D01*
X276293Y83275D02*
X276302Y83274D01*
X276283Y83276D02*
X276293Y83275D01*
X276274Y83277D02*
X276283Y83276D01*
X276265Y83278D02*
X276274Y83277D01*
X276256Y83279D02*
X276265Y83278D01*
X276247Y83280D02*
X276256Y83279D01*
X276237Y83281D02*
X276247Y83280D01*
X276228Y83282D02*
X276237Y83281D01*
X276219Y83283D02*
X276228Y83282D01*
X276210Y83283D02*
X276219Y83283D01*
X276201Y83284D02*
X276210Y83283D01*
X276191Y83285D02*
X276201Y83284D01*
X276182Y83286D02*
X276191Y83285D01*
X276173Y83287D02*
X276182Y83286D01*
X276164Y83288D02*
X276173Y83287D01*
X276154Y83288D02*
X276164Y83288D01*
X276145Y83289D02*
X276154Y83288D01*
X276136Y83290D02*
X276145Y83289D01*
X276127Y83290D02*
X276136Y83290D01*
X276117Y83291D02*
X276127Y83290D01*
X276108Y83292D02*
X276117Y83291D01*
X276099Y83293D02*
X276108Y83292D01*
X276090Y83293D02*
X276099Y83293D01*
X276080Y83294D02*
X276090Y83293D01*
X276071Y83294D02*
X276080Y83294D01*
X276062Y83295D02*
X276071Y83294D01*
X276052Y83296D02*
X276062Y83295D01*
X276043Y83296D02*
X276052Y83296D01*
X276034Y83297D02*
X276043Y83296D01*
X276025Y83297D02*
X276034Y83297D01*
X276015Y83298D02*
X276025Y83297D01*
X276006Y83299D02*
X276015Y83298D01*
X275997Y83299D02*
X276006Y83299D01*
X275988Y83300D02*
X275997Y83299D01*
X275978Y83300D02*
X275988Y83300D01*
X275969Y83301D02*
X275978Y83300D01*
X275960Y83301D02*
X275969Y83301D01*
X275951Y83302D02*
X275960Y83301D01*
X275941Y83302D02*
X275951Y83302D01*
X275932Y83303D02*
X275941Y83302D01*
X275923Y83303D02*
X275932Y83303D01*
X275913Y83304D02*
X275923Y83303D01*
X275895Y83305D02*
X275913Y83304D01*
X275895Y83148D02*
Y83305D01*
Y77557D02*
X275904Y77558D01*
X275912Y77558D01*
X275921Y77559D01*
X275930Y77559D01*
X275939Y77560D01*
X275948Y77560D01*
X275956Y77561D01*
X275965Y77561D01*
X275974Y77562D01*
X275983Y77562D01*
X275992Y77563D01*
X276000Y77563D01*
X276009Y77564D01*
X276018Y77564D01*
X276027Y77565D01*
X276035Y77565D01*
X276044Y77566D01*
X276053Y77567D01*
X276062Y77567D01*
X276070Y77568D01*
X276079Y77568D01*
X276088Y77569D01*
X276097Y77570D01*
X276105Y77570D01*
X276114Y77571D01*
X276123Y77572D01*
X276132Y77572D01*
X276140Y77573D01*
X276149Y77574D01*
X276158Y77575D01*
X276167Y77575D01*
X276175Y77576D01*
X276184Y77577D01*
X276193Y77578D01*
X276202Y77579D01*
X276210Y77579D01*
X276219Y77580D01*
X276228Y77581D01*
X276237Y77582D01*
X276245Y77583D01*
X276254Y77584D01*
X276263Y77585D01*
X276271Y77586D01*
X276280Y77587D01*
X276289Y77588D01*
X276297Y77589D01*
X276306Y77590D01*
X276315Y77591D01*
X276324Y77592D01*
X276332Y77594D01*
X276341Y77595D01*
X276349Y77596D01*
X276358Y77597D01*
X276367Y77599D01*
X276376Y77600D01*
X276384Y77601D01*
X276393Y77603D01*
X276401Y77604D01*
X276410Y77605D01*
X276419Y77607D01*
X276427Y77609D01*
X276453Y77613D01*
X276479Y77618D01*
X276505Y77624D01*
X276530Y77629D01*
X276547Y77633D01*
X276565Y77637D01*
X276582Y77641D01*
X276599Y77646D01*
X276616Y77650D01*
X276632Y77655D01*
X276649Y77659D01*
X276666Y77664D01*
X276683Y77669D01*
X276700Y77674D01*
X276717Y77679D01*
X276734Y77685D01*
X276750Y77690D01*
X276767Y77696D01*
X276784Y77701D01*
X276800Y77707D01*
X276817Y77713D01*
X276834Y77719D01*
X276858Y77728D01*
X276883Y77737D01*
X276907Y77747D01*
X276932Y77757D01*
X276924Y82951D02*
X276948Y82942D01*
X276899Y82961D02*
X276924Y82951D01*
X276875Y82971D02*
X276899Y82961D01*
X276850Y82980D02*
X276875Y82971D01*
X276825Y82989D02*
X276850Y82980D01*
X276800Y82998D02*
X276825Y82989D01*
X276784Y83004D02*
X276800Y82998D01*
X276767Y83009D02*
X276784Y83004D01*
X276750Y83015D02*
X276767Y83009D01*
X276734Y83020D02*
X276750Y83015D01*
X276717Y83025D02*
X276734Y83020D01*
X276700Y83030D02*
X276717Y83025D01*
X276683Y83036D02*
X276700Y83030D01*
X276666Y83040D02*
X276683Y83036D01*
X276649Y83045D02*
X276666Y83040D01*
X276632Y83050D02*
X276649Y83045D01*
X276616Y83055D02*
X276632Y83050D01*
X276599Y83059D02*
X276616Y83055D01*
X276582Y83063D02*
X276599Y83059D01*
X276556Y83069D02*
X276582Y83063D01*
X276530Y83075D02*
X276556Y83069D01*
X276505Y83081D02*
X276530Y83075D01*
X276479Y83087D02*
X276505Y83081D01*
X276427Y83096D02*
X276436Y83095D01*
X276419Y83098D02*
X276427Y83096D01*
X276410Y83099D02*
X276419Y83098D01*
X276401Y83101D02*
X276410Y83099D01*
X276393Y83102D02*
X276401Y83101D01*
X276384Y83104D02*
X276393Y83102D01*
X276376Y83105D02*
X276384Y83104D01*
X276367Y83106D02*
X276376Y83105D01*
X276358Y83107D02*
X276367Y83106D01*
X276349Y83109D02*
X276358Y83107D01*
X276341Y83110D02*
X276349Y83109D01*
X276332Y83111D02*
X276341Y83110D01*
X276324Y83112D02*
X276332Y83111D01*
X276315Y83113D02*
X276324Y83112D01*
X276306Y83115D02*
X276315Y83113D01*
X276297Y83116D02*
X276306Y83115D01*
X276289Y83117D02*
X276297Y83116D01*
X276280Y83118D02*
X276289Y83117D01*
X276271Y83119D02*
X276280Y83118D01*
X276263Y83120D02*
X276271Y83119D01*
X276254Y83121D02*
X276263Y83120D01*
X276245Y83122D02*
X276254Y83121D01*
X276237Y83123D02*
X276245Y83122D01*
X276228Y83124D02*
X276237Y83123D01*
X276219Y83125D02*
X276228Y83124D01*
X276210Y83125D02*
X276219Y83125D01*
X276202Y83126D02*
X276210Y83125D01*
X276193Y83127D02*
X276202Y83126D01*
X276184Y83128D02*
X276193Y83127D01*
X276175Y83129D02*
X276184Y83128D01*
X276167Y83129D02*
X276175Y83129D01*
X276158Y83130D02*
X276167Y83129D01*
X276149Y83131D02*
X276158Y83130D01*
X276140Y83132D02*
X276149Y83131D01*
X276132Y83132D02*
X276140Y83132D01*
X276123Y83133D02*
X276132Y83132D01*
X276114Y83134D02*
X276123Y83133D01*
X276105Y83134D02*
X276114Y83134D01*
X276097Y83135D02*
X276105Y83134D01*
X276088Y83136D02*
X276097Y83135D01*
X276079Y83136D02*
X276088Y83136D01*
X276070Y83137D02*
X276079Y83136D01*
X276062Y83138D02*
X276070Y83137D01*
X276053Y83138D02*
X276062Y83138D01*
X276044Y83139D02*
X276053Y83138D01*
X276035Y83139D02*
X276044Y83139D01*
X276027Y83140D02*
X276035Y83139D01*
X276018Y83140D02*
X276027Y83140D01*
X276009Y83141D02*
X276018Y83140D01*
X276000Y83141D02*
X276009Y83141D01*
X275992Y83142D02*
X276000Y83141D01*
X275983Y83143D02*
X275992Y83142D01*
X275974Y83143D02*
X275983Y83143D01*
X275965Y83144D02*
X275974Y83143D01*
X275956Y83144D02*
X275965Y83144D01*
X275948Y83145D02*
X275956Y83144D01*
X275939Y83145D02*
X275948Y83145D01*
X275930Y83146D02*
X275939Y83145D01*
X275921Y83146D02*
X275930Y83146D01*
X275912Y83147D02*
X275921Y83146D01*
X275895Y83148D02*
X275912Y83147D01*
X275886Y83147D02*
X275895Y83148D01*
X275877Y83147D02*
X275886Y83147D01*
X275869Y83146D02*
X275877Y83147D01*
X275860Y83146D02*
X275869Y83146D01*
X275851Y83145D02*
X275860Y83146D01*
X275842Y83145D02*
X275851Y83145D01*
X275833Y83144D02*
X275842Y83145D01*
X275825Y83144D02*
X275833Y83144D01*
X275816Y83143D02*
X275825Y83144D01*
X275807Y83143D02*
X275816Y83143D01*
X275798Y83142D02*
X275807Y83143D01*
X275789Y83141D02*
X275798Y83142D01*
X275781Y83141D02*
X275789Y83141D01*
X275772Y83140D02*
X275781Y83141D01*
X275763Y83140D02*
X275772Y83140D01*
X275754Y83139D02*
X275763Y83140D01*
X275746Y83139D02*
X275754Y83139D01*
X275737Y83138D02*
X275746Y83139D01*
X275728Y83138D02*
X275737Y83138D01*
X275719Y83137D02*
X275728Y83138D01*
X275711Y83136D02*
X275719Y83137D01*
X275702Y83136D02*
X275711Y83136D01*
X275693Y83135D02*
X275702Y83136D01*
X275684Y83134D02*
X275693Y83135D01*
X275676Y83134D02*
X275684Y83134D01*
X275667Y83133D02*
X275676Y83134D01*
X275658Y83132D02*
X275667Y83133D01*
X275649Y83132D02*
X275658Y83132D01*
X275641Y83131D02*
X275649Y83132D01*
X275632Y83130D02*
X275641Y83131D01*
X275623Y83129D02*
X275632Y83130D01*
X275614Y83129D02*
X275623Y83129D01*
X275606Y83128D02*
X275614Y83129D01*
X275597Y83127D02*
X275606Y83128D01*
X275588Y83126D02*
X275597Y83127D01*
X275579Y83125D02*
X275588Y83126D01*
X275571Y83125D02*
X275579Y83125D01*
X275562Y83124D02*
X275571Y83125D01*
X275553Y83123D02*
X275562Y83124D01*
X275545Y83122D02*
X275553Y83123D01*
X275536Y83121D02*
X275545Y83122D01*
X275527Y83120D02*
X275536Y83121D01*
X275518Y83119D02*
X275527Y83120D01*
X275510Y83118D02*
X275518Y83119D01*
X275501Y83117D02*
X275510Y83118D01*
X275492Y83116D02*
X275501Y83117D01*
X275484Y83115D02*
X275492Y83116D01*
X275475Y83113D02*
X275484Y83115D01*
X275466Y83112D02*
X275475Y83113D01*
X275458Y83111D02*
X275466Y83112D01*
X275449Y83110D02*
X275458Y83111D01*
X275440Y83109D02*
X275449Y83110D01*
X275432Y83107D02*
X275440Y83109D01*
X275423Y83106D02*
X275432Y83107D01*
X275414Y83105D02*
X275423Y83106D01*
X275406Y83104D02*
X275414Y83105D01*
X275397Y83102D02*
X275406Y83104D01*
X275388Y83101D02*
X275397Y83102D01*
X275380Y83099D02*
X275388Y83101D01*
X275371Y83098D02*
X275380Y83099D01*
X275362Y83096D02*
X275371Y83098D01*
X275337Y83091D02*
X275362Y83096D01*
X275311Y83087D02*
X275337Y83091D01*
X275285Y83081D02*
X275311Y83087D01*
X275259Y83075D02*
X275285Y83081D01*
X275242Y83072D02*
X275259Y83075D01*
X275225Y83068D02*
X275242Y83072D01*
X275208Y83063D02*
X275225Y83068D01*
X275191Y83059D02*
X275208Y83063D01*
X275174Y83055D02*
X275191Y83059D01*
X275157Y83050D02*
X275174Y83055D01*
X275140Y83045D02*
X275157Y83050D01*
X275124Y83040D02*
X275140Y83045D01*
X275107Y83036D02*
X275124Y83040D01*
X275090Y83030D02*
X275107Y83036D01*
X275073Y83025D02*
X275090Y83030D01*
X275056Y83020D02*
X275073Y83025D01*
X275039Y83015D02*
X275056Y83020D01*
X275023Y83009D02*
X275039Y83015D01*
X275006Y83004D02*
X275023Y83009D01*
X274989Y82998D02*
X275006Y83004D01*
X274973Y82992D02*
X274989Y82998D01*
X274956Y82986D02*
X274973Y82992D01*
X274932Y82977D02*
X274956Y82986D01*
X274907Y82968D02*
X274932Y82977D01*
X274882Y82958D02*
X274907Y82968D01*
X274858Y82948D02*
X274882Y82958D01*
X274841Y77763D02*
X274866Y77753D01*
X274890Y77744D01*
X274915Y77734D01*
X274940Y77725D01*
X274965Y77716D01*
X274989Y77707D01*
X275006Y77701D01*
X275023Y77696D01*
X275040Y77690D01*
X275056Y77685D01*
X275073Y77679D01*
X275090Y77674D01*
X275107Y77669D01*
X275124Y77664D01*
X275140Y77659D01*
X275157Y77655D01*
X275174Y77650D01*
X275191Y77646D01*
X275208Y77641D01*
X275234Y77635D01*
X275259Y77629D01*
X275285Y77624D01*
X275311Y77618D01*
X275354Y77610D02*
X275362Y77609D01*
X275371Y77607D01*
X275380Y77605D01*
X275388Y77604D01*
X275397Y77603D01*
X275406Y77601D01*
X275414Y77600D01*
X275423Y77599D01*
X275432Y77597D01*
X275440Y77596D01*
X275449Y77595D01*
X275458Y77594D01*
X275466Y77592D01*
X275475Y77591D01*
X275484Y77590D01*
X275492Y77589D01*
X275501Y77588D01*
X275510Y77587D01*
X275518Y77586D01*
X275527Y77585D01*
X275536Y77584D01*
X275545Y77583D01*
X275553Y77582D01*
X275562Y77581D01*
X275571Y77580D01*
X275579Y77579D01*
X275588Y77579D01*
X275597Y77578D01*
X275606Y77577D01*
X275614Y77576D01*
X275623Y77575D01*
X275632Y77575D01*
X275641Y77574D01*
X275649Y77573D01*
X275658Y77572D01*
X275667Y77572D01*
X275676Y77571D01*
X275684Y77570D01*
X275693Y77570D01*
X275702Y77569D01*
X275711Y77568D01*
X275719Y77568D01*
X275728Y77567D01*
X275737Y77567D01*
X275746Y77566D01*
X275754Y77565D01*
X275763Y77565D01*
X275772Y77564D01*
X275781Y77564D01*
X275789Y77563D01*
X275798Y77563D01*
X275807Y77562D01*
X275816Y77562D01*
X275825Y77561D01*
X275833Y77561D01*
X275842Y77560D01*
X275851Y77560D01*
X275860Y77559D01*
X275869Y77559D01*
X275877Y77558D01*
X275895Y77557D01*
X275887Y77873D02*
X275895Y77872D01*
X275879Y77873D02*
X275887Y77873D01*
X275871Y77873D02*
X275879Y77873D01*
X275864Y77874D02*
X275871Y77873D01*
X275856Y77874D02*
X275864Y77874D01*
X275848Y77875D02*
X275856Y77874D01*
X275840Y77875D02*
X275848Y77875D01*
X275833Y77876D02*
X275840Y77875D01*
X275825Y77876D02*
X275833Y77876D01*
X275817Y77877D02*
X275825Y77876D01*
X275809Y77877D02*
X275817Y77877D01*
X275801Y77877D02*
X275809Y77877D01*
X275794Y77878D02*
X275801Y77877D01*
X275786Y77878D02*
X275794Y77878D01*
X275778Y77879D02*
X275786Y77878D01*
X275770Y77880D02*
X275778Y77879D01*
X275763Y77880D02*
X275770Y77880D01*
X275755Y77881D02*
X275763Y77880D01*
X275747Y77881D02*
X275755Y77881D01*
X275739Y77882D02*
X275747Y77881D01*
X275731Y77882D02*
X275739Y77882D01*
X275724Y77883D02*
X275731Y77882D01*
X275716Y77883D02*
X275724Y77883D01*
X275708Y77884D02*
X275716Y77883D01*
X275700Y77884D02*
X275708Y77884D01*
X275693Y77885D02*
X275700Y77884D01*
X275685Y77886D02*
X275693Y77885D01*
X275677Y77886D02*
X275685Y77886D01*
X275669Y77887D02*
X275677Y77886D01*
X275661Y77887D02*
X275669Y77887D01*
X275654Y77888D02*
X275661Y77887D01*
X275646Y77889D02*
X275654Y77888D01*
X275638Y77890D02*
X275646Y77889D01*
X275630Y77890D02*
X275638Y77890D01*
X275623Y77891D02*
X275630Y77890D01*
X275615Y77892D02*
X275623Y77891D01*
X275607Y77893D02*
X275615Y77892D01*
X275600Y77893D02*
X275607Y77893D01*
X275592Y77894D02*
X275600Y77893D01*
X275584Y77895D02*
X275592Y77894D01*
X275576Y77896D02*
X275584Y77895D01*
X275569Y77897D02*
X275576Y77896D01*
X275561Y77898D02*
X275569Y77897D01*
X275553Y77899D02*
X275561Y77898D01*
X275545Y77899D02*
X275553Y77899D01*
X275538Y77900D02*
X275545Y77899D01*
X275530Y77901D02*
X275538Y77900D01*
X275522Y77902D02*
X275530Y77901D01*
X275515Y77903D02*
X275522Y77902D01*
X275507Y77904D02*
X275515Y77903D01*
X275499Y77905D02*
X275507Y77904D01*
X275491Y77907D02*
X275499Y77905D01*
X275484Y77908D02*
X275491Y77907D01*
X275476Y77909D02*
X275484Y77908D01*
X275468Y77910D02*
X275476Y77909D01*
X275461Y77911D02*
X275468Y77910D01*
X275453Y77912D02*
X275461Y77911D01*
X275445Y77914D02*
X275453Y77912D01*
X275438Y77915D02*
X275445Y77914D01*
X275430Y77916D02*
X275438Y77915D01*
X275423Y77918D02*
X275430Y77916D01*
X275392Y77923D02*
X275423Y77918D01*
X275369Y77928D02*
X275392Y77923D01*
X275346Y77933D02*
X275369Y77928D01*
X275324Y77938D02*
X275346Y77933D01*
X275308Y77941D02*
X275324Y77938D01*
X275293Y77945D02*
X275308Y77941D01*
X275278Y77949D02*
X275293Y77945D01*
X275263Y77953D02*
X275278Y77949D01*
X275248Y77957D02*
X275263Y77953D01*
X275233Y77961D02*
X275248Y77957D01*
X275218Y77965D02*
X275233Y77961D01*
X275203Y77969D02*
X275218Y77965D01*
X275188Y77974D02*
X275203Y77969D01*
X275173Y77978D02*
X275188Y77974D01*
X275158Y77983D02*
X275173Y77978D01*
X275143Y77988D02*
X275158Y77983D01*
X275128Y77992D02*
X275143Y77988D01*
X275114Y77997D02*
X275128Y77992D01*
X275099Y78002D02*
X275114Y77997D01*
X275084Y78008D02*
X275099Y78002D01*
X275069Y78013D02*
X275084Y78008D01*
X275055Y78018D02*
X275069Y78013D01*
X275033Y78026D02*
X275055Y78018D01*
X275011Y78035D02*
X275033Y78026D01*
X274989Y78043D02*
X275011Y78035D01*
X274967Y78052D02*
X274989Y78043D01*
X274931Y78067D02*
X274967Y78052D01*
X274953Y82647D02*
X274975Y82656D01*
X274996Y82664D01*
X275018Y82673D01*
X275040Y82681D01*
X275062Y82689D01*
X275084Y82697D01*
X275106Y82705D01*
X275121Y82710D01*
X275136Y82715D01*
X275151Y82719D01*
X275166Y82724D01*
X275181Y82729D01*
X275195Y82733D01*
X275210Y82738D01*
X275225Y82742D01*
X275240Y82746D01*
X275255Y82750D01*
X275271Y82754D01*
X275286Y82758D01*
X275308Y82763D01*
X275331Y82769D01*
X275354Y82774D01*
X275377Y82778D01*
X275415Y82786D02*
X275423Y82787D01*
X275430Y82788D01*
X275438Y82790D01*
X275445Y82791D01*
X275453Y82792D01*
X275461Y82793D01*
X275468Y82795D01*
X275476Y82796D01*
X275484Y82797D01*
X275491Y82798D01*
X275499Y82799D01*
X275507Y82800D01*
X275515Y82801D01*
X275522Y82802D01*
X275530Y82803D01*
X275538Y82804D01*
X275545Y82805D01*
X275553Y82806D01*
X275561Y82807D01*
X275569Y82808D01*
X275576Y82809D01*
X275584Y82810D01*
X275592Y82811D01*
X275600Y82811D01*
X275607Y82812D01*
X275615Y82813D01*
X275623Y82814D01*
X275630Y82814D01*
X275638Y82815D01*
X275646Y82816D01*
X275654Y82816D01*
X275661Y82817D01*
X275669Y82818D01*
X275677Y82819D01*
X275685Y82819D01*
X275693Y82820D01*
X275700Y82820D01*
X275708Y82821D01*
X275716Y82822D01*
X275724Y82822D01*
X275731Y82823D01*
X275739Y82823D01*
X275747Y82824D01*
X275755Y82824D01*
X275763Y82825D01*
X275770Y82825D01*
X275778Y82826D01*
X275786Y82826D01*
X275794Y82827D01*
X275801Y82827D01*
X275809Y82828D01*
X275817Y82828D01*
X275825Y82829D01*
X275833Y82829D01*
X275840Y82829D01*
X275848Y82830D01*
X275856Y82830D01*
X275864Y82831D01*
X275871Y82831D01*
X275879Y82832D01*
X275895Y82833D01*
X275903Y82832D01*
X275910Y82832D01*
X275918Y82831D01*
X275926Y82831D01*
X275934Y82830D01*
X275942Y82830D01*
X275949Y82829D01*
X275957Y82829D01*
X275965Y82829D01*
X275973Y82828D01*
X275981Y82828D01*
X275988Y82827D01*
X275996Y82827D01*
X276004Y82826D01*
X276012Y82826D01*
X276020Y82825D01*
X276027Y82825D01*
X276035Y82824D01*
X276043Y82824D01*
X276051Y82823D01*
X276058Y82823D01*
X276066Y82822D01*
X276074Y82822D01*
X276082Y82821D01*
X276090Y82820D01*
X276097Y82820D01*
X276105Y82819D01*
X276113Y82819D01*
X276120Y82818D01*
X276128Y82817D01*
X276136Y82816D01*
X276144Y82816D01*
X276152Y82815D01*
X276159Y82814D01*
X276167Y82814D01*
X276175Y82813D01*
X276183Y82812D01*
X276190Y82811D01*
X276198Y82810D01*
X276206Y82810D01*
X276214Y82809D01*
X276221Y82808D01*
X276229Y82807D01*
X276237Y82806D01*
X276244Y82805D01*
X276252Y82804D01*
X276260Y82803D01*
X276268Y82802D01*
X276275Y82801D01*
X276283Y82800D01*
X276291Y82799D01*
X276298Y82798D01*
X276306Y82797D01*
X276314Y82796D01*
X276321Y82795D01*
X276329Y82793D01*
X276337Y82792D01*
X276344Y82791D01*
X276352Y82790D01*
X276360Y82788D01*
X276367Y82787D01*
X276390Y82783D01*
X276413Y82778D01*
X276436Y82774D01*
X276459Y82769D01*
X276474Y82765D01*
X276489Y82762D01*
X276504Y82758D01*
X276519Y82754D01*
X276534Y82750D01*
X276549Y82746D01*
X276564Y82742D01*
X276579Y82738D01*
X276594Y82733D01*
X276609Y82729D01*
X276624Y82724D01*
X276639Y82719D01*
X276654Y82715D01*
X276669Y82710D01*
X276683Y82705D01*
X276698Y82700D01*
X276713Y82695D01*
X276728Y82689D01*
X276750Y82681D01*
X276772Y82673D01*
X276793Y82664D01*
X276815Y82656D01*
X276808Y78046D02*
X276830Y78055D01*
X276786Y78037D02*
X276808Y78046D01*
X276764Y78029D02*
X276786Y78037D01*
X276742Y78021D02*
X276764Y78029D01*
X276720Y78013D02*
X276742Y78021D01*
X276698Y78005D02*
X276720Y78013D01*
X276683Y78000D02*
X276698Y78005D01*
X276669Y77995D02*
X276683Y78000D01*
X276654Y77990D02*
X276669Y77995D01*
X276639Y77985D02*
X276654Y77990D01*
X276624Y77981D02*
X276639Y77985D01*
X276609Y77976D02*
X276624Y77981D01*
X276594Y77972D02*
X276609Y77976D01*
X276579Y77967D02*
X276594Y77972D01*
X276564Y77963D02*
X276579Y77967D01*
X276549Y77959D02*
X276564Y77963D01*
X276534Y77955D02*
X276549Y77959D01*
X276519Y77951D02*
X276534Y77955D01*
X276504Y77947D02*
X276519Y77951D01*
X276482Y77941D02*
X276504Y77947D01*
X276459Y77936D02*
X276482Y77941D01*
X276436Y77931D02*
X276459Y77936D01*
X276413Y77926D02*
X276436Y77931D01*
X276367Y77918D02*
X276375Y77919D01*
X276360Y77916D02*
X276367Y77918D01*
X276352Y77915D02*
X276360Y77916D01*
X276344Y77914D02*
X276352Y77915D01*
X276337Y77912D02*
X276344Y77914D01*
X276329Y77911D02*
X276337Y77912D01*
X276321Y77910D02*
X276329Y77911D01*
X276314Y77909D02*
X276321Y77910D01*
X276306Y77908D02*
X276314Y77909D01*
X276298Y77907D02*
X276306Y77908D01*
X276291Y77905D02*
X276298Y77907D01*
X276283Y77904D02*
X276291Y77905D01*
X276275Y77903D02*
X276283Y77904D01*
X276268Y77902D02*
X276275Y77903D01*
X276260Y77901D02*
X276268Y77902D01*
X276252Y77900D02*
X276260Y77901D01*
X276244Y77899D02*
X276252Y77900D01*
X276237Y77899D02*
X276244Y77899D01*
X276229Y77898D02*
X276237Y77899D01*
X276221Y77897D02*
X276229Y77898D01*
X276214Y77896D02*
X276221Y77897D01*
X276206Y77895D02*
X276214Y77896D01*
X276198Y77894D02*
X276206Y77895D01*
X276190Y77893D02*
X276198Y77894D01*
X276183Y77893D02*
X276190Y77893D01*
X276175Y77892D02*
X276183Y77893D01*
X276167Y77891D02*
X276175Y77892D01*
X276159Y77890D02*
X276167Y77891D01*
X276152Y77890D02*
X276159Y77890D01*
X276144Y77889D02*
X276152Y77890D01*
X276136Y77888D02*
X276144Y77889D01*
X276128Y77887D02*
X276136Y77888D01*
X276120Y77887D02*
X276128Y77887D01*
X276113Y77886D02*
X276120Y77887D01*
X276105Y77886D02*
X276113Y77886D01*
X276097Y77885D02*
X276105Y77886D01*
X276090Y77884D02*
X276097Y77885D01*
X276082Y77884D02*
X276090Y77884D01*
X276074Y77883D02*
X276082Y77884D01*
X276066Y77883D02*
X276074Y77883D01*
X276058Y77882D02*
X276066Y77883D01*
X276051Y77882D02*
X276058Y77882D01*
X276043Y77881D02*
X276051Y77882D01*
X276035Y77881D02*
X276043Y77881D01*
X276027Y77880D02*
X276035Y77881D01*
X276020Y77880D02*
X276027Y77880D01*
X276012Y77879D02*
X276020Y77880D01*
X276004Y77878D02*
X276012Y77879D01*
X275996Y77878D02*
X276004Y77878D01*
X275988Y77877D02*
X275996Y77878D01*
X275981Y77877D02*
X275988Y77877D01*
X275973Y77877D02*
X275981Y77877D01*
X275965Y77876D02*
X275973Y77877D01*
X275957Y77876D02*
X275965Y77876D01*
X275949Y77875D02*
X275957Y77876D01*
X275942Y77875D02*
X275949Y77875D01*
X275934Y77874D02*
X275942Y77875D01*
X275926Y77874D02*
X275934Y77874D01*
X275918Y77873D02*
X275926Y77874D01*
X275910Y77873D02*
X275918Y77873D01*
X275895Y77872D02*
X275910Y77873D01*
M02*
