M48
;Layer_Color=9474304
;FILE_FORMAT=2:5
INCH,LZ
;TYPE=PLATED
T1F00S00C0.00800
T2F00S00C0.02400
T3F00S00C0.03150
T4F00S00C0.04331
T5F00S00C0.06496
%
T01
X019989Y00415
X021539
X021629Y0047
X022869Y0046
X023359Y00461
X0241889Y0042564
X0239681Y0039191
X023939Y00335
X0124921Y00071
X007449Y00257
X002309Y00077
X000719Y0022
X002139Y0061
X002889Y006
X002639Y00985
X003089Y01035
X002839Y011
X011589Y01639
X014935Y0154
X015389Y01563
X019069Y01189
X019339Y0094
X019839
X020439
X020939
X021989Y0096
X023019
Y0099478
X023889Y0099
X024219Y01025
X023799Y01055
X024819Y01069
X025769
X025449Y01148
X024189
X023559
X023789Y01405
X026389Y01375
X026169Y013465
X026989Y01148
X026709Y00997
Y00924
Y00893
X026689Y0074
X026389
X027039
X027539
X028049
X028559
X025739
X025789Y00822
X025439
X025139
X024509
X023779Y00835
Y0074
X023249
X022599Y00735
X021879
X021639Y0085811
X023019Y00895
X0248192Y0074
X025139Y00668
X025449Y00639
X024509Y00614
X0248237Y0057653
X022269Y0156
X021199Y0154
T02
X020809Y00066
Y00116
Y00166
Y00216
T03
X004009Y00077
X005009Y00077
X006009
X007009Y00077
X008009Y00077
T04
X000739Y0063
Y0073
Y00925
Y01025
X008849Y0162
X009849
X016289Y0164
X017289
X018289
X019289
X020289
X023189
X024189
X025189
X026189
T05
X0018669Y0143
X0036779
X005489
M30
